<svg width="277" height="275" viewBox="0 0 277 275" fill="none" xmlns="http://www.w3.org/2000/svg">
<path d="M26.07 187.185H9.33459V194.113H26.07V187.185Z" fill="#EBEBEB"/>
<path d="M16.7354 195.92H0V202.847H16.7354V195.92Z" fill="#EBEBEB"/>
<path d="M134.471 54.2494H117.735V61.1766H134.471V54.2494Z" fill="#EBEBEB"/>
<path d="M125.13 62.9843H108.394V69.9115H125.13V62.9843Z" fill="#EBEBEB"/>
<path d="M115.833 54.2494H99.0976V61.1766H115.833V54.2494Z" fill="#EBEBEB"/>
<path d="M276.386 195.92H259.651V202.847H276.386V195.92Z" fill="#EBEBEB"/>
<path d="M267.052 0.670135H250.316V7.59737H267.052V0.670135Z" fill="#EBEBEB"/>
<path d="M276.386 9.405H259.651V16.3322H276.386V9.405Z" fill="#EBEBEB"/>
<path d="M26.07 0.670135H9.33459V7.59737H26.07V0.670135Z" fill="#EBEBEB"/>
<path d="M260.599 35.9563H159.378V40.2154H260.599V35.9563Z" fill="#EBEBEB"/>
<path d="M174.097 56.967H170.153L168.573 40.2092H174.097V56.967Z" fill="#EBEBEB"/>
<path d="M245.886 56.967H249.83L251.41 40.2092H245.886V56.967Z" fill="#EBEBEB"/>
<path d="M168.573 40.2154H174.097V45.985H169.117L168.573 40.2154Z" fill="#DBDBDB"/>
<path d="M251.41 40.2154L250.866 45.985H245.886V40.2154H251.41Z" fill="#DBDBDB"/>
<path d="M196.034 10.4141C191.54 16.3756 186.857 23.2904 185.72 30.7624C185.72 30.8739 185.89 30.911 185.915 30.7996C186.435 28.7615 187.098 26.7613 187.9 24.8133C190.858 24.0209 193.752 23.3647 195.307 20.4799C196.862 17.5951 196.685 13.6703 196.381 10.4698C196.337 10.3088 196.122 10.3027 196.034 10.4141Z" fill="#EBEBEB"/>
<path d="M187.944 24.7576C189.926 20.2178 192.591 15.9944 195.851 12.2279C195.851 12.2279 195.901 12.2279 195.851 12.265C193.795 14.8649 191.99 17.6461 190.46 20.5728C191.945 19.0932 193.575 17.7684 194.985 16.196C194.985 16.196 195.054 16.196 195.029 16.2394C193.632 17.8861 192.103 19.6751 190.283 20.8885C189.79 21.7717 189.295 22.6569 188.797 23.5442C188.924 23.4761 189.05 23.4204 189.177 23.3585C189.177 23.3585 189.215 23.3585 189.177 23.3585C189.038 23.4266 188.899 23.5009 188.753 23.5628C188.519 23.9776 188.285 24.3985 188.039 24.8009C188.039 24.9371 187.906 24.8504 187.944 24.7576Z" fill="#A6A6A6"/>
<path d="M189.448 23.2099C190.655 22.5492 191.807 21.7958 192.893 20.9566C192.924 20.9566 192.969 20.9566 192.937 20.9999C191.883 21.89 190.73 22.6605 189.499 23.2966C189.442 23.3214 189.385 23.2409 189.448 23.2099Z" fill="#A6A6A6"/>
<path d="M185.227 30.6943C185.227 30.781 185.391 30.781 185.391 30.6943C185.391 28.2181 185.391 25.7419 185.429 23.2657C186.061 22.0276 187.458 21.2909 188.418 20.2694C189.107 19.5258 189.707 18.7075 190.207 17.8304C191.366 15.723 192.074 13.4057 192.286 11.0207C192.551 8.38976 191.534 -0.295586 190.39 0.00775128C189.802 0.162515 187.906 4.46495 187.401 5.88259C186.573 8.23766 185.968 10.6621 185.593 13.1255C184.789 18.949 184.666 24.8435 185.227 30.6943V30.6943Z" fill="#EBEBEB"/>
<path d="M185.208 20.0775C185.447 16.9457 185.957 13.8394 186.731 10.7917C187.451 7.53547 188.298 4.47115 190.004 1.56778C190.011 1.55629 190.022 1.54787 190.035 1.54439C190.048 1.54091 190.062 1.54264 190.074 1.54921C190.086 1.55578 190.094 1.56664 190.098 1.57941C190.101 1.59218 190.1 1.60581 190.093 1.61731C188.964 3.87575 188.091 6.24849 187.489 8.69311C187.609 8.51977 187.748 8.35263 187.862 8.18548C187.913 8.12358 188.02 8.18548 187.976 8.25358C187.819 8.51414 187.639 8.76066 187.439 8.99025C186.851 11.3117 186.427 13.6889 186.067 16.0661L186.143 15.9732C186.143 15.9732 186.193 15.9732 186.181 15.9732L186.042 16.2084C185.859 17.4156 185.688 18.6166 185.517 19.8051C187.761 18.0392 189.519 15.7515 190.63 13.1503C190.63 13.1503 190.63 13.1503 190.63 13.1503C189.696 15.924 187.888 18.3363 185.467 20.0404C185.416 20.3623 185.372 20.6594 185.328 21.0061C185.328 21.068 185.208 21.0556 185.208 21.0061C185.208 20.7214 185.208 20.4366 185.208 20.158C185.182 20.1518 185.17 20.1085 185.208 20.0775Z" fill="#A6A6A6"/>
<path d="M186.225 15.5646C187.934 13.1897 189.427 10.6729 190.687 8.04308C190.687 8.01213 190.75 8.04308 190.744 8.04308C189.743 10.8036 188.245 13.3658 186.32 15.6079C186.282 15.6698 186.225 15.6141 186.225 15.5646Z" fill="#A6A6A6"/>
<path d="M188.462 7.43642C189.158 6.23546 189.884 5.06544 190.542 3.83972C190.542 3.80876 190.605 3.83972 190.592 3.83972C190.057 5.11828 189.378 6.3349 188.57 7.46738C188.562 7.4755 188.552 7.48133 188.541 7.48421C188.529 7.4871 188.518 7.48694 188.507 7.48375C188.495 7.48056 188.486 7.47447 188.478 7.46612C188.47 7.45778 188.465 7.44751 188.462 7.43642V7.43642Z" fill="#A6A6A6"/>
<path d="M183.994 24.3862C183.962 26.0166 183.768 27.6401 183.413 29.2334L183.489 29.7658C184 28.0048 184.297 26.1907 184.373 24.3614C184.388 24.3358 184.395 24.307 184.395 24.2778C184.395 24.2486 184.388 24.2199 184.373 24.1943V24.1943C184.447 21.7408 184.261 19.2866 183.817 16.8708C183.04 12.3517 181.34 8.01215 178.129 4.61972C178.103 4.59739 178.071 4.58138 178.037 4.57293C178.003 4.56448 177.968 4.56383 177.933 4.57102C177.899 4.57821 177.867 4.59305 177.84 4.61438C177.812 4.63571 177.79 4.66297 177.775 4.69401C176.473 7.93167 176.928 11.7884 178.034 15.0199C178.626 16.7671 179.478 18.4192 180.562 19.9228C181.694 21.4395 183.097 22.7519 183.994 24.3862Z" fill="#EBEBEB"/>
<path d="M178.508 6.13022C181.561 10.9774 183.684 16.7346 183.944 22.4609C183.944 22.5661 183.773 22.5909 183.76 22.4609C183.684 21.9471 183.609 21.4395 183.52 20.9318C182.193 19.7846 181.028 18.4688 180.057 17.0194C180.057 17.0194 180.057 16.9637 180.101 16.9884C181.148 18.2474 182.271 19.4443 183.463 20.5728C183.242 19.3037 182.983 18.0594 182.68 16.8275L182.433 16.5613C182.383 16.5056 182.471 16.4127 182.528 16.4746L182.597 16.5551C182.171 14.8739 181.639 13.22 181.005 11.6027C180.158 10.763 179.415 9.82792 178.793 8.81692C178.793 8.81692 178.793 8.77358 178.837 8.81692C179.273 9.45995 179.743 10.0799 180.246 10.6741C180.449 10.9031 180.676 11.1198 180.878 11.3489C180.168 9.58878 179.323 7.88363 178.35 6.24784C178.35 6.12402 178.464 6.03736 178.508 6.13022Z" fill="#A6A6A6"/>
<path d="M179.128 12.1165C180.114 13.4165 181.239 14.6546 182.155 15.9979C182.155 16.0351 182.123 16.0784 182.092 16.0475C180.92 14.8777 179.901 13.5697 179.058 12.1536C179.053 12.1446 179.052 12.134 179.055 12.1241C179.058 12.1142 179.065 12.1059 179.074 12.101C179.083 12.0961 179.094 12.0949 179.104 12.0978C179.114 12.1007 179.123 12.1074 179.128 12.1165V12.1165Z" fill="#A6A6A6"/>
<path d="M182.294 16.3013L182.332 16.3384C182.339 16.3441 182.343 16.3523 182.343 16.361C182.344 16.3697 182.341 16.3782 182.335 16.3848C182.329 16.3914 182.321 16.3954 182.312 16.396C182.303 16.3965 182.294 16.3936 182.288 16.3879L182.244 16.3446C182.238 16.338 182.235 16.3294 182.235 16.3207C182.236 16.312 182.24 16.3039 182.247 16.2982C182.253 16.2924 182.262 16.2895 182.271 16.2901C182.28 16.2907 182.288 16.2947 182.294 16.3013V16.3013Z" fill="#A6A6A6"/>
<path d="M173.256 14.2275C173.613 16.9469 174.728 19.5174 176.48 21.6561C177.198 22.492 178.087 23.1711 179.09 23.6495C180.221 24.2004 181.403 24.8319 182.572 25.2776C183.129 26.6612 183.542 28.0965 183.805 29.5615L183.918 29.1776C183.173 22.8633 178.995 17.4589 173.655 13.9922C173.614 13.9666 173.567 13.9527 173.518 13.952C173.47 13.9514 173.422 13.964 173.381 13.9885C173.339 14.013 173.306 14.0483 173.284 14.0906C173.262 14.1328 173.252 14.1802 173.256 14.2275V14.2275Z" fill="#EBEBEB"/>
<path d="M175.215 18.2761C175.286 18.3184 175.353 18.3659 175.416 18.4182C175.416 18.4182 175.416 18.4615 175.416 18.4553L175.209 18.3379C175.146 18.3132 175.178 18.2575 175.215 18.2761Z" fill="#A6A6A6"/>
<path d="M190.485 35.9563H179.488L180.032 28.8929L180.24 26.59H189.638L189.846 28.8929L190.485 35.9563Z" fill="#DBDBDB"/>
<path d="M189.846 28.8929H180.031L180.24 26.59H189.638L189.846 28.8929Z" fill="#C7C7C7"/>
<path d="M190.384 24.7019H179.488V27.0605H190.384V24.7019Z" fill="#DBDBDB"/>
<path d="M217.206 35.9377V10.3026H210.614V35.9377H217.206Z" fill="#C7C7C7"/>
<path d="M217.206 11.7512V8.93454H210.614V11.7512H217.206Z" fill="#DBDBDB"/>
<path d="M217.206 16.4065V15.3603H210.614V16.4065H217.206Z" fill="#DBDBDB"/>
<path d="M217.206 32.5762V29.7596H210.614V32.5762H217.206Z" fill="#DBDBDB"/>
<path d="M221.807 35.9377V6.03735H217.199V35.9377H221.807Z" fill="#DBDBDB"/>
<path d="M220.871 20.3499V8.84787H218.109V20.3499H220.871Z" fill="#EBEBEB"/>
<path d="M254.605 32.704L232.896 11.6833L229.657 14.8928L251.366 35.9134L254.605 32.704Z" fill="#C7C7C7"/>
<path d="M248.872 28.4031L240.521 20.3169L238.579 22.2408L246.93 30.327L248.872 28.4031Z" fill="#DBDBDB"/>
<path d="M229.625 35.9439V13.2308H221.8V35.9439H229.625Z" fill="#A6A6A6"/>
<path d="M229.631 33.5358V31.4186H221.807V33.5358H229.631Z" fill="#C7C7C7"/>
<path d="M229.631 30.0319V29.2086H221.807V30.0319H229.631Z" fill="#C7C7C7"/>
<path d="M202.076 35.9649L210.671 16.3503L205.706 14.2626L197.111 33.8772L202.076 35.9649Z" fill="#A6A6A6"/>
<path d="M202.982 33.8774L203.782 32.0513L198.817 29.9637L198.016 31.7897L202.982 33.8774Z" fill="#C7C7C7"/>
<path d="M208.096 22.2175L208.896 20.3914L203.931 18.3038L203.13 20.1299L208.096 22.2175Z" fill="#C7C7C7"/>
<path d="M207.232 24.1832L207.543 23.4721L202.578 21.3844L202.266 22.0955L207.232 24.1832Z" fill="#C7C7C7"/>
<path d="M33.7741 30.7996V0.756805H64.4324V30.7996H33.7741ZM35.2214 2.18682V29.3634H62.9851V2.16825L35.2214 2.18682Z" fill="#C7C7C7"/>
<path d="M60.988 24.1014V14.6979L39.3483 14.6979V24.1014H60.988Z" fill="#EBEBEB"/>
<path d="M39.993 67.3672H47.242V46.8517H39.993V67.3672Z" fill="#C7C7C7"/>
<path d="M38.2992 86.5517V95.4723H53.5367V86.5517H38.2992Z" fill="#EBEBEB"/>
<path d="M33.7741 71.1187V41.0883H64.4324V71.1187H33.7741ZM35.2214 42.5059V69.701H62.9851V42.5059H35.2214Z" fill="#C7C7C7"/>
<path d="M33.7741 111.45V81.4259H64.4324V111.45H33.7741ZM35.2214 82.8436V110.039H62.9851V82.8436H35.2214Z" fill="#C7C7C7"/>
<path d="M54.6427 21.1918V10.3336H43.5574V21.1918H54.6427Z" fill="#C7C7C7"/>
<path d="M54.649 61.5295V50.6712H43.5638V61.5295H54.649Z" fill="#EBEBEB"/>
<path d="M54.649 101.867V91.0089H43.5638V101.867H54.649Z" fill="#C7C7C7"/>
<path d="M138.193 268.635C201.157 268.635 252.2 261.897 252.2 253.585C252.2 245.274 201.157 238.536 138.193 238.536C75.2291 238.536 24.1866 245.274 24.1866 253.585C24.1866 261.897 75.2291 268.635 138.193 268.635Z" fill="#EBEBEB"/>
<path d="M1.302 229.82L35.5248 229.671L69.7476 229.615L138.193 229.51L206.639 229.615L240.862 229.671L275.084 229.82L240.862 229.974L206.639 230.024L138.193 230.129L69.7476 230.024L35.5248 229.974L1.302 229.82Z" fill="#263238"/>
<path d="M34.8168 119.603C34.8168 119.603 50.6168 117.436 46.9196 98.7656C46.9196 98.7656 29.2742 102.641 34.8168 119.603Z" fill="#27FFBE"/>
<path opacity="0.1" d="M34.8168 119.603C34.8168 119.603 50.6168 117.436 46.9196 98.7656C46.9196 98.7656 29.2742 102.641 34.8168 119.603Z" fill="black"/>
<path d="M35.6195 115.709C35.9297 114.764 36.2883 113.834 36.6939 112.923C36.6939 112.806 36.6939 112.682 36.7318 112.571C36.7318 112.311 36.7824 112.057 36.8014 111.797C36.8456 111.24 36.8772 110.682 36.9151 110.125C36.9783 109.011 37.0542 107.891 37.0731 106.776C37.0731 106.714 37.1679 106.721 37.1679 106.776C37.1679 107.897 37.1679 109.011 37.1679 110.132C37.1679 110.689 37.1174 111.246 37.0794 111.803C37.0794 111.927 37.0794 112.051 37.0794 112.174C37.9655 110.315 39.0233 108.54 40.2394 106.869C40.783 106.126 41.3602 105.412 41.9711 104.727C42.6031 104.021 43.2351 103.347 43.8671 102.647C43.9114 102.604 43.9809 102.647 43.9366 102.721C42.8011 103.949 41.7815 105.275 40.8904 106.683C40.4101 107.395 39.9614 108.126 39.5253 108.869L39.677 108.813C39.8602 108.732 40.0498 108.658 40.2394 108.59C40.6629 108.423 41.0926 108.268 41.5034 108.107C42.3503 107.804 43.1972 107.488 44.0314 107.185C44.082 107.185 44.1136 107.253 44.0314 107.271C43.1909 107.6 42.363 107.946 41.5034 108.299L40.2837 108.813L39.6517 109.061C39.5194 109.125 39.3792 109.173 39.2346 109.203C38.9186 109.766 38.6026 110.33 38.3118 110.899C37.5776 112.346 36.9319 113.834 36.3779 115.356L36.2642 115.678C36.669 115.441 37.0915 115.234 37.5282 115.059L39.165 114.329C40.271 113.833 41.3707 113.326 42.4325 112.738C42.4442 112.731 42.4581 112.729 42.4712 112.733C42.4842 112.736 42.4953 112.745 42.502 112.756C42.5087 112.768 42.5105 112.781 42.5069 112.794C42.5034 112.807 42.4948 112.818 42.483 112.824C41.396 113.406 40.3342 114.019 39.2472 114.601C38.7037 114.886 38.1538 115.171 37.5977 115.437C37.1343 115.701 36.6339 115.897 36.1125 116.019C35.6186 117.439 35.3044 118.913 35.1771 120.408C35.0065 122.519 35.0254 124.648 34.9749 126.766H34.918C34.76 124.846 34.6715 122.909 34.6589 120.984C34.6891 119.186 35.0134 117.406 35.6195 115.709V115.709Z" fill="#263238"/>
<path d="M38.0527 104.721C38.2041 105.812 38.2548 106.914 38.2044 108.014H38.1601C38.0969 106.925 38.0843 105.835 37.9579 104.746C37.9516 104.684 38.0401 104.665 38.0527 104.721Z" fill="#263238"/>
<path d="M42.5651 105.656C43.2718 105.392 43.9529 105.067 44.6002 104.684C44.6507 104.647 44.695 104.733 44.6444 104.764C44.0104 105.175 43.3184 105.492 42.5904 105.705C42.5525 105.736 42.5272 105.705 42.5651 105.656Z" fill="#263238"/>
<path d="M34.3176 149.256C34.3176 147.547 34.3618 145.839 34.3808 144.124C34.4124 138.447 34.4629 132.77 34.5641 127.094C34.6441 122.587 34.7516 118.08 34.8864 113.573C34.8879 113.561 34.8928 113.549 34.9006 113.54C34.9084 113.53 34.9188 113.522 34.9306 113.518C34.9306 112.28 34.9306 111.042 34.9306 109.803C34.9306 109.772 34.9685 109.76 35.0065 109.76C35.0444 109.76 35.0823 109.76 35.0823 109.81V113.524C35.093 113.529 35.1021 113.537 35.1087 113.547C35.1154 113.557 35.1193 113.568 35.1202 113.58C35.3541 121.627 35.5626 129.626 35.6069 137.649C35.6069 139.277 35.6069 140.911 35.6069 142.539C35.6658 147.768 35.6848 152.999 35.6637 158.232C35.6637 159.068 35.6637 159.897 35.6637 160.708C35.6637 165.494 35.6132 170.279 35.6132 175.064C35.6132 175.324 35.3225 175.448 34.9812 175.46C34.6399 175.473 34.2481 175.337 34.2481 175.039C34.2481 169.765 34.2101 164.485 34.2101 159.21C34.3049 155.911 34.2923 152.58 34.3176 149.256Z" fill="#263238"/>
<path d="M40.9094 144.087C40.9094 144.087 48.4934 138.571 55.7171 142.298C62.9409 146.024 64.0595 160.38 64.0595 160.38C64.0595 160.38 53.4735 161.866 46.8059 155.651C40.3785 149.658 40.9094 144.087 40.9094 144.087Z" fill="#27FFBE"/>
<path d="M38.8427 144.402C40.2462 143.856 41.7672 143.662 43.2667 143.839C43.5735 143.786 43.8842 143.757 44.1958 143.752L45.2702 143.672L47.4822 143.517C48.98 143.406 50.4841 143.319 51.982 143.171C52.0325 143.171 52.0452 143.257 51.982 143.263C50.4968 143.449 49.0242 143.653 47.558 143.802C46.7933 143.876 46.0349 143.957 45.2638 144.006L44.6571 144.087C44.8846 144.136 45.1122 144.186 45.3334 144.248C46.5267 144.589 47.6809 145.049 48.7777 145.622C49.4097 145.727 49.9722 145.888 50.56 146.024C51.4953 146.241 52.456 146.476 53.3661 146.718C55.2115 147.194 57.038 147.727 58.8708 148.247C58.8805 148.25 58.8888 148.257 58.8947 148.265C58.9006 148.273 58.9038 148.283 58.9038 148.293C58.9038 148.303 58.9006 148.313 58.8947 148.321C58.8888 148.33 58.8805 148.336 58.8708 148.34C57.0443 147.9 55.2052 147.498 53.3724 147.071C52.4813 146.86 51.5901 146.656 50.699 146.452L50.0038 146.297C52.0435 147.536 53.8659 149.089 55.4011 150.896C56.8855 152.673 58.146 154.619 59.1552 156.691C59.1552 156.746 59.1046 156.796 59.073 156.74C57.8195 154.607 56.2877 152.642 54.5163 150.896C54.5542 150.995 54.5858 151.094 54.6174 151.193C54.7565 151.633 54.8955 152.073 55.0409 152.506C55.3189 153.385 55.6033 154.258 55.8751 155.143C55.8751 155.199 55.7993 155.217 55.7803 155.143C55.458 154.295 55.1483 153.441 54.8513 152.586L54.3962 151.348L54.1687 150.698C54.1687 150.63 54.1182 150.562 54.0992 150.494C53.2517 149.687 52.3502 148.936 51.4005 148.247C50.149 147.343 48.7962 146.583 47.3684 145.981L47.4442 146.365L47.6717 147.38C47.8171 148.086 47.9561 148.792 48.1015 149.497C48.3859 150.94 48.5629 152.394 48.841 153.831C48.841 153.893 48.7588 153.911 48.7462 153.831C48.4049 152.382 47.9625 150.958 47.6338 149.497C47.4695 148.773 47.3052 148.049 47.1472 147.318L46.9386 146.297C46.9007 146.111 46.8565 145.919 46.8312 145.727C46.6922 145.672 46.5594 145.61 46.4204 145.56C44.4233 144.836 42.2239 144.322 40.1004 144.712C39.0951 144.896 38.1516 145.32 37.3535 145.946C36.5554 146.572 35.9272 147.382 35.5247 148.303C35.4552 148.463 35.1961 148.364 35.234 148.197C35.6448 146.414 37.1742 145.09 38.8427 144.402Z" fill="#263238"/>
<path d="M50.4715 150.531C50.6863 151.478 50.9012 152.388 51.1035 153.36C51.343 154.266 51.5203 155.186 51.6343 156.115C51.6343 156.152 51.5838 156.152 51.5775 156.115C51.3036 155.205 51.0925 154.279 50.9455 153.342C50.7622 152.413 50.5726 151.484 50.3893 150.55C50.3451 150.494 50.4588 150.475 50.4715 150.531Z" fill="#263238"/>
<path d="M57.8153 152.933C58.7823 153.41 59.7113 153.954 60.7352 154.351C60.7984 154.351 60.7352 154.468 60.6909 154.437C59.7007 153.996 58.7345 153.504 57.7964 152.964C57.7964 152.964 57.7964 152.921 57.8153 152.933Z" fill="#263238"/>
<path d="M39.2029 133.934C39.2029 133.934 48.487 134.516 52.8099 128.517C57.1328 122.519 56.1595 113.957 56.1595 113.957C56.1595 113.957 46.4014 115.121 42.5336 119.424C38.6657 123.726 39.2029 133.934 39.2029 133.934Z" fill="#27FFBE"/>
<path d="M34.8485 142.91C35.1645 141.932 35.5689 140.973 35.9418 140.019C36.3147 139.066 36.6876 138.162 37.0984 137.296C37.9277 135.462 38.8559 133.672 39.8792 131.935C40.5112 130.833 41.238 129.762 41.9585 128.703C41.9585 128.542 42.009 128.381 42.0343 128.214C42.0722 127.936 42.1165 127.651 42.1607 127.372C42.2555 126.796 42.3566 126.221 42.4514 125.645C42.6663 124.407 42.9317 123.169 43.134 121.887C43.134 121.825 43.2414 121.832 43.2351 121.887C43.0455 123.125 42.9191 124.364 42.7422 125.602C42.6537 126.221 42.5715 126.84 42.4767 127.459C42.4767 127.676 42.4072 127.898 42.3693 128.115C43.7886 126.089 45.3225 124.142 46.9639 122.284C47.1851 122.03 47.419 121.788 47.6402 121.541C47.6402 121.466 47.7034 121.398 47.7286 121.33C47.7982 121.157 47.8677 120.984 47.9309 120.81C48.0699 120.451 48.2026 120.086 48.3354 119.727C48.5945 119.015 48.8283 118.297 49.0242 117.56C49.0298 117.55 49.0389 117.541 49.0501 117.537C49.0613 117.533 49.0737 117.532 49.0852 117.536C49.0966 117.54 49.1063 117.547 49.1125 117.557C49.1187 117.567 49.121 117.579 49.119 117.591C48.9294 118.334 48.7335 119.083 48.487 119.82C48.3796 120.173 48.2595 120.525 48.1331 120.878C48.1331 120.934 48.0889 120.99 48.0699 121.052C49.2581 119.783 50.4905 118.575 51.7418 117.337C51.7515 117.331 51.7629 117.329 51.7742 117.33C51.7855 117.332 51.796 117.337 51.804 117.345C51.812 117.352 51.8171 117.363 51.8184 117.374C51.8198 117.385 51.8173 117.396 51.8114 117.405C49.4114 119.864 47.2116 122.503 45.2322 125.298C45.4586 125.23 45.6885 125.175 45.9211 125.131C46.6353 124.995 47.3558 124.896 48.0762 124.803C49.5867 124.617 51.0972 124.425 52.6014 124.184C52.6646 124.184 52.6898 124.265 52.6014 124.277C51.1604 124.555 49.7384 124.896 48.3101 125.193C47.6338 125.342 46.9576 125.472 46.2814 125.602C45.728 125.719 45.1833 125.872 44.6508 126.06C44.4991 126.27 44.3411 126.475 44.1957 126.679C43.5132 127.651 42.8622 128.641 42.2176 129.644L43.1656 129.465C43.8861 129.328 44.6066 129.198 45.327 129.081C46.7427 128.852 48.1584 128.61 49.5551 128.301C49.6183 128.301 49.6436 128.381 49.5551 128.394C48.1331 128.722 46.7301 129.099 45.3207 129.471C44.6382 129.644 43.9556 129.805 43.2667 129.954L42.2365 130.177C42.0994 130.209 41.96 130.232 41.8194 130.245C40.4585 132.399 39.1945 134.603 38.0274 136.856C37.5092 137.847 37.0162 138.843 36.5296 139.846C36.0429 140.849 35.6069 141.939 35.1518 142.985C35.1076 143.226 34.7726 143.14 34.8485 142.91Z" fill="#263238"/>
<path d="M44.3474 122.005C44.5243 121.138 44.7139 120.272 44.9099 119.411C44.9099 119.349 45.011 119.411 45.0047 119.411C44.8277 120.265 44.6571 121.12 44.4991 121.974C44.3687 122.832 44.1936 123.684 43.9745 124.525C43.9745 124.525 43.9745 124.525 43.9745 124.525C44.04 123.677 44.1646 122.836 44.3474 122.005V122.005Z" fill="#263238"/>
<path d="M49.7636 121.757C50.1934 121.547 50.6484 121.374 51.0972 121.206L51.805 120.934L52.1652 120.792C52.3022 120.751 52.4337 120.695 52.5571 120.625C52.6266 120.575 52.6708 120.693 52.6013 120.705C52.4626 120.743 52.3289 120.797 52.2032 120.866L51.8492 121.021L51.173 121.312C50.7273 121.516 50.2693 121.694 49.8016 121.844C49.7909 121.845 49.7802 121.843 49.771 121.837C49.7618 121.832 49.7546 121.824 49.7504 121.814C49.7461 121.805 49.7452 121.794 49.7475 121.784C49.7499 121.774 49.7556 121.764 49.7636 121.757V121.757Z" fill="#263238"/>
<path d="M29.6976 126.784C29.6976 126.784 24.0792 116.502 15.5282 114.911C6.97725 113.32 1.75061 121.937 1.75061 121.937C1.75061 121.937 8.00109 129.737 15.8316 131.087C23.662 132.436 29.6976 126.784 29.6976 126.784Z" fill="#27FFBE"/>
<path d="M9.80233 119.516C12.0296 119.224 14.2885 119.252 16.5078 119.597L16.1287 119.399C15.4967 119.083 14.8647 118.78 14.2327 118.439C12.9286 117.734 11.5892 117.094 10.2194 116.52C10.2122 116.518 10.2054 116.515 10.1996 116.51C10.1939 116.505 10.1893 116.499 10.1862 116.493C10.183 116.486 10.1815 116.479 10.1816 116.471C10.1818 116.464 10.1836 116.457 10.187 116.45C10.1903 116.444 10.1952 116.438 10.2011 116.433C10.207 116.429 10.2139 116.425 10.2213 116.424C10.2286 116.422 10.2363 116.422 10.2436 116.424C10.2509 116.426 10.2578 116.429 10.2637 116.434C11.5972 117.053 12.9813 117.554 14.3274 118.161C14.9974 118.464 15.6547 118.78 16.3119 119.114C16.7291 119.337 17.1967 119.541 17.6138 119.801C19.49 120.174 21.313 120.768 23.0427 121.572C22.6888 121.194 22.3349 120.81 21.9747 120.433C21.1783 119.578 20.3947 118.681 19.5225 117.901C19.4783 117.864 19.5225 117.795 19.592 117.839C20.4831 118.631 21.4311 119.368 22.297 120.197C22.7204 120.6 23.1186 121.015 23.5167 121.435C23.7127 121.652 23.9086 121.869 24.0919 122.098C27.0292 123.639 29.5802 125.801 31.5607 128.426C33.5411 131.051 34.9016 134.074 35.5437 137.277C35.5437 137.333 35.4742 137.364 35.4552 137.308C34.2512 133.385 32.0958 129.807 29.1731 126.877C26.0293 123.734 22.07 121.491 17.7213 120.389C15.1408 119.744 12.4719 119.506 9.81497 119.684C9.79576 119.68 9.77828 119.67 9.76524 119.656C9.75221 119.642 9.74436 119.624 9.74292 119.605C9.74147 119.586 9.74652 119.567 9.75727 119.551C9.76801 119.535 9.78386 119.523 9.80233 119.516Z" fill="#263238"/>
<path opacity="0.1" d="M1.75061 121.937C1.75061 121.937 8.00109 129.737 15.8316 131.087C21.8166 132.12 26.7399 129.068 28.737 127.564L29.1668 126.865C29.1668 126.865 25.122 123.522 17.4684 121.596C9.81493 119.671 1.75061 121.937 1.75061 121.937Z" fill="black"/>
<path d="M14.7698 115.852C15.4234 116.232 16.0562 116.645 16.6658 117.09C17.2612 117.53 17.8134 118.023 18.3153 118.563C18.3246 118.573 18.3294 118.586 18.3288 118.599C18.3282 118.613 18.3222 118.625 18.3122 118.634C18.3021 118.643 18.2888 118.648 18.2752 118.647C18.2616 118.647 18.2487 118.641 18.2395 118.631C17.677 118.148 17.1019 117.665 16.5142 117.207C15.9407 116.761 15.3414 116.348 14.7193 115.969C14.6624 115.901 14.713 115.821 14.7698 115.852Z" fill="#263238"/>
<path d="M10.0741 117.591C10.3901 117.721 10.7061 117.833 11.0347 117.963L11.9827 118.353C12.0522 118.353 12.0206 118.489 11.9827 118.458L10.9968 118.086C10.6808 117.963 10.3648 117.814 10.0488 117.69C9.99191 117.659 10.0172 117.573 10.0741 117.591Z" fill="#263238"/>
<path d="M30.8226 139.753C30.8226 139.753 29.3184 149.955 21.4879 153.521C13.6575 157.087 4.11426 153.521 4.11426 153.521C4.11426 153.521 7.86834 131.427 30.8226 139.753Z" fill="#27FFBE"/>
<path d="M9.51155 146.854C10.232 146.773 10.9525 146.656 11.6667 146.526L12.7158 146.334L13.2656 146.222C13.4742 146.031 13.6827 145.839 13.8976 145.647C15.3829 144.365 16.9867 143.221 18.6882 142.23C19.6147 141.694 20.5728 141.212 21.5575 140.787H21.4121L18.8335 140.899C17.1145 140.973 15.3955 141.01 13.6827 141.121C13.6751 141.124 13.6669 141.125 13.6588 141.124C13.6507 141.123 13.643 141.12 13.6363 141.116C13.6296 141.111 13.6241 141.105 13.6203 141.098C13.6166 141.091 13.6146 141.083 13.6146 141.075C13.6146 141.067 13.6166 141.059 13.6203 141.052C13.6241 141.045 13.6296 141.039 13.6363 141.034C13.643 141.03 13.6507 141.027 13.6588 141.026C13.6669 141.025 13.6751 141.026 13.6827 141.029C15.4081 140.911 17.1208 140.725 18.8399 140.583L21.3679 140.36L22.6319 140.255L22.9605 140.218C23.4092 140.057 23.8579 139.902 24.313 139.76C26.4471 139.044 28.742 138.922 30.9427 139.407C32.9145 139.896 34.88 141.165 35.3667 143.195C35.3667 143.263 35.2719 143.313 35.2403 143.245C34.5071 141.542 32.5795 140.688 30.8163 140.335C29.6467 140.118 28.4481 140.095 27.2707 140.267C27.1874 140.792 27.0541 141.308 26.8726 141.809C26.6577 142.527 26.4428 143.245 26.2406 143.963C25.7982 145.393 25.3052 146.811 24.8755 148.247C24.8719 148.256 24.8654 148.264 24.8569 148.27C24.8485 148.276 24.8384 148.279 24.8281 148.279C24.8177 148.279 24.8077 148.276 24.7992 148.27C24.7907 148.264 24.7843 148.256 24.7807 148.247C25.1472 146.817 25.4506 145.368 25.8045 143.913L26.3354 141.802C26.4503 141.317 26.596 140.84 26.7715 140.372C26.0853 140.492 25.406 140.647 24.7364 140.837C23.5286 141.189 22.3444 141.615 21.1909 142.112C21.0771 142.842 20.9065 143.561 20.7359 144.279C20.5273 145.176 20.2871 146.068 19.9964 146.947C19.9964 146.958 19.9918 146.969 19.9835 146.977C19.9752 146.986 19.9639 146.99 19.9522 146.99C19.9405 146.99 19.9292 146.986 19.9209 146.977C19.9126 146.969 19.9079 146.958 19.9079 146.947C19.9109 146.891 19.9109 146.835 19.9079 146.78C20.0786 145.944 20.2682 145.114 20.4515 144.303C20.5968 143.635 20.7295 142.96 20.8749 142.285C19.9016 142.719 18.9473 143.183 18.0246 143.703C18.0246 143.913 17.9487 144.124 17.9235 144.322C17.8666 144.669 17.7971 145.015 17.7339 145.368C17.5885 146.154 17.4242 146.941 17.2346 147.714C16.8899 149.212 16.4531 150.688 15.9263 152.134C15.933 152.142 15.9367 152.152 15.9367 152.162C15.9367 152.172 15.933 152.182 15.9263 152.19L15.8821 152.24C15.8442 152.283 15.7936 152.24 15.7999 152.196C16.1602 150.68 16.5773 149.182 16.9186 147.665C17.0829 146.91 17.2535 146.154 17.4115 145.393C17.4874 145.015 17.5569 144.631 17.6327 144.248C17.6327 144.142 17.6707 144.025 17.6896 143.907C16.6345 144.515 15.6154 145.18 14.6371 145.901C12.9502 147.143 11.3883 148.54 9.97291 150.073C9.91603 150.135 9.80227 150.073 9.85915 149.98C10.452 149.206 11.0848 148.462 11.7551 147.752C12.147 147.337 12.5578 146.941 12.9749 146.551H12.8422L11.7425 146.718C11.0157 146.811 10.2889 146.879 9.56211 146.959C9.47363 146.953 9.44835 146.86 9.51155 146.854Z" fill="#263238"/>
<path d="M15.0099 150.314C15.0099 150.228 15.0099 150.135 15.0542 150.048C15.0924 149.939 15.1241 149.827 15.149 149.714V149.714C15.307 149.033 15.446 148.346 15.5724 147.652C15.5724 147.609 15.6546 147.621 15.6546 147.652C15.6069 148.568 15.4062 149.469 15.0605 150.321C15.0605 150.321 14.9973 150.321 15.0036 150.321L15.0099 150.314Z" fill="#263238"/>
<path d="M21.5638 150.153C21.5653 150.141 21.5713 150.13 21.5807 150.122C21.59 150.114 21.602 150.11 21.6143 150.11C21.8292 149.206 22.0441 148.302 22.2463 147.392C22.3475 146.916 22.4486 146.433 22.5434 145.956C22.5939 145.696 22.6382 145.442 22.6887 145.182C22.7075 144.955 22.763 144.731 22.8531 144.52C22.8574 144.512 22.8639 144.506 22.8716 144.501C22.8794 144.497 22.8883 144.495 22.8973 144.495C22.9063 144.495 22.9152 144.497 22.923 144.501C22.9308 144.506 22.9372 144.512 22.9415 144.52C22.9514 144.983 22.8852 145.445 22.7456 145.888C22.6508 146.383 22.5497 146.885 22.4423 147.38C22.2147 148.383 21.9556 149.386 21.6649 150.376C21.6649 150.389 21.6596 150.402 21.6501 150.411C21.6406 150.421 21.6278 150.426 21.6143 150.426C21.6009 150.426 21.5881 150.421 21.5786 150.411C21.5691 150.402 21.5638 150.389 21.5638 150.376V150.153Z" fill="#263238"/>
<path d="M10.2258 143.92C11.6541 143.728 13.0824 143.523 14.517 143.356C14.5739 143.356 14.5992 143.437 14.517 143.443C13.095 143.653 11.6604 143.827 10.2258 144.012C10.1878 144.019 10.1626 143.926 10.2258 143.92Z" fill="#263238"/>
<path d="M34.8295 115.802C34.8295 115.802 39.6011 95.2185 17.0387 86.886C17.0387 86.886 10.7819 113.982 34.8295 115.802Z" fill="#27FFBE"/>
<path d="M31.8591 99.4219C31.8591 99.36 31.9602 99.36 31.9602 99.4219C31.8781 100.598 31.8338 101.774 31.7074 102.944C31.7035 102.955 31.6963 102.965 31.6867 102.971C31.677 102.978 31.6655 102.982 31.6537 102.982C31.6419 102.982 31.6304 102.978 31.6207 102.971C31.6111 102.965 31.6039 102.955 31.6 102.944C31.6442 101.762 31.7706 100.592 31.8591 99.4219Z" fill="#263238"/>
<path d="M21.0329 103.353C22.4486 103.91 23.8706 104.436 25.28 105.018C25.3179 105.018 25.28 105.092 25.28 105.08C23.8516 104.554 22.4423 103.984 21.0266 103.446C20.9508 103.421 20.9761 103.328 21.0329 103.353Z" fill="#263238"/>
<path d="M18.8905 93.8566C20.2704 94.4803 21.6106 95.1853 22.9037 95.9675C22.9171 95.9757 22.9266 95.9888 22.9302 96.0039C22.9337 96.019 22.931 96.0349 22.9226 96.048C22.9142 96.0611 22.9009 96.0705 22.8855 96.074C22.8701 96.0775 22.8539 96.0748 22.8405 96.0666C21.5322 95.3175 20.1987 94.5994 18.8336 93.937C18.783 93.9432 18.8336 93.8318 18.8905 93.8566Z" fill="#263238"/>
<path d="M19.2317 193.952H51.7987L51.7987 160.325H19.2317L19.2317 193.952Z" fill="#37474F"/>
<path d="M54.0423 172.223H52.3738V229.82H54.0423V172.223Z" fill="#263238"/>
<path d="M18.8336 172.223H17.1651V229.82H18.8336V172.223Z" fill="#263238"/>
<path d="M35.5499 172.223H33.8815V229.82H35.5499V172.223Z" fill="#263238"/>
<path d="M17.9993 196.453H53.2081V191.797H17.9993V196.453Z" fill="#263238"/>
<path d="M71.4223 124.877H39.5253V206.859H71.4223V124.877Z" fill="#27FFBE"/>
<path opacity="0.2" d="M71.4223 124.877H39.5253V206.859H71.4223V124.877Z" fill="black"/>
<path d="M236.867 124.877H204.97V206.859H236.867V124.877Z" fill="#27FFBE"/>
<path opacity="0.2" d="M236.867 124.877H204.97V206.859H236.867V124.877Z" fill="black"/>
<path d="M204.977 67.1691H71.416V206.859H204.977V67.1691Z" fill="#27FFBE"/>
<path opacity="0.2" d="M204.977 67.1691H71.416V206.859H204.977V67.1691Z" fill="black"/>
<g opacity="0.2">
<path opacity="0.2" d="M205.748 124.877H204.989V206.853H205.748V124.877Z" fill="black"/>
<path opacity="0.2" d="M71.7952 124.877H71.0368V206.853H71.7952V124.877Z" fill="black"/>
<path opacity="0.2" d="M205.76 183.087H71.0368V157.638H205.76V183.087ZM71.8331 182.301H204.977V158.399H71.8331V182.301Z" fill="black"/>
</g>
<g opacity="0.2">
<path opacity="0.2" d="M79.7331 111.995C79.6031 112.009 79.4829 112.069 79.3956 112.165C79.3083 112.26 79.2601 112.384 79.2601 112.512C79.2601 112.64 79.3083 112.763 79.3956 112.859C79.4829 112.954 79.6031 113.015 79.7331 113.029C79.8631 113.015 79.9833 112.954 80.0706 112.859C80.1579 112.763 80.2062 112.64 80.2062 112.512C80.2062 112.384 80.1579 112.26 80.0706 112.165C79.9833 112.069 79.8631 112.009 79.7331 111.995V111.995Z" fill="black"/>
<path opacity="0.2" d="M80.6369 175.293C80.5068 175.307 80.3867 175.368 80.2994 175.463C80.2121 175.558 80.1638 175.682 80.1638 175.81C80.1638 175.938 80.2121 176.062 80.2994 176.157C80.3867 176.253 80.5068 176.313 80.6369 176.327C80.7669 176.313 80.887 176.253 80.9743 176.157C81.0616 176.062 81.1099 175.938 81.1099 175.81C81.1099 175.682 81.0616 175.558 80.9743 175.463C80.887 175.368 80.7669 175.307 80.6369 175.293V175.293Z" fill="black"/>
<path opacity="0.2" d="M116.737 165.407C116.737 165.351 116.68 165.302 116.655 165.252C116.633 165.218 116.603 165.189 116.567 165.169C116.531 165.149 116.49 165.139 116.449 165.139C116.408 165.139 116.367 165.149 116.331 165.169C116.295 165.189 116.265 165.218 116.244 165.252C116.213 165.302 116.185 165.354 116.162 165.407C115.858 166.02 117.034 166.02 116.737 165.407Z" fill="black"/>
<path opacity="0.2" d="M64.0089 176.593C64.0089 176.544 63.9584 176.488 63.9268 176.438C63.9054 176.404 63.8752 176.375 63.8392 176.355C63.8033 176.336 63.7626 176.325 63.7214 176.325C63.6801 176.325 63.6395 176.336 63.6035 176.355C63.5675 176.375 63.5374 176.404 63.516 176.438C63.4844 176.488 63.4591 176.544 63.4338 176.593C63.1368 177.206 64.3123 177.206 64.0089 176.593Z" fill="black"/>
<path opacity="0.2" d="M84.2772 115.152C84.1699 115.152 84.067 115.194 83.9912 115.268C83.9153 115.342 83.8727 115.443 83.8727 115.548C83.8727 115.653 83.9153 115.754 83.9912 115.828C84.067 115.903 84.1699 115.944 84.2772 115.944C84.3844 115.944 84.4873 115.903 84.5632 115.828C84.639 115.754 84.6816 115.653 84.6816 115.548C84.6816 115.443 84.639 115.342 84.5632 115.268C84.4873 115.194 84.3844 115.152 84.2772 115.152V115.152Z" fill="black"/>
<path opacity="0.2" d="M56.1595 155.273C56.0617 155.285 55.9718 155.332 55.9066 155.404C55.8414 155.476 55.8055 155.57 55.8055 155.666C55.8055 155.763 55.8414 155.856 55.9066 155.928C55.9718 156.001 56.0617 156.047 56.1595 156.059C56.2573 156.047 56.3472 156.001 56.4124 155.928C56.4776 155.856 56.5135 155.763 56.5135 155.666C56.5135 155.57 56.4776 155.476 56.4124 155.404C56.3472 155.332 56.2573 155.285 56.1595 155.273V155.273Z" fill="black"/>
<path opacity="0.2" d="M109.121 93.1013C109.016 92.9996 108.874 92.9426 108.726 92.9426C108.578 92.9426 108.436 92.9996 108.331 93.1013C108.235 93.199 108.167 93.3196 108.134 93.451C108.101 93.5824 108.103 93.7202 108.142 93.8503C108.188 93.9658 108.269 94.0649 108.374 94.1347C108.479 94.2045 108.603 94.2419 108.729 94.2419C108.856 94.2419 108.98 94.2045 109.085 94.1347C109.189 94.0649 109.27 93.9658 109.317 93.8503C109.355 93.7197 109.357 93.5815 109.322 93.4499C109.288 93.3183 109.219 93.198 109.121 93.1013Z" fill="black"/>
<path opacity="0.2" d="M85.0609 172.365C84.9556 172.263 84.8137 172.206 84.6659 172.206C84.518 172.206 84.3761 172.263 84.2709 172.365C84.1751 172.462 84.1071 172.581 84.0738 172.712C84.0405 172.842 84.0431 172.979 84.0813 173.108C84.1289 173.222 84.2099 173.319 84.314 173.387C84.4181 173.455 84.5406 173.492 84.6659 173.492C84.7912 173.492 84.9137 173.455 85.0178 173.387C85.1219 173.319 85.2029 173.222 85.2505 173.108C85.29 172.979 85.2933 172.842 85.2599 172.711C85.2265 172.58 85.1578 172.461 85.0609 172.365V172.365Z" fill="black"/>
<path opacity="0.2" d="M196.027 177.701C196.168 177.701 196.303 177.647 196.403 177.549C196.502 177.452 196.558 177.319 196.558 177.181C196.558 177.043 196.502 176.911 196.403 176.814C196.303 176.716 196.168 176.661 196.027 176.661C195.887 176.661 195.752 176.716 195.652 176.814C195.552 176.911 195.497 177.043 195.497 177.181C195.497 177.319 195.552 177.452 195.652 177.549C195.752 177.647 195.887 177.701 196.027 177.701Z" fill="black"/>
<path opacity="0.2" d="M163.96 108.64C164.09 108.626 164.21 108.565 164.297 108.47C164.385 108.374 164.433 108.251 164.433 108.123C164.433 107.995 164.385 107.871 164.297 107.776C164.21 107.68 164.09 107.62 163.96 107.606C163.83 107.62 163.71 107.68 163.622 107.776C163.535 107.871 163.487 107.995 163.487 108.123C163.487 108.251 163.535 108.374 163.622 108.47C163.71 108.565 163.83 108.626 163.96 108.64V108.64Z" fill="black"/>
<path opacity="0.2" d="M213.136 172.817C213.136 172.867 213.186 172.922 213.218 172.972C213.239 173.006 213.269 173.035 213.305 173.055C213.341 173.075 213.382 173.085 213.423 173.085C213.465 173.085 213.505 173.075 213.541 173.055C213.577 173.035 213.607 173.006 213.629 172.972C213.66 172.922 213.685 172.867 213.711 172.817C214.033 172.204 212.839 172.204 213.136 172.817Z" fill="black"/>
<path opacity="0.2" d="M147.844 141.648C147.949 141.749 148.091 141.806 148.239 141.806C148.387 141.806 148.528 141.749 148.634 141.648C148.731 141.551 148.799 141.43 148.833 141.298C148.866 141.167 148.863 141.029 148.823 140.899C148.776 140.785 148.695 140.688 148.591 140.62C148.487 140.551 148.364 140.515 148.239 140.515C148.113 140.515 147.991 140.551 147.887 140.62C147.783 140.688 147.702 140.785 147.654 140.899C147.617 141.029 147.614 141.166 147.648 141.298C147.681 141.429 147.749 141.55 147.844 141.648V141.648Z" fill="black"/>
</g>
<g opacity="0.2">
<path opacity="0.2" d="M71.8331 183.087C71.8331 183.087 105.468 189.513 138.383 189.513C171.297 189.513 204.97 183.087 204.97 183.087H71.8331Z" fill="black"/>
</g>
<path d="M236.861 199.647H39.5253V206.853H236.861V199.647Z" fill="#37474F"/>
<path d="M82.2485 206.859L74.1399 223.122L65.9934 239.471H58.8961L61.5315 223.122L64.1543 206.859H82.2485Z" fill="#37474F"/>
<path d="M64.1543 206.859H82.2548L77.3315 216.721H62.568L64.1543 206.859Z" fill="#263238"/>
<path d="M214.45 239.471H207.359L199.213 223.122L191.098 206.859H209.198L211.815 223.122L214.45 239.471Z" fill="#37474F"/>
<path d="M210.785 216.721H196.021L191.098 206.859H209.192L210.785 216.721Z" fill="#263238"/>
<path d="M216.119 171.715C215.537 170 184.55 129.892 182.433 129.124C182.193 129.019 168.34 138.676 168.34 138.676C167.771 139.425 141.442 133.971 141.442 133.971L141.176 165.085L189.139 164.088C189.139 164.088 195.617 167.803 201.545 170.855C205.191 172.712 208.421 174.321 209.344 174.569C211.758 175.163 216.706 173.418 216.119 171.715Z" fill="#AD6359"/>
<path d="M209.363 174.563C208.434 174.328 205.21 172.743 201.57 170.848C195.648 167.809 189.17 164.07 189.17 164.07L178.496 164.299L161.754 137.896C165.426 138.515 168.163 138.911 168.346 138.676C168.346 138.676 182.187 129.019 182.433 129.124C184.55 129.892 215.537 169.982 216.119 171.709C216.7 173.436 211.758 175.169 209.363 174.563Z" fill="white"/>
<path d="M216.397 171.765C215.765 170.007 184.664 129.929 182.49 129.137C181.668 128.827 174.906 132.931 168.339 138.676L188.443 164.516C188.443 164.516 206.986 174.142 209.464 174.761C211.941 175.38 217.01 173.523 216.397 171.765Z" fill="#27FFBE"/>
<path d="M214.317 172.409C208.933 165.816 187.843 138.726 183.027 131.811C182.989 131.749 183.027 131.724 183.071 131.774C188.557 138.2 209.419 165.457 214.431 172.328C214.532 172.47 214.431 172.563 214.317 172.409Z" fill="#263238"/>
<path d="M205.988 173.257C205.389 172.524 204.951 171.677 204.702 170.771C204.453 169.864 204.398 168.917 204.54 167.988C204.787 166.316 205.681 164.8 207.037 163.754C207.081 163.754 207.138 163.797 207.1 163.835C205.92 165.075 205.183 166.656 204.998 168.341C204.814 170.027 205.192 171.725 206.076 173.182C206.086 173.194 206.091 173.209 206.09 173.224C206.089 173.239 206.082 173.253 206.07 173.263C206.058 173.273 206.043 173.277 206.027 173.276C206.012 173.275 205.998 173.268 205.988 173.257Z" fill="#263238"/>
<path d="M190.763 166.088C188.639 163.426 187.186 159.588 188.134 156.245C188.172 156.115 188.355 156.164 188.38 156.276C188.946 159.566 189.872 162.788 191.142 165.884C191.157 165.931 191.154 165.982 191.135 166.028C191.116 166.074 191.081 166.112 191.037 166.136C190.993 166.16 190.941 166.168 190.891 166.16C190.841 166.151 190.796 166.126 190.763 166.088Z" fill="#263238"/>
<path d="M193.177 167.549C191.054 164.887 189.6 161.049 190.548 157.706C190.586 157.576 190.769 157.625 190.788 157.737C191.359 161.026 192.285 164.247 193.55 167.345C193.571 167.392 193.573 167.446 193.556 167.495C193.538 167.544 193.503 167.585 193.457 167.611C193.411 167.636 193.357 167.644 193.305 167.632C193.253 167.621 193.208 167.591 193.177 167.549V167.549Z" fill="#263238"/>
<path d="M195.642 169.01C193.518 166.348 192.065 162.51 193.013 159.167C193.044 159.037 193.234 159.086 193.253 159.198C193.824 162.487 194.75 165.708 196.015 168.806C196.035 168.853 196.037 168.907 196.02 168.956C196.003 169.005 195.968 169.046 195.922 169.072C195.876 169.097 195.822 169.105 195.77 169.093C195.718 169.082 195.673 169.052 195.642 169.01V169.01Z" fill="#263238"/>
<path d="M198.081 170.471C195.952 167.809 194.504 163.971 195.452 160.622C195.452 160.498 195.673 160.547 195.692 160.659C196.261 163.949 197.187 167.17 198.454 170.267C198.475 170.314 198.477 170.368 198.46 170.417C198.443 170.466 198.408 170.507 198.361 170.533C198.315 170.558 198.261 170.566 198.209 170.554C198.158 170.543 198.112 170.513 198.081 170.471Z" fill="#263238"/>
<path d="M177.845 138.373C175.506 135.352 180.303 131.792 182.642 134.819C184.98 137.847 180.183 141.4 177.845 138.373Z" fill="#263238"/>
<path d="M189.556 171.238C190.339 168.366 189.821 165.258 189.688 162.336C189.68 162.273 189.655 162.211 189.618 162.158C189.581 162.105 189.532 162.061 189.474 162.03C189.416 161.998 189.352 161.981 189.286 161.978C189.22 161.975 189.154 161.988 189.094 162.015C189.085 162.004 189.074 161.996 189.062 161.99C189.049 161.984 189.036 161.981 189.022 161.981C189.008 161.981 188.994 161.984 188.982 161.99C188.969 161.996 188.958 162.004 188.949 162.015C186.584 164.089 184.816 166.737 183.823 169.691C183.28 171.424 183.489 173.975 185.719 174.476C187.786 174.928 189.094 172.916 189.556 171.238ZM187.375 173.058C184.184 175.015 184.424 170.669 184.879 169.406C185.188 168.597 185.551 167.809 185.966 167.047C186.852 165.484 187.818 163.965 188.861 162.497C188.861 163.94 188.936 165.37 188.968 166.831C189.006 168.521 189.139 171.981 187.375 173.058Z" fill="#263238"/>
<path d="M179.779 153.744C178.154 155.292 179.324 157.582 180.695 158.795C183.1 160.826 186.007 162.201 189.126 162.782C189.14 162.785 189.154 162.785 189.167 162.782C189.181 162.778 189.193 162.772 189.204 162.763C189.214 162.754 189.222 162.742 189.228 162.729C189.233 162.717 189.235 162.703 189.233 162.689C189.3 162.683 189.363 162.661 189.419 162.626C189.475 162.591 189.522 162.544 189.556 162.488C189.59 162.432 189.61 162.369 189.614 162.304C189.618 162.239 189.607 162.173 189.581 162.114C188.159 159.544 186.965 156.616 184.778 154.549C183.501 153.373 181.321 152.283 179.779 153.744ZM186.611 158.647C187.344 159.885 188.007 161.173 188.785 162.392C187.118 161.662 185.492 160.848 183.912 159.953C183.152 159.514 182.425 159.022 181.738 158.48C180.682 157.632 178.186 154.029 181.953 154.091C184.032 154.128 185.738 157.161 186.611 158.647V158.647Z" fill="#263238"/>
<path d="M139.988 124.432H118.462C118.462 124.432 95.9439 113.833 77.8055 118.086C57.0127 122.983 54.352 148.562 69.8929 157.607C89.586 169.072 177.219 166.849 177.219 166.849L158.259 135.401C158.259 135.401 129.118 129.39 102.694 130.263L139.982 135.216L139.988 124.432Z" fill="#263238"/>
<path d="M159.536 137.45C159.514 137.399 159.501 137.345 159.498 137.29L159.46 137.153C159.46 137.054 159.409 136.955 159.378 136.85C159.316 136.64 159.243 136.433 159.157 136.231C159.081 136.027 158.986 135.829 158.891 135.612C158.788 135.418 158.669 135.231 158.537 135.055C158.537 135.055 158.506 135.055 158.487 135.055C158.476 135.052 158.465 135.052 158.455 135.055C158.455 135.055 158.423 135.055 158.404 135.055C158.39 135.051 158.375 135.051 158.36 135.055C155.156 134.436 133.377 131.415 130.141 131.056C126.906 130.697 123.6 130.393 120.326 130.127C113.793 129.571 107.235 129.34 100.678 129.434C100.046 129.434 99.4515 129.465 98.8385 129.489C98.7057 129.446 98.5667 129.421 98.434 129.39C98.118 129.316 97.802 129.242 97.486 129.18C96.8982 129.068 96.2978 128.982 95.7037 128.895C94.4397 128.709 93.22 128.579 91.9876 128.357C91.9725 128.357 91.958 128.362 91.9474 128.373C91.9367 128.383 91.9307 128.397 91.9307 128.412C91.9307 128.427 91.9367 128.441 91.9474 128.452C91.958 128.462 91.9725 128.468 91.9876 128.468C93.2516 128.734 94.4524 129.087 95.6911 129.353C96.0513 129.427 96.4053 129.508 96.7655 129.576C94.3639 129.7 91.9623 129.879 89.567 130.096C89.5544 130.1 89.5434 130.108 89.5356 130.119C89.5278 130.129 89.5236 130.142 89.5236 130.155C89.5236 130.168 89.5278 130.181 89.5356 130.191C89.5434 130.202 89.5544 130.21 89.567 130.214C92.8281 130.022 96.1145 129.997 99.3883 130.053C102.662 130.108 105.873 130.177 109.115 130.362C115.675 130.727 122.222 131.303 128.757 131.972C132.423 132.349 154.625 135.525 158.303 135.686H158.348C158.379 135.767 158.411 135.853 158.449 135.934C158.55 136.126 158.651 136.324 158.765 136.509C158.864 136.697 158.974 136.878 159.093 137.054C159.15 137.141 159.207 137.228 159.27 137.314L159.365 137.444C159.402 137.486 159.434 137.531 159.46 137.58C159.454 137.574 159.58 137.525 159.536 137.45Z" fill="#455A64"/>
<path d="M170.387 164.955C169.212 163.098 168.213 161.16 167.139 159.266C166.064 157.372 164.984 155.465 163.903 153.564C161.748 149.776 154.012 137.036 153.247 136.144C153.197 136.089 153.102 136.144 153.121 136.219C153.487 137.203 158.316 145.641 159.441 147.516C161.666 151.28 163.998 154.945 166.304 158.659C166.936 159.718 167.638 160.764 168.308 161.823C168.978 162.881 169.686 163.909 170.292 164.992C170.318 165.085 170.425 165.023 170.387 164.955Z" fill="#455A64"/>
<path d="M153.026 139.314C151.092 138.856 149.114 138.565 147.161 138.199C145.208 137.834 143.243 137.475 141.284 137.122C137.365 136.408 133.438 135.725 129.503 135.073C121.666 133.786 113.792 132.708 105.873 131.978C101.404 131.557 96.9298 131.285 92.4489 130.963C92.3541 130.963 92.3605 131.099 92.4489 131.105C100.418 131.458 108.382 132.517 116.275 133.625C124.169 134.733 131.898 135.934 139.659 137.221C141.859 137.585 144.058 137.954 146.257 138.329C148.488 138.707 150.719 139.171 152.963 139.45C153.077 139.45 153.115 139.332 153.026 139.314Z" fill="#455A64"/>
<path d="M175.298 274.051C173.402 273.866 126.469 253.201 125.187 251.301C124.694 250.589 127.367 243.711 130.875 235.496C131.62 233.726 132.41 231.9 133.219 230.049C138.446 218.021 144.286 205.379 144.286 205.379L175.728 219.116L163.795 243.402L161.179 248.738C161.179 248.738 175.538 264.524 176.72 266.753C177.902 268.981 177.187 274.237 175.298 274.051Z" fill="#AD6359"/>
<path d="M175.298 274.051C173.402 273.865 126.469 253.201 125.186 251.301C124.592 250.428 128.662 240.461 133.188 230.049L163.764 243.402L161.147 248.738C161.147 248.738 175.506 264.524 176.688 266.752C177.87 268.981 177.187 274.237 175.298 274.051Z" fill="white"/>
<path d="M175.298 274.051C173.402 273.866 126.469 253.201 125.187 251.301C124.694 250.589 127.367 243.711 130.875 235.496L161.179 248.738C161.179 248.738 175.538 264.524 176.72 266.753C177.902 268.981 177.187 274.237 175.298 274.051Z" fill="#27FFBE"/>
<path d="M175.481 271.915C167.701 268.263 135.956 254.241 127.98 251.214C127.917 251.214 127.898 251.214 127.98 251.258C135.615 255.046 167.467 268.814 175.443 272.045C175.582 272.107 175.633 271.996 175.481 271.915Z" fill="#263238"/>
<path d="M163.846 250.849C160.718 249.419 156.565 248.899 153.45 250.564C153.329 250.626 153.45 250.793 153.544 250.787C156.945 250.586 160.359 250.741 163.726 251.251C163.778 251.261 163.833 251.252 163.879 251.225C163.925 251.197 163.958 251.154 163.973 251.104C163.989 251.053 163.984 250.999 163.96 250.952C163.937 250.905 163.896 250.868 163.846 250.849V250.849Z" fill="#263238"/>
<path d="M165.856 252.849C162.696 251.419 158.575 250.899 155.459 252.564C155.339 252.626 155.459 252.793 155.548 252.787C158.951 252.585 162.366 252.741 165.736 253.251C165.788 253.261 165.843 253.252 165.889 253.224C165.934 253.197 165.968 253.154 165.983 253.103C165.998 253.053 165.994 252.999 165.97 252.952C165.946 252.905 165.906 252.868 165.856 252.849Z" fill="#263238"/>
<path d="M167.859 254.848C164.731 253.418 160.579 252.898 157.463 254.557C157.343 254.625 157.463 254.792 157.551 254.786C160.954 254.585 164.37 254.74 167.739 255.251C167.792 255.261 167.846 255.251 167.892 255.224C167.938 255.197 167.972 255.153 167.987 255.103C168.002 255.053 167.997 254.999 167.973 254.951C167.95 254.904 167.909 254.867 167.859 254.848Z" fill="#263238"/>
<path d="M169.863 256.848C166.734 255.418 162.582 254.898 159.466 256.557C159.346 256.625 159.466 256.792 159.561 256.786C162.962 256.584 166.375 256.74 169.743 257.25C169.795 257.26 169.85 257.251 169.896 257.223C169.941 257.196 169.975 257.153 169.99 257.103C170.005 257.052 170 256.998 169.977 256.951C169.953 256.904 169.912 256.867 169.863 256.848V256.848Z" fill="#263238"/>
<path d="M133.333 244.776C129.794 243.228 127.335 248.614 130.881 250.162C134.426 251.71 136.879 246.324 133.333 244.776Z" fill="#263238"/>
<path d="M171.057 244.114C170.052 242.12 167.467 242.498 165.868 243.414C163.151 245.026 160.914 247.311 159.384 250.038C159.377 250.05 159.372 250.064 159.371 250.078C159.37 250.092 159.373 250.107 159.378 250.12C159.384 250.133 159.392 250.145 159.403 250.154C159.414 250.164 159.427 250.17 159.441 250.174C159.409 250.422 159.586 250.725 159.896 250.67C162.835 250.137 166.045 249.927 168.744 248.528C170.273 247.71 171.973 246.002 171.057 244.114ZM164.181 248.973C162.74 249.264 161.299 249.493 159.871 249.84C161.095 248.513 162.388 247.248 163.745 246.051C164.409 245.479 165.112 244.951 165.849 244.473C167 243.755 171.272 242.541 170.046 246.033C169.344 247.964 165.875 248.62 164.156 248.973H164.181Z" fill="#263238"/>
<path d="M151.01 247.741C153.538 249.357 156.742 249.84 159.624 250.614C159.921 250.694 160.13 250.409 160.117 250.156C160.131 250.154 160.145 250.149 160.156 250.141C160.168 250.134 160.178 250.123 160.185 250.111C160.191 250.099 160.195 250.086 160.196 250.072C160.196 250.058 160.193 250.044 160.187 250.032C158.901 247.185 156.874 244.719 154.309 242.882C152.792 241.842 150.245 241.241 149.076 243.148C147.97 244.949 149.519 246.794 151.01 247.741ZM149.91 245.147C148.994 241.563 153.146 243.135 154.233 243.946C154.926 244.484 155.581 245.067 156.192 245.692C157.439 246.998 158.616 248.366 159.719 249.79C158.329 249.326 156.907 248.979 155.497 248.552C153.822 248.088 150.416 247.122 149.91 245.147V245.147Z" fill="#263238"/>
<path d="M133.902 227.226L169.294 242.888C169.294 242.888 211.391 163.748 212.491 139.506C213.426 118.891 198.777 110.936 151.408 124.271L139.805 124.413V132.257C144.899 132.913 158.487 135.005 158.487 135.005C168.371 138.658 171.556 140.168 171.398 140.484C146.712 189.278 133.902 227.226 133.902 227.226Z" fill="#263238"/>
<path d="M177.162 131.805C175.734 133.662 174.413 135.606 173.149 137.587C165.565 134.275 157.279 132.362 149.051 131.365C146.725 131.089 144.389 130.882 142.042 130.746C141.947 130.746 141.953 130.888 142.042 130.895C150.369 131.466 158.598 132.999 166.557 135.463C168.763 136.132 170.918 136.9 173.092 137.661C171.575 140.038 170.141 142.477 168.769 144.929C166.205 149.516 163.897 154.236 161.855 159.068C160.718 161.742 159.612 164.435 158.632 167.171C158.632 167.252 158.739 167.301 158.771 167.227C163.094 157.788 167.811 148.552 172.921 139.518C174.362 136.968 175.867 134.454 177.276 131.885C177.327 131.817 177.213 131.706 177.162 131.805Z" fill="#455A64"/>
<path d="M170.04 234.512C167.973 233.726 165.976 232.742 163.96 231.85L157.886 229.182C153.841 227.412 139.862 221.753 138.705 221.469C138.629 221.469 138.591 221.561 138.648 221.599C139.546 222.174 148.564 226.105 150.606 226.96C154.688 228.674 158.822 230.259 162.923 231.912C164.099 232.376 165.281 232.816 166.462 233.268C167.644 233.72 168.839 234.135 169.995 234.648C170.065 234.655 170.109 234.537 170.04 234.512Z" fill="#455A64"/>
<path d="M176.985 135.377C174.198 140.57 171.822 146.006 169.401 151.373C166.981 156.74 164.642 162.089 162.361 167.468C157.823 178.223 153.597 189.098 149.683 200.093C147.458 206.283 145.379 212.573 143.363 218.85C143.331 218.943 143.477 218.974 143.508 218.887C147.256 207.781 151.313 196.775 155.548 185.842C159.782 174.909 164.269 164.126 169.022 153.422C170.358 150.418 171.712 147.423 173.086 144.44C174.464 141.45 175.898 138.478 177.187 135.457C177.225 135.358 177.055 135.253 176.985 135.377Z" fill="#455A64"/>
<path d="M117.388 123.776C118.165 124.58 167.316 125.682 167.568 125.379C168.238 124.549 161.88 93.9928 156.755 82.3112C150.201 67.3239 146.466 65.9929 144.26 65.1014C141.442 63.9624 136.31 64.2286 135.071 64.7362C133.662 65.2995 127.563 72.0039 125.73 77.4206C122.058 88.3098 116.705 123.07 117.388 123.776Z" fill="#455A64"/>
<path d="M148.267 67.7696H131.804C132.107 67.4229 132.436 67.0948 132.688 66.7976H147.224C147.547 67.07 147.894 67.3919 148.267 67.7696ZM150.34 70.3077H129.75L129.048 71.2734H151.004C150.776 70.935 150.555 70.6131 150.34 70.3077V70.3077ZM152.558 73.8115H127.449C127.26 74.1334 127.083 74.4306 126.912 74.7773H153.121L152.558 73.8115ZM154.423 77.3216H125.768L125.73 77.4206C125.635 77.693 125.547 77.984 125.452 78.2873H154.897C154.739 77.953 154.581 77.6373 154.423 77.3216V77.3216ZM156.091 80.8254H124.725C124.643 81.135 124.555 81.4445 124.472 81.7912H156.521L156.091 80.8254ZM157.583 84.3293H123.847C123.777 84.6512 123.701 84.9483 123.626 85.3012H157.949C157.829 84.9669 157.703 84.6574 157.583 84.3293V84.3293ZM158.847 87.8393H123.076C123 88.1612 122.93 88.4832 122.867 88.8051H159.169L158.847 87.8393ZM159.966 91.3432H122.336C122.273 91.6651 122.204 91.9623 122.14 92.3089H160.256C160.155 91.9808 160.06 91.6589 159.959 91.3432H159.966ZM160.996 94.8532H121.647C121.584 95.1751 121.527 95.4723 121.464 95.819H161.28C161.173 95.4971 161.084 95.1813 160.989 94.8532H160.996ZM161.963 98.3571H120.996C120.933 98.679 120.876 98.9762 120.819 99.3228H162.209C162.127 99.0009 162.045 98.679 161.956 98.3571H161.963ZM162.879 101.861H120.371L120.2 102.833H163.113C163.031 102.511 162.949 102.183 162.873 101.861H162.879ZM163.745 105.371H119.77C119.72 105.693 119.663 105.99 119.612 106.337H163.966L163.745 105.371ZM164.566 108.875H119.233L119.081 109.841H164.813C164.737 109.519 164.636 109.197 164.56 108.875H164.566ZM165.356 112.379H118.658C118.607 112.707 118.563 113.035 118.513 113.351H165.559L165.356 112.379ZM166.102 115.889H118.152C118.102 116.223 118.058 116.545 118.02 116.854H166.286C166.229 116.539 166.159 116.229 166.096 115.889H166.102ZM166.791 119.393H117.685C117.647 119.733 117.609 120.061 117.577 120.365H166.962C166.905 120.055 166.848 119.727 166.785 119.393H166.791ZM167.423 122.903H117.337C117.29 123.193 117.305 123.491 117.381 123.776C117.473 123.827 117.574 123.858 117.678 123.868H167.518C167.486 123.584 167.442 123.262 167.392 122.903H167.423Z" fill="#263238"/>
<path d="M152.407 69.181C173.604 84.7812 191.932 106.436 190.175 113.295C188.311 120.544 173.661 128.654 160.718 130.307C158.069 130.647 149.872 111.611 152.584 110.738C154.701 110.057 164.32 107.377 165.47 106.089C166.267 105.191 151.345 84.6264 146.51 73.8982C141.404 62.6252 146.731 64.9776 152.407 69.181Z" fill="#AD6359"/>
<path d="M158.051 110.138C158.051 110.138 149.961 110.93 144.696 111.698C141.758 112.125 136.79 113.295 134.78 114.576C131.772 116.489 120.434 126.382 122.823 129.124C124.984 131.6 128.252 127.676 128.252 127.676C128.252 127.676 124.27 131.644 127.19 133.464C130.11 135.284 133.877 129.749 133.877 129.749C133.877 129.749 129.351 133.674 132.657 135.321C135.526 136.751 140.544 130.845 140.544 130.845C140.544 130.845 135.33 134.46 138.124 136.206C141.208 138.138 149.866 130.214 149.866 130.214C156.787 130.969 161.053 130.505 165.932 129.167C166.823 128.945 158.051 110.138 158.051 110.138Z" fill="#AD6359"/>
<path d="M132.663 131.087C132.973 130.666 133.295 130.251 133.611 129.848C134.208 129.02 134.854 128.226 135.545 127.471C136.234 126.747 136.954 126.054 137.694 125.379C138.433 124.704 139.343 124.035 140.102 123.305C140.107 123.297 140.114 123.289 140.122 123.284C140.13 123.279 140.14 123.275 140.149 123.274C140.159 123.273 140.169 123.274 140.178 123.278C140.188 123.281 140.196 123.287 140.203 123.294C140.21 123.301 140.215 123.309 140.217 123.319C140.22 123.328 140.22 123.338 140.219 123.347C140.217 123.357 140.213 123.366 140.207 123.374C140.201 123.381 140.193 123.387 140.184 123.392C139.42 124.104 138.698 124.858 138.022 125.651C137.334 126.406 136.657 127.168 135.975 127.929C135.292 128.691 134.603 129.372 133.914 130.096C133.573 130.461 133.282 130.839 132.922 131.21C132.637 131.588 132.32 131.943 131.974 132.269C131.966 132.273 131.956 132.274 131.947 132.272C131.938 132.271 131.929 132.268 131.922 132.262C131.915 132.256 131.91 132.248 131.906 132.24C131.903 132.231 131.903 132.222 131.905 132.213C132.116 131.812 132.37 131.434 132.663 131.087V131.087Z" fill="#263238"/>
<path d="M127.449 128.517C128.508 126.945 129.676 125.445 130.944 124.029C132.233 122.622 133.662 121.345 135.21 120.216C135.267 120.179 135.336 120.253 135.292 120.303C134.028 121.714 132.695 123.101 131.386 124.494C130.754 125.175 127.942 128.35 127.595 128.647C127.512 128.722 127.399 128.61 127.449 128.517Z" fill="#263238"/>
<path d="M137.504 133.643C138.529 132.183 139.653 130.791 140.866 129.477C142.228 128.26 143.68 127.143 145.208 126.134C145.265 126.134 145.341 126.171 145.29 126.221C143.932 127.459 142.56 128.647 141.271 129.935C140.639 130.554 138.275 133.216 137.618 133.767C137.561 133.792 137.466 133.711 137.504 133.643Z" fill="#263238"/>
<path d="M175.974 88.3717L159.833 98.6233C159.833 98.6233 147.856 80.4602 144.753 71.8553C141.65 63.2504 145.265 63.2319 153.74 69.4658C162.215 75.6996 175.974 88.3717 175.974 88.3717Z" fill="#455A64"/>
<path d="M151.288 67.7696H143.704C143.67 67.4464 143.67 67.1208 143.704 66.7976H149.778C150.201 67.0824 150.745 67.4105 151.288 67.7696ZM154.84 70.3077H144.235C144.323 70.6172 144.425 70.9267 144.545 71.2734H156.098L154.84 70.3077ZM159.264 73.8115H145.531C145.663 74.1211 145.809 74.4306 145.96 74.7773H160.433C160.041 74.4492 159.681 74.1334 159.258 73.8115H159.264ZM163.467 77.3216H147.193L147.686 78.2873H164.592L163.467 77.3216ZM167.531 80.8254H149.032C149.209 81.1412 149.386 81.4445 149.569 81.7912H168.618L167.531 80.8254ZM171.493 84.3293H151.004L151.566 85.3012H172.568L171.493 84.3293ZM175.38 87.8393H153.07C153.266 88.1674 153.456 88.4893 153.652 88.8051H175.323L175.955 88.3903L175.38 87.8393ZM155.207 91.3432L155.801 92.3089H169.793L171.31 91.3432H155.207ZM157.4 94.8532L158.032 95.819H164.301L165.824 94.8532H157.4ZM159.656 98.3571L159.839 98.6419L160.288 98.3571H159.656Z" fill="#263238"/>
<path d="M172.321 86.1245C166.165 90.9222 160.086 94.1723 158.878 95.008C158.822 95.0451 158.771 94.9523 158.828 94.9151C160.054 94.1847 166.633 89.4427 172.258 86.0255C172.321 85.9822 172.365 86.0812 172.321 86.1245Z" fill="#263238"/>
<path d="M160.869 97.9423C160.532 98.0854 160.204 98.2509 159.89 98.4376C158.095 95.4042 156.161 92.3337 154.334 89.3127L151.655 84.8803C150.732 83.3388 149.885 81.7293 148.874 80.2435C148.871 80.2391 148.868 80.2351 148.864 80.2319C148.86 80.2287 148.855 80.2263 148.85 80.2249C148.845 80.2235 148.84 80.223 148.835 80.2235C148.83 80.2241 148.825 80.2256 148.82 80.2281C148.816 80.2305 148.812 80.2338 148.808 80.2378C148.805 80.2417 148.803 80.2463 148.801 80.2512C148.8 80.2561 148.799 80.2612 148.8 80.2662C148.8 80.2713 148.802 80.2762 148.804 80.2807C149.463 81.7484 150.197 83.1824 151.004 84.5769C150.839 84.3664 150.681 84.1436 150.504 83.9579C150.106 83.4936 149.714 83.0293 149.361 82.534C149.304 82.4598 149.171 82.534 149.228 82.6083C149.569 83.0788 149.86 83.5679 150.182 84.0631C150.504 84.5584 150.814 85.0288 151.162 85.5055C151.509 85.9822 151.851 86.3969 152.211 86.8241C152.249 86.8803 152.292 86.9341 152.337 86.985C152.83 87.8703 153.311 88.7555 153.822 89.6284C155.617 92.6804 159.694 98.8276 159.751 98.809C160.162 98.5879 160.553 98.3332 160.92 98.0476C160.945 97.9919 160.945 97.93 160.869 97.9423Z" fill="#263238"/>
<path d="M125.85 68.562C108.647 77.3154 92.4932 87.9631 89.4596 95.3609C87.5636 100.016 89.9083 108.454 91.8232 113.524C92.7586 116 116.553 106.38 114.575 104.331C109.684 99.2671 108.887 97.2366 109.424 96.209C109.759 95.5528 128.587 79.544 133.87 72.3258C141.239 62.2724 133.377 64.73 125.85 68.562Z" fill="#AD6359"/>
<path d="M123.569 127.193C121.319 128.431 118.677 122.742 118.677 122.742C118.594 123.828 118.125 124.851 117.35 125.633C115.921 126.945 113.197 125.323 113.197 125.323C112.869 126.431 112.208 127.416 111.301 128.152C109.804 129.273 106.814 128.028 106.814 128.028C105.94 128.883 104.779 129.4 103.547 129.483C100.248 129.582 97.4481 125.478 95.6342 122.89C93.8204 120.303 91.1723 111.283 90.4897 109.618L107.37 98.0971C107.37 98.0971 118.86 107.457 120.548 110.8C121.963 113.617 127 125.305 123.569 127.193Z" fill="#AD6359"/>
<path d="M118.715 122.661C117.969 119.324 116.345 116.155 114.809 113.134C114.771 113.066 114.664 113.134 114.702 113.183C116.301 116.186 117.116 119.677 118.595 122.729C118.607 122.736 118.621 122.739 118.635 122.738C118.648 122.738 118.662 122.734 118.674 122.728C118.686 122.721 118.696 122.711 118.703 122.7C118.71 122.688 118.714 122.675 118.715 122.661V122.661Z" fill="#263238"/>
<path d="M113.381 125.119C113.127 124.376 112.777 123.669 112.338 123.014C111.915 122.296 111.485 121.584 111.042 120.872C110.151 119.461 109.229 118.068 108.262 116.7C108.217 116.638 108.116 116.7 108.154 116.755C109.039 118.167 109.905 119.591 110.726 121.033C111.137 121.757 111.542 122.488 111.946 123.212C112.278 123.925 112.689 124.6 113.172 125.224C113.19 125.245 113.214 125.259 113.241 125.264C113.267 125.27 113.295 125.266 113.32 125.254C113.344 125.241 113.363 125.221 113.375 125.197C113.386 125.172 113.388 125.145 113.381 125.119V125.119Z" fill="#263238"/>
<path d="M106.776 127.991C106.54 127.319 106.19 126.691 105.74 126.134C105.316 125.515 104.906 124.859 104.476 124.221C103.648 122.94 102.826 121.658 102.049 120.352C102.039 120.342 102.027 120.336 102.013 120.334C102 120.332 101.986 120.334 101.974 120.34C101.962 120.347 101.952 120.357 101.946 120.369C101.94 120.381 101.939 120.395 101.942 120.408C102.725 121.739 103.49 123.082 104.286 124.407C104.678 125.026 105.07 125.707 105.468 126.357C105.771 126.981 106.187 127.548 106.694 128.028C106.745 128.028 106.789 127.991 106.776 127.991Z" fill="#263238"/>
<path d="M101 81.6797L113.596 93.7823C113.596 93.7823 130.16 79.414 134.957 71.5891C139.754 63.7643 136.221 63.0338 126.634 67.491C117.046 71.9482 101 81.6797 101 81.6797Z" fill="#27FFBE"/>
<path d="M101 81.6797L113.596 93.7823C113.596 93.7823 130.16 79.414 134.957 71.5891C139.754 63.7643 136.221 63.0338 126.634 67.491C117.046 71.9482 101 81.6797 101 81.6797Z" fill="#455A64"/>
<path d="M137.055 66.7976C137.014 67.1278 136.94 67.4533 136.834 67.7696H126.046L126.634 67.491C127.165 67.2434 127.677 67.0143 128.17 66.7976H137.055ZM120.996 70.3077L119.176 71.2734H135.147C135.349 70.9391 135.539 70.611 135.709 70.3077H120.996ZM114.55 73.8115L112.825 74.7525H132.676C132.935 74.4244 133.181 74.1335 133.421 73.7868L114.55 73.8115ZM108.375 77.3216L106.726 78.2873H129.661C129.952 77.9654 130.243 77.6683 130.521 77.3216H108.375ZM102.422 80.8254L101 81.6797L101.114 81.7912H126.343L127.278 80.8254H102.422ZM103.755 84.3293L104.767 85.3012H122.81L123.802 84.3293H103.755ZM107.408 87.8393L108.413 88.8051H119.107L120.149 87.8393H107.408ZM111.055 91.3432L112.06 92.3089H115.264L116.339 91.3432H111.055Z" fill="#263238"/>
<path d="M116.212 90.6189C110.398 85.7779 106.1 80.745 105.102 79.7792C105.057 79.7297 105.139 79.6616 105.184 79.7111C106.119 80.714 111.952 85.9574 116.307 90.5446C116.357 90.6003 116.269 90.6684 116.212 90.6189Z" fill="#263238"/>
<path d="M127.354 74.5296C126.722 75.8544 126.09 77.173 125.553 78.5349C125.553 78.4421 125.553 78.3554 125.553 78.2625C125.621 77.4292 125.75 76.6017 125.939 75.7863C125.939 75.6935 125.819 75.6501 125.793 75.743C125.604 76.5663 125.433 77.4021 125.3 78.2192C125.231 78.6216 125.193 79.024 125.161 79.4264C125.164 79.4759 125.164 79.5255 125.161 79.5749C125.158 79.5913 125.158 79.6081 125.161 79.6245C124.529 81.4383 124.163 83.2955 123.638 85.1279C123.636 85.1368 123.635 85.1462 123.636 85.1553C123.637 85.1645 123.64 85.1734 123.645 85.1815C123.65 85.1895 123.656 85.1966 123.664 85.2022C123.671 85.2079 123.68 85.2121 123.689 85.2145C123.698 85.217 123.707 85.2176 123.717 85.2165C123.726 85.2153 123.735 85.2123 123.743 85.2077C123.752 85.2031 123.759 85.197 123.765 85.1897C123.77 85.1823 123.775 85.174 123.777 85.165C124.295 83.3698 125.041 81.6302 125.673 79.8783C126.305 78.1264 126.849 76.3373 127.468 74.573C127.487 74.5173 127.38 74.4677 127.354 74.5296Z" fill="#263238"/>
<path d="M136.215 73.0872C138.983 73.8301 143.932 69.831 145.948 66.5129C146.087 66.2838 145.815 63.8262 145.632 60.8237C145.524 58.9666 145.448 56.967 145.518 55.1099C145.518 54.726 133.51 57.5118 133.51 57.5118C134.102 59.8613 134.399 62.2728 134.395 64.6928C134.378 64.9472 134.34 65.1998 134.281 65.4481C134.277 65.4913 134.277 65.5348 134.281 65.5781C133.965 67.0143 133.542 72.3629 136.215 73.0872Z" fill="#AD6359"/>
<path d="M144.785 55.1284C144.115 58.2237 141.833 65.7762 135.476 65.6524C135.069 65.6545 134.662 65.6193 134.262 65.5471C134.258 65.5039 134.258 65.4604 134.262 65.4171C134.321 65.1688 134.359 64.9162 134.376 64.6619C134.38 62.2398 134.083 59.8263 133.491 57.4747C133.491 57.4747 142.187 55.4999 144.785 55.1284Z" fill="#263238"/>
<path d="M132.783 48.5974C132.84 51.4512 130.811 53.8098 128.252 53.8532C125.692 53.8965 123.575 51.6308 123.518 48.7707C123.461 45.9107 125.49 43.5583 128.049 43.5088C130.609 43.4592 132.726 45.7374 132.783 48.5974Z" fill="#27FFBE"/>
<path d="M129.243 54.6106C132.091 54.5571 134.349 51.9365 134.287 48.7575C134.224 45.5785 131.865 43.0447 129.018 43.0983C126.17 43.1519 123.912 45.7724 123.974 48.9514C124.037 52.1305 126.396 54.6642 129.243 54.6106Z" fill="#C7C7C7"/>
<path d="M144.905 39.6706C146.87 43.5459 146.681 55.6918 144.165 58.8056C140.519 63.3185 133.548 64.829 129.377 60.3161C125.338 55.9332 125.875 40.1102 128.783 37.182C133.055 32.8672 141.985 33.9506 144.905 39.6706Z" fill="#AD6359"/>
<path d="M135.134 50.2255C135.134 50.2255 135.197 50.2627 135.197 50.2998C135.159 51.117 135.261 52.0579 136.013 52.3365V52.386C135.09 52.2498 134.97 50.9932 135.134 50.2255Z" fill="#263238"/>
<path d="M135.893 49.3712C137.232 49.2846 137.308 51.9279 136.063 52.0084C134.818 52.0889 134.761 49.4517 135.893 49.3712Z" fill="#263238"/>
<path d="M130.464 50.3803C130.464 50.3803 130.394 50.4236 130.401 50.4546C130.451 51.2717 130.363 52.2127 129.617 52.5098C129.617 52.5098 129.617 52.5593 129.617 52.5532C130.546 52.3984 130.641 51.1479 130.464 50.3803Z" fill="#263238"/>
<path d="M129.693 49.5446C128.347 49.4827 128.315 52.126 129.56 52.1817C130.805 52.2374 130.818 49.6003 129.693 49.5446Z" fill="#263238"/>
<path d="M137.074 47.2541C136.705 47.2283 136.338 47.1808 135.975 47.1117C135.58 47.1121 135.196 46.986 134.881 46.7526C134.798 46.6617 134.747 46.5459 134.738 46.4237C134.729 46.3015 134.761 46.1798 134.831 46.0779C134.999 45.8941 135.214 45.7577 135.454 45.6826C135.694 45.6075 135.95 45.5965 136.196 45.6507C136.712 45.6821 137.198 45.9031 137.555 46.2698C137.622 46.36 137.664 46.4666 137.674 46.578C137.685 46.6895 137.664 46.8017 137.615 46.9026C137.566 47.0036 137.49 47.0896 137.394 47.1515C137.299 47.2134 137.189 47.2488 137.074 47.2541Z" fill="#263238"/>
<path d="M128.397 47.6565C128.77 47.5822 129.099 47.4584 129.459 47.3531C129.848 47.2961 130.208 47.1156 130.483 46.8393C130.553 46.7364 130.586 46.6136 130.576 46.4904C130.567 46.3671 130.516 46.2503 130.432 46.1583C130.238 46.001 130.004 45.8978 129.755 45.8596C129.506 45.8215 129.25 45.8499 129.016 45.9417C128.506 46.046 128.054 46.3357 127.752 46.7526C127.698 46.8533 127.673 46.9669 127.68 47.0807C127.687 47.1946 127.726 47.3043 127.792 47.3978C127.859 47.4913 127.951 47.5649 128.058 47.6106C128.164 47.6562 128.282 47.6721 128.397 47.6565V47.6565Z" fill="#263238"/>
<path d="M136.752 57.7904C136.556 57.9823 136.36 58.2547 136.063 58.2856C135.753 58.2883 135.445 58.2271 135.16 58.1061C135.16 58.1061 135.103 58.1061 135.122 58.1494C135.246 58.3067 135.412 58.4282 135.601 58.5012C135.79 58.5742 135.995 58.596 136.196 58.5642C136.364 58.5152 136.514 58.4185 136.627 58.2863C136.739 58.1542 136.809 57.9924 136.828 57.8213C136.841 57.7718 136.777 57.7594 136.752 57.7904Z" fill="#263238"/>
<path d="M133.289 56.3975C133.654 56.838 134.128 57.1791 134.667 57.388C134.967 57.4815 135.289 57.4815 135.589 57.388C136.253 57.1961 136.253 56.5956 136.114 56.088C136.037 55.8169 135.929 55.5552 135.791 55.308C135.099 55.9254 134.221 56.3075 133.289 56.3975V56.3975Z" fill="#263238"/>
<path d="M134.667 57.4189C134.967 57.5124 135.289 57.5124 135.589 57.4189C136.253 57.227 136.253 56.6266 136.114 56.1189C135.758 56.1428 135.421 56.2845 135.158 56.5207C134.895 56.7569 134.722 57.0736 134.667 57.4189V57.4189Z" fill="#FF98B9"/>
<path opacity="0.2" d="M146.226 48.2879C145.417 48.1393 143.546 45.3969 142.744 44.3073C141.941 43.2178 141.625 37.4606 141.581 36.1606C143.005 36.9995 144.158 38.2165 144.905 39.6706C145.777 41.404 146.226 44.7902 146.226 48.2879Z" fill="#263238"/>
<path d="M131.374 40.6363C131.842 41.1666 132.441 41.571 133.113 41.8115C133.786 42.052 134.509 42.1205 135.216 42.0107C135.94 41.8971 136.621 41.6035 137.196 41.158C137.77 40.7125 138.218 40.13 138.496 39.4663C138.496 39.4292 138.572 39.4663 138.56 39.4663C138.327 40.1863 137.898 40.8303 137.318 41.3288C136.739 41.8274 136.032 42.1616 135.273 42.2954C134.522 42.3887 133.758 42.2868 133.059 42C132.36 41.7131 131.751 41.2514 131.292 40.6611C131.241 40.6487 131.33 40.5868 131.374 40.6363Z" fill="#263238"/>
<path d="M135.665 30.4591C138.098 30.5024 140.336 31.8086 141.239 33.4244C141.738 34.3443 141.905 35.4022 141.713 36.4268C141.713 36.4701 141.619 36.4639 141.625 36.4268C141.669 35.5198 141.463 34.6179 141.03 33.8153C140.596 33.0127 139.95 32.3389 139.16 31.8643C138.296 31.3136 137.313 30.967 136.288 30.8521C135.264 30.7371 134.226 30.8569 133.257 31.2019C132.313 31.5227 131.515 32.1582 131.001 32.9972C130.957 33.0839 130.773 32.9972 130.811 32.9353C131.456 31.4186 133.453 30.4281 135.665 30.4591Z" fill="#263238"/>
<path d="M121.559 35.7087C121.947 34.528 122.751 33.5209 123.828 32.8672C125.313 31.9572 126.988 32.081 128.675 32.2481C128.726 32.2481 128.719 32.3224 128.675 32.3162C127.247 32.1862 125.793 32.1367 124.485 32.8053C123.401 33.3454 122.543 34.2385 122.058 35.331C121.593 36.4526 121.556 37.7009 121.954 38.8471C122.352 39.9932 123.159 40.9603 124.226 41.5711C124.849 41.9083 125.536 42.1168 126.245 42.1839C126.954 42.251 127.669 42.1751 128.347 41.9611C128.397 41.9611 128.435 42.0168 128.384 42.0416C127.468 42.371 126.476 42.4436 125.521 42.2511C124.565 42.0586 123.682 41.6087 122.973 40.9519C122.264 40.2952 121.756 39.4577 121.506 38.5336C121.256 37.6096 121.274 36.6355 121.559 35.721V35.7087Z" fill="#263238"/>
<path d="M145.727 42.0354C145.727 42.0354 147.989 37.7516 146.036 35.3001C144.924 33.9134 141.296 34.1363 141.296 34.1363C140.312 32.7314 138.797 31.7672 137.087 31.4558C134.041 30.8367 130.445 32.5824 130.445 32.5824C130.445 32.5824 127.544 30.9915 124.858 32.5329C121.11 34.681 121.641 40.3021 125.452 42.0726C128.132 43.3107 131.728 40.9645 131.728 40.9645C132.075 41.0078 135.659 43.0754 138.319 39.9368C138.319 39.9368 140.525 41.794 142.478 40.463C142.789 41.0198 143.268 41.4693 143.849 41.7506C144.43 42.0319 145.086 42.1313 145.727 42.0354V42.0354Z" fill="#263238"/>
<path d="M143.97 49.6993C143.97 49.6993 146.125 45.4836 148.04 46.1831C149.955 46.8826 148.728 52.7203 146.776 53.7789C146.533 53.9319 146.261 54.0352 145.977 54.0825C145.693 54.1298 145.401 54.1202 145.121 54.0543C144.84 53.9883 144.576 53.8674 144.345 53.6988C144.113 53.5302 143.919 53.3174 143.774 53.0732L143.97 49.6993Z" fill="#AD6359"/>
<path d="M147.673 47.8484C147.705 47.8484 147.717 47.8855 147.673 47.9041C146.302 48.6903 145.733 50.1265 145.398 51.5751C145.462 51.4201 145.559 51.2805 145.683 51.1658C145.806 51.051 145.954 50.9639 146.116 50.9104C146.277 50.8569 146.449 50.8382 146.618 50.8557C146.788 50.8732 146.951 50.9264 147.098 51.0117C147.142 51.0117 147.098 51.0984 147.098 51.0922C146.833 51.0462 146.56 51.0809 146.316 51.1916C146.072 51.3023 145.868 51.4837 145.733 51.7113C145.514 52.104 145.34 52.5192 145.215 52.9494C145.164 53.0918 144.918 53.0546 144.949 52.8998C144.614 51.0736 145.676 48.3188 147.673 47.8484Z" fill="#263238"/>
<path d="M139.274 58.1494L143.205 56.608L146.434 52.8751L145.847 52.386L142.744 55.9765L138.989 57.4499L139.274 58.1494Z" fill="#C7C7C7"/>
<path d="M139.704 57.5551C139.356 56.4347 136.171 56.7628 136.702 58.459C137.232 60.1552 140.089 58.6571 139.704 57.5551Z" fill="#37474F"/>
<path d="M148.103 46.0717C148.103 46.0717 148.691 39.844 146.921 36.3587C144.943 32.4772 136.436 28.6143 130.445 32.5824C130.445 32.5824 140.076 31.1462 144.393 36.5692C146.213 38.8535 145.973 46.1831 145.973 46.1831L148.103 46.0717Z" fill="#C7C7C7"/>
<path d="M152.37 49.4351C152.487 46.2576 150.274 43.6003 147.427 43.5001C144.581 43.3998 142.179 45.8944 142.062 49.072C141.946 52.2495 144.158 54.9068 147.005 55.0071C149.851 55.1073 152.253 52.6127 152.37 49.4351Z" fill="#C7C7C7"/>
<path d="M143.565 48.9441C143.458 51.7979 145.461 54.1875 147.989 54.2741C150.517 54.3608 152.71 52.126 152.811 49.2722C152.912 46.4183 150.915 44.0288 148.387 43.9359C145.859 43.8431 143.666 46.0902 143.565 48.9441Z" fill="#27FFBE"/>
<path d="M147.389 67.3734C146.09 68.9566 144.701 70.4674 143.23 71.8986C141.808 73.1987 140.07 74.3749 138.174 74.5606C136.278 74.7463 134.382 74.3873 133.681 72.1339C133.112 70.3448 133.188 68.5 133.491 66.1971C133.491 66.1791 133.484 66.1618 133.471 66.149C133.458 66.1362 133.44 66.1291 133.421 66.1291C133.403 66.1291 133.385 66.1362 133.372 66.149C133.359 66.1618 133.352 66.1791 133.352 66.1971C132.947 69.1562 132.543 73.7434 135.292 74.7401C138.376 75.8606 141.372 74.282 143.508 72.1896C144.998 70.7516 146.325 69.1595 147.465 67.4415C147.465 67.3857 147.414 67.3238 147.389 67.3734Z" fill="#263238"/>
<path d="M163.227 135.148H107.023V137.618H163.227V135.148Z" fill="#C7C7C7"/>
<path d="M151.193 135.148L153.121 137.618H107.023V135.148H151.193Z" fill="#A6A6A6"/>
<path d="M148.792 137.618H94.0163L89.4596 101.18H144.235L148.792 137.618Z" fill="#C7C7C7"/>
<path d="M122.463 119.399C122.471 119.825 122.392 120.249 122.231 120.645C122.07 121.042 121.829 121.403 121.524 121.706C121.218 122.01 120.854 122.251 120.452 122.415C120.05 122.579 119.618 122.663 119.183 122.661C118.295 122.658 117.444 122.315 116.811 121.706C116.178 121.096 115.813 120.268 115.795 119.399C115.784 118.972 115.861 118.547 116.021 118.15C116.18 117.752 116.42 117.39 116.725 117.086C117.031 116.781 117.396 116.539 117.798 116.375C118.201 116.211 118.633 116.128 119.069 116.13C119.958 116.135 120.81 116.479 121.443 117.089C122.077 117.7 122.443 118.528 122.463 119.399V119.399Z" fill="white"/>
<path d="M274.85 142.434H216.251V149.788H274.85V142.434Z" fill="#455A64"/>
<path d="M273.195 149.788H217.901V152.085H273.195V149.788Z" fill="#37474F"/>
<path d="M265.301 205.708H225.801V208.004H265.301V205.708Z" fill="#455A64"/>
<path d="M224.518 239.471H221.592V152.085H229.574L224.518 239.471Z" fill="#455A64"/>
<path d="M229.574 152.085L229.277 157.254H221.592V152.085H229.574Z" fill="#263238"/>
<path d="M266.578 239.471H269.51V152.085H261.522L266.578 239.471Z" fill="#455A64"/>
<path d="M261.522 152.085L261.825 157.254H269.504V152.085H261.522Z" fill="#263238"/>
<path d="M263.064 124.097H217.901V131.637H263.064V124.097Z" fill="#455A64"/>
<path d="M259.537 124.097H255.328V131.637H259.537V124.097Z" fill="#EBEBEB"/>
<path d="M225.637 124.097H221.427V131.637H225.637V124.097Z" fill="#EBEBEB"/>
<path d="M269.757 131.637H220.195V142.44H269.757V131.637Z" fill="#263238"/>
<path d="M246.796 141.313H269.744V132.752H246.796V141.313Z" fill="white"/>
<path d="M269.75 134.516C266.666 134.454 258.273 134.349 258.273 134.349L256.048 134.386C252.964 134.411 249.882 134.454 246.802 134.516C249.886 134.578 252.969 134.619 256.048 134.64L258.273 134.677C258.273 134.677 266.666 134.572 269.75 134.516Z" fill="#DBDBDB"/>
<path d="M269.75 136.194C266.666 136.132 258.273 136.027 258.273 136.027L256.048 136.064C252.964 136.088 249.882 136.132 246.802 136.194C249.886 136.256 252.969 136.297 256.048 136.318L258.273 136.361C258.273 136.361 266.666 136.256 269.75 136.194Z" fill="#DBDBDB"/>
<path d="M269.75 137.896C266.666 137.834 258.273 137.735 258.273 137.735L256.048 137.772C252.964 137.772 249.882 137.814 246.802 137.896C249.886 137.958 252.969 138.001 256.048 138.026L258.273 138.063C258.273 138.063 266.666 137.933 269.75 137.896Z" fill="#DBDBDB"/>
<path d="M269.75 139.555C266.666 139.493 258.273 139.388 258.273 139.388L256.048 139.425C252.964 139.45 249.882 139.493 246.802 139.555C249.886 139.609 252.969 139.65 256.048 139.679L258.273 139.716C258.273 139.716 266.666 139.611 269.75 139.555Z" fill="#DBDBDB"/>
<path d="M223.899 138.515V135.958C223.898 135.927 223.903 135.896 223.915 135.867C223.927 135.837 223.944 135.811 223.967 135.788C223.989 135.766 224.016 135.748 224.045 135.736C224.075 135.723 224.107 135.717 224.139 135.717H225.586C225.651 135.717 225.714 135.742 225.76 135.788C225.807 135.833 225.833 135.894 225.833 135.958C225.833 136.023 225.807 136.084 225.76 136.129C225.714 136.174 225.651 136.2 225.586 136.2H224.392V136.992H225.409C225.473 136.995 225.533 137.022 225.578 137.067C225.622 137.112 225.648 137.171 225.649 137.234C225.65 137.265 225.645 137.296 225.633 137.326C225.621 137.355 225.604 137.382 225.581 137.404C225.559 137.427 225.532 137.444 225.503 137.457C225.473 137.469 225.441 137.475 225.409 137.475H224.379V138.274H225.573C225.639 138.274 225.702 138.299 225.748 138.344C225.794 138.39 225.82 138.451 225.82 138.515C225.82 138.579 225.794 138.641 225.748 138.686C225.702 138.731 225.639 138.757 225.573 138.757H224.145C224.08 138.757 224.017 138.731 223.971 138.686C223.925 138.641 223.899 138.579 223.899 138.515Z" fill="#27FFBE"/>
<path d="M227.008 138.515C227.007 138.578 226.981 138.637 226.936 138.682C226.892 138.727 226.832 138.754 226.768 138.757C226.704 138.755 226.643 138.729 226.598 138.684C226.553 138.639 226.528 138.578 226.528 138.515V135.996C226.526 135.957 226.534 135.918 226.55 135.882C226.567 135.847 226.591 135.816 226.623 135.791C226.648 135.773 226.677 135.761 226.708 135.754C226.739 135.747 226.771 135.746 226.802 135.751C226.833 135.756 226.863 135.768 226.889 135.784C226.916 135.8 226.939 135.822 226.957 135.847L228.392 137.785V135.996C228.392 135.934 228.417 135.875 228.46 135.831C228.504 135.788 228.563 135.762 228.626 135.76C228.69 135.762 228.751 135.787 228.796 135.831C228.842 135.874 228.869 135.933 228.872 135.996V138.515C228.871 138.579 228.844 138.639 228.798 138.684C228.753 138.729 228.691 138.755 228.626 138.757C228.592 138.755 228.558 138.747 228.528 138.732C228.497 138.717 228.471 138.696 228.449 138.67V138.67L227.033 136.745L227.008 138.515Z" fill="#27FFBE"/>
<path d="M229.574 137.184C229.576 136.976 229.619 136.771 229.702 136.58C229.785 136.388 229.906 136.215 230.057 136.069C230.209 135.924 230.388 135.809 230.585 135.732C230.782 135.654 230.992 135.616 231.205 135.618C231.571 135.618 231.927 135.738 232.216 135.959C232.244 135.977 232.269 136.002 232.288 136.031C232.306 136.059 232.319 136.091 232.324 136.125C232.33 136.158 232.328 136.193 232.319 136.225C232.311 136.258 232.295 136.289 232.274 136.316C232.253 136.343 232.226 136.365 232.196 136.381C232.165 136.398 232.132 136.407 232.097 136.411C232.063 136.414 232.028 136.41 231.995 136.399C231.962 136.388 231.932 136.371 231.906 136.349C231.705 136.197 231.458 136.115 231.205 136.113C231.057 136.112 230.911 136.139 230.774 136.193C230.637 136.247 230.513 136.327 230.408 136.429C230.304 136.527 230.222 136.644 230.165 136.774C230.109 136.904 230.08 137.043 230.08 137.184C230.079 137.324 230.108 137.463 230.165 137.592C230.221 137.721 230.304 137.837 230.408 137.933C230.513 138.035 230.637 138.115 230.774 138.169C230.911 138.224 231.057 138.251 231.205 138.249C231.427 138.249 231.645 138.191 231.837 138.082V137.463H231.205C231.138 137.461 231.075 137.435 231.028 137.389C230.98 137.342 230.953 137.28 230.952 137.215C230.953 137.151 230.981 137.089 231.028 137.044C231.075 136.999 231.139 136.974 231.205 136.974H232.089C232.122 136.973 232.155 136.979 232.186 136.99C232.216 137.002 232.244 137.02 232.268 137.042C232.291 137.065 232.31 137.092 232.323 137.121C232.336 137.151 232.342 137.183 232.342 137.215V138.175C232.346 138.199 232.346 138.224 232.342 138.249V138.249C232.326 138.293 232.295 138.331 232.254 138.354C231.967 138.574 231.613 138.694 231.249 138.695C230.822 138.711 230.406 138.562 230.093 138.279C229.779 137.996 229.592 137.602 229.574 137.184V137.184Z" fill="#27FFBE"/>
<path d="M233.088 138.515V135.958C233.088 135.894 233.114 135.833 233.16 135.788C233.206 135.742 233.269 135.717 233.334 135.717C233.4 135.717 233.462 135.742 233.509 135.788C233.555 135.833 233.581 135.894 233.581 135.958V138.274H234.782C234.847 138.274 234.91 138.299 234.956 138.344C235.002 138.39 235.028 138.451 235.028 138.515C235.028 138.579 235.002 138.641 234.956 138.686C234.91 138.731 234.847 138.757 234.782 138.757H233.334C233.269 138.757 233.206 138.731 233.16 138.686C233.114 138.641 233.088 138.579 233.088 138.515V138.515Z" fill="#27FFBE"/>
<path d="M235.635 135.946C235.634 135.914 235.64 135.882 235.652 135.853C235.664 135.823 235.682 135.796 235.705 135.773C235.728 135.751 235.756 135.733 235.786 135.721C235.816 135.709 235.849 135.704 235.881 135.705C235.946 135.706 236.008 135.732 236.054 135.777C236.1 135.822 236.126 135.883 236.128 135.946V138.515C236.126 138.579 236.1 138.639 236.054 138.684C236.008 138.729 235.946 138.755 235.881 138.757C235.849 138.757 235.816 138.752 235.786 138.74C235.756 138.728 235.728 138.71 235.705 138.688C235.682 138.665 235.664 138.638 235.652 138.609C235.64 138.579 235.634 138.547 235.635 138.515V135.946Z" fill="#27FFBE"/>
<path d="M236.855 137.989C236.874 137.966 236.897 137.947 236.924 137.933C236.95 137.919 236.979 137.91 237.009 137.908C237.039 137.905 237.069 137.908 237.098 137.916C237.127 137.925 237.154 137.939 237.177 137.958C237.415 138.156 237.712 138.274 238.024 138.292C238.221 138.294 238.415 138.238 238.58 138.131C238.635 138.099 238.681 138.054 238.714 138C238.747 137.946 238.766 137.885 238.77 137.822C238.772 137.771 238.757 137.72 238.725 137.679C238.693 137.626 238.647 137.581 238.593 137.549C238.397 137.444 238.182 137.374 237.961 137.345V137.345C237.764 137.316 237.573 137.259 237.392 137.178C237.223 137.107 237.08 136.988 236.981 136.838C236.912 136.733 236.876 136.61 236.88 136.485C236.884 136.362 236.918 136.242 236.979 136.135C237.039 136.027 237.124 135.935 237.227 135.866C237.453 135.71 237.723 135.628 237.999 135.63C238.349 135.646 238.685 135.77 238.959 135.983C238.984 135.999 239.005 136.019 239.022 136.043C239.038 136.067 239.05 136.094 239.056 136.122C239.062 136.15 239.062 136.179 239.056 136.208C239.05 136.236 239.039 136.263 239.022 136.287C239.006 136.311 238.985 136.333 238.961 136.35C238.936 136.367 238.908 136.379 238.879 136.385C238.849 136.392 238.819 136.392 238.789 136.387C238.76 136.382 238.732 136.371 238.706 136.355C238.524 136.188 238.295 136.078 238.049 136.039C237.871 136.036 237.696 136.088 237.55 136.188C237.502 136.216 237.461 136.256 237.433 136.303C237.404 136.351 237.388 136.405 237.385 136.46C237.382 136.502 237.393 136.543 237.417 136.578C237.446 136.624 237.485 136.664 237.531 136.695C237.704 136.789 237.892 136.853 238.087 136.887V136.887C238.304 136.921 238.517 136.982 238.719 137.067C238.899 137.142 239.052 137.267 239.161 137.426C239.233 137.537 239.27 137.666 239.269 137.797C239.265 137.93 239.228 138.06 239.162 138.176C239.096 138.293 239.003 138.392 238.89 138.466C238.649 138.63 238.362 138.717 238.068 138.713C237.653 138.694 237.255 138.542 236.937 138.28C236.889 138.249 236.855 138.203 236.84 138.15C236.825 138.096 236.83 138.039 236.855 137.989V137.989Z" fill="#27FFBE"/>
<path d="M239.907 138.515V135.958C239.906 135.927 239.912 135.896 239.924 135.867C239.935 135.837 239.953 135.811 239.975 135.788C239.998 135.766 240.024 135.748 240.054 135.736C240.084 135.723 240.115 135.717 240.147 135.717C240.18 135.716 240.212 135.722 240.243 135.734C240.273 135.746 240.301 135.763 240.324 135.786C240.347 135.808 240.365 135.835 240.377 135.865C240.389 135.895 240.395 135.927 240.394 135.958V136.999H241.544V135.958C241.543 135.927 241.549 135.896 241.561 135.867C241.572 135.837 241.59 135.811 241.612 135.788C241.635 135.766 241.661 135.748 241.691 135.736C241.72 135.723 241.752 135.717 241.784 135.717C241.817 135.716 241.849 135.722 241.88 135.734C241.91 135.746 241.937 135.763 241.96 135.786C241.984 135.808 242.002 135.835 242.014 135.865C242.026 135.895 242.032 135.927 242.031 135.958V138.515C242.032 138.547 242.026 138.579 242.014 138.609C242.002 138.638 241.984 138.665 241.96 138.688C241.937 138.71 241.91 138.728 241.88 138.74C241.849 138.752 241.817 138.757 241.784 138.757C241.752 138.757 241.72 138.75 241.691 138.738C241.661 138.726 241.635 138.708 241.612 138.686C241.59 138.663 241.572 138.636 241.561 138.607C241.549 138.578 241.543 138.547 241.544 138.515V137.463H240.394V138.515C240.395 138.547 240.389 138.579 240.377 138.609C240.365 138.638 240.347 138.665 240.324 138.688C240.301 138.71 240.273 138.728 240.243 138.74C240.212 138.752 240.18 138.757 240.147 138.757C240.115 138.757 240.084 138.75 240.054 138.738C240.024 138.726 239.998 138.708 239.975 138.686C239.953 138.663 239.935 138.636 239.924 138.607C239.912 138.578 239.906 138.547 239.907 138.515V138.515Z" fill="#27FFBE"/>
<path d="M269.131 118.34H224.701V124.097H269.131V118.34Z" fill="#27FFBE"/>
<path d="M254.506 118.941H224.695V123.503H254.506V118.941Z" fill="white"/>
<path d="M226.629 122.563C228.95 122.588 231.268 122.604 233.581 122.613H240.533H247.485C249.811 122.613 252.128 122.596 254.437 122.563C252.117 122.563 249.792 122.525 247.485 122.513H240.533H233.581C231.274 122.525 228.948 122.538 226.629 122.563Z" fill="#DBDBDB"/>
<path d="M226.629 121.671C228.948 121.671 231.274 121.709 233.581 121.715H240.533H247.485C249.811 121.715 252.136 121.715 254.437 121.671C252.115 121.646 249.798 121.63 247.485 121.621H240.533H233.581C231.268 121.63 228.95 121.646 226.629 121.671Z" fill="#DBDBDB"/>
<path d="M226.629 120.774C228.948 120.774 231.274 120.811 233.581 120.824H240.533H247.485C249.811 120.824 252.136 120.824 254.437 120.774C252.115 120.749 249.798 120.732 247.485 120.724H240.533H233.581C231.268 120.732 228.95 120.749 226.629 120.774Z" fill="#DBDBDB"/>
<path d="M226.629 119.876C228.95 119.901 231.268 119.918 233.581 119.926H240.533H247.485C249.811 119.926 252.128 119.909 254.437 119.876C252.117 119.876 249.792 119.838 247.485 119.826H240.533H233.581C231.274 119.838 228.948 119.851 226.629 119.876Z" fill="#DBDBDB"/>
<path d="M256.327 122.55V119.993C256.327 119.863 256.402 119.752 256.497 119.752H257.496C257.584 119.752 257.666 119.863 257.666 119.993C257.666 120.123 257.584 120.234 257.496 120.234H256.668V121.027H257.382C257.47 121.027 257.546 121.138 257.546 121.268C257.546 121.398 257.47 121.51 257.382 121.51H256.668V122.55C256.668 122.68 256.592 122.791 256.497 122.791C256.402 122.791 256.327 122.68 256.327 122.55Z" fill="#37474F"/>
<path d="M259.594 122.42C259.611 122.475 259.61 122.534 259.591 122.589C259.571 122.643 259.535 122.69 259.487 122.723C259.464 122.728 259.44 122.728 259.417 122.723C259.372 122.721 259.33 122.703 259.297 122.674C259.253 122.629 259.219 122.576 259.196 122.519C259.148 122.35 259.127 122.174 259.133 121.999C259.134 121.936 259.123 121.872 259.101 121.813C259.081 121.765 259.048 121.722 259.006 121.689C258.958 121.642 258.9 121.607 258.836 121.584H258.475V122.525C258.475 122.655 258.4 122.766 258.305 122.766C258.21 122.766 258.134 122.655 258.134 122.525V119.968C258.134 119.832 258.21 119.727 258.305 119.727H258.848C259.215 119.727 259.48 120.142 259.48 120.662C259.486 120.919 259.401 121.17 259.24 121.374C259.284 121.422 259.32 121.476 259.348 121.535C259.417 121.68 259.451 121.839 259.449 121.999C259.443 122.085 259.443 122.172 259.449 122.259C259.486 122.269 259.52 122.29 259.546 122.318C259.571 122.347 259.588 122.382 259.594 122.42ZM259.164 120.68C259.164 120.426 259.025 120.228 258.848 120.228H258.475V121.12H258.848C259.025 121.126 259.164 120.928 259.164 120.686V120.68Z" fill="#37474F"/>
<path d="M260.087 122.55V119.993C260.087 119.857 260.163 119.752 260.258 119.752H261.256C261.345 119.752 261.427 119.857 261.427 119.993C261.427 120.129 261.345 120.234 261.256 120.234H260.428V121.027H261.142C261.231 121.027 261.307 121.138 261.307 121.268C261.307 121.398 261.231 121.51 261.142 121.51H260.428V122.308H261.256C261.345 122.308 261.427 122.413 261.427 122.55C261.427 122.686 261.345 122.791 261.256 122.791H260.258C260.169 122.791 260.087 122.68 260.087 122.55Z" fill="#37474F"/>
<path d="M262.236 122.55C262.236 122.68 262.16 122.791 262.071 122.791C261.983 122.791 261.907 122.68 261.907 122.55V120.03C261.901 119.959 261.923 119.887 261.97 119.832C261.987 119.815 262.008 119.802 262.032 119.796C262.055 119.789 262.08 119.788 262.104 119.794C262.127 119.8 262.149 119.811 262.167 119.828C262.184 119.844 262.197 119.865 262.204 119.888L263.19 121.825V120.036C263.19 119.913 263.266 119.801 263.361 119.801C263.455 119.801 263.525 119.913 263.525 120.036V122.556C263.525 122.686 263.449 122.797 263.361 122.797C263.334 122.795 263.308 122.785 263.286 122.77C263.264 122.755 263.246 122.734 263.234 122.711V122.68L262.255 120.754L262.236 122.55Z" fill="#37474F"/>
<path d="M264.163 121.225C264.163 120.371 264.675 119.671 265.288 119.665C265.424 119.67 265.557 119.703 265.679 119.761C265.801 119.82 265.909 119.903 265.996 120.005C266.027 120.058 266.044 120.118 266.044 120.179C266.044 120.24 266.027 120.299 265.996 120.352C265.988 120.375 265.973 120.394 265.955 120.41C265.936 120.426 265.914 120.437 265.89 120.441C265.866 120.446 265.841 120.445 265.818 120.438C265.794 120.431 265.773 120.419 265.756 120.402C265.698 120.327 265.623 120.267 265.538 120.225C265.452 120.184 265.358 120.161 265.263 120.16C265.153 120.167 265.045 120.199 264.95 120.254C264.854 120.309 264.773 120.385 264.713 120.476C264.565 120.7 264.486 120.961 264.486 121.228C264.486 121.495 264.565 121.756 264.713 121.98C264.773 122.071 264.854 122.147 264.95 122.202C265.045 122.257 265.153 122.289 265.263 122.296C265.358 122.295 265.452 122.272 265.538 122.231C265.623 122.189 265.698 122.129 265.756 122.054C265.773 122.037 265.794 122.025 265.818 122.018C265.841 122.011 265.866 122.01 265.89 122.015C265.914 122.019 265.936 122.03 265.955 122.046C265.973 122.062 265.988 122.082 265.996 122.104C266.027 122.157 266.044 122.216 266.044 122.277C266.044 122.338 266.027 122.398 265.996 122.451C265.909 122.553 265.801 122.636 265.679 122.695C265.557 122.753 265.424 122.786 265.288 122.791C264.675 122.791 264.17 122.092 264.163 121.225Z" fill="#37474F"/>
<path d="M266.615 122.55V119.993C266.615 119.857 266.691 119.752 266.786 119.752C266.881 119.752 266.957 119.857 266.957 119.993V121.033H267.753V119.993C267.753 119.857 267.829 119.752 267.924 119.752C268.019 119.752 268.094 119.857 268.094 119.993V122.55C268.094 122.686 268.019 122.791 267.924 122.791C267.829 122.791 267.753 122.686 267.753 122.55V121.51H266.963V122.55C266.963 122.686 266.887 122.791 266.792 122.791C266.698 122.791 266.615 122.686 266.615 122.55Z" fill="#37474F"/>
<path d="M227.356 129.106V126.543C227.356 126.511 227.362 126.48 227.375 126.451C227.387 126.422 227.405 126.396 227.428 126.374C227.451 126.352 227.478 126.335 227.508 126.323C227.538 126.312 227.57 126.307 227.602 126.307H228.12C228.531 126.307 228.925 126.467 229.215 126.752C229.506 127.036 229.669 127.422 229.669 127.824C229.669 128.226 229.506 128.612 229.215 128.897C228.925 129.181 228.531 129.341 228.12 129.341H227.602C227.57 129.342 227.538 129.336 227.508 129.325C227.478 129.313 227.451 129.296 227.428 129.274C227.405 129.252 227.387 129.226 227.375 129.197C227.362 129.168 227.356 129.137 227.356 129.106V129.106ZM227.849 128.858H228.12C228.4 128.858 228.669 128.749 228.867 128.555C229.065 128.361 229.176 128.098 229.176 127.824C229.176 127.55 229.065 127.287 228.867 127.093C228.669 126.899 228.4 126.79 228.12 126.79H227.849V128.858Z" fill="#EBEBEB"/>
<path d="M230.345 126.543C230.345 126.511 230.351 126.48 230.364 126.451C230.376 126.422 230.395 126.396 230.418 126.374C230.441 126.352 230.468 126.335 230.498 126.323C230.528 126.312 230.559 126.307 230.592 126.307C230.656 126.307 230.718 126.332 230.764 126.376C230.81 126.42 230.836 126.48 230.838 126.543V129.106C230.836 129.168 230.81 129.228 230.764 129.272C230.718 129.316 230.656 129.341 230.592 129.341C230.559 129.342 230.528 129.336 230.498 129.325C230.468 129.313 230.441 129.296 230.418 129.274C230.395 129.252 230.376 129.226 230.364 129.197C230.351 129.168 230.345 129.137 230.345 129.106V126.543Z" fill="#EBEBEB"/>
<path d="M231.527 127.781C231.535 127.364 231.71 126.967 232.014 126.676C232.317 126.384 232.726 126.221 233.151 126.221C233.521 126.218 233.881 126.335 234.175 126.555C234.226 126.596 234.259 126.655 234.268 126.72C234.276 126.784 234.259 126.849 234.219 126.902C234.179 126.954 234.119 126.989 234.053 126.998C233.986 127.008 233.919 126.991 233.865 126.951C233.663 126.793 233.41 126.71 233.151 126.716C232.855 126.717 232.571 126.827 232.355 127.026C232.15 127.226 232.034 127.497 232.032 127.781C232.033 127.921 232.061 128.06 232.117 128.19C232.172 128.32 232.253 128.437 232.355 128.536C232.571 128.734 232.855 128.845 233.151 128.846C233.41 128.851 233.663 128.768 233.865 128.61C233.92 128.575 233.985 128.559 234.05 128.567C234.116 128.575 234.175 128.606 234.219 128.654C234.259 128.706 234.276 128.771 234.268 128.836C234.259 128.9 234.226 128.959 234.175 129C233.935 129.185 233.647 129.3 233.344 129.333C233.041 129.366 232.734 129.315 232.458 129.187C232.183 129.058 231.95 128.856 231.785 128.605C231.621 128.353 231.531 128.061 231.527 127.762V127.781Z" fill="#EBEBEB"/>
<path d="M236.968 126.79H236.267V129.105C236.267 129.168 236.242 129.228 236.196 129.272C236.151 129.316 236.09 129.341 236.027 129.341C235.962 129.341 235.901 129.316 235.855 129.272C235.809 129.228 235.782 129.168 235.78 129.105V126.79H235.079C235.014 126.787 234.953 126.76 234.908 126.713C234.863 126.667 234.838 126.606 234.839 126.543C234.839 126.48 234.864 126.42 234.909 126.376C234.954 126.332 235.015 126.307 235.079 126.307H236.975C237.039 126.307 237.101 126.332 237.147 126.376C237.193 126.42 237.219 126.48 237.221 126.543C237.22 126.608 237.192 126.67 237.145 126.716C237.098 126.762 237.035 126.789 236.968 126.79V126.79Z" fill="#EBEBEB"/>
<path d="M237.973 126.543C237.973 126.511 237.98 126.48 237.992 126.451C238.005 126.422 238.023 126.396 238.046 126.374C238.069 126.352 238.096 126.335 238.126 126.323C238.156 126.312 238.188 126.307 238.22 126.307C238.284 126.307 238.346 126.332 238.392 126.376C238.438 126.42 238.465 126.48 238.466 126.543V129.106C238.465 129.168 238.438 129.228 238.392 129.272C238.346 129.316 238.284 129.341 238.22 129.341C238.188 129.342 238.156 129.336 238.126 129.325C238.096 129.313 238.069 129.296 238.046 129.274C238.023 129.252 238.005 129.226 237.992 129.197C237.98 129.168 237.973 129.137 237.973 129.106V126.543Z" fill="#EBEBEB"/>
<path d="M241.734 126.685C242.022 126.98 242.183 127.372 242.183 127.781C242.183 128.189 242.022 128.581 241.734 128.876C241.6 129.021 241.438 129.137 241.256 129.217C241.074 129.297 240.877 129.339 240.678 129.341C240.474 129.34 240.273 129.299 240.086 129.219C239.899 129.139 239.73 129.023 239.591 128.876C239.311 128.577 239.156 128.186 239.156 127.781C239.156 127.375 239.311 126.984 239.591 126.685C239.73 126.539 239.899 126.422 240.086 126.342C240.273 126.263 240.474 126.221 240.678 126.221C240.877 126.222 241.074 126.264 241.256 126.344C241.438 126.424 241.6 126.54 241.734 126.685V126.685ZM241.677 127.781C241.676 127.5 241.571 127.229 241.38 127.019C241.29 126.925 241.181 126.849 241.061 126.797C240.94 126.745 240.81 126.717 240.678 126.716C240.543 126.716 240.41 126.742 240.286 126.794C240.162 126.847 240.05 126.923 239.958 127.019C239.764 127.227 239.658 127.499 239.661 127.781C239.657 128.06 239.763 128.331 239.958 128.536C240.048 128.633 240.158 128.711 240.28 128.764C240.402 128.817 240.535 128.844 240.669 128.844C240.803 128.844 240.935 128.817 241.058 128.764C241.18 128.711 241.29 128.633 241.38 128.536C241.571 128.329 241.677 128.06 241.677 127.781V127.781Z" fill="#EBEBEB"/>
<path d="M243.427 129.106C243.426 129.167 243.4 129.226 243.355 129.27C243.311 129.314 243.25 129.339 243.187 129.341C243.155 129.342 243.123 129.336 243.093 129.325C243.064 129.313 243.036 129.296 243.013 129.274C242.99 129.252 242.972 129.226 242.96 129.197C242.947 129.168 242.941 129.137 242.941 129.106V126.586C242.94 126.547 242.948 126.509 242.966 126.475C242.984 126.44 243.01 126.41 243.042 126.388C243.093 126.351 243.157 126.336 243.22 126.345C243.283 126.354 243.339 126.388 243.377 126.437L244.805 128.375V126.592C244.805 126.561 244.811 126.531 244.823 126.502C244.836 126.474 244.853 126.448 244.876 126.426C244.898 126.404 244.924 126.387 244.953 126.375C244.983 126.363 245.014 126.357 245.045 126.357C245.077 126.357 245.108 126.363 245.137 126.375C245.166 126.387 245.193 126.404 245.215 126.426C245.237 126.448 245.255 126.474 245.267 126.502C245.279 126.531 245.286 126.561 245.286 126.592V129.112C245.286 129.174 245.26 129.234 245.215 129.278C245.17 129.322 245.109 129.347 245.045 129.347C245.01 129.346 244.976 129.337 244.944 129.323C244.913 129.308 244.885 129.286 244.862 129.26V129.26L243.446 127.335L243.427 129.106Z" fill="#EBEBEB"/>
<path d="M247.927 128.61H246.853L246.638 129.18C246.618 129.224 246.585 129.262 246.544 129.289C246.502 129.315 246.454 129.329 246.404 129.328H246.322C246.26 129.305 246.211 129.259 246.184 129.2C246.156 129.141 246.154 129.073 246.177 129.013L247.156 126.462C247.175 126.417 247.208 126.378 247.249 126.351C247.291 126.323 247.34 126.309 247.39 126.309C247.44 126.309 247.489 126.323 247.531 126.351C247.572 126.378 247.605 126.417 247.624 126.462L248.604 129.013C248.626 129.073 248.624 129.141 248.597 129.2C248.569 129.259 248.52 129.305 248.458 129.328H248.37C248.322 129.329 248.275 129.315 248.235 129.288C248.196 129.262 248.165 129.224 248.148 129.18L247.927 128.61ZM247.75 128.134L247.39 127.205L247.03 128.134H247.75Z" fill="#EBEBEB"/>
<path d="M251.258 128.982C251.278 129.043 251.272 129.109 251.243 129.165C251.213 129.222 251.162 129.265 251.1 129.285H251.005C250.944 129.287 250.885 129.27 250.834 129.236C250.774 129.199 250.724 129.148 250.689 129.087C250.622 128.922 250.592 128.745 250.601 128.567C250.6 128.501 250.58 128.437 250.544 128.381C250.511 128.328 250.466 128.283 250.411 128.251C250.335 128.206 250.252 128.172 250.165 128.152H249.64V129.093C249.631 129.15 249.601 129.201 249.556 129.238C249.512 129.276 249.455 129.296 249.397 129.296C249.338 129.296 249.281 129.276 249.237 129.238C249.192 129.201 249.163 129.15 249.153 129.093V126.53C249.153 126.468 249.179 126.408 249.224 126.364C249.269 126.32 249.33 126.295 249.394 126.295H250.19C250.384 126.297 250.573 126.357 250.731 126.467C250.889 126.577 251.009 126.731 251.074 126.91C251.139 127.089 251.147 127.283 251.097 127.467C251.046 127.65 250.939 127.814 250.79 127.936C250.849 127.982 250.9 128.036 250.942 128.097C251.039 128.235 251.089 128.399 251.087 128.567C251.081 128.651 251.081 128.736 251.087 128.821C251.127 128.833 251.162 128.854 251.192 128.882C251.222 128.91 251.244 128.944 251.258 128.982V128.982ZM250.626 127.236C250.626 127.118 250.578 127.004 250.493 126.921C250.407 126.837 250.292 126.79 250.171 126.79H249.621V127.682H250.171C250.232 127.683 250.292 127.673 250.349 127.651C250.406 127.63 250.457 127.597 250.501 127.556C250.544 127.514 250.579 127.464 250.603 127.409C250.626 127.355 250.639 127.296 250.639 127.236H250.626Z" fill="#EBEBEB"/>
<path d="M254.02 126.716L253.11 127.954V129.13C253.11 129.162 253.103 129.193 253.091 129.222C253.078 129.251 253.06 129.277 253.037 129.299C253.014 129.321 252.987 129.338 252.957 129.349C252.927 129.361 252.895 129.366 252.863 129.366C252.8 129.364 252.74 129.339 252.695 129.295C252.65 129.251 252.625 129.192 252.623 129.13V127.954L251.726 126.716C251.705 126.692 251.689 126.663 251.68 126.633C251.671 126.603 251.669 126.571 251.673 126.539C251.677 126.508 251.688 126.478 251.704 126.451C251.721 126.423 251.743 126.4 251.77 126.382C251.796 126.363 251.825 126.349 251.857 126.342C251.888 126.334 251.921 126.333 251.953 126.338C251.984 126.344 252.015 126.355 252.042 126.372C252.069 126.389 252.093 126.411 252.111 126.437L252.863 127.453L253.622 126.437C253.66 126.386 253.717 126.351 253.781 126.341C253.844 126.331 253.91 126.345 253.963 126.382C254.013 126.421 254.046 126.476 254.057 126.538C254.067 126.6 254.054 126.663 254.02 126.716Z" fill="#EBEBEB"/>
</svg>
