<svg width="497" height="403" viewBox="0 0 497 403" fill="none" xmlns="http://www.w3.org/2000/svg">
<path d="M171.847 393.93C52.247 373 68.247 311.13 30.607 239.71C-7.03295 168.29 -11.483 139.22 25.797 78C63.077 16.78 143.717 -17.65 218.867 33.56C294.017 84.77 348.867 68.89 394.327 108.78C439.787 148.67 445.887 204.35 391.997 253.96C338.107 303.57 319.317 419.71 171.847 393.93Z" fill="#92E3A9"/>
<path opacity="0.7" d="M171.847 393.93C52.247 373 68.247 311.13 30.607 239.71C-7.03295 168.29 -11.483 139.22 25.797 78C63.077 16.78 143.717 -17.65 218.867 33.56C294.017 84.77 348.867 68.89 394.327 108.78C439.787 148.67 445.887 204.35 391.997 253.96C338.107 303.57 319.317 419.71 171.847 393.93Z" fill="white"/>
<path d="M63.3571 231.92V57.47H78.1971" stroke="black" stroke-opacity="0.7" stroke-linecap="round" stroke-linejoin="round"/>
<path d="M63.3671 260.44V254.08" stroke="black" stroke-opacity="0.7" stroke-linecap="round" stroke-linejoin="round"/>
<path d="M116.347 57.47H269.407V282.77H63.3571" stroke="black" stroke-opacity="0.7" stroke-linecap="round" stroke-linejoin="round"/>
<path d="M97.5771 57.47H111.027" stroke="black" stroke-opacity="0.7" stroke-linecap="round" stroke-linejoin="round"/>
<path d="M261.657 65.21H71.1071V275.04H261.657V65.21Z" stroke="black" stroke-opacity="0.7" stroke-linecap="round" stroke-linejoin="round"/>
<path d="M252.797 79.9299V161.54H79.9671V154.1" stroke="black" stroke-opacity="0.7" stroke-linecap="round" stroke-linejoin="round"/>
<path d="M79.9671 136.64V73.3101H252.797" stroke="black" stroke-opacity="0.7" stroke-linecap="round" stroke-linejoin="round"/>
<path d="M79.9771 148.37V141.13" stroke="black" stroke-opacity="0.7" stroke-linecap="round" stroke-linejoin="round"/>
<path d="M223.617 170.12H261.657" stroke="black" stroke-opacity="0.7" stroke-linecap="round" stroke-linejoin="round"/>
<path d="M210.087 170.12H215.467" stroke="black" stroke-opacity="0.7" stroke-linecap="round" stroke-linejoin="round"/>
<path d="M71.1071 170.12H203.657" stroke="black" stroke-opacity="0.7" stroke-linecap="round" stroke-linejoin="round"/>
<path d="M156.807 161.54V157.62H172.737V159.85H166.387V161.54" stroke="black" stroke-opacity="0.7" stroke-linecap="round" stroke-linejoin="round"/>
<path d="M71.4371 240.45C71.4371 240.45 74.0771 242.45 75.9371 254.55C75.9371 254.55 79.1371 235.22 83.0171 234.92C86.8971 234.62 86.0771 247.5 86.0771 247.5C86.0771 247.5 86.7171 241.15 89.7571 241.44C92.7971 241.73 89.7571 254.55 89.7571 254.55C89.7571 254.55 93.4071 244.55 96.8571 244.73C100.307 244.91 94.5671 262.84 94.5671 262.84C94.5671 262.84 103.427 256.42 107.017 259.56C110.607 262.7 105.017 270.62 105.017 270.62C105.017 270.62 117.727 267.86 119.697 275.31" stroke="black" stroke-opacity="0.7" stroke-linecap="round" stroke-linejoin="round"/>
<path d="M119.727 268.09C119.727 268.09 125.267 264.46 129.617 266.15C129.617 266.15 126.847 261.93 129.617 259.35C132.387 256.77 135.947 266.15 135.947 266.15C135.947 266.15 136.347 250.44 141.887 251.23C147.427 252.02 141.887 266.15 141.887 266.15C141.887 266.15 151.777 257.39 154.147 260.44C156.517 263.49 152.567 268.09 152.567 268.09C152.567 268.09 158.497 266.19 162.847 270.62C162.847 270.62 169.477 263.85 176.847 262.88C176.847 262.88 171.947 248.66 174.327 245.79C176.707 242.92 181.007 258.2 181.007 258.2C181.007 258.2 182.897 248.26 189.087 247.5C189.087 247.5 183.927 244.69 185.457 240.45C186.987 236.21 194.107 241.45 194.107 241.45C194.107 241.45 191.177 233.98 195.807 231.93C200.437 229.88 202.367 238.18 202.367 238.18C202.367 238.18 203.657 229.48 209.097 229.96C214.537 230.44 212.777 240.46 212.777 240.46C212.777 240.46 217.907 232.46 220.657 233.31C226.147 234.93 224.477 247.51 224.477 247.51C224.477 247.51 232.147 242.18 234.117 244.63C236.247 247.28 226.117 254.09 226.117 254.09C226.117 254.09 233.727 254.93 238.457 259.36" stroke="black" stroke-opacity="0.7" stroke-linecap="round" stroke-linejoin="round"/>
<path d="M261.657 243.32C261.657 243.32 260.787 235.32 252.797 234.92C244.807 234.52 254.997 252.42 254.997 252.42C254.997 252.42 248.407 246.97 246.047 248.65C243.687 250.33 252.797 259.56 252.797 259.56C252.797 259.56 248.427 255.56 243.797 256.77C239.167 257.98 246.427 270.87 246.427 270.87C239.584 269.488 232.478 270.318 226.137 273.24" stroke="black" stroke-opacity="0.7" stroke-linecap="round" stroke-linejoin="round"/>
<path d="M341.137 350.62V250.94H453.377" stroke="black" stroke-opacity="0.7" stroke-linecap="round" stroke-linejoin="round"/>
<path d="M449.297 261.25H350.167V354.1" stroke="black" stroke-opacity="0.7" stroke-linecap="round" stroke-linejoin="round"/>
<path d="M370.007 311.89V270.62H376.497V279.13H385.157V275.31H392.897V279.94H403.347V270.62H414.037V276.88H419.797V273.24H430.117V297.55" stroke="black" stroke-opacity="0.7" stroke-linecap="round" stroke-linejoin="round"/>
<path d="M419.797 276.88V311.89" stroke="black" stroke-opacity="0.7" stroke-linecap="round" stroke-linejoin="round"/>
<path d="M414.867 282.12V288.37" stroke="black" stroke-opacity="0.7" stroke-linecap="round" stroke-linejoin="round"/>
<path d="M414.867 292.85V318.52" stroke="black" stroke-opacity="0.7" stroke-linecap="round" stroke-linejoin="round"/>
<path d="M403.347 279.95V303.01" stroke="black" stroke-opacity="0.7" stroke-linecap="round" stroke-linejoin="round"/>
<path d="M403.747 310.61V317.79" stroke="black" stroke-opacity="0.7" stroke-linecap="round" stroke-linejoin="round"/>
<path d="M392.897 279.95V292.85" stroke="black" stroke-opacity="0.7" stroke-linecap="round" stroke-linejoin="round"/>
<path d="M392.897 300.78V327.96" stroke="black" stroke-opacity="0.7" stroke-linecap="round" stroke-linejoin="round"/>
<path d="M385.157 279.13V311.17" stroke="black" stroke-opacity="0.7" stroke-linecap="round" stroke-linejoin="round"/>
<path d="M376.497 279.13V291.25" stroke="black" stroke-opacity="0.7" stroke-linecap="round" stroke-linejoin="round"/>
<path d="M376.497 297.55V326.36" stroke="black" stroke-opacity="0.7" stroke-linecap="round" stroke-linejoin="round"/>
<path d="M370.007 317.79V330.8" stroke="black" stroke-opacity="0.7" stroke-linecap="round" stroke-linejoin="round"/>
<path d="M356.617 330.8H435.397" stroke="black" stroke-opacity="0.7" stroke-linecap="round" stroke-linejoin="round"/>
<path d="M419.797 330.8V322.47" stroke="black" stroke-opacity="0.7" stroke-linecap="round" stroke-linejoin="round"/>
<path d="M403.747 324.67V330.41" stroke="black" stroke-opacity="0.7" stroke-linecap="round" stroke-linejoin="round"/>
<path d="M430.997 283.93H438.637" stroke="black" stroke-opacity="0.7" stroke-linecap="round" stroke-linejoin="round"/>
<path d="M356.917 338.06H430.117" stroke="black" stroke-opacity="0.7" stroke-linecap="round" stroke-linejoin="round"/>
<path d="M372.627 359.23V349.53H386.187V355.78H397.097V367.97H403.347V349.9H417.197V354.1H425.707" stroke="black" stroke-opacity="0.7" stroke-linecap="round" stroke-linejoin="round"/>
<path d="M417.197 354.1V364.5" stroke="black" stroke-opacity="0.7" stroke-linecap="round" stroke-linejoin="round"/>
<path d="M403.747 372.37V379.37" stroke="black" stroke-opacity="0.7" stroke-linecap="round" stroke-linejoin="round"/>
<path d="M397.097 367.97V377.19" stroke="black" stroke-opacity="0.7" stroke-linecap="round" stroke-linejoin="round"/>
<path d="M386.187 355.78V361.07" stroke="black" stroke-opacity="0.7" stroke-linecap="round" stroke-linejoin="round"/>
<path d="M233.847 377.2H210.167L197.347 373.14L193.347 371.87L192.177 383.94L51.9571 384.2C51.9571 384.2 54.0971 378.8 57.5871 370.88C65.1171 353.79 78.9171 324.93 90.9871 313.14C100.787 303.57 125.267 303.3 125.267 303.3C127.766 301.643 130.698 300.759 133.697 300.76C138.197 300.98 172.217 304.67 174.327 305.76C175.796 306.612 177.057 307.78 178.017 309.18C178.017 309.18 189.937 303.91 201.647 308.66C213.357 313.41 233.847 377.2 233.847 377.2Z" fill="#BFBFBF"/>
<path opacity="0.2" d="M197.347 373.14L193.347 371.87L192.177 383.94L51.9571 384.2C51.9571 384.2 54.0971 378.8 57.5871 370.88C62.9971 370.75 69.0971 370.47 69.0971 370.47L72.2371 360.2C72.2371 360.2 77.1671 354.99 83.3271 358.06C83.1216 357.283 83.1645 356.461 83.4496 355.71C83.7348 354.958 84.2479 354.315 84.9171 353.87C87.2971 352.29 97.0571 357.36 97.0571 357.36C97.0571 357.36 101.757 348.36 103.357 342.47C104.957 336.58 106.017 350.8 106.017 350.8C106.017 350.8 110.017 344.26 110.017 342.47C110.017 340.68 117.397 360.2 117.397 360.2C117.397 360.2 127.157 361.37 129.797 362.37C132.437 363.37 158.717 364.37 167.177 362.37C175.637 360.37 161.177 372.37 161.177 372.37C161.177 372.37 176.037 377.37 184.437 374.09C192.837 370.81 196.597 367.3 196.597 367.3C196.597 367.3 196.907 369.73 197.347 373.14Z" fill="black" fill-opacity="0.7"/>
<path d="M233.847 377.2H210.167L197.347 373.14L193.347 371.87L192.177 383.94L51.9571 384.2C51.9571 384.2 54.0971 378.8 57.5871 370.88C65.1171 353.79 78.9171 324.93 90.9871 313.14C100.787 303.57 125.267 303.3 125.267 303.3C127.766 301.643 130.698 300.759 133.697 300.76C138.197 300.98 172.217 304.67 174.327 305.76C175.796 306.612 177.057 307.78 178.017 309.18C178.017 309.18 189.937 303.91 201.647 308.66C213.357 313.41 233.847 377.2 233.847 377.2Z" stroke="black" stroke-opacity="0.7" stroke-linecap="round" stroke-linejoin="round"/>
<path d="M189.627 346.36C187.545 349.296 185.169 352.014 182.537 354.47" stroke="black" stroke-opacity="0.7" stroke-linecap="round" stroke-linejoin="round"/>
<path d="M175.607 360.3C165.419 367.825 153.445 372.564 140.867 374.05" stroke="black" stroke-opacity="0.7" stroke-linecap="round" stroke-linejoin="round"/>
<path d="M219.397 356.89C219.397 356.89 223.037 354.63 226.227 355.37C229.417 356.11 232.057 359.26 232.057 359.26C232.057 359.26 258.537 357.07 264.547 357.26C270.557 357.45 284.007 361.39 284.007 361.39C284.007 361.39 290.527 360.07 291.227 360.34C291.927 360.61 289.817 382.8 289.817 382.8H203.817C199.597 382.8 196.467 376.69 193.297 371.89C198.758 352.79 201.551 333.026 201.597 313.16" fill="#BFBFBF"/>
<path opacity="0.2" d="M242.997 382.78H203.837C199.617 382.78 196.487 376.67 193.317 371.87C196.452 361.094 198.683 350.076 199.987 338.93C199.987 338.93 204.147 345.1 201.617 352.25L204.147 345.1C204.147 345.1 206.577 352.76 204.147 359.25C201.717 365.74 199.987 367.6 199.987 367.6C199.987 367.6 202.987 371.52 206.167 370.47C209.347 369.42 212.807 375.78 212.807 375.78C212.807 375.78 220.447 376.07 222.037 375.78C222.767 375.65 232.657 379.06 242.997 382.78Z" fill="black" fill-opacity="0.7"/>
<path d="M219.397 356.89C219.397 356.89 223.037 354.63 226.227 355.37C229.417 356.11 232.057 359.26 232.057 359.26C232.057 359.26 258.537 357.07 264.547 357.26C270.557 357.45 284.007 361.39 284.007 361.39C284.007 361.39 290.527 360.07 291.227 360.34C291.927 360.61 289.817 382.8 289.817 382.8H203.817C199.597 382.8 196.467 376.69 193.297 371.89C198.758 352.79 201.551 333.026 201.597 313.16" stroke="black" stroke-opacity="0.7" stroke-linecap="round" stroke-linejoin="round"/>
<path d="M170.237 287.79V309.15C167.529 310.994 164.725 312.693 161.837 314.24C156.007 317.33 148.527 320.39 144.077 318.65C136.007 315.48 130.777 303.3 130.777 303.3C139.487 296.66 140.537 287.79 141.857 283.57L170.237 287.79Z" fill="white" stroke="black" stroke-opacity="0.7" stroke-linecap="round" stroke-linejoin="round"/>
<path d="M126.557 304.93C126.557 304.93 133.947 321.02 142.917 323.93C151.887 326.84 167.077 315.48 167.077 315.48" stroke="black" stroke-opacity="0.7" stroke-linecap="round" stroke-linejoin="round"/>
<path d="M86.2071 324.4C86.2071 324.4 100.207 335.3 102.557 338.97C104.907 342.64 102.557 377.2 102.557 377.2" stroke="black" stroke-opacity="0.7" stroke-linecap="round" stroke-linejoin="round"/>
<path d="M67.1471 359.57C75.3971 354.25 81.1971 360.07 86.2071 361.12C91.2171 362.17 102.297 356.51 110.607 361.12C118.917 365.73 118.917 364.12 118.917 364.12C118.917 364.12 127.617 370.76 123.127 384.05L51.9271 384.18C51.9271 384.18 47.1771 374.03 62.7871 359.55" fill="#BFBFBF"/>
<path d="M67.1471 359.57C75.3971 354.25 81.1971 360.07 86.2071 361.12C91.2171 362.17 102.297 356.51 110.607 361.12C118.917 365.73 118.917 364.12 118.917 364.12C118.917 364.12 127.617 370.76 123.127 384.05L51.9271 384.18C51.9271 384.18 47.1771 374.03 62.7871 359.55" stroke="black" stroke-opacity="0.7" stroke-linecap="round" stroke-linejoin="round"/>
<path d="M136.917 339L155.707 373.37L156.297 377.23L153.297 374.56L133.917 340.44C134.202 339.915 134.645 339.493 135.184 339.235C135.723 338.976 136.329 338.894 136.917 339V339Z" fill="#92E3A9" stroke="black" stroke-opacity="0.7" stroke-linecap="round" stroke-linejoin="round"/>
<path d="M119.077 365.92C120.496 365.508 121.954 365.243 123.427 365.13C125.017 365.13 134.797 357.9 138.117 357.36C141.437 356.82 147.407 361.77 150.447 362.56C153.487 363.35 153.297 367.31 155.077 368.89C156.857 370.47 154.287 372.25 152.077 370.47C152.235 371.088 152.245 371.734 152.106 372.356C151.967 372.978 151.683 373.558 151.277 374.05C151.277 374.05 151.877 376.21 151.277 377.2H116.077C116.077 377.2 115.547 370.47 119.077 365.92Z" fill="white" stroke="black" stroke-opacity="0.7" stroke-linecap="round" stroke-linejoin="round"/>
<path d="M152.147 370.47L148.977 367.34L140.867 364.74" stroke="black" stroke-opacity="0.7" stroke-linecap="round" stroke-linejoin="round"/>
<path d="M151.357 374.05L146.507 371.87L139.877 370.62" stroke="black" stroke-opacity="0.7" stroke-linecap="round" stroke-linejoin="round"/>
<path d="M139.877 375.78L146.507 376.08L151.357 377.2" stroke="black" stroke-opacity="0.7" stroke-linecap="round" stroke-linejoin="round"/>
<path d="M138.147 357.36C135.147 359.99 138.147 362.76 136.717 364.74C135.287 366.72 133.717 367.31 134.937 370.47" stroke="black" stroke-opacity="0.7" stroke-linecap="round" stroke-linejoin="round"/>
<path d="M180.957 378.87H341.137C341.137 380.283 340.576 381.639 339.576 382.639C338.576 383.638 337.221 384.2 335.807 384.2H193.807C193.25 384.199 192.697 384.111 192.167 383.94L180.757 380.26C180.594 380.211 180.454 380.105 180.363 379.962C180.271 379.819 180.234 379.647 180.258 379.479C180.283 379.31 180.367 379.156 180.495 379.045C180.623 378.933 180.787 378.871 180.957 378.87V378.87Z" fill="#92E3A9"/>
<path opacity="0.2" d="M341.137 378.87C341.136 380.283 340.575 381.639 339.577 382.64L339.417 382.78C338.436 383.692 337.147 384.2 335.807 384.2H193.807C193.25 384.199 192.697 384.111 192.167 383.94L180.757 380.26C180.592 380.211 180.451 380.103 180.36 379.958C180.268 379.812 180.233 379.639 180.259 379.469C180.286 379.299 180.374 379.145 180.506 379.035C180.638 378.924 180.805 378.866 180.977 378.87H341.137Z" fill="black" fill-opacity="0.7"/>
<path opacity="0.2" d="M341.137 378.87C341.136 380.283 340.575 381.639 339.577 382.64L339.417 382.78H247.767C246.729 382.78 245.734 382.368 244.999 381.635C244.264 380.902 243.85 379.908 243.847 378.87H341.137Z" fill="black" fill-opacity="0.7"/>
<path d="M180.957 378.87H341.137C341.137 380.283 340.576 381.639 339.576 382.639C338.576 383.638 337.221 384.2 335.807 384.2H193.807C193.25 384.199 192.697 384.111 192.167 383.94L180.757 380.26C180.594 380.211 180.454 380.105 180.363 379.962C180.271 379.819 180.234 379.647 180.258 379.479C180.283 379.31 180.367 379.156 180.495 379.045C180.623 378.933 180.787 378.871 180.957 378.87V378.87Z" stroke="black" stroke-opacity="0.7" stroke-linecap="round" stroke-linejoin="round"/>
<path d="M243.847 378.87C243.85 379.908 244.264 380.902 244.999 381.635C245.734 382.368 246.729 382.78 247.767 382.78H262.977" stroke="black" stroke-opacity="0.7" stroke-linecap="round" stroke-linejoin="round"/>
<path d="M369.807 313.12V313.25L351.167 378.1C350.889 378.933 350.364 379.661 349.662 380.188C348.96 380.715 348.114 381.016 347.237 381.05H250.137C249.769 381.079 249.4 381.015 249.064 380.865C248.727 380.714 248.434 380.481 248.211 380.187C247.988 379.893 247.842 379.548 247.787 379.184C247.732 378.819 247.77 378.446 247.897 378.1L266.517 313.25C266.794 312.416 267.318 311.687 268.02 311.16C268.723 310.633 269.569 310.333 270.447 310.3H367.547C367.903 310.268 368.262 310.325 368.591 310.465C368.92 310.606 369.209 310.825 369.433 311.104C369.656 311.383 369.808 311.713 369.873 312.065C369.938 312.417 369.916 312.779 369.807 313.12Z" fill="#92E3A9"/>
<path opacity="0.4" d="M369.807 313.12V313.25L351.167 378.1C350.889 378.933 350.364 379.661 349.662 380.188C348.96 380.715 348.114 381.016 347.237 381.05H250.777V380.92L269.387 316.07C269.665 315.237 270.19 314.509 270.892 313.982C271.594 313.455 272.44 313.154 273.317 313.12H369.807Z" fill="white"/>
<path d="M369.807 313.12V313.25L351.167 378.1C350.889 378.933 350.364 379.661 349.662 380.188C348.96 380.715 348.114 381.016 347.237 381.05H250.137C249.769 381.079 249.4 381.015 249.064 380.865C248.727 380.714 248.434 380.481 248.211 380.187C247.988 379.893 247.842 379.548 247.787 379.184C247.732 378.819 247.77 378.446 247.897 378.1L266.517 313.25C266.794 312.416 267.318 311.687 268.02 311.16C268.723 310.633 269.569 310.333 270.447 310.3H367.547C367.903 310.268 368.262 310.325 368.591 310.465C368.92 310.606 369.209 310.825 369.433 311.104C369.656 311.383 369.808 311.713 369.873 312.065C369.938 312.417 369.916 312.779 369.807 313.12Z" stroke="black" stroke-opacity="0.7" stroke-linecap="round" stroke-linejoin="round"/>
<path d="M315.837 346.87C315.01 348.572 313.736 350.018 312.15 351.052C310.565 352.086 308.728 352.669 306.837 352.74C302.757 352.74 300.347 349.58 301.467 345.68C302.137 343.684 303.397 341.939 305.081 340.677C306.766 339.414 308.794 338.693 310.897 338.61H311.077C310.889 338.995 310.735 339.397 310.617 339.81C309.467 343.68 311.817 346.81 315.837 346.87Z" fill="white" stroke="black" stroke-opacity="0.7" stroke-linecap="round" stroke-linejoin="round"/>
<path d="M251.277 377.87L269.447 314.57C269.609 314.085 269.915 313.66 270.324 313.353C270.733 313.046 271.226 312.87 271.737 312.85H365.857" stroke="black" stroke-opacity="0.7" stroke-linecap="round" stroke-linejoin="round"/>
<path d="M206.167 384.2H72.1671L73.7871 380.82C73.7871 380.82 86.4471 382 96.4771 378.87C100.907 377.49 107.727 376.87 114.567 376.95C118.877 377.01 129.367 377.05 135.877 377.02C138.197 377.02 140.017 377.02 140.877 376.96C141.207 376.96 141.537 376.96 141.877 376.96C143.734 376.937 145.587 377.112 147.407 377.48C149.163 377.281 150.93 377.194 152.697 377.22C155.787 377.22 169.077 377.17 172.697 377.22C177.467 377.28 182.977 378.22 188.207 378.94L188.347 378.89V378.96C194.667 379.84 200.587 380.44 204.347 378.89L206.167 384.2Z" fill="white"/>
<path opacity="0.4" d="M206.167 384.2H102.297L104.407 380.57C104.407 380.57 110.077 383.88 115.617 381.57C121.157 379.26 126.737 378 135.877 377C137.87 376.787 139.879 376.76 141.877 376.92C145.856 377.225 149.768 378.115 153.487 379.56C153.487 379.56 158.937 377.18 172.697 377.18C177.467 377.24 182.977 378.18 188.207 378.9L188.347 378.85V378.92C194.667 379.8 200.587 380.4 204.347 378.85L206.167 384.2Z" fill="#92E3A9"/>
<path d="M104.407 380.57L73.8271 380.82L72.2071 384.2H102.297L104.407 380.57Z" fill="#92E3A9"/>
<path d="M103.157 382.71L104.407 380.57C107.111 381.747 110.028 382.353 112.977 382.35C117.457 382.22 124.537 376.67 138.147 376.94" stroke="black" stroke-opacity="0.7" stroke-linecap="round" stroke-linejoin="round"/>
<path d="M147.377 377.46C149.887 378.38 153.457 379.58 153.457 379.58C153.457 379.58 158.077 376.92 168.227 377.2" stroke="black" stroke-opacity="0.7" stroke-linecap="round" stroke-linejoin="round"/>
<path d="M104.407 380.57C104.407 380.57 88.5871 380.85 82.2571 380.99" stroke="black" stroke-opacity="0.7" stroke-linecap="round" stroke-linejoin="round"/>
<path d="M151.347 384.2C151.433 383.548 151.722 382.94 152.172 382.461C152.623 381.982 153.212 381.656 153.857 381.53C156.097 381.16 157.547 383.93 157.547 383.93" stroke="black" stroke-opacity="0.7" stroke-linecap="round" stroke-linejoin="round"/>
<path d="M153.457 379.58L153.857 381.53" stroke="black" stroke-opacity="0.7" stroke-linecap="round" stroke-linejoin="round"/>
<path d="M155.707 381.53C155.707 381.53 162.827 378.28 169.707 378.87" stroke="black" stroke-opacity="0.7" stroke-linecap="round" stroke-linejoin="round"/>
<path d="M152.777 381.92C152.147 381.43 141.457 378.13 130.517 380.57" stroke="black" stroke-opacity="0.7" stroke-linecap="round" stroke-linejoin="round"/>
<path d="M151.347 383.27C151.347 383.27 142.347 381.56 134.517 382.75" stroke="black" stroke-opacity="0.7" stroke-linecap="round" stroke-linejoin="round"/>
<path d="M156.707 382.77C162.681 381.104 168.933 380.682 175.077 381.53C181.127 382.43 187.241 382.838 193.357 382.75" stroke="black" stroke-opacity="0.7" stroke-linecap="round" stroke-linejoin="round"/>
<path d="M206.167 384.2H72.1671L73.7871 380.82C73.7871 380.82 86.4471 382 96.4771 378.87C100.907 377.49 107.727 376.87 114.567 376.95C118.877 377.01 129.367 377.05 135.877 377.02C138.197 377.02 140.017 377.02 140.877 376.96C141.207 376.96 141.537 376.96 141.877 376.96C143.734 376.937 145.587 377.112 147.407 377.48C149.163 377.281 150.93 377.194 152.697 377.22C155.787 377.22 169.077 377.17 172.697 377.22C177.467 377.28 182.977 378.22 188.207 378.94L188.347 378.89V378.96C194.667 379.84 200.587 380.44 204.347 378.89L206.167 384.2Z" stroke="black" stroke-opacity="0.7" stroke-linecap="round" stroke-linejoin="round"/>
<path d="M170.237 305.6V309.15C167.529 310.994 164.725 312.693 161.837 314.24C155.427 308.35 154.517 297.16 154.517 297.16L170.237 305.6Z" fill="black" fill-opacity="0.7"/>
<path d="M142.917 285.15C135.377 274 136.917 253.15 146.607 241.77C160.847 225.15 198.007 237.29 197.977 260.77C197.948 264.033 197.667 267.29 197.137 270.51C196.647 273.61 193.957 276.74 193.137 279.83C192.317 282.92 192.647 287.83 192.317 290.83C191.577 297.66 182.127 311.21 179.567 312.68C175.987 314.68 156.637 309.25 152.417 296.84" fill="white"/>
<path d="M142.917 285.15C135.377 274 136.917 253.15 146.607 241.77C160.847 225.15 198.007 237.29 197.977 260.77C197.948 264.033 197.667 267.29 197.137 270.51C196.647 273.61 193.957 276.74 193.137 279.83C192.317 282.92 192.647 287.83 192.317 290.83C191.577 297.66 182.127 311.21 179.567 312.68C175.987 314.68 156.637 309.25 152.417 296.84" stroke="black" stroke-opacity="0.7" stroke-linecap="round" stroke-linejoin="round"/>
<path d="M169.287 271.37C169.287 271.37 174.557 269.45 179.287 271.37" stroke="black" stroke-opacity="0.7" stroke-linecap="round" stroke-linejoin="round"/>
<path d="M190.077 271.37C190.077 271.37 193.917 269.45 196.487 271.37" stroke="black" stroke-opacity="0.7" stroke-linecap="round" stroke-linejoin="round"/>
<path d="M174.217 280.33C173.937 281.68 173.017 282.64 172.217 282.47C171.417 282.3 170.887 281.05 171.167 279.69C171.447 278.33 172.367 277.38 173.217 277.56C174.067 277.74 174.497 279 174.217 280.33Z" fill="black" fill-opacity="0.7"/>
<path d="M191.177 280.33C190.897 281.68 189.977 282.64 189.177 282.47C188.377 282.3 187.847 281.05 188.127 279.69C188.407 278.33 189.317 277.38 190.177 277.56C191.037 277.74 191.457 279 191.177 280.33Z" fill="black" fill-opacity="0.7"/>
<path d="M188.407 273.42C188.407 273.42 185.897 277.77 185.637 281.42C185.377 285.07 189.637 292.63 188.407 295C187.177 297.37 181.947 297.25 180.227 295.8" fill="white"/>
<path d="M188.407 273.42C188.407 273.42 185.897 277.77 185.637 281.42C185.377 285.07 189.637 292.63 188.407 295C187.177 297.37 181.947 297.25 180.227 295.8" stroke="black" stroke-opacity="0.7" stroke-linecap="round" stroke-linejoin="round"/>
<path d="M181.157 300.58C177.701 301.069 174.178 300.566 170.997 299.13" stroke="black" stroke-opacity="0.7" stroke-linecap="round" stroke-linejoin="round"/>
<path d="M150.477 274.87C150.477 274.87 152.937 272.49 155.837 273.42C158.737 274.35 159.267 282.25 159.267 282.25L161.377 280C161.377 280 160.587 275.53 163.747 269.26C166.907 262.99 165.327 255.61 165.327 255.61C165.327 255.61 170.777 257.45 172.667 261.67C172.667 261.67 174.727 257.19 172.667 253.76C172.667 253.76 181.157 255.87 183.267 262.2C183.267 262.2 184.937 257.45 184.367 255.08C184.367 255.08 190.117 256.92 192.227 262.46C192.227 262.46 194.147 258.24 193.317 254.81C193.317 254.81 195.637 256.81 196.527 262.73C198.259 259.12 198.768 255.045 197.977 251.12C197.977 251.12 200.977 254.55 201.457 257.45C201.457 257.45 203.897 249.01 189.627 237.67C175.357 226.33 150.927 228.9 147.127 237.67C147.127 237.67 148.387 231.21 150.927 228.9C150.927 228.9 143.927 232.02 144.077 238.46C144.077 238.46 137.897 237.67 134.737 241.63C136.674 241.483 138.621 241.571 140.537 241.89C140.537 241.89 132.097 246.89 132.627 258.77C133.157 270.65 140.537 287.77 140.537 287.77L146.317 286.08C146.317 286.08 147.237 278 150.477 274.87Z" fill="black" fill-opacity="0.7"/>
<path d="M156.887 277.77C156.887 277.77 152.407 269.86 150.037 269.33C147.667 268.8 143.177 271.97 144.227 276.19C145.277 280.41 146.077 287.53 147.397 288.32C148.717 289.11 150.827 293.86 152.937 292.54C153.215 292.397 153.455 292.191 153.639 291.938C153.822 291.686 153.944 291.394 153.995 291.086C154.045 290.778 154.023 290.462 153.93 290.164C153.836 289.866 153.674 289.594 153.457 289.37" fill="white"/>
<path d="M156.887 277.77C156.887 277.77 152.407 269.86 150.037 269.33C147.667 268.8 143.177 271.97 144.227 276.19C145.277 280.41 146.077 287.53 147.397 288.32C148.717 289.11 150.827 293.86 152.937 292.54C153.215 292.397 153.455 292.191 153.639 291.938C153.822 291.686 153.944 291.394 153.995 291.086C154.045 290.778 154.023 290.462 153.93 290.164C153.836 289.866 153.674 289.594 153.457 289.37" stroke="black" stroke-opacity="0.7" stroke-linecap="round" stroke-linejoin="round"/>
<path d="M206.997 338.93C206.544 340.879 205.963 342.797 205.257 344.67" stroke="black" stroke-opacity="0.7" stroke-linecap="round" stroke-linejoin="round"/>
<path d="M203.647 348.49C202.053 352.124 199.717 355.384 196.787 358.06" stroke="black" stroke-opacity="0.7" stroke-linecap="round" stroke-linejoin="round"/>
<path d="M232.077 359.26C230.707 359.08 227.917 360.81 225.357 363.04" stroke="black" stroke-opacity="0.7" stroke-linecap="round" stroke-linejoin="round"/>
<path d="M223.477 364.81C221.477 366.88 219.927 369.07 219.927 370.47" stroke="black" stroke-opacity="0.7" stroke-linecap="round" stroke-linejoin="round"/>
<path d="M78.0771 353.87C78.0771 353.87 83.7671 355.45 83.8171 360.33" stroke="black" stroke-opacity="0.7" stroke-linecap="round" stroke-linejoin="round"/>
<path d="M99.3971 327.23C100.342 328.287 101.201 329.417 101.967 330.61" stroke="black" stroke-opacity="0.7" stroke-linecap="round" stroke-linejoin="round"/>
<path d="M104.217 334.73C105.336 337.16 105.939 339.795 105.987 342.47C105.987 350.7 103.617 355.47 103.617 355.47" stroke="black" stroke-opacity="0.7" stroke-linecap="round" stroke-linejoin="round"/>
<path d="M133.947 319.16C135.456 320.562 137.071 321.846 138.777 323" stroke="black" stroke-opacity="0.7" stroke-linecap="round" stroke-linejoin="round"/>
<path d="M143.797 326C148.907 328.58 155.517 330.52 162.377 328.81" stroke="black" stroke-opacity="0.7" stroke-linecap="round" stroke-linejoin="round"/>
<g opacity="0.2">
<path opacity="0.2" d="M154.517 238.09C156.304 237.817 158.11 237.7 159.917 237.74" stroke="white" stroke-linecap="round" stroke-linejoin="round"/>
<path opacity="0.2" d="M162.547 237.88C167.437 238.34 173.457 240.05 177.197 245.21" stroke="white" stroke-linecap="round" stroke-linejoin="round"/>
<path opacity="0.2" d="M166.387 234.08C166.387 234.08 175.557 234.18 182.127 238.77" stroke="white" stroke-linecap="round" stroke-linejoin="round"/>
<path opacity="0.2" d="M184.707 241C185.883 242.229 186.825 243.663 187.487 245.23" stroke="white" stroke-linecap="round" stroke-linejoin="round"/>
<path opacity="0.2" d="M152.147 242C152.147 242 161.147 245.17 164.277 250.84" stroke="white" stroke-linecap="round" stroke-linejoin="round"/>
<path opacity="0.2" d="M147.787 245.21C149.737 247.912 151.14 250.969 151.917 254.21" stroke="white" stroke-linecap="round" stroke-linejoin="round"/>
<path opacity="0.2" d="M152.477 258.66C152.489 259.855 152.378 261.048 152.147 262.22" stroke="white" stroke-linecap="round" stroke-linejoin="round"/>
<path opacity="0.2" d="M141.727 248.9C141.264 250.076 140.88 251.282 140.577 252.51" stroke="white" stroke-linecap="round" stroke-linejoin="round"/>
<path opacity="0.2" d="M139.867 256C139.342 259.118 139.301 262.299 139.747 265.43" stroke="white" stroke-linecap="round" stroke-linejoin="round"/>
</g>
<path d="M259.747 401.98H385.947V384.2H34.3871V401.98H105.467" fill="white"/>
<path d="M259.747 401.98H385.947V384.2H34.3871V401.98H105.467" stroke="black" stroke-opacity="0.7" stroke-linecap="round" stroke-linejoin="round"/>
<path d="M250.687 401.98H232.767" stroke="black" stroke-opacity="0.7" stroke-linecap="round" stroke-linejoin="round"/>
<path d="M495.717 1H256.077V166.57H495.717V1Z" fill="#92E3A9" stroke="black" stroke-opacity="0.7" stroke-linecap="round" stroke-linejoin="round"/>
<path d="M495.717 1H256.077V17.37H495.717V1Z" fill="black" fill-opacity="0.7"/>
<path d="M353.157 114.52L347.537 106.7C347.536 105.067 347.453 103.435 347.287 101.81C347.077 101.08 343.667 95.71 343.587 94.44C343.574 93.8336 343.497 93.2302 343.357 92.64C343.357 92.64 341.607 93.08 341.627 94.15C341.647 95.22 341.837 98.83 341.837 98.83C341.837 98.83 337.277 96.17 336.767 95.47C336.257 94.77 330.697 90.69 330.177 90.08C329.657 89.47 327.537 89.43 327.287 90.08L327.587 90.83L325.837 91.66L327.007 95.13C326.672 95.9112 326.47 96.7425 326.407 97.59C326.597 98.02 327.217 100.59 327.217 100.59C327.217 100.59 326.837 100.98 326.887 102.34C326.937 103.7 334.407 110.65 335.887 111.4C337.655 112.143 339.464 112.781 341.307 113.31L345.997 119.38L353.157 114.52Z" fill="white" stroke="black" stroke-opacity="0.7" stroke-linecap="round" stroke-linejoin="round"/>
<path d="M341.827 98.8301C340.954 100.817 340.731 103.029 341.187 105.15" stroke="black" stroke-opacity="0.7" stroke-linecap="round" stroke-linejoin="round"/>
<path d="M327.577 90.8301C329.087 91.4101 330.977 94.2301 331.847 95.1001C332.634 95.8098 333.477 96.4552 334.367 97.0301" stroke="black" stroke-opacity="0.7" stroke-linecap="round" stroke-linejoin="round"/>
<path d="M326.997 95.1001C328.237 94.8401 329.077 95.3201 329.047 96.5301C329.017 97.7401 331.697 99.5801 331.697 99.5801" stroke="black" stroke-opacity="0.7" stroke-linecap="round" stroke-linejoin="round"/>
<path d="M327.207 100.56C327.207 100.56 328.077 99.0101 328.767 99.7201C329.457 100.43 329.677 102.25 330.947 102.63" stroke="black" stroke-opacity="0.7" stroke-linecap="round" stroke-linejoin="round"/>
<path d="M426.237 106.02C426.237 106.02 406.507 107.24 402.157 109.02C398.587 110.49 373.477 127.02 373.477 127.02C373.477 127.02 358.707 115.88 354.417 112.02C353.59 111.62 352.7 111.363 351.787 111.26L349.537 109.83L344.007 117.62L345.557 119.77C345.557 119.77 345.807 123.24 346.497 124.11C355.677 135.64 373.257 151.78 375.897 153.37C378.537 154.96 401.957 141.1 401.957 141.1L406.307 166.6H476.157C476.157 166.6 475.977 121.85 473.037 118.42C470.097 114.99 436.397 101.54 436.397 101.54L426.237 106.02Z" fill="#757575" stroke="black" stroke-opacity="0.7" stroke-linecap="round" stroke-linejoin="round"/>
<path d="M449.827 89.8301C449.827 89.8301 443.567 94.0301 446.887 107.45C446.887 107.45 437.457 114.19 428.127 107.39C428.127 107.39 430.277 96.6901 428.127 94.5401" fill="white"/>
<path d="M449.827 89.8301C449.827 89.8301 443.567 94.0301 446.887 107.45C446.887 107.45 437.457 114.19 428.127 107.39C428.127 107.39 430.277 96.6901 428.127 94.5401" stroke="black" stroke-opacity="0.7" stroke-linecap="round" stroke-linejoin="round"/>
<path d="M471.787 120.5C471.787 120.5 463.277 130.29 462.287 147.05" stroke="black" stroke-opacity="0.7" stroke-linecap="round" stroke-linejoin="round"/>
<path d="M434.337 62.9399C434.337 62.9399 428.757 62.0999 426.807 68.9399C425.671 73.1289 426.131 77.5904 428.097 81.4599L438.357 71.8299L434.337 62.9399Z" fill="black" fill-opacity="0.7"/>
<path d="M447.917 93.91C455.107 85.33 460.187 71.03 449.387 65.32C428.547 54.3 421.657 75.83 425.157 95.83C426.237 102 434.617 99.25 440.747 97.02" fill="white"/>
<path d="M447.917 93.91C455.107 85.33 460.187 71.03 449.387 65.32C428.547 54.3 421.657 75.83 425.157 95.83C426.237 102 434.617 99.25 440.747 97.02" stroke="black" stroke-opacity="0.7" stroke-linecap="round" stroke-linejoin="round"/>
<path d="M433.357 75.26C433.357 75.26 436.797 76.19 437.667 78.03" stroke="black" stroke-opacity="0.7" stroke-linecap="round" stroke-linejoin="round"/>
<path d="M428.377 74.3499C427.971 74.1502 427.521 74.0582 427.069 74.0827C426.617 74.1073 426.179 74.2475 425.797 74.4899" stroke="black" stroke-opacity="0.7" stroke-linecap="round" stroke-linejoin="round"/>
<path d="M433.297 79.9999C433.237 80.6099 433.507 81.1399 433.897 81.1799C434.287 81.2199 434.657 80.7499 434.717 80.1799C434.777 79.6099 434.507 79.0299 434.117 78.9899C433.727 78.9499 433.357 79.3799 433.297 79.9999Z" fill="black" fill-opacity="0.7"/>
<path d="M425.837 78.1501C425.787 78.7701 426.057 79.3001 426.447 79.3401C426.837 79.3801 427.207 78.9101 427.267 78.3401C427.327 77.7701 427.057 77.2001 426.657 77.1601C426.257 77.1201 425.897 77.5401 425.837 78.1501Z" fill="black" fill-opacity="0.7"/>
<path d="M444.707 84.01C444.707 84.01 441.477 88.69 439.307 90.19C437.905 91.0878 436.216 91.4235 434.577 91.13C434.577 91.13 431.807 87.71 427.767 87.66C426.721 86.9942 425.532 86.5863 424.297 86.47L424.527 81.25C424.527 81.25 421.457 92.44 421.747 96.45C422.037 100.46 431.897 103.24 436.827 102.12C441.757 101 444.267 93.33 445.767 86.12C445.877 85.52 444.707 84.01 444.707 84.01Z" fill="black" fill-opacity="0.7"/>
<path d="M424.897 90.24C424.897 90.24 428.797 92.11 432.267 91.67" stroke="white" stroke-linecap="round" stroke-linejoin="round"/>
<path d="M447.937 69.75C449.217 68.75 445.937 64.45 444.097 64.54C442.257 64.63 433.227 64.97 433.227 64.97C433.227 64.97 431.327 55.03 446.527 60.4C449.017 61.28 449.817 63.61 452.047 64.8C454.277 65.99 457.297 72.25 456.437 77.59C455.577 82.93 452.727 92.3 447.557 95.11C447.557 95.11 445.777 94.93 446.857 93.7C451.947 87.97 446.617 77.19 445.767 86.1L443.977 85.03C443.963 84.0516 444.064 83.0749 444.277 82.12C444.657 79.67 441.947 74.66 447.937 69.75Z" fill="black" fill-opacity="0.7"/>
<path d="M447.157 83.36C447.157 83.36 450.427 79.48 452.407 80.8C454.387 82.12 453.057 86.8 451.997 87.97C450.937 89.14 450.077 89.4 448.607 91.27C447.137 93.14 445.287 92.51 445.607 91.01" fill="white"/>
<path d="M447.157 83.36C447.157 83.36 450.427 79.48 452.407 80.8C454.387 82.12 453.057 86.8 451.997 87.97C450.937 89.14 450.077 89.4 448.607 91.27C447.137 93.14 445.287 92.51 445.607 91.01" stroke="black" stroke-opacity="0.7" stroke-linecap="round" stroke-linejoin="round"/>
<path d="M437.157 80.5C437.267 82.67 435.947 84.5 434.157 84.59C432.367 84.68 430.907 83 430.797 80.83C430.687 78.66 432.007 76.83 433.797 76.74C435.587 76.65 437.027 78.33 437.157 80.5Z" stroke="black" stroke-opacity="0.7" stroke-width="0.5" stroke-miterlimit="10"/>
<path d="M427.937 78.53C428.057 80.7 426.727 82.5301 424.987 82.6301C423.247 82.7301 421.737 81.0301 421.617 78.8601C421.497 76.6901 422.837 74.8601 424.617 74.7701C426.397 74.6801 427.827 76.36 427.937 78.53Z" stroke="black" stroke-opacity="0.7" stroke-width="0.5" stroke-miterlimit="10"/>
<path d="M428.887 76.6699C428.887 77.6699 423.707 83.5799 423.647 84.8799C423.587 86.1799 428.467 86.2599 428.467 86.2599" fill="white"/>
<path d="M428.887 76.6699C428.887 77.6699 423.707 83.5799 423.647 84.8799C423.587 86.1799 428.467 86.2599 428.467 86.2599" stroke="black" stroke-opacity="0.7" stroke-linecap="round" stroke-linejoin="round"/>
<path d="M427.937 78.53C427.937 78.53 429.487 78.14 430.787 80.23" stroke="black" stroke-opacity="0.7" stroke-width="0.5" stroke-miterlimit="10"/>
<path d="M437.177 81.26L438.857 81.51L448.287 82.17" stroke="black" stroke-opacity="0.7" stroke-width="0.5" stroke-miterlimit="10"/>
<path d="M465.877 125.83L463.997 123.5C463.997 123.5 448.157 125.31 441.157 134.75C441.157 134.75 428.157 128.61 416.457 131.6L416.117 135.79L441.707 151.1L451.707 146.94L465.877 125.83Z" fill="white" stroke="black" stroke-opacity="0.7" stroke-linecap="round" stroke-linejoin="round"/>
<path d="M468.447 124.42L465.747 142.42C465.747 142.42 450.847 148.96 447.747 154.22L447.007 154.32L443.507 154.81L441.617 154.25C436.993 152.904 432.282 151.875 427.517 151.17C425.863 150.915 424.185 150.851 422.517 150.98L412.437 135.27C412.437 135.27 428.027 133.11 438.807 136.8L443.967 136.44L444.157 136.28C445.707 135.01 456.567 126.38 468.447 124.42Z" fill="#92E3A9"/>
<path opacity="0.3" d="M446.807 150.12L444.157 136.27C445.697 135.01 456.557 126.38 468.437 124.42L465.737 142.42C465.737 142.42 450.837 148.96 447.737 154.22L446.997 154.32L446.807 150.12Z" fill="black" fill-opacity="0.7"/>
<path opacity="0.3" d="M441.677 151.1L441.607 154.24C436.983 152.894 432.272 151.865 427.507 151.16C427.718 147.983 428.961 144.963 431.045 142.557C433.13 140.151 435.943 138.491 439.057 137.83L441.677 151.1Z" fill="black" fill-opacity="0.7"/>
<path d="M468.447 124.42L465.747 142.42C465.747 142.42 450.847 148.96 447.747 154.22L447.007 154.32L443.507 154.81L441.617 154.25C436.993 152.904 432.282 151.875 427.517 151.17C425.863 150.915 424.185 150.851 422.517 150.98L412.437 135.27C412.437 135.27 428.027 133.11 438.807 136.8L443.967 136.44L444.157 136.28C445.707 135.01 456.567 126.38 468.447 124.42Z" stroke="black" stroke-opacity="0.7" stroke-linecap="round" stroke-linejoin="round"/>
<path d="M446.747 158.61C441.407 158.27 431.247 150.09 431.247 150.09C430.636 148.563 429.778 147.148 428.707 145.9C427.257 144.45 429.187 143.24 429.187 143.24C429.187 143.24 427.497 142.15 426.537 141.55C425.577 140.95 427.257 139.37 427.257 139.37C427.257 139.37 434.507 140.37 435.257 140.1C436.007 139.83 442.967 144.33 444.047 144.45C445.514 144.477 446.96 144.1 448.227 143.36C448.947 142.76 451.177 139.01 452.627 138.28C454.077 137.55 456.627 137.56 455.407 139.13C454.187 140.7 454.407 144.2 453.807 144.69C453.207 145.18 452.217 150.44 452.217 152.25L460.117 159.47L455.617 165.6L446.747 158.61Z" fill="white" stroke="black" stroke-opacity="0.7" stroke-linecap="round" stroke-linejoin="round"/>
<path d="M429.157 143.24C430.577 143.399 431.962 143.787 433.257 144.39" stroke="black" stroke-opacity="0.7" stroke-linecap="round" stroke-linejoin="round"/>
<path d="M434.537 146.1C434.537 146.1 434.087 147.93 433.967 148.21C433.847 148.49 435.457 150.28 435.227 151.1C434.997 151.92 436.857 154.1 436.857 154.1" stroke="black" stroke-opacity="0.7" stroke-linecap="round" stroke-linejoin="round"/>
<path d="M432.717 148.21C431.328 147.542 429.99 146.769 428.717 145.9" stroke="black" stroke-opacity="0.7" stroke-linecap="round" stroke-linejoin="round"/>
<path d="M428.847 102.67L432.307 109.64L446.527 101.76L449.657 108.74L435.147 117.95L432.357 110.74L426.717 116.17L424.807 107.39L428.847 102.67Z" fill="#757575" stroke="black" stroke-opacity="0.7" stroke-linecap="round" stroke-linejoin="round"/>
<path d="M473.077 118.39C476.527 122.08 488.797 149.14 489.977 166.57H452.597V165.01L448.517 162.62C448.517 162.62 451.047 153.72 458.257 155.11L460.357 158.11L465.007 161.61C465.007 161.61 473.167 161.82 475.537 164.17" fill="#757575"/>
<path d="M473.077 118.39C476.527 122.08 488.797 149.14 489.977 166.57H452.597V165.01L448.517 162.62C448.517 162.62 451.047 153.72 458.257 155.11L460.357 158.11L465.007 161.61C465.007 161.61 473.167 161.82 475.537 164.17" stroke="black" stroke-opacity="0.7" stroke-linecap="round" stroke-linejoin="round"/>
<path d="M465.007 161.65C465.007 161.65 469.537 155.12 476.197 157.88" stroke="black" stroke-opacity="0.7" stroke-linecap="round" stroke-linejoin="round"/>
<path d="M463.277 151.1C464.731 153.799 466.026 156.581 467.157 159.43" stroke="black" stroke-opacity="0.7" stroke-linecap="round" stroke-linejoin="round"/>
<path d="M401.957 141.07C401.957 141.07 399.187 124.93 399.957 119.35Z" fill="#757575"/>
<path d="M401.957 141.07C401.957 141.07 399.187 124.93 399.957 119.35" stroke="black" stroke-opacity="0.7" stroke-linecap="round" stroke-linejoin="round"/>
<path d="M396.417 125.64C396.417 125.64 397.957 133.57 401.417 137.82Z" fill="#757575"/>
<path d="M396.417 125.64C396.417 125.64 397.957 133.57 401.417 137.82" stroke="black" stroke-opacity="0.7" stroke-linecap="round" stroke-linejoin="round"/>
<path d="M373.477 127.03C373.477 127.03 377.827 130.63 375.057 139.61Z" fill="#757575"/>
<path d="M373.477 127.03C373.477 127.03 377.827 130.63 375.057 139.61" stroke="black" stroke-opacity="0.7" stroke-linecap="round" stroke-linejoin="round"/>
<path d="M431.647 116.45C431.647 116.636 431.592 116.819 431.488 116.973C431.384 117.128 431.237 117.249 431.064 117.319C430.892 117.39 430.703 117.408 430.52 117.371C430.337 117.334 430.17 117.244 430.039 117.111C429.908 116.979 429.819 116.81 429.784 116.627C429.749 116.444 429.769 116.255 429.841 116.083C429.914 115.912 430.036 115.766 430.192 115.664C430.348 115.562 430.531 115.508 430.717 115.51C430.84 115.51 430.962 115.534 431.075 115.582C431.189 115.629 431.292 115.699 431.378 115.786C431.465 115.873 431.533 115.977 431.579 116.091C431.625 116.205 431.648 116.327 431.647 116.45Z" fill="black" fill-opacity="0.7"/>
<path d="M429.187 130.21C429.706 130.21 430.127 129.789 430.127 129.27C430.127 128.751 429.706 128.33 429.187 128.33C428.668 128.33 428.247 128.751 428.247 129.27C428.247 129.789 428.668 130.21 429.187 130.21Z" fill="black" fill-opacity="0.7"/>
<path d="M427.767 159.08C428.286 159.08 428.707 158.659 428.707 158.14C428.707 157.621 428.286 157.2 427.767 157.2C427.248 157.2 426.827 157.621 426.827 158.14C426.827 158.659 427.248 159.08 427.767 159.08Z" fill="black" fill-opacity="0.7"/>
<path d="M306.097 73.3099H317.877L323.777 63.0999L317.877 52.8999H306.097L300.207 63.0999L306.097 73.3099Z" stroke="black" stroke-opacity="0.7" stroke-linecap="round" stroke-linejoin="round"/>
<path d="M304.387 95.69L298.497 85.49H286.717" stroke="black" stroke-opacity="0.7" stroke-linecap="round" stroke-linejoin="round"/>
<path d="M288.297 63.0999H300.077L305.967 52.8999L300.077 42.6899H288.297L282.407 52.8999L288.297 63.0999Z" stroke="black" stroke-opacity="0.7" stroke-linecap="round" stroke-linejoin="round"/>
<path d="M306.097 52.9H317.877L323.777 42.69L317.877 32.49H306.097L300.207 42.69L306.097 52.9Z" stroke="black" stroke-opacity="0.7" stroke-linecap="round" stroke-linejoin="round"/>
<path d="M304.387 52.9C304.385 52.5847 304.477 52.2759 304.651 52.0129C304.825 51.7499 305.073 51.5446 305.364 51.423C305.655 51.3014 305.975 51.2691 306.285 51.3301C306.594 51.3911 306.878 51.5428 307.101 51.7657C307.324 51.9887 307.476 52.2729 307.537 52.5823C307.598 52.8917 307.566 53.2122 307.444 53.5031C307.322 53.7941 307.117 54.0423 306.854 54.2162C306.591 54.3902 306.282 54.482 305.967 54.48C305.548 54.48 305.146 54.3136 304.85 54.0172C304.554 53.7209 304.387 53.3191 304.387 52.9V52.9Z" fill="black" fill-opacity="0.7"/>
<path d="M281.367 33.0599C282.24 33.0599 282.947 32.3525 282.947 31.4799C282.947 30.6073 282.24 29.8999 281.367 29.8999C280.494 29.8999 279.787 30.6073 279.787 31.4799C279.787 32.3525 280.494 33.0599 281.367 33.0599Z" fill="black" fill-opacity="0.7"/>
<path d="M302.807 95.6901C302.807 95.3776 302.9 95.0721 303.073 94.8123C303.247 94.5525 303.494 94.35 303.782 94.2304C304.071 94.1108 304.389 94.0795 304.695 94.1405C305.002 94.2014 305.283 94.3519 305.504 94.5729C305.725 94.7938 305.876 95.0754 305.937 95.3819C305.998 95.6884 305.966 96.006 305.847 96.2948C305.727 96.5835 305.525 96.8302 305.265 97.0038C305.005 97.1774 304.7 97.2701 304.387 97.2701C303.968 97.2701 303.566 97.1036 303.27 96.8073C302.973 96.511 302.807 96.1091 302.807 95.6901Z" fill="black" fill-opacity="0.7"/>
<path d="M286.717 87.0699C287.59 87.0699 288.297 86.3625 288.297 85.4899C288.297 84.6173 287.59 83.9099 286.717 83.9099C285.844 83.9099 285.137 84.6173 285.137 85.4899C285.137 86.3625 285.844 87.0699 286.717 87.0699Z" fill="black" fill-opacity="0.7"/>
<path d="M335.157 42.9601C335.157 42.6452 335.251 42.3374 335.426 42.0757C335.601 41.814 335.85 41.6102 336.141 41.4902C336.432 41.3701 336.752 41.3392 337.061 41.4014C337.37 41.4636 337.653 41.616 337.875 41.8394C338.097 42.0627 338.247 42.347 338.308 42.6561C338.368 42.9652 338.335 43.2852 338.213 43.5755C338.091 43.8659 337.886 44.1135 337.623 44.287C337.36 44.4605 337.052 44.5521 336.737 44.5501C336.529 44.5501 336.322 44.5089 336.13 44.4289C335.938 44.3488 335.763 44.2316 335.616 44.0838C335.469 43.936 335.353 43.7606 335.274 43.5678C335.196 43.3749 335.156 43.1684 335.157 42.9601V42.9601Z" fill="black" fill-opacity="0.7"/>
<path d="M298.377 87.0699C299.25 87.0699 299.957 86.3625 299.957 85.4899C299.957 84.6173 299.25 83.9099 298.377 83.9099C297.504 83.9099 296.797 84.6173 296.797 85.4899C296.797 86.3625 297.504 87.0699 298.377 87.0699Z" fill="black" fill-opacity="0.7"/>
<path d="M322.157 42.9601C322.157 42.6456 322.25 42.3382 322.425 42.0768C322.6 41.8153 322.848 41.6115 323.139 41.4912C323.429 41.3708 323.749 41.3393 324.057 41.4007C324.366 41.462 324.649 41.6135 324.871 41.8358C325.094 42.0582 325.245 42.3415 325.306 42.6499C325.368 42.9584 325.336 43.278 325.216 43.5686C325.096 43.8591 324.892 44.1074 324.63 44.2822C324.369 44.4569 324.062 44.5501 323.747 44.5501C323.325 44.5501 322.921 44.3826 322.623 44.0844C322.325 43.7862 322.157 43.3818 322.157 42.9601V42.9601Z" fill="black" fill-opacity="0.7"/>
<path d="M304.387 73.3099C304.385 72.9946 304.477 72.6858 304.651 72.4228C304.825 72.1598 305.073 71.9545 305.364 71.8329C305.655 71.7113 305.975 71.679 306.285 71.74C306.594 71.8011 306.878 71.9527 307.101 72.1757C307.324 72.3986 307.476 72.6829 307.537 72.9922C307.598 73.3016 307.566 73.6221 307.444 73.913C307.322 74.204 307.117 74.4522 306.854 74.6261C306.591 74.8001 306.282 74.8919 305.967 74.8899C305.549 74.8873 305.148 74.72 304.853 74.4243C304.557 74.1285 304.39 73.7282 304.387 73.3099Z" fill="black" fill-opacity="0.7"/>
<path d="M323.777 42.96H336.747" stroke="black" stroke-opacity="0.7" stroke-linecap="round" stroke-linejoin="round"/>
<path d="M305.967 73.3101L298.377 85.4901" stroke="black" stroke-opacity="0.7" stroke-linecap="round" stroke-linejoin="round"/>
<path d="M288.297 42.69L281.367 31.48" stroke="black" stroke-opacity="0.7" stroke-linecap="round" stroke-linejoin="round"/>
<path d="M274.717 122.62C275.779 121.664 276.971 120.863 278.257 120.24C278.309 120.561 278.482 120.85 278.741 121.047C278.999 121.244 279.324 121.335 279.647 121.3C280.357 121.19 281.157 120.49 281.647 121C281.847 121.2 281.887 121.52 282.097 121.71C282.737 122.3 283.827 121.03 284.547 121.51C284.737 121.64 284.837 121.86 285.037 121.99C285.195 122.058 285.365 122.093 285.537 122.093C285.709 122.093 285.879 122.058 286.037 121.99C287.823 121.583 289.657 121.425 291.487 121.52L299.877 121.58L299.237 121.25" stroke="black" stroke-opacity="0.7" stroke-linecap="round" stroke-linejoin="round"/>
<path d="M274.267 129.62C274.337 129.291 274.52 128.998 274.783 128.789C275.047 128.581 275.375 128.472 275.711 128.48C276.047 128.489 276.369 128.614 276.622 128.835C276.876 129.056 277.043 129.358 277.097 129.69C277.305 129.593 277.49 129.454 277.642 129.282C277.793 129.11 277.907 128.908 277.977 128.69C278.517 129.9 280.187 130 281.517 129.91L287.447 129.49C289.227 129.36 291.307 129.04 292.107 127.49C292.986 129.094 293.336 130.935 293.107 132.75C293.657 131.444 294.373 130.213 295.237 129.09C295.417 129.73 295.597 130.37 295.767 131.01C299.897 128.12 305.547 130.01 310.547 129.38" stroke="black" stroke-opacity="0.7" stroke-linecap="round" stroke-linejoin="round"/>
<path d="M274.797 138.89C274.778 138.706 274.828 138.521 274.937 138.372C275.046 138.222 275.206 138.118 275.387 138.08C275.443 138.261 275.536 138.429 275.659 138.574C275.782 138.718 275.934 138.835 276.105 138.919C276.275 139.002 276.461 139.05 276.65 139.058C276.84 139.067 277.029 139.037 277.207 138.97C277.921 138.67 278.532 138.17 278.967 137.53C279.116 137.651 279.289 137.739 279.475 137.787C279.661 137.836 279.855 137.845 280.044 137.813C280.233 137.78 280.414 137.708 280.573 137.601C280.732 137.493 280.866 137.353 280.967 137.19C281.413 137.912 281.782 138.68 282.067 139.48C282.607 138.1 284.437 137.88 285.927 137.89H297.927" stroke="black" stroke-opacity="0.7" stroke-linecap="round" stroke-linejoin="round"/>
<path d="M367.557 30.05C364.693 29.9805 361.884 30.8477 359.557 32.52C356.677 34.36 353.937 37.46 354.657 40.8C355.377 44.14 359.317 45.91 362.787 46.58C365.771 47.1612 368.807 47.4293 371.847 47.38C373.018 47.3976 374.186 47.2734 375.327 47.01C376.48 46.6833 377.599 46.2446 378.667 45.7L386.407 42.06C387.467 41.56 388.657 40.92 388.947 39.78C389.307 38.37 388.097 37.06 386.947 36.21C382.603 33.103 377.245 31.7527 371.947 32.43" stroke="black" stroke-opacity="0.7" stroke-linecap="round" stroke-linejoin="round"/>
<path d="M358.367 37.5299C358.822 37.0189 359.411 36.6449 360.067 36.45C359.937 36.8325 359.937 37.2474 360.067 37.63C360.247 37.99 360.797 38.1699 361.067 37.8699C361.337 37.5699 361.397 37.09 361.697 37.24L362.057 38.0399C362.547 37.8699 362.927 37.4699 363.407 37.2599C363.954 37.0766 364.536 37.0218 365.107 37.0999C369.4 37.3203 373.705 37.1899 377.977 36.7099" stroke="black" stroke-opacity="0.7" stroke-linecap="round" stroke-linejoin="round"/>
<path d="M368.477 51.99C366.368 59.5066 361.995 66.1913 355.953 71.1349C349.911 76.0786 342.492 79.0412 334.707 79.62" stroke="black" stroke-opacity="0.7" stroke-linecap="round" stroke-linejoin="round"/>
<path d="M334.827 77.45C333.413 78.3237 332.152 79.4252 331.097 80.71C331.721 80.5792 332.369 80.6241 332.969 80.8394C333.57 81.0548 334.098 81.4323 334.497 81.93" stroke="black" stroke-opacity="0.7" stroke-linecap="round" stroke-linejoin="round"/>
<path d="M366.077 79.8301L366.987 81.8301L368.287 80.2901C368.53 80.4715 368.701 80.734 368.767 81.0301C368.867 81.3101 369.017 81.6201 369.297 81.7001C369.577 81.7801 369.927 81.4001 369.717 81.1901C369.901 81.3146 370.11 81.3979 370.329 81.4341C370.548 81.4704 370.773 81.4588 370.987 81.4001C371.177 81.4001 371.347 81.2601 371.537 81.2101C371.763 81.1604 371.995 81.1403 372.227 81.1501H385.737" stroke="black" stroke-opacity="0.7" stroke-linecap="round" stroke-linejoin="round"/>
<path d="M366.707 90.8301C366.771 90.6699 366.875 90.5289 367.009 90.4207C367.143 90.3126 367.303 90.2409 367.473 90.2127C367.643 90.1846 367.817 90.2008 367.979 90.2599C368.141 90.319 368.285 90.419 368.397 90.5501C368.442 90.6781 368.509 90.7968 368.597 90.9001C368.717 90.9851 368.865 91.022 369.011 91.0035C369.158 90.985 369.292 90.9124 369.387 90.8001C369.607 90.6001 369.747 90.3301 369.977 90.1501C370.607 89.6601 371.507 90.0401 372.277 90.2501C373.263 90.4564 374.275 90.5103 375.277 90.4101L382.947 90.0101" stroke="black" stroke-opacity="0.7" stroke-linecap="round" stroke-linejoin="round"/>
<path d="M366.947 99.3301C367.202 99.3368 367.452 99.2577 367.657 99.1054C367.862 98.9531 368.01 98.7364 368.077 98.4901C368.204 98.5115 368.321 98.5707 368.414 98.6599C368.507 98.749 368.571 98.8641 368.597 98.9901C368.964 98.7631 369.278 98.4595 369.517 98.1001C374.457 98.1601 379.404 98.1601 384.357 98.1001" stroke="black" stroke-opacity="0.7" stroke-linecap="round" stroke-linejoin="round"/>
<path d="M366.937 105.68C367.243 105.807 367.585 105.815 367.897 105.704C368.209 105.594 368.469 105.371 368.627 105.08C368.94 105.334 369.159 105.686 369.247 106.08C369.444 105.947 369.667 105.855 369.901 105.812C370.135 105.769 370.375 105.775 370.607 105.83C370.797 105.83 370.987 105.96 371.177 106.01C371.657 106.133 372.153 106.177 372.647 106.14L389.887 105.89" stroke="black" stroke-opacity="0.7" stroke-linecap="round" stroke-linejoin="round"/>
<path d="M320.647 146.11L328.477 145.35C328.553 145.36 328.631 145.351 328.703 145.323C328.774 145.295 328.838 145.25 328.888 145.191C328.938 145.133 328.972 145.062 328.987 144.987C329.003 144.912 328.999 144.834 328.977 144.76V139.76C328.996 139.594 328.953 139.427 328.857 139.29C328.792 139.231 328.716 139.186 328.634 139.157C328.552 139.128 328.464 139.115 328.377 139.12C326.677 138.97 322.847 138.12 321.377 139.27C319.907 140.42 320.657 144.4 320.647 146.11Z" stroke="black" stroke-opacity="0.7" stroke-linecap="round" stroke-linejoin="round"/>
<path d="M322.887 141.65C322.987 142.12 323.077 142.59 323.177 143.07C324.364 142.822 325.581 142.758 326.787 142.88" stroke="black" stroke-opacity="0.7" stroke-linecap="round" stroke-linejoin="round"/>
<path d="M326.877 148.27C326.804 148.383 326.764 148.514 326.761 148.648C326.758 148.782 326.793 148.915 326.862 149.03C326.931 149.146 327.03 149.24 327.15 149.301C327.269 149.363 327.403 149.391 327.537 149.38C328.067 149.28 328.487 148.57 328.977 148.79" stroke="black" stroke-opacity="0.7" stroke-linecap="round" stroke-linejoin="round"/>
<path d="M321.487 136.74C321.586 136.591 321.726 136.474 321.89 136.404C322.054 136.333 322.236 136.312 322.412 136.343C322.588 136.373 322.751 136.455 322.882 136.577C323.012 136.699 323.104 136.856 323.147 137.03L325.027 136.81" stroke="black" stroke-opacity="0.7" stroke-linecap="round" stroke-linejoin="round"/>
<path d="M337.087 153.32C339.754 153.32 342.42 153.32 345.087 153.32C347.16 153.347 349.232 153.223 351.287 152.95C351.518 152.937 351.737 152.846 351.907 152.69C352.049 152.486 352.109 152.236 352.077 151.99V139.83C352.077 139.69 339.827 139.3 338.397 140.29C335.517 142.31 337.087 150.21 337.087 153.32Z" stroke="black" stroke-opacity="0.7" stroke-linecap="round" stroke-linejoin="round"/>
<path d="M341.427 143.43L343.337 143.48C342.993 144.779 342.45 146.017 341.727 147.15C341.467 147.5 341.157 147.94 341.347 148.33C342.347 148.49 343.517 148.58 344.147 147.81C344.967 146.81 344.247 145.24 344.867 144.12L345.107 146.49L345.937 147.28C346.153 147.521 346.424 147.707 346.727 147.82C346.879 147.873 347.044 147.872 347.195 147.817C347.346 147.763 347.474 147.658 347.557 147.52" stroke="black" stroke-opacity="0.7" stroke-linecap="round" stroke-linejoin="round"/>
<path d="M346.987 155.36C347.617 155.13 347.877 156.31 348.527 156.48C349.177 156.65 349.527 155.79 350.077 155.41C350.338 155.237 350.653 155.164 350.963 155.204C351.274 155.245 351.559 155.396 351.767 155.63" stroke="black" stroke-opacity="0.7" stroke-linecap="round" stroke-linejoin="round"/>
<path d="M341.827 136.12C342.427 136.27 342.187 137.27 342.637 137.7C343.087 138.13 343.837 137.7 344.347 137.29C344.857 136.88 345.787 136.7 345.977 137.29" stroke="black" stroke-opacity="0.7" stroke-linecap="round" stroke-linejoin="round"/>
<path d="M495.717 166.34H256.077V183.26H495.717V166.34Z" fill="#BFBFBF" stroke="black" stroke-opacity="0.7" stroke-linecap="round" stroke-linejoin="round"/>
<path d="M451.377 173H294.797V176.6H451.377V173Z" fill="black" fill-opacity="0.7"/>
<path d="M383.597 174.83C383.597 175.35 383.443 175.859 383.154 176.291C382.865 176.724 382.454 177.061 381.974 177.26C381.493 177.459 380.964 177.511 380.454 177.409C379.944 177.308 379.475 177.057 379.107 176.69C378.74 176.322 378.489 175.853 378.388 175.343C378.286 174.833 378.338 174.304 378.537 173.824C378.736 173.343 379.073 172.932 379.506 172.643C379.938 172.354 380.447 172.2 380.967 172.2C381.665 172.2 382.334 172.477 382.827 172.97C383.32 173.463 383.597 174.132 383.597 174.83V174.83Z" fill="#92E3A9" stroke="black" stroke-opacity="0.7" stroke-linecap="round" stroke-linejoin="round"/>
<path d="M487.957 171.56H481.477V178.04H487.957V171.56Z" stroke="black" stroke-opacity="0.7" stroke-linecap="round" stroke-linejoin="round"/>
<path d="M477.087 171.56H470.607V178.04H477.087V171.56Z" stroke="black" stroke-opacity="0.7" stroke-linecap="round" stroke-linejoin="round"/>
<path d="M274.787 171.49H263.497V178.11H274.787V171.49Z" stroke="black" stroke-opacity="0.7" stroke-linecap="round" stroke-linejoin="round"/>
<path d="M263.367 9.17993H305.967" stroke="white" stroke-linecap="round" stroke-linejoin="round"/>
<path d="M489.647 9.03005C489.649 9.52733 489.503 10.014 489.228 10.4283C488.953 10.8426 488.561 11.1658 488.102 11.3571C487.643 11.5483 487.138 11.5988 486.65 11.5023C486.162 11.4058 485.714 11.1665 485.362 10.8149C485.011 10.4632 484.771 10.0151 484.675 9.52726C484.578 9.03944 484.629 8.53394 484.82 8.07489C485.011 7.61584 485.335 7.22394 485.749 6.9489C486.163 6.67385 486.65 6.52807 487.147 6.53005C487.81 6.53005 488.446 6.79345 488.915 7.26229C489.384 7.73113 489.647 8.36701 489.647 9.03005V9.03005Z" stroke="white" stroke-linecap="round" stroke-linejoin="round"/>
<path d="M479.757 9.17993C479.757 9.67438 479.61 10.1577 479.336 10.5689C479.061 10.98 478.671 11.3004 478.214 11.4896C477.757 11.6789 477.254 11.7284 476.769 11.6319C476.284 11.5354 475.839 11.2973 475.489 10.9477C475.14 10.5981 474.902 10.1526 474.805 9.66766C474.709 9.1827 474.758 8.68004 474.947 8.22322C475.137 7.76641 475.457 7.37596 475.868 7.10126C476.279 6.82655 476.763 6.67993 477.257 6.67993C477.92 6.67993 478.556 6.94332 479.025 7.41216C479.494 7.881 479.757 8.51689 479.757 9.17993V9.17993Z" stroke="white" stroke-linecap="round" stroke-linejoin="round"/>
<path d="M469.867 9.34008C469.865 9.8341 469.717 10.3165 469.441 10.7263C469.165 11.1361 468.774 11.4549 468.317 11.6426C467.86 11.8303 467.358 11.8784 466.873 11.7808C466.389 11.6832 465.944 11.4443 465.596 11.0943C465.247 10.7443 465.01 10.2988 464.914 9.81414C464.819 9.32946 464.869 8.8273 465.058 8.37107C465.248 7.91484 465.568 7.52498 465.979 7.25072C466.39 6.97645 466.873 6.83008 467.367 6.83008C467.696 6.83008 468.022 6.89507 468.326 7.02133C468.63 7.14759 468.906 7.33263 469.138 7.56584C469.371 7.79905 469.555 8.07583 469.68 8.38029C469.805 8.68476 469.868 9.01094 469.867 9.34008V9.34008Z" stroke="white" stroke-linecap="round" stroke-linejoin="round"/>
</svg>
