<svg width="22" height="34" viewBox="0 0 22 34" fill="none" xmlns="http://www.w3.org/2000/svg">
<path d="M18.9223 20.378H3.07776C2.65843 20.3628 2.26283 20.1952 1.97791 19.9121C1.69299 19.629 1.54207 19.2535 1.55832 18.8681V9.88027C1.55832 4.7012 5.7986 0.486511 11 0.486511C16.2014 0.486511 20.4382 4.70769 20.4382 9.88027V18.8616C20.4472 19.0527 20.4151 19.2436 20.3438 19.4232C20.2724 19.6029 20.1632 19.7679 20.0224 19.9087C19.8816 20.0495 19.712 20.1635 19.5232 20.244C19.3344 20.3246 19.1302 20.3701 18.9223 20.378ZM4.59367 17.3583H17.4029V9.89001C17.4029 6.37668 14.5301 3.51602 11 3.51602C7.46998 3.51602 4.59367 6.37668 4.59367 9.89001V17.3583Z" fill="#263238"/>
<path d="M22 14.2443H0V33.3695H22V14.2443Z" fill="#57C28A"/>
<path d="M14.205 28.0606L12.5725 24.4531C12.9335 24.2023 13.2254 23.8771 13.4249 23.5038C13.6243 23.1305 13.7257 22.7194 13.7209 22.3035C13.7209 20.8651 12.5513 19.7059 11.106 19.7059C9.6608 19.7059 8.49472 20.8683 8.49472 22.3035C8.48921 22.7191 8.58993 23.1302 8.78878 23.5035C8.98762 23.8768 9.27904 24.2021 9.6396 24.4531L8.01062 28.0606H14.205Z" fill="#263238" stroke="#263238" stroke-linecap="round" stroke-linejoin="round"/>
</svg>
