<svg width="704" height="520" viewBox="0 0 704 520" fill="none" xmlns="http://www.w3.org/2000/svg">
<path d="M633.459 483.634H586.826V483.986H633.459V483.634Z" fill="#EBEBEB"/>
<path d="M466.358 487.464H454.122V487.816H466.358V487.464Z" fill="#EBEBEB"/>
<path d="M585.418 470.568H558.399V470.92H585.418V470.568Z" fill="#EBEBEB"/>
<path d="M134.675 472.933H73.8638V473.285H134.675V472.933Z" fill="#EBEBEB"/>
<path d="M156.133 472.933H147.22V473.285H156.133V472.933Z" fill="#EBEBEB"/>
<path d="M317.011 478.875H185.11V479.227H317.011V478.875Z" fill="#EBEBEB"/>
<path d="M345.213 519.144C495.986 519.144 618.211 512.008 618.211 503.205C618.211 494.403 495.986 487.267 345.213 487.267C194.441 487.267 72.2163 494.403 72.2163 503.205C72.2163 512.008 194.441 519.144 345.213 519.144Z" fill="#F5F5F5"/>
<path d="M412.347 476.523C412.347 476.523 412.811 484.436 414.712 488.379C416.613 492.321 419.246 497.559 412.811 498.136C409.01 498.474 402.364 500.051 395.085 500.755C390.058 501.234 383.173 500.755 382.934 498.094C382.652 495.011 400.477 488.548 400.407 485.577C400.337 482.606 399.534 477.481 399.534 477.481L412.347 476.523Z" fill="#263238"/>
<path opacity="0.1" d="M412.347 476.523C412.347 476.523 412.811 484.436 414.712 488.379C416.613 492.321 419.246 497.559 412.811 498.136C409.01 498.474 402.364 500.051 395.085 500.755C390.058 501.234 383.173 500.755 382.934 498.094C382.652 495.011 400.477 488.548 400.407 485.577C400.337 482.606 399.534 477.481 399.534 477.481L412.347 476.523Z" fill="white"/>
<path d="M395.944 467.738L397.183 471.384C397.3 471.713 397.522 471.993 397.815 472.181C398.108 472.37 398.455 472.456 398.802 472.426L411.77 471.23C412.132 471.198 412.472 471.039 412.73 470.782C412.987 470.524 413.146 470.184 413.178 469.822L413.417 466.048C413.428 465.825 413.391 465.601 413.308 465.393C413.225 465.186 413.099 464.998 412.938 464.843C412.776 464.688 412.583 464.57 412.372 464.496C412.161 464.422 411.936 464.394 411.713 464.415L397.267 465.738C397.039 465.761 396.819 465.835 396.622 465.954C396.426 466.072 396.258 466.233 396.132 466.424C396.005 466.616 395.922 466.833 395.89 467.06C395.857 467.287 395.876 467.519 395.944 467.738V467.738Z" fill="#92E3A9"/>
<path opacity="0.6" d="M395.944 467.738L397.183 471.384C397.3 471.713 397.522 471.993 397.815 472.181C398.108 472.37 398.455 472.456 398.802 472.426L411.77 471.23C412.132 471.198 412.472 471.039 412.73 470.782C412.987 470.524 413.146 470.184 413.178 469.822L413.417 466.048C413.428 465.825 413.391 465.601 413.308 465.393C413.225 465.186 413.099 464.998 412.938 464.843C412.776 464.688 412.583 464.57 412.372 464.496C412.161 464.422 411.936 464.394 411.713 464.415L397.267 465.738C397.039 465.761 396.819 465.835 396.622 465.954C396.426 466.072 396.258 466.233 396.132 466.424C396.005 466.616 395.922 466.833 395.89 467.06C395.857 467.287 395.876 467.519 395.944 467.738V467.738Z" fill="white"/>
<path d="M439.028 479.635C439.028 479.635 438.775 487.562 440.324 491.66C441.873 495.757 444.027 501.206 437.508 501.206C433.706 501.206 426.962 501.29 419.767 500.755C414.726 500.389 407.757 501.206 407.757 498.488C407.757 495.391 426.61 490.364 426.793 487.407C426.976 484.451 426.793 479.466 426.793 479.466L439.028 479.635Z" fill="#263238"/>
<path d="M423.907 470.131L424.878 474.116C424.952 474.431 425.133 474.711 425.389 474.908C425.646 475.106 425.963 475.209 426.286 475.2H439.169C439.497 475.207 439.816 475.1 440.073 474.897C440.33 474.694 440.509 474.408 440.577 474.088L441.436 470.089C441.483 469.88 441.482 469.663 441.433 469.455C441.384 469.246 441.288 469.052 441.152 468.886C441.016 468.721 440.844 468.588 440.65 468.499C440.455 468.41 440.242 468.366 440.028 468.371H425.301C425.083 468.366 424.867 468.412 424.671 468.505C424.474 468.597 424.301 468.734 424.166 468.905C424.031 469.075 423.937 469.275 423.892 469.488C423.847 469.7 423.852 469.921 423.907 470.131Z" fill="#92E3A9"/>
<path opacity="0.6" d="M423.907 470.131L424.878 474.116C424.952 474.431 425.133 474.711 425.389 474.908C425.646 475.106 425.963 475.209 426.286 475.2H439.169C439.497 475.207 439.816 475.1 440.073 474.897C440.33 474.694 440.509 474.408 440.577 474.088L441.436 470.089C441.483 469.88 441.482 469.663 441.433 469.455C441.384 469.246 441.288 469.052 441.152 468.886C441.016 468.721 440.844 468.588 440.65 468.499C440.455 468.41 440.242 468.366 440.028 468.371H425.301C425.083 468.366 424.867 468.412 424.671 468.505C424.474 468.597 424.301 468.734 424.166 468.905C424.031 469.075 423.937 469.275 423.892 469.488C423.847 469.7 423.852 469.921 423.907 470.131Z" fill="white"/>
<path d="M333.696 398.182H61.8395C59.7072 398.182 57.6623 397.335 56.1546 395.828C54.6468 394.32 53.7998 392.275 53.7998 390.143V7.96928C53.8184 5.84925 54.6736 3.82236 56.1793 2.32982C57.685 0.837285 59.7194 -8.12781e-05 61.8395 5.91719e-09H333.696C335.828 5.91721e-09 337.873 0.847036 339.381 2.35477C340.889 3.8625 341.736 5.90742 341.736 8.03968V390.143C341.736 392.275 340.889 394.32 339.381 395.828C337.873 397.335 335.828 398.182 333.696 398.182V398.182ZM61.8395 0.281601C59.8017 0.285323 57.8485 1.09647 56.4076 2.53738C54.9667 3.97829 54.1555 5.93152 54.1518 7.96928V390.143C54.1555 392.18 54.9667 394.134 56.4076 395.575C57.8485 397.016 59.8017 397.827 61.8395 397.83H333.696C335.734 397.827 337.687 397.016 339.128 395.575C340.569 394.134 341.38 392.18 341.384 390.143V7.96928C341.38 5.93152 340.569 3.97829 339.128 2.53738C337.687 1.09647 335.734 0.285323 333.696 0.281601H61.8395Z" fill="#EBEBEB"/>
<path d="M638.26 398.182H366.376C364.244 398.179 362.202 397.33 360.695 395.824C359.188 394.317 358.34 392.274 358.336 390.143V7.96928C358.358 5.8504 359.215 3.82564 360.719 2.33389C362.224 0.842137 364.257 0.00358799 366.376 0H638.26C640.376 0.00732793 642.403 0.847967 643.902 2.33971C645.402 3.83146 646.253 5.85412 646.272 7.96928V390.143C646.272 392.27 645.429 394.311 643.927 395.818C642.425 397.325 640.388 398.175 638.26 398.182V398.182ZM366.376 0.281601C364.338 0.285323 362.385 1.09647 360.944 2.53738C359.503 3.97829 358.692 5.93152 358.688 7.96928V390.143C358.692 392.18 359.503 394.134 360.944 395.575C362.385 397.016 364.338 397.827 366.376 397.83H638.26C640.298 397.827 642.251 397.016 643.692 395.575C645.133 394.134 645.944 392.18 645.948 390.143V7.96928C645.944 5.93152 645.133 3.97829 643.692 2.53738C642.251 1.09647 640.298 0.285323 638.26 0.281601H366.376Z" fill="#EBEBEB"/>
<path d="M704 460.979H0V461.331H704V460.979Z" fill="#EBEBEB"/>
<path d="M240.627 428.595H273.251L256.101 288.922C255.689 286.002 254.254 283.322 252.053 281.361C249.851 279.399 247.025 278.281 244.077 278.207H101.728L122.595 428.595H240.627Z" fill="#F5F5F5"/>
<path d="M137.153 428.595H104.53L87.3803 288.922C87.1695 287.579 87.2563 286.206 87.6345 284.901C88.0127 283.595 88.6731 282.389 89.569 281.367C90.4648 280.345 91.5743 279.532 92.8189 278.986C94.0635 278.44 95.4129 278.174 96.7717 278.207H108.036C110.982 278.282 113.806 279.4 116.006 281.362C118.205 283.324 119.637 286.003 120.046 288.922L137.153 428.595Z" fill="#F0F0F0"/>
<path d="M149.248 428.426L143.334 360.842C143.206 359.372 142.577 357.991 141.551 356.929C140.526 355.868 139.167 355.192 137.702 355.013L135.266 354.703C133.31 354.454 131.497 353.543 130.129 352.122C128.762 350.7 127.921 348.854 127.748 346.889L126.72 334.597C126.621 333.413 126.768 332.221 127.151 331.097C127.534 329.972 128.145 328.938 128.946 328.061C129.747 327.183 130.72 326.48 131.806 325.996C132.891 325.512 134.064 325.257 135.252 325.248H80.7346C79.5366 325.247 78.3516 325.496 77.2549 325.978C76.1583 326.46 75.174 327.166 74.3648 328.049C73.5556 328.932 72.9391 329.975 72.5547 331.109C72.1702 332.244 72.0262 333.446 72.1317 334.639L73.2018 346.959C73.3704 348.926 74.2092 350.775 75.5778 352.198C76.9464 353.62 78.7618 354.529 80.7205 354.774L83.1423 355.084C84.6061 355.265 85.9637 355.942 86.9885 357.003C88.0134 358.063 88.6437 359.443 88.7743 360.913L94.6879 428.497C94.909 430.863 96.0063 433.062 97.7646 434.661C99.5228 436.26 101.815 437.145 104.192 437.142H158.681C156.307 437.123 154.024 436.219 152.28 434.608C150.535 432.996 149.454 430.792 149.248 428.426V428.426Z" fill="#E6E6E6"/>
<path d="M299.214 343.96C299.671 338.847 302.027 334.091 305.816 330.628C309.605 327.164 314.553 325.245 319.686 325.248H272.209C267.071 325.25 262.121 327.176 258.333 330.648C254.546 334.12 252.198 338.885 251.75 344.003L247.062 397.507H294.54L299.214 343.96Z" fill="#E6E6E6"/>
<path d="M340.736 325.248H319.616C314.476 325.246 309.522 327.171 305.732 330.643C301.942 334.115 299.591 338.882 299.144 344.003L294.469 397.507H181.491L176.803 344.003C176.354 338.875 173.998 334.102 170.199 330.629C166.4 327.156 161.435 325.236 156.288 325.248H135.168C133.987 325.269 132.823 325.532 131.748 326.021C130.672 326.51 129.709 327.215 128.917 328.091C128.125 328.967 127.522 329.997 127.144 331.116C126.766 332.235 126.622 333.42 126.72 334.597L127.79 346.917C127.964 348.882 128.804 350.728 130.172 352.15C131.539 353.571 133.352 354.482 135.309 354.732L137.745 355.041C139.209 355.22 140.568 355.896 141.594 356.958C142.619 358.019 143.249 359.4 143.377 360.87L149.29 428.454C149.498 430.832 150.589 433.046 152.348 434.659C154.107 436.273 156.407 437.168 158.794 437.17H317.335C319.722 437.168 322.022 436.273 323.781 434.659C325.54 433.046 326.631 430.832 326.839 428.454L332.753 360.87C332.883 359.401 333.513 358.021 334.538 356.96C335.563 355.9 336.921 355.222 338.385 355.041L340.806 354.732C342.765 354.487 344.581 353.578 345.949 352.155C347.318 350.733 348.156 348.884 348.325 346.917L349.395 334.597C349.495 333.402 349.345 332.2 348.954 331.067C348.563 329.933 347.941 328.893 347.126 328.014C346.312 327.134 345.323 326.434 344.222 325.958C343.122 325.482 341.935 325.24 340.736 325.248Z" fill="#F0F0F0"/>
<path d="M198.429 193.924C232.948 193.924 260.93 165.941 260.93 131.423C260.93 96.9043 232.948 68.9216 198.429 68.9216C163.911 68.9216 135.928 96.9043 135.928 131.423C135.928 165.941 163.911 193.924 198.429 193.924Z" fill="#F5F5F5"/>
<path d="M198.429 184.42C227.699 184.42 251.426 160.692 251.426 131.423C251.426 102.153 227.699 78.4255 198.429 78.4255C169.16 78.4255 145.432 102.153 145.432 131.423C145.432 160.692 169.16 184.42 198.429 184.42Z" fill="#FAFAFA"/>
<path d="M198.429 78.4256C197.599 78.4256 196.768 78.4256 195.937 78.4256C209.556 79.054 222.408 84.9061 231.823 94.7656C241.238 104.625 246.492 117.734 246.492 131.366C246.492 144.999 241.238 158.108 231.823 167.967C222.408 177.827 209.556 183.679 195.937 184.307C196.768 184.307 197.599 184.307 198.429 184.307C212.485 184.307 225.965 178.724 235.904 168.785C245.843 158.846 251.427 145.366 251.427 131.31C251.427 117.254 245.843 103.774 235.904 93.8355C225.965 83.8966 212.485 78.313 198.429 78.313V78.4256Z" fill="#E6E6E6"/>
<path d="M198.444 184.364C199.781 184.293 201.105 184.166 202.428 184.012V135.407H248.794C248.892 134.084 248.949 132.76 248.949 131.423C248.949 130.085 248.949 128.762 248.794 127.438H202.414V78.848C201.091 78.679 199.767 78.5523 198.43 78.496H194.445V127.452H145.489V135.421H194.445V184.378L198.444 184.364Z" fill="#F0F0F0"/>
<path d="M194.445 78.4819H190.46V127.438H194.445V78.4819Z" fill="#E6E6E6"/>
<path d="M194.445 135.407H190.46V184.364H194.445V135.407Z" fill="#E6E6E6"/>
<path d="M505.57 193.924C540.089 193.924 568.072 165.941 568.072 131.423C568.072 96.9043 540.089 68.9216 505.57 68.9216C471.052 68.9216 443.069 96.9043 443.069 131.423C443.069 165.941 471.052 193.924 505.57 193.924Z" fill="#F5F5F5"/>
<path d="M505.571 184.42C534.84 184.42 558.568 160.692 558.568 131.423C558.568 102.153 534.84 78.4255 505.571 78.4255C476.301 78.4255 452.573 102.153 452.573 131.423C452.573 160.692 476.301 184.42 505.571 184.42Z" fill="#FAFAFA"/>
<path d="M505.571 78.4256C504.74 78.4256 503.909 78.4256 503.093 78.4256C516.711 79.054 529.563 84.9061 538.978 94.7656C548.393 104.625 553.647 117.734 553.647 131.366C553.647 144.999 548.393 158.108 538.978 167.967C529.563 177.827 516.711 183.679 503.093 184.307C503.909 184.307 504.74 184.307 505.571 184.307C519.626 184.307 533.106 178.724 543.045 168.785C552.984 158.846 558.568 145.366 558.568 131.31C558.568 117.254 552.984 103.774 543.045 93.8355C533.106 83.8966 519.626 78.313 505.571 78.313V78.4256Z" fill="#E6E6E6"/>
<path d="M505.599 184.364C507.007 184.293 508.274 184.166 509.583 184.012V135.407H555.949C556.047 134.084 556.118 132.76 556.118 131.423C556.118 130.085 556.047 128.762 555.949 127.438H509.555V78.848C508.246 78.679 506.922 78.5523 505.571 78.496H501.586V127.452H452.63V135.421H501.586V184.378L505.599 184.364Z" fill="#F0F0F0"/>
<path d="M501.6 78.4819H497.615V127.438H501.6V78.4819Z" fill="#E6E6E6"/>
<path d="M501.6 135.407H497.615V184.364H501.6V135.407Z" fill="#E6E6E6"/>
<path d="M397.844 422.076H506.077V384.722H397.844V422.076Z" fill="#EBEBEB"/>
<path d="M397.844 459.444H506.077V422.09H397.844V459.444Z" fill="#EBEBEB"/>
<path d="M509.851 422.076H618.084V384.722H509.851V422.076Z" fill="#EBEBEB"/>
<path d="M509.851 459.444H618.084V422.09H509.851V459.444Z" fill="#EBEBEB"/>
<path d="M576.956 422.076L563.481 384.722H584.207L597.682 422.076H576.956Z" fill="#F0F0F0"/>
<path d="M553.457 384.722H558.004L571.479 422.076H566.917L553.457 384.722Z" fill="#F0F0F0"/>
<path d="M590.417 459.444L576.956 422.076H597.682L611.142 459.444H590.417Z" fill="#F0F0F0"/>
<path d="M566.917 422.076H571.479L584.939 459.444H580.392L566.917 422.076Z" fill="#F0F0F0"/>
<path d="M422.147 422.076L408.686 384.722H429.412L442.872 422.076H422.147Z" fill="#F0F0F0"/>
<path d="M398.661 384.722H403.209L416.669 422.076H412.122L398.661 384.722Z" fill="#F0F0F0"/>
<path d="M435.621 459.444L422.146 422.076H442.872L456.347 459.444H435.621Z" fill="#F0F0F0"/>
<path d="M412.122 422.076H416.669L430.144 459.444H425.582L412.122 422.076Z" fill="#F0F0F0"/>
<path d="M618.084 390.467V386.693H509.851V390.467H618.084Z" fill="#E0E0E0"/>
<path d="M618.084 427.525V423.752H509.851V427.525H618.084Z" fill="#E0E0E0"/>
<path d="M561.201 408.179C560.771 408.179 560.359 408.009 560.056 407.705C559.752 407.401 559.582 406.989 559.582 406.56C559.582 406.131 559.752 405.719 560.056 405.415C560.359 405.111 560.771 404.941 561.201 404.941H566.734C567.164 404.941 567.575 405.111 567.879 405.415C568.183 405.719 568.353 406.131 568.353 406.56C568.353 406.989 568.183 407.401 567.879 407.705C567.575 408.009 567.164 408.179 566.734 408.179H561.201Z" fill="#E0E0E0"/>
<path d="M561.201 407.616C560.974 407.637 560.746 407.611 560.531 407.539C560.315 407.466 560.117 407.35 559.949 407.197C559.781 407.044 559.647 406.858 559.555 406.65C559.463 406.442 559.416 406.217 559.416 405.99C559.416 405.763 559.463 405.538 559.555 405.33C559.647 405.122 559.781 404.936 559.949 404.782C560.117 404.629 560.315 404.513 560.531 404.441C560.746 404.369 560.974 404.342 561.201 404.364H566.734C567.139 404.401 567.516 404.589 567.79 404.89C568.064 405.191 568.216 405.583 568.216 405.99C568.216 406.397 568.064 406.789 567.79 407.09C567.516 407.391 567.139 407.578 566.734 407.616H561.201Z" fill="#F5F5F5"/>
<path d="M561.201 442.675C560.974 442.696 560.746 442.67 560.531 442.598C560.315 442.526 560.117 442.409 559.949 442.256C559.781 442.103 559.647 441.917 559.555 441.709C559.463 441.501 559.416 441.276 559.416 441.049C559.416 440.822 559.463 440.597 559.555 440.389C559.647 440.181 559.781 439.995 559.949 439.842C560.117 439.689 560.315 439.572 560.531 439.5C560.746 439.428 560.974 439.402 561.201 439.423H566.734C567.139 439.46 567.516 439.648 567.79 439.949C568.064 440.25 568.216 440.642 568.216 441.049C568.216 441.456 568.064 441.848 567.79 442.149C567.516 442.45 567.139 442.638 566.734 442.675H561.201Z" fill="#E0E0E0"/>
<path d="M561.201 442.112C560.974 442.133 560.746 442.107 560.531 442.035C560.315 441.962 560.117 441.846 559.949 441.693C559.781 441.54 559.647 441.354 559.555 441.146C559.463 440.938 559.416 440.713 559.416 440.486C559.416 440.258 559.463 440.034 559.555 439.826C559.647 439.618 559.781 439.431 559.949 439.278C560.117 439.125 560.315 439.009 560.531 438.937C560.746 438.865 560.974 438.838 561.201 438.859H566.734C567.139 438.897 567.516 439.085 567.79 439.386C568.064 439.686 568.216 440.079 568.216 440.486C568.216 440.893 568.064 441.285 567.79 441.586C567.516 441.887 567.139 442.074 566.734 442.112H561.201Z" fill="#F5F5F5"/>
<path d="M507.964 383.046V461.078H619.971V383.046H507.964ZM511.738 424.061H616.197V457.29H511.738V424.061ZM511.738 387.045H616.197V420.274H511.738V387.045Z" fill="#F5F5F5"/>
<path d="M506.077 390.467V386.693H397.844V390.467H506.077Z" fill="#E0E0E0"/>
<path d="M506.063 427.539V423.766H397.831V427.539H506.063Z" fill="#E0E0E0"/>
<path d="M449.152 408.179C448.722 408.179 448.311 408.009 448.007 407.705C447.703 407.401 447.533 406.989 447.533 406.56C447.533 406.131 447.703 405.719 448.007 405.415C448.311 405.111 448.722 404.941 449.152 404.941H454.784C455.213 404.941 455.625 405.111 455.929 405.415C456.233 405.719 456.403 406.131 456.403 406.56C456.403 406.989 456.233 407.401 455.929 407.705C455.625 408.009 455.213 408.179 454.784 408.179H449.152Z" fill="#E0E0E0"/>
<path d="M449.152 407.616C448.747 407.578 448.37 407.391 448.096 407.09C447.822 406.789 447.67 406.397 447.67 405.99C447.67 405.583 447.822 405.191 448.096 404.89C448.37 404.589 448.747 404.401 449.152 404.364H454.784C455.189 404.401 455.566 404.589 455.84 404.89C456.114 405.191 456.266 405.583 456.266 405.99C456.266 406.397 456.114 406.789 455.84 407.09C455.566 407.391 455.189 407.578 454.784 407.616H449.152Z" fill="#F5F5F5"/>
<path d="M449.152 442.675C448.747 442.637 448.37 442.45 448.096 442.149C447.822 441.848 447.67 441.456 447.67 441.049C447.67 440.642 447.822 440.25 448.096 439.949C448.37 439.648 448.747 439.46 449.152 439.423H454.784C455.189 439.46 455.566 439.648 455.84 439.949C456.114 440.25 456.266 440.642 456.266 441.049C456.266 441.456 456.114 441.848 455.84 442.149C455.566 442.45 455.189 442.637 454.784 442.675H449.152Z" fill="#E0E0E0"/>
<path d="M449.152 442.112C448.747 442.074 448.37 441.887 448.096 441.586C447.822 441.285 447.67 440.893 447.67 440.486C447.67 440.079 447.822 439.687 448.096 439.386C448.37 439.085 448.747 438.897 449.152 438.86H454.784C455.189 438.897 455.566 439.085 455.84 439.386C456.114 439.687 456.266 440.079 456.266 440.486C456.266 440.893 456.114 441.285 455.84 441.586C455.566 441.887 455.189 442.074 454.784 442.112H449.152Z" fill="#F5F5F5"/>
<path d="M395.944 383.046V461.078H507.964V383.046H395.944ZM399.731 424.061H504.177V457.29H399.731V424.061ZM399.731 387.045H504.177V420.274H399.731V387.045Z" fill="#F5F5F5"/>
<path d="M556.16 376.879H539.461L535.589 360.448H528.901L525.043 376.879H508.288C507.608 376.878 506.935 377.01 506.306 377.269C505.678 377.528 505.106 377.908 504.625 378.388C504.144 378.868 503.762 379.438 503.501 380.066C503.241 380.694 503.106 381.367 503.106 382.047V383.046H561.313V382.047C561.313 380.679 560.771 379.367 559.805 378.398C558.839 377.429 557.528 376.883 556.16 376.879Z" fill="#E0E0E0"/>
<path d="M606.285 273.068H458.234V368.896H606.285V273.068Z" fill="#E0E0E0"/>
<path d="M603.469 275.884H461.05V361.856H603.469V275.884Z" fill="#F5F5F5"/>
<path d="M539.546 361.856H591.937L560.947 275.884H508.556L539.546 361.856Z" fill="#FAFAFA"/>
<path d="M514.188 361.856H525.705L494.715 275.884H483.198L514.188 361.856Z" fill="#FAFAFA"/>
<path d="M310.985 461.148H162.821V435.734H315.209L310.985 461.148Z" fill="#F5F5F5"/>
<path d="M174.86 461.331H109.106L106.29 435.734H172.044L174.86 461.331Z" fill="#E0E0E0"/>
<path d="M528.253 501.206H521.509L520.031 398.309H529.732L528.253 501.206Z" fill="#263238"/>
<path opacity="0.5" d="M528.253 501.206H521.509L520.031 398.309H529.732L528.253 501.206Z" fill="white"/>
<path d="M468.695 501.206H461.936L460.472 398.309H470.173L468.695 501.206Z" fill="#263238"/>
<path opacity="0.5" d="M468.695 501.206H461.936L460.472 398.309H470.173L468.695 501.206Z" fill="white"/>
<path d="M454.868 501.206H448.124L446.646 398.309H456.347L454.868 501.206Z" fill="#263238"/>
<path opacity="0.5" d="M454.868 501.206H448.124L446.646 398.309H456.347L454.868 501.206Z" fill="white"/>
<path d="M395.31 501.206H388.552L387.087 398.309H396.788L395.31 501.206Z" fill="#263238"/>
<path opacity="0.5" d="M395.31 501.206H388.552L387.087 398.309H396.788L395.31 501.206Z" fill="white"/>
<path d="M495.898 400.675H386.426C385.24 400.675 384.067 400.441 382.972 399.988C381.877 399.534 380.882 398.869 380.044 398.031C379.206 397.193 378.541 396.198 378.087 395.103C377.634 394.008 377.4 392.835 377.4 391.649V379.625C377.404 377.234 378.357 374.942 380.049 373.252C381.741 371.563 384.034 370.614 386.426 370.614H483.352L491.702 291.174C492.27 286.522 494.495 282.23 497.971 279.085C501.447 275.941 505.939 274.154 510.625 274.053H551.302L541.587 303.706L532.717 370.121L526.479 388.678L495.898 400.675Z" fill="#92E3A9"/>
<path opacity="0.2" d="M495.898 400.675H386.426C385.24 400.675 384.067 400.441 382.972 399.988C381.877 399.534 380.882 398.869 380.044 398.031C379.206 397.193 378.541 396.198 378.087 395.103C377.634 394.008 377.4 392.835 377.4 391.649V379.625C377.404 377.234 378.357 374.942 380.049 373.252C381.741 371.563 384.034 370.614 386.426 370.614H483.352L491.702 291.174C492.27 286.522 494.495 282.23 497.971 279.085C501.447 275.941 505.939 274.154 510.625 274.053H551.302L541.587 303.706L532.717 370.121L526.479 388.678L495.898 400.675Z" fill="black"/>
<path d="M554.667 274.053H546.543C541.859 274.154 537.368 275.942 533.895 279.086C530.421 282.231 528.199 286.523 527.634 291.174L519.284 370.614H459.557C457.168 370.618 454.878 371.568 453.189 373.257C451.5 374.946 450.55 377.236 450.546 379.625V391.649C450.546 394.041 451.495 396.334 453.184 398.026C454.874 399.718 457.166 400.671 459.557 400.675H531.816C534.559 400.676 537.205 399.66 539.244 397.824C541.283 395.989 542.569 393.463 542.854 390.734L552.316 300.707C556.105 300.63 559.727 299.133 562.465 296.512C565.203 293.892 566.857 290.338 567.1 286.556C567.13 284.912 566.83 283.278 566.217 281.752C565.604 280.226 564.69 278.839 563.531 277.673C562.371 276.507 560.989 275.585 559.466 274.963C557.944 274.342 556.312 274.032 554.667 274.053Z" fill="#92E3A9"/>
<path d="M397.647 458.698L402.336 489.336L412.009 488.506L410.657 457.586L397.647 458.698Z" fill="#EBB376"/>
<path d="M460.684 312.956L458.065 334.752C458.065 334.752 383.68 341.285 379.442 359.885C375.429 377.569 397.38 467.357 397.38 467.357L412.234 465.879C412.234 465.879 414.304 396.451 407.799 371.684C407.799 371.684 464.344 371.261 483.197 371.684C491.645 371.881 513.315 371.599 507.95 346.959C501.839 318.799 495.377 312.956 495.377 312.956L495.151 300.622H461.359L460.684 312.956Z" fill="#92E3A9"/>
<path opacity="0.2" d="M460.684 312.956L458.065 334.752C458.065 334.752 383.68 341.285 379.442 359.885C375.429 377.569 397.38 467.357 397.38 467.357L412.234 465.879C412.234 465.879 414.304 396.451 407.799 371.684C407.799 371.684 464.344 371.261 483.197 371.684C491.645 371.881 513.315 371.599 507.95 346.959C501.839 318.799 495.377 312.956 495.377 312.956L495.151 300.622H461.359L460.684 312.956Z" fill="white"/>
<path d="M426.145 458.079L428.215 489.013H437.916L439.212 458.079H426.145Z" fill="#EBB376"/>
<path d="M472.328 312.956L469.948 334.752C469.948 334.752 423.681 341.046 416.261 352.127C408.841 363.208 426.272 472.243 426.272 472.243H439.211C448.448 411.699 443.647 371.599 443.647 371.599H501.67C538.63 371.599 505.739 312.956 505.739 312.956L505.88 300.003L471.68 301.974L472.328 312.956Z" fill="#92E3A9"/>
<path opacity="0.3" d="M472.328 312.956L469.948 334.752C469.948 334.752 423.681 341.046 416.261 352.127C408.841 363.208 426.272 472.243 426.272 472.243H439.211C448.448 411.699 443.647 371.599 443.647 371.599H501.67C538.63 371.599 505.739 312.956 505.739 312.956L505.88 300.003L471.68 301.974L472.328 312.956Z" fill="white"/>
<path d="M405.884 300.524L395.409 302.565L385.553 299.679C384.187 299.493 382.797 299.661 381.515 300.167C380.233 300.672 379.103 301.498 378.231 302.565C376.804 304.27 376.026 306.424 376.034 308.648V309.028H396.296L407.292 307.549L405.884 300.524Z" fill="#EBB376"/>
<path d="M462.486 239.937C462.469 239.455 462.311 238.988 462.03 238.595C461.749 238.203 461.359 237.902 460.907 237.73C460.456 237.559 459.964 237.524 459.494 237.631C459.023 237.738 458.594 237.982 458.262 238.332C454.882 241.655 450.025 245.555 447.758 266.492C444.843 293.455 399.886 300.143 399.886 300.143L402.026 309.999C402.026 309.999 435.142 311.126 448.856 296.82C466.597 278.446 464.006 250.863 462.486 239.937Z" fill="#92E3A9"/>
<path opacity="0.2" d="M462.486 239.937C462.469 239.455 462.311 238.988 462.03 238.595C461.749 238.203 461.359 237.902 460.907 237.73C460.456 237.559 459.964 237.524 459.494 237.631C459.023 237.738 458.594 237.982 458.262 238.332C454.882 241.655 450.025 245.555 447.758 266.492C444.843 293.455 399.886 300.143 399.886 300.143L402.026 309.999C402.026 309.999 435.142 311.126 448.856 296.82C466.597 278.446 464.006 250.863 462.486 239.937Z" fill="white"/>
<path d="M502.783 196.416C498.714 169.143 475.749 178.971 475.749 178.971C460.909 184.321 465.893 202.752 465.893 212.763C465.893 222.774 464.626 226.237 464.626 226.237C466.344 225.857 467.935 225.533 469.47 225.224L470.005 222.084L470.934 224.9C483.409 222.52 490.139 222.549 493.772 223.309C494.793 221.449 495.529 219.446 495.954 217.367C495.954 217.367 497.728 218.522 495.954 223.985C498.108 224.956 498.01 226.209 498.01 226.209C498.01 226.209 506.88 223.689 502.783 196.416Z" fill="#263238"/>
<path d="M516.891 236.769L463.232 236.136C461.979 236.116 460.759 236.543 459.792 237.34C458.825 238.137 458.172 239.252 457.952 240.486C451.616 275.517 455.938 274.278 455.938 274.278L458.642 317.152H464.64C466.395 317.154 468.096 316.547 469.454 315.436C470.812 314.324 471.743 312.776 472.088 311.055L472.694 308.042L474.285 312.266C474.825 313.7 475.786 314.937 477.043 315.814C478.3 316.691 479.792 317.168 481.325 317.18H508.71C505.528 284.261 515.962 252.497 519.594 240.627C519.737 240.193 519.776 239.731 519.709 239.279C519.642 238.827 519.47 238.396 519.208 238.022C518.945 237.647 518.599 237.339 518.197 237.122C517.795 236.904 517.348 236.784 516.891 236.769Z" fill="#92E3A9"/>
<path opacity="0.4" d="M516.891 236.769L463.232 236.136C461.979 236.116 460.759 236.543 459.792 237.34C458.825 238.137 458.172 239.252 457.952 240.486C451.616 275.517 455.938 274.278 455.938 274.278L458.642 317.152H464.64C466.395 317.154 468.096 316.547 469.454 315.436C470.812 314.324 471.743 312.776 472.088 311.055L472.694 308.042L474.285 312.266C474.825 313.7 475.786 314.937 477.043 315.814C478.3 316.691 479.792 317.168 481.325 317.18H508.71C505.528 284.261 515.962 252.497 519.594 240.627C519.737 240.193 519.776 239.731 519.709 239.279C519.642 238.827 519.47 238.396 519.208 238.022C518.945 237.647 518.599 237.339 518.197 237.122C517.795 236.904 517.348 236.784 516.891 236.769Z" fill="white"/>
<path d="M398.464 299.989L400.449 310.38C400.519 310.735 400.714 311.053 400.998 311.278C401.282 311.502 401.636 311.618 401.998 311.605L403.997 311.52C404.207 311.511 404.412 311.457 404.599 311.363C404.786 311.27 404.952 311.137 405.084 310.975C405.217 310.813 405.315 310.625 405.37 310.423C405.425 310.221 405.437 310.009 405.405 309.802L403.758 298.735C403.728 298.517 403.65 298.309 403.53 298.124C403.41 297.939 403.252 297.783 403.065 297.666C402.879 297.55 402.669 297.475 402.45 297.448C402.232 297.421 402.01 297.443 401.801 297.51L399.449 298.271C399.107 298.392 398.819 298.632 398.639 298.947C398.458 299.262 398.396 299.632 398.464 299.989V299.989Z" fill="#92E3A9"/>
<path opacity="0.6" d="M398.464 299.989L400.449 310.38C400.519 310.735 400.714 311.053 400.998 311.278C401.282 311.502 401.636 311.618 401.998 311.605L403.997 311.52C404.207 311.511 404.412 311.457 404.599 311.363C404.786 311.27 404.952 311.137 405.084 310.975C405.217 310.813 405.315 310.625 405.37 310.423C405.425 310.221 405.437 310.009 405.405 309.802L403.758 298.735C403.728 298.517 403.65 298.309 403.53 298.124C403.41 297.939 403.252 297.783 403.065 297.666C402.879 297.55 402.669 297.475 402.45 297.448C402.232 297.421 402.01 297.443 401.801 297.51L399.449 298.271C399.107 298.392 398.819 298.632 398.639 298.947C398.458 299.262 398.396 299.632 398.464 299.989V299.989Z" fill="white"/>
<path d="M491.392 210.721C490.603 217.902 490.35 230.94 495.7 235.22C495.7 235.22 493.659 242.472 479.903 243.823C470.131 239.515 473.764 237.121 473.764 237.121C481.465 234.516 482.212 228.744 480.466 223.379L491.392 210.721Z" fill="#EBB376"/>
<path opacity="0.1" d="M490.181 218.705L487.365 217.973L483.873 219.381L480.438 223.351C480.899 224.714 481.16 226.137 481.212 227.575C488.787 226.421 490.181 218.705 490.181 218.705Z" fill="black"/>
<path d="M496.433 194.853C496.77 206.694 497.179 211.749 491.786 218.282C483.662 228.138 469.047 226.026 465.161 214.523C461.669 204.174 461.683 186.56 472.778 180.815C475.224 179.54 477.955 178.912 480.713 178.989C483.47 179.067 486.161 179.849 488.532 181.259C490.902 182.67 492.872 184.664 494.255 187.05C495.638 189.437 496.387 192.137 496.433 194.895V194.853Z" fill="#EBB376"/>
<path d="M500.065 203.907C499.612 206.154 498.285 208.129 496.376 209.398C493.828 211.059 491.645 209.004 491.589 206.117C491.589 203.541 492.814 199.556 495.729 199.077C496.366 198.987 497.017 199.056 497.621 199.277C498.226 199.498 498.767 199.866 499.196 200.346C499.625 200.827 499.929 201.406 500.08 202.032C500.232 202.658 500.227 203.311 500.065 203.935V203.907Z" fill="#EBB376"/>
<path d="M471.075 202.132C470.427 204.393 469.48 206.558 468.259 208.567C468.776 208.874 469.354 209.064 469.953 209.122C470.551 209.18 471.155 209.106 471.722 208.905L471.075 202.132Z" fill="#D58745"/>
<path d="M479.03 195.36C479.113 195.335 479.186 195.286 479.241 195.219C479.326 195.13 479.374 195.012 479.374 194.888C479.374 194.765 479.326 194.647 479.241 194.558V194.558C478.607 193.95 477.835 193.504 476.992 193.259C476.149 193.014 475.259 192.976 474.397 193.15C474.277 193.183 474.174 193.261 474.111 193.369C474.048 193.477 474.029 193.605 474.06 193.727C474.09 193.846 474.166 193.949 474.271 194.012C474.377 194.076 474.503 194.095 474.623 194.065C475.339 193.939 476.074 193.984 476.769 194.197C477.464 194.41 478.099 194.784 478.621 195.29C478.68 195.33 478.747 195.358 478.818 195.37C478.888 195.382 478.961 195.379 479.03 195.36Z" fill="#2E353A"/>
<path d="M462.5 196.416C462.418 196.401 462.341 196.367 462.275 196.317C462.226 196.279 462.185 196.231 462.155 196.177C462.125 196.123 462.106 196.063 462.1 196.001C462.093 195.94 462.099 195.877 462.117 195.818C462.135 195.759 462.165 195.703 462.204 195.656C462.746 194.961 463.448 194.406 464.249 194.039C465.05 193.671 465.928 193.501 466.808 193.544C466.93 193.561 467.041 193.625 467.117 193.722C467.193 193.819 467.229 193.942 467.217 194.065C467.202 194.186 467.141 194.296 467.047 194.372C466.952 194.449 466.831 194.485 466.71 194.473C465.982 194.45 465.259 194.601 464.601 194.911C463.942 195.222 463.367 195.685 462.922 196.261C462.872 196.322 462.806 196.368 462.732 196.395C462.658 196.422 462.578 196.429 462.5 196.416Z" fill="#2E353A"/>
<path d="M477.692 199.936C477.791 200.894 477.34 201.71 476.707 201.781C476.073 201.851 475.51 201.119 475.425 200.147C475.341 199.176 475.777 198.373 476.397 198.303C477.016 198.232 477.608 198.965 477.692 199.936Z" fill="#2E353A"/>
<path d="M466.851 200.922C466.949 201.865 466.499 202.696 465.879 202.752C465.259 202.808 464.682 202.076 464.584 201.119C464.485 200.161 464.936 199.345 465.555 199.288C466.175 199.232 466.78 199.936 466.851 200.922Z" fill="#2E353A"/>
<path d="M465.837 199.302L463.485 198.852C463.485 198.852 464.823 200.541 465.837 199.302Z" fill="#2E353A"/>
<path d="M476.678 198.317L474.327 197.866C474.327 197.866 475.665 199.556 476.678 198.317Z" fill="#2E353A"/>
<path d="M471.131 212.707C472.574 212.886 474.039 212.735 475.415 212.264C476.791 211.794 478.042 211.015 479.072 209.989C479.072 209.989 482.592 216.396 473.102 217.437C472.951 215.694 472.262 214.041 471.131 212.707Z" fill="#263238"/>
<path d="M471.976 212.777L472.666 214.185C472.666 214.185 477.143 214.185 479.522 211.101C479.409 210.699 479.258 210.307 479.072 209.933C478.149 210.871 477.043 211.608 475.821 212.098C474.6 212.587 473.291 212.818 471.976 212.777Z" fill="white"/>
<path d="M473.75 217.339C478.396 216.663 479.607 214.523 479.706 212.805C475.116 214.016 474.003 216.311 473.75 217.339Z" fill="#DE5753"/>
<path d="M475.749 185.434C474.893 187.022 473.674 188.386 472.192 189.413C470.709 190.441 469.004 191.104 467.216 191.347C460.824 192.46 463.105 209.144 463.105 209.144C463.105 209.144 449.293 175.465 479.367 177.859L475.749 185.434Z" fill="#263238"/>
<path d="M480.128 178.506C479.628 178.392 479.109 178.384 478.605 178.481C478.101 178.579 477.624 178.781 477.202 179.074C476.781 179.366 476.425 179.744 476.158 180.182C475.891 180.62 475.718 181.109 475.65 181.618C475.298 184.434 475.89 187.954 480.438 189.418C488.477 191.995 487.731 200.499 487.731 200.499L489.139 194.191C489.139 194.191 489.59 203.203 494.123 202.132C498.657 201.062 499.108 192.558 499.108 192.558L491.617 181.097L480.128 178.506Z" fill="#263238"/>
<path d="M475.031 234.812C475.134 234.77 475.247 234.757 475.357 234.775C475.467 234.793 475.57 234.841 475.655 234.914C475.739 234.987 475.802 235.082 475.836 235.188C475.87 235.294 475.874 235.408 475.848 235.516C475.313 237.839 474.848 242.88 480.973 242.88C487.098 242.88 492.603 237.882 494.954 235.474C495.312 235.107 495.77 234.854 496.271 234.747C496.772 234.639 497.293 234.681 497.77 234.868L499.375 235.502C499.545 235.57 499.697 235.673 499.822 235.806C499.947 235.938 500.042 236.097 500.1 236.27C500.157 236.443 500.177 236.626 500.156 236.807C500.136 236.988 500.076 237.163 499.981 237.318C497.263 241.824 487.52 256.186 479.649 244.541C479.649 244.541 475.073 251.581 472.257 245.288C471.221 242.91 470.999 240.258 471.624 237.741C471.757 237.184 472.024 236.669 472.402 236.239C472.78 235.81 473.257 235.479 473.792 235.277L475.031 234.812Z" fill="#92E3A9"/>
<path opacity="0.6" d="M475.031 234.812C475.134 234.77 475.247 234.757 475.357 234.775C475.467 234.793 475.57 234.841 475.655 234.914C475.739 234.987 475.802 235.082 475.836 235.188C475.87 235.294 475.874 235.408 475.848 235.516C475.313 237.839 474.848 242.88 480.973 242.88C487.098 242.88 492.603 237.882 494.954 235.474C495.312 235.107 495.77 234.854 496.271 234.747C496.772 234.639 497.293 234.681 497.77 234.868L499.375 235.502C499.545 235.57 499.697 235.673 499.822 235.806C499.947 235.938 500.042 236.097 500.1 236.27C500.157 236.443 500.177 236.626 500.156 236.807C500.136 236.988 500.076 237.163 499.981 237.318C497.263 241.824 487.52 256.186 479.649 244.541C479.649 244.541 475.073 251.581 472.257 245.288C471.221 242.91 470.999 240.258 471.624 237.741C471.757 237.184 472.024 236.669 472.402 236.239C472.78 235.81 473.257 235.479 473.792 235.277L475.031 234.812Z" fill="white"/>
<path d="M447.476 243.331C447.666 243.184 447.884 243.079 448.116 243.02C448.348 242.962 448.59 242.952 448.826 242.991C449.063 243.03 449.289 243.117 449.49 243.247C449.691 243.377 449.863 243.547 449.996 243.747C450.129 243.946 450.219 244.171 450.261 244.406C450.303 244.642 450.296 244.884 450.241 245.117C450.185 245.35 450.083 245.569 449.939 245.761C449.795 245.953 449.613 246.113 449.405 246.231L423.934 263.127C423.744 263.253 423.531 263.34 423.307 263.383C423.083 263.426 422.852 263.425 422.629 263.379C422.177 263.287 421.781 263.019 421.527 262.634C421.273 262.25 421.182 261.78 421.275 261.328C421.367 260.877 421.635 260.481 422.02 260.227L447.476 243.331Z" fill="#263238"/>
<path opacity="0.6" d="M447.476 243.331C447.666 243.184 447.884 243.079 448.116 243.02C448.348 242.962 448.59 242.952 448.826 242.991C449.063 243.03 449.289 243.117 449.49 243.247C449.691 243.377 449.863 243.547 449.996 243.747C450.129 243.946 450.219 244.171 450.261 244.406C450.303 244.642 450.296 244.884 450.241 245.117C450.185 245.35 450.083 245.569 449.939 245.761C449.795 245.953 449.613 246.113 449.405 246.231L423.934 263.127C423.744 263.253 423.531 263.34 423.307 263.383C423.083 263.426 422.852 263.425 422.629 263.379C422.177 263.287 421.781 263.019 421.527 262.634C421.273 262.25 421.182 261.78 421.275 261.328C421.367 260.877 421.635 260.481 422.02 260.227L447.476 243.331Z" fill="white"/>
<path d="M422.02 260.184C421.213 261.021 420.53 261.97 419.992 263C419.941 263.089 419.917 263.19 419.92 263.293C419.924 263.395 419.956 263.494 420.013 263.579C420.07 263.664 420.15 263.731 420.243 263.773C420.337 263.815 420.44 263.83 420.541 263.817C421.702 263.731 422.845 263.48 423.935 263.071C424.125 262.945 424.289 262.783 424.417 262.594C424.545 262.405 424.634 262.192 424.68 261.969C424.725 261.745 424.727 261.515 424.683 261.291C424.64 261.067 424.553 260.853 424.427 260.663C424.302 260.473 424.14 260.309 423.951 260.181C423.762 260.053 423.549 259.964 423.326 259.918C423.102 259.872 422.872 259.871 422.648 259.914C422.424 259.958 422.21 260.045 422.02 260.17V260.184Z" fill="#263238"/>
<path opacity="0.8" d="M422.02 260.184C421.213 261.021 420.53 261.97 419.992 263C419.941 263.089 419.917 263.19 419.92 263.293C419.924 263.395 419.956 263.494 420.013 263.579C420.07 263.664 420.15 263.731 420.243 263.773C420.337 263.815 420.44 263.83 420.541 263.817C421.702 263.731 422.845 263.48 423.935 263.071C424.125 262.945 424.289 262.783 424.417 262.594C424.545 262.405 424.634 262.192 424.68 261.969C424.725 261.745 424.727 261.515 424.683 261.291C424.64 261.067 424.553 260.853 424.427 260.663C424.302 260.473 424.14 260.309 423.951 260.181C423.762 260.053 423.549 259.964 423.326 259.918C423.102 259.872 422.872 259.871 422.648 259.914C422.424 259.958 422.21 260.045 422.02 260.17V260.184Z" fill="white"/>
<path d="M457.191 271.434L446.082 263.648L443.52 252.989C443.283 251.96 442.761 251.018 442.014 250.271C441.267 249.524 440.325 249.003 439.296 248.765V248.765C437.962 248.462 436.563 248.655 435.361 249.308C434.158 249.961 433.235 251.03 432.763 252.314L431.904 254.623C431.673 255.25 431.554 255.912 431.552 256.58V258.537C431.552 259.944 432.08 261.301 433.03 262.339L434.551 264C434.959 264.443 435.434 264.818 435.959 265.112L442.548 268.787L452.953 279.178L457.191 271.434Z" fill="#EBB376"/>
<path d="M514.004 239.867C514.254 239.162 514.684 238.535 515.25 238.048C515.817 237.56 516.501 237.229 517.235 237.087C517.969 236.944 518.727 236.996 519.434 237.237C520.142 237.478 520.775 237.899 521.27 238.459C523.621 241.359 524.973 246.907 520.96 257.847C512.948 279.601 500.192 296.68 484.211 296.68C465.259 296.68 446.083 274.743 446.083 274.743L452.728 266.915C452.728 266.915 471.976 279.967 484.817 279.967C492.152 280.023 504.064 265.774 514.004 239.867Z" fill="#92E3A9"/>
<path opacity="0.2" d="M514.004 239.867C514.254 239.162 514.684 238.535 515.25 238.048C515.817 237.56 516.501 237.229 517.235 237.087C517.969 236.944 518.727 236.996 519.434 237.237C520.142 237.478 520.775 237.899 521.27 238.459C523.621 241.359 524.973 246.907 520.96 257.847C512.948 279.601 500.192 296.68 484.211 296.68C465.259 296.68 446.083 274.743 446.083 274.743L452.728 266.915C452.728 266.915 471.976 279.967 484.817 279.967C492.152 280.023 504.064 265.774 514.004 239.867Z" fill="white"/>
<path d="M444.421 273.941L451.912 264.901C452.038 264.749 452.218 264.651 452.414 264.628C452.611 264.604 452.809 264.657 452.968 264.774L456.178 267.112C456.264 267.174 456.337 267.253 456.391 267.345C456.446 267.437 456.481 267.538 456.494 267.644C456.507 267.75 456.498 267.857 456.468 267.959C456.438 268.062 456.387 268.156 456.319 268.238L447.871 278.39C447.793 278.485 447.695 278.56 447.583 278.61C447.471 278.659 447.348 278.682 447.226 278.675C447.104 278.668 446.985 278.632 446.879 278.57C446.773 278.509 446.684 278.423 446.618 278.319L444.337 274.87C444.25 274.726 444.211 274.558 444.227 274.391C444.242 274.224 444.31 274.066 444.421 273.941V273.941Z" fill="#92E3A9"/>
<path opacity="0.6" d="M444.421 273.941L451.912 264.901C452.038 264.749 452.218 264.651 452.414 264.628C452.611 264.604 452.809 264.657 452.968 264.774L456.178 267.112C456.264 267.174 456.337 267.253 456.391 267.345C456.446 267.437 456.481 267.538 456.494 267.644C456.507 267.75 456.498 267.857 456.468 267.959C456.438 268.062 456.387 268.156 456.319 268.238L447.871 278.39C447.793 278.485 447.695 278.56 447.583 278.61C447.471 278.659 447.348 278.682 447.226 278.675C447.104 278.668 446.985 278.632 446.879 278.57C446.773 278.509 446.684 278.423 446.618 278.319L444.337 274.87C444.25 274.726 444.211 274.558 444.227 274.391C444.242 274.224 444.31 274.066 444.421 273.941V273.941Z" fill="white"/>
<path d="M479.002 177.746H476.369V177.845C481.213 178.353 485.698 180.636 488.959 184.255C492.219 187.875 494.024 192.573 494.025 197.444H498.7C498.696 192.221 496.619 187.213 492.926 183.519C489.233 179.826 484.225 177.75 479.002 177.746V177.746Z" fill="#263238"/>
<path opacity="0.6" d="M479.002 177.746H476.369V177.845C481.213 178.353 485.698 180.636 488.959 184.255C492.219 187.875 494.024 192.573 494.025 197.444H498.7C498.696 192.221 496.619 187.213 492.926 183.519C489.233 179.826 484.225 177.75 479.002 177.746V177.746Z" fill="white"/>
<path d="M496.433 212.819C499.963 212.819 502.825 208.993 502.825 204.273C502.825 199.553 499.963 195.726 496.433 195.726C492.902 195.726 490.04 199.553 490.04 204.273C490.04 208.993 492.902 212.819 496.433 212.819Z" fill="#92E3A9"/>
<path d="M503.557 204.273C503.557 208.088 502.403 209.905 499.333 209.905C496.264 209.905 495.109 208.116 495.109 204.273C495.109 200.429 496.278 198.641 499.333 198.641C502.389 198.641 503.557 200.443 503.557 204.273Z" fill="#263238"/>
<path opacity="0.5" d="M503.557 204.273C503.557 208.088 502.403 209.905 499.333 209.905C496.264 209.905 495.109 208.116 495.109 204.273C495.109 200.429 496.278 198.641 499.333 198.641C502.389 198.641 503.557 200.443 503.557 204.273Z" fill="white"/>
<path d="M500.262 209.356C502.362 209.356 504.064 207.08 504.064 204.273C504.064 201.466 502.362 199.19 500.262 199.19C498.163 199.19 496.461 201.466 496.461 204.273C496.461 207.08 498.163 209.356 500.262 209.356Z" fill="#263238"/>
<path opacity="0.7" d="M500.262 209.356C502.362 209.356 504.064 207.08 504.064 204.273C504.064 201.466 502.362 199.19 500.262 199.19C498.163 199.19 496.461 201.466 496.461 204.273C496.461 207.08 498.163 209.356 500.262 209.356Z" fill="white"/>
<path d="M239.473 501.206H232.728L229.771 324.783H242.429L239.473 501.206Z" fill="#263238"/>
<path opacity="0.7" d="M239.473 501.206H232.728L229.771 324.783H242.429L239.473 501.206Z" fill="white"/>
<path d="M313.97 501.206H307.211L304.255 324.783H316.927L313.97 501.206Z" fill="#263238"/>
<path opacity="0.7" d="M313.97 501.206H307.211L304.255 324.783H316.927L313.97 501.206Z" fill="white"/>
<path d="M363.433 321.827H236.094V335.625H363.433V321.827Z" fill="#263238"/>
<path opacity="0.5" d="M363.433 321.827H236.094V335.625H363.433V321.827Z" fill="white"/>
<path d="M438.127 321.827H363.447V335.625H438.127V321.827Z" fill="#263238"/>
<path opacity="0.5" d="M438.127 321.827H363.447V335.625H438.127V321.827Z" fill="white"/>
<path d="M441.309 501.206H434.551L431.594 324.783H444.252L441.309 501.206Z" fill="#263238"/>
<path opacity="0.7" d="M441.309 501.206H434.551L431.594 324.783H444.252L441.309 501.206Z" fill="white"/>
<path d="M448.251 312.956H348.818C346.757 312.956 345.087 314.627 345.087 316.687V321.052C345.087 323.113 346.757 324.783 348.818 324.783H448.251C450.312 324.783 451.982 323.113 451.982 321.052V316.687C451.982 314.627 450.312 312.956 448.251 312.956Z" fill="#263238"/>
<path d="M357.998 312.956H223.013C220.952 312.956 219.282 314.627 219.282 316.687V321.052C219.282 323.113 220.952 324.783 223.013 324.783H357.998C360.059 324.783 361.729 323.113 361.729 321.052V316.687C361.729 314.627 360.059 312.956 357.998 312.956Z" fill="#263238"/>
<path opacity="0.2" d="M357.998 312.956H223.013C220.952 312.956 219.282 314.627 219.282 316.687V321.052C219.282 323.113 220.952 324.783 223.013 324.783H357.998C360.059 324.783 361.729 323.113 361.729 321.052V316.687C361.729 314.627 360.059 312.956 357.998 312.956Z" fill="white"/>
<path d="M366.812 501.206H360.068L357.111 324.783H369.769L366.812 501.206Z" fill="#263238"/>
<path opacity="0.7" d="M366.812 501.206H360.068L357.111 324.783H369.769L366.812 501.206Z" fill="white"/>
<path d="M363.264 312.97C362.741 312.97 362.24 312.763 361.87 312.393C361.5 312.023 361.293 311.522 361.293 310.999C361.293 310.476 361.5 309.975 361.87 309.605C362.24 309.236 362.741 309.028 363.264 309.028H416.979C417.502 309.028 418.003 309.236 418.373 309.605C418.743 309.975 418.95 310.476 418.95 310.999C418.95 311.522 418.743 312.023 418.373 312.393C418.003 312.763 417.502 312.97 416.979 312.97H363.264Z" fill="#92E3A9"/>
<path d="M367.882 309.563L360.73 258.678C360.579 257.752 360.11 256.907 359.403 256.29C358.696 255.673 357.796 255.323 356.858 255.299H350.015V312.956H364.968C365.4 312.981 365.831 312.905 366.229 312.736C366.628 312.567 366.981 312.308 367.263 311.98C367.545 311.651 367.748 311.263 367.855 310.843C367.962 310.424 367.972 309.986 367.882 309.563Z" fill="#92E3A9"/>
<path d="M362.011 312.956H301.312C300.374 312.931 299.474 312.578 298.769 311.958C298.064 311.338 297.599 310.49 297.454 309.563L290.301 258.678C290.215 258.256 290.226 257.819 290.334 257.402C290.443 256.984 290.646 256.598 290.927 256.271C291.209 255.945 291.562 255.687 291.958 255.519C292.355 255.35 292.786 255.275 293.216 255.299H353.943C354.88 255.325 355.779 255.677 356.485 256.293C357.192 256.91 357.662 257.753 357.815 258.678L364.968 309.563C365.058 309.99 365.048 310.432 364.939 310.855C364.829 311.277 364.623 311.668 364.336 311.997C364.049 312.327 363.69 312.584 363.286 312.751C362.883 312.917 362.446 312.988 362.011 312.956V312.956Z" fill="#92E3A9"/>
<path opacity="0.7" d="M362.011 312.956H301.312C300.374 312.931 299.474 312.578 298.769 311.958C298.064 311.338 297.599 310.49 297.454 309.563L290.301 258.678C290.215 258.256 290.226 257.819 290.334 257.402C290.443 256.984 290.646 256.598 290.927 256.271C291.209 255.945 291.562 255.687 291.958 255.519C292.355 255.35 292.786 255.275 293.216 255.299H353.943C354.88 255.325 355.779 255.677 356.485 256.293C357.192 256.91 357.662 257.753 357.815 258.678L364.968 309.563C365.058 309.99 365.048 310.432 364.939 310.855C364.829 311.277 364.623 311.668 364.336 311.997C364.049 312.327 363.69 312.584 363.286 312.751C362.883 312.917 362.446 312.988 362.011 312.956V312.956Z" fill="white"/>
<path opacity="0.7" d="M330.556 282.74C330.625 283.125 330.608 283.521 330.505 283.898C330.402 284.276 330.217 284.625 329.962 284.922C329.707 285.218 329.389 285.455 329.032 285.613C328.674 285.772 328.286 285.848 327.895 285.838C327.039 285.81 326.218 285.487 325.574 284.922C324.929 284.357 324.501 283.586 324.361 282.74C324.292 282.356 324.309 281.96 324.412 281.583C324.515 281.205 324.701 280.856 324.955 280.559C325.21 280.263 325.528 280.026 325.885 279.868C326.243 279.709 326.631 279.633 327.022 279.643C327.88 279.665 328.704 279.987 329.349 280.553C329.995 281.119 330.422 281.893 330.556 282.74V282.74Z" fill="white"/>
<path d="M278.432 283.656H254.975C254.602 283.656 254.234 283.738 253.897 283.896C253.559 284.054 253.26 284.284 253.021 284.57C252.782 284.856 252.609 285.191 252.514 285.551C252.418 285.911 252.403 286.288 252.469 286.655V286.866C251.298 286.575 250.07 286.614 248.92 286.979C244.696 288.246 244.57 292.019 245.837 296.257C247.104 300.495 249.272 303.579 253.511 302.312C254.193 302.103 254.842 301.8 255.439 301.411C256.28 303.394 257.642 305.112 259.382 306.381V309.479H273.941V306.381C276.392 304.604 278.066 301.952 278.615 298.975L280.896 286.655C280.961 286.292 280.947 285.918 280.854 285.561C280.761 285.204 280.591 284.871 280.357 284.586C280.123 284.301 279.829 284.07 279.497 283.909C279.164 283.749 278.801 283.662 278.432 283.656V283.656ZM252.961 299.623C250.145 300.453 248.737 298.426 247.921 295.638C247.104 292.85 247.175 290.386 249.948 289.555C250.97 289.218 252.084 289.299 253.046 289.781L254.693 298.679C254.192 299.117 253.601 299.439 252.961 299.623Z" fill="#92E3A9"/>
<path opacity="0.5" d="M278.432 283.656H254.975C254.602 283.656 254.234 283.738 253.897 283.896C253.559 284.054 253.26 284.284 253.021 284.57C252.782 284.856 252.609 285.191 252.514 285.551C252.418 285.911 252.403 286.288 252.469 286.655V286.866C251.298 286.575 250.07 286.614 248.92 286.979C244.696 288.246 244.57 292.019 245.837 296.257C247.104 300.495 249.272 303.579 253.511 302.312C254.193 302.103 254.842 301.8 255.439 301.411C256.28 303.394 257.642 305.112 259.382 306.381V309.479H273.941V306.381C276.392 304.604 278.066 301.952 278.615 298.975L280.896 286.655C280.961 286.292 280.947 285.918 280.854 285.561C280.761 285.204 280.591 284.871 280.357 284.586C280.123 284.301 279.829 284.07 279.497 283.909C279.164 283.749 278.801 283.662 278.432 283.656V283.656ZM252.961 299.623C250.145 300.453 248.737 298.426 247.921 295.638C247.104 292.85 247.175 290.386 249.948 289.555C250.97 289.218 252.084 289.299 253.046 289.781L254.693 298.679C254.192 299.117 253.601 299.439 252.961 299.623Z" fill="white"/>
<path d="M274.56 313.125H258.805C257.822 313.128 256.854 312.886 255.989 312.421L250.638 309.493C250.431 309.375 250.268 309.193 250.175 308.973C250.081 308.754 250.063 308.51 250.122 308.279C250.182 308.049 250.315 307.844 250.503 307.697C250.69 307.549 250.921 307.468 251.159 307.465H282.135C282.373 307.468 282.604 307.549 282.792 307.697C282.979 307.844 283.113 308.049 283.172 308.279C283.231 308.51 283.213 308.754 283.12 308.973C283.026 309.193 282.863 309.375 282.656 309.493L277.306 312.421C276.461 312.875 275.519 313.117 274.56 313.125V313.125Z" fill="#92E3A9"/>
<path opacity="0.4" d="M274.56 313.125H258.805C257.822 313.128 256.854 312.886 255.989 312.421L250.638 309.493C250.431 309.375 250.268 309.193 250.175 308.973C250.081 308.754 250.063 308.51 250.122 308.279C250.182 308.049 250.315 307.844 250.503 307.697C250.69 307.549 250.921 307.468 251.159 307.465H282.135C282.373 307.468 282.604 307.549 282.792 307.697C282.979 307.844 283.113 308.049 283.172 308.279C283.231 308.51 283.213 308.754 283.12 308.973C283.026 309.193 282.863 309.375 282.656 309.493L277.306 312.421C276.461 312.875 275.519 313.117 274.56 313.125V313.125Z" fill="white"/>
<path d="M379.555 115.864H286.416C282.341 115.864 279.038 119.168 279.038 123.242V197.289C279.038 201.364 282.341 204.667 286.416 204.667H379.555C383.629 204.667 386.933 201.364 386.933 197.289V123.242C386.933 119.168 383.629 115.864 379.555 115.864Z" fill="#92E3A9"/>
<path opacity="0.6" d="M379.555 115.864H286.416C282.341 115.864 279.038 119.168 279.038 123.242V197.289C279.038 201.364 282.341 204.667 286.416 204.667H379.555C383.629 204.667 386.933 201.364 386.933 197.289V123.242C386.933 119.168 383.629 115.864 379.555 115.864Z" fill="white"/>
<path d="M329.233 132.535C329.233 132.535 321.207 128.424 317.124 137.463C313.041 146.502 302.72 141.068 307.057 159.386C311.393 177.704 292.864 171.48 301.777 184.856C310.689 198.232 324.305 189.08 331.767 189.32C339.23 189.559 353.647 194.248 357.111 185.912C360.575 177.577 354.647 174.775 354.52 170.255C354.394 165.736 361.898 154.908 355.816 150.008C344.693 140.997 349.071 127.48 329.233 132.535Z" fill="#2E353A"/>
<path d="M331.767 179.126C341.425 179.126 349.255 169.109 349.255 156.753C349.255 144.396 341.425 134.38 331.767 134.38C322.109 134.38 314.28 144.396 314.28 156.753C314.28 169.109 322.109 179.126 331.767 179.126Z" fill="#B97964"/>
<path d="M332.95 157.766C333.369 159.826 334.075 161.817 335.048 163.68C334.568 163.918 334.042 164.047 333.507 164.059C332.972 164.071 332.44 163.966 331.95 163.75L332.95 157.766Z" fill="#A24E3F"/>
<path d="M325.248 157.837C325.248 158.653 325.572 159.343 326.107 159.386C326.642 159.428 327.107 158.78 327.163 157.978C327.219 157.175 326.825 156.485 326.304 156.457C325.783 156.429 325.248 157.034 325.248 157.837Z" fill="#2E353A"/>
<path d="M322.334 154.979C322.259 154.993 322.183 154.993 322.108 154.979C322.025 154.886 321.979 154.765 321.979 154.641C321.979 154.516 322.025 154.396 322.108 154.303C322.598 153.72 323.217 153.261 323.917 152.963C324.616 152.664 325.376 152.535 326.135 152.585C326.261 152.606 326.374 152.675 326.45 152.777C326.526 152.879 326.56 153.007 326.544 153.134C326.537 153.197 326.517 153.257 326.486 153.312C326.455 153.367 326.414 153.415 326.364 153.453C326.313 153.491 326.256 153.519 326.195 153.534C326.134 153.549 326.071 153.552 326.008 153.542V153.542C325.407 153.509 324.805 153.619 324.255 153.864C323.704 154.109 323.219 154.481 322.84 154.95C322.766 155.001 322.68 155.03 322.591 155.035C322.502 155.04 322.413 155.02 322.334 154.979Z" fill="#2E353A"/>
<path d="M339.849 157.837C339.849 158.653 339.511 159.343 338.976 159.386C338.441 159.428 337.976 158.78 337.92 157.978C337.864 157.175 338.258 156.485 338.793 156.457C339.328 156.429 339.793 157.034 339.849 157.837Z" fill="#2E353A"/>
<path d="M342.749 154.979C342.829 154.993 342.91 154.993 342.989 154.979C343.072 154.886 343.118 154.765 343.118 154.641C343.118 154.516 343.072 154.396 342.989 154.303C342.5 153.719 341.881 153.26 341.181 152.961C340.481 152.663 339.721 152.534 338.962 152.585C338.838 152.609 338.727 152.679 338.651 152.78C338.576 152.882 338.541 153.008 338.554 153.134C338.562 153.197 338.583 153.258 338.616 153.313C338.648 153.368 338.691 153.416 338.742 153.454C338.793 153.492 338.852 153.519 338.914 153.534C338.976 153.55 339.04 153.552 339.103 153.542V153.542C339.704 153.511 340.305 153.623 340.855 153.867C341.406 154.112 341.891 154.483 342.271 154.95C342.34 155 342.421 155.029 342.506 155.034C342.591 155.038 342.675 155.019 342.749 154.979Z" fill="#2E353A"/>
<path d="M332.964 170.255C333.436 170.253 333.907 170.21 334.372 170.129C334.438 170.115 334.496 170.077 334.536 170.022C334.575 169.967 334.592 169.9 334.583 169.833V169.833C334.578 169.799 334.566 169.767 334.549 169.738C334.531 169.71 334.508 169.685 334.48 169.665C334.452 169.645 334.421 169.631 334.388 169.624C334.355 169.616 334.321 169.616 334.288 169.622C333.221 169.824 332.122 169.777 331.076 169.483C330.031 169.19 329.068 168.659 328.261 167.932C328.212 167.886 328.146 167.86 328.078 167.86C328.01 167.86 327.945 167.886 327.895 167.932C327.871 167.956 327.851 167.984 327.838 168.016C327.824 168.047 327.817 168.081 327.817 168.115C327.817 168.149 327.824 168.183 327.838 168.215C327.851 168.246 327.871 168.275 327.895 168.298C329.266 169.585 331.084 170.288 332.964 170.255V170.255Z" fill="#2E353A"/>
<path d="M330.134 193.755C337.187 193.659 344.107 191.827 350.282 188.419C348.04 187.998 345.763 187.781 343.482 187.771C339.8 189.796 335.643 190.798 331.443 190.671C323.868 190.671 319.785 187.771 319.785 187.771C318.105 187.769 316.427 187.868 314.759 188.067C316.969 190.249 321.799 193.755 330.134 193.755Z" fill="#577AFB"/>
<path d="M341.496 190.277L344.693 188.25C343.048 188.007 341.488 187.37 340.145 186.391C336.019 183.307 338.258 175.437 338.258 175.437H326.417C326.135 180.154 326.262 184.321 323.601 186.278C322.03 187.489 320.12 188.179 318.138 188.25L322.362 190.77C322.094 191.361 325.178 192.474 325.178 192.474L336.934 193.135L339.187 191.727C339.187 191.727 342.144 191.164 341.496 190.277Z" fill="#B97964"/>
<path d="M319.785 187.771C319.785 187.771 323.868 190.671 331.443 190.671C335.643 190.797 339.8 189.796 343.482 187.771C343.482 187.771 366.953 187.306 366.953 204.667H299.13C299.13 204.667 296.089 187.771 319.785 187.771Z" fill="#92E3A9"/>
<path d="M313.323 152.515C313.323 152.515 314.097 160.033 316.561 159.78C319.025 159.526 317.293 147.924 321.939 147.108C326.586 146.291 329.233 145.263 329.416 142.349C329.599 139.434 336.808 141.476 335.836 137.773C338.314 138.863 340.293 140.843 341.384 143.32C343.397 147.629 343.961 145.432 345.439 148.431C346.917 151.43 348.255 160.273 350.62 153.81C352.986 147.347 346.917 141.912 346.917 141.912L341.553 135.576L336.54 134.436L332.246 133.549H326.487L322.629 134.436L317.124 140.335L313.745 146.136L313.323 152.515Z" fill="#2E353A"/>
<path d="M316.279 157.865C317.603 160.428 317.349 163.37 315.716 164.44C314.083 165.51 311.675 164.271 310.366 161.709C309.056 159.146 309.296 156.204 310.929 155.133C312.562 154.063 314.97 155.302 316.279 157.865Z" fill="#B97964"/>
<path d="M346.284 157.865C344.96 160.428 345.228 163.37 346.861 164.44C348.494 165.51 350.888 164.271 352.211 161.709C353.535 159.146 353.281 156.204 351.634 155.133C349.987 154.063 347.607 155.302 346.284 157.865Z" fill="#B97964"/>
<path d="M313.773 159.822C313.42 159.912 313.116 160.136 312.924 160.446C312.732 160.755 312.668 161.127 312.745 161.484L313.463 166.088C313.484 166.209 313.552 166.317 313.652 166.388C313.752 166.46 313.877 166.488 313.998 166.468V166.468C314.12 166.447 314.228 166.379 314.299 166.279C314.37 166.179 314.399 166.054 314.378 165.933L313.872 162.737H314.167C314.506 162.629 314.796 162.403 314.983 162.1C315.17 161.798 315.244 161.438 315.189 161.087C315.135 160.735 314.957 160.414 314.687 160.182C314.417 159.95 314.073 159.823 313.717 159.822H313.773Z" fill="white"/>
<path d="M349.635 159.822C349.988 159.912 350.292 160.136 350.484 160.446C350.675 160.755 350.74 161.127 350.663 161.484L349.93 166.088C349.91 166.209 349.842 166.317 349.742 166.388C349.641 166.46 349.517 166.488 349.395 166.468V166.468C349.273 166.447 349.164 166.38 349.09 166.28C349.017 166.18 348.985 166.056 349.001 165.933L349.508 162.737H349.184C348.844 162.628 348.554 162.401 348.366 162.097C348.179 161.793 348.107 161.432 348.163 161.08C348.219 160.727 348.4 160.406 348.673 160.175C348.945 159.945 349.292 159.819 349.649 159.822H349.635Z" fill="white"/>
<path d="M385.496 128.536C392.503 128.536 398.182 122.857 398.182 115.85C398.182 108.844 392.503 103.164 385.496 103.164C378.49 103.164 372.81 108.844 372.81 115.85C372.81 122.857 378.49 128.536 385.496 128.536Z" fill="#92E3A9"/>
<path d="M378.189 123.158C377.991 122.96 377.88 122.691 377.88 122.412C377.88 122.132 377.991 121.863 378.189 121.665L391.312 108.543C391.51 108.345 391.778 108.234 392.058 108.234C392.338 108.234 392.606 108.345 392.804 108.543V108.543C393.002 108.741 393.113 109.009 393.113 109.289C393.113 109.569 393.002 109.837 392.804 110.035L379.696 123.158C379.493 123.353 379.223 123.462 378.942 123.462C378.661 123.462 378.391 123.353 378.189 123.158V123.158Z" fill="white"/>
<path d="M389.678 123.411H385.975V120.595C387.059 120.48 388.062 119.968 388.79 119.156C389.519 118.345 389.92 117.292 389.918 116.202V114.71C389.918 114.678 389.911 114.647 389.899 114.618C389.887 114.589 389.87 114.563 389.847 114.541C389.825 114.518 389.799 114.501 389.77 114.489C389.741 114.477 389.71 114.47 389.678 114.47H389.087C389.022 114.47 388.96 114.495 388.912 114.54C388.865 114.584 388.837 114.645 388.833 114.71C388.833 114.742 388.84 114.775 388.853 114.805C388.866 114.835 388.885 114.862 388.908 114.884C388.932 114.907 388.96 114.924 388.991 114.935C389.022 114.946 389.054 114.951 389.087 114.949H389.439V116.202C389.439 117.248 389.023 118.251 388.284 118.99C387.545 119.729 386.542 120.145 385.496 120.145C384.451 120.145 383.448 119.729 382.709 118.99C381.969 118.251 381.554 117.248 381.554 116.202V114.949H381.92C381.984 114.949 382.044 114.924 382.089 114.879C382.134 114.834 382.159 114.773 382.159 114.71C382.156 114.647 382.13 114.588 382.086 114.544C382.041 114.5 381.982 114.474 381.92 114.47H381.315C381.252 114.474 381.193 114.5 381.149 114.544C381.105 114.588 381.079 114.647 381.075 114.71V116.202C381.076 117.292 381.478 118.342 382.206 119.153C382.934 119.964 383.935 120.477 385.018 120.595V123.411H381.315C381.186 123.415 381.065 123.468 380.975 123.56C380.886 123.652 380.836 123.776 380.836 123.904V124.383H390.157V123.904C390.157 123.776 390.107 123.652 390.018 123.56C389.928 123.468 389.806 123.415 389.678 123.411V123.411Z" fill="white"/>
<path d="M382.526 116.259C382.578 117.013 382.914 117.72 383.467 118.236C384.019 118.752 384.747 119.039 385.504 119.039C386.26 119.039 386.988 118.752 387.54 118.236C388.093 117.72 388.43 117.013 388.481 116.259V110.303C388.51 109.894 388.453 109.485 388.316 109.099C388.18 108.713 387.965 108.36 387.685 108.061C387.406 107.762 387.068 107.523 386.693 107.36C386.318 107.197 385.913 107.113 385.504 107.113C385.094 107.113 384.689 107.197 384.314 107.36C383.939 107.523 383.601 107.762 383.322 108.061C383.042 108.36 382.828 108.713 382.691 109.099C382.554 109.485 382.498 109.894 382.526 110.303V116.259Z" fill="white"/>
<path d="M253.989 149.699H114.541C110.466 149.699 107.163 153.002 107.163 157.077V261.198C107.163 265.273 110.466 268.576 114.541 268.576H253.989C258.064 268.576 261.367 265.273 261.367 261.198V157.077C261.367 153.002 258.064 149.699 253.989 149.699Z" fill="#92E3A9"/>
<path d="M174.902 159.695C174.902 159.695 167.749 157.513 166.158 172.86C164.567 188.207 153.585 193.318 165.243 198.95C176.901 204.582 188.165 198.415 192.741 198.95C197.317 199.485 205.582 196.486 205.061 188.911C204.54 181.336 191.066 159.343 191.066 159.343L174.902 159.695Z" fill="#263238"/>
<path d="M233.207 227.251C230.687 235.699 223.449 258.086 217.916 257.312C211.115 256.383 206.427 231.968 206.427 231.968L208.299 202.4C208.299 202.4 215.804 202.4 219.099 240.191L227.04 223.098L233.207 227.251Z" fill="#263238"/>
<path d="M227.716 223.351L230.532 217.212L234.953 213.594L237.347 211.017C237.955 210.36 238.755 209.914 239.633 209.742C240.511 209.57 241.422 209.681 242.232 210.06L243.64 210.721C244.463 211.102 245.141 211.738 245.575 212.534C246.008 213.33 246.174 214.245 246.048 215.142L245.302 220.493L233.334 224.365C233.334 224.365 232.996 225.562 232.419 227.505L227.716 223.351Z" fill="#EEC1BB"/>
<path d="M226.589 221.197L234.981 226.942L234.333 230.124L225.055 223.534L226.589 221.197Z" fill="#263238"/>
<path opacity="0.2" d="M226.589 221.197L234.981 226.942L234.333 230.124L225.055 223.534L226.589 221.197Z" fill="white"/>
<path d="M162.652 268.576C162.652 268.576 161.371 235.023 151.275 205.216C169.958 200.844 189.277 199.89 208.299 202.4C208.299 202.4 212.988 223.759 207.356 268.576H162.652Z" fill="#263238"/>
<path opacity="0.2" d="M162.652 268.576C162.652 268.576 161.371 235.023 151.275 205.216C169.958 200.844 189.277 199.89 208.299 202.4C208.299 202.4 212.988 223.759 207.356 268.576H162.652Z" fill="white"/>
<path d="M169.777 249.822C171.48 249.174 172.48 248.766 172.48 248.766L180.055 245.245L185.687 239.895C186.037 239.56 186.308 239.151 186.483 238.699C186.658 238.247 186.731 237.762 186.697 237.278C186.663 236.795 186.524 236.325 186.289 235.901C186.053 235.477 185.728 235.11 185.335 234.826L181.773 232.32C181.412 232.062 181.002 231.878 180.569 231.781C180.136 231.683 179.687 231.673 179.25 231.752C178.813 231.831 178.396 231.997 178.024 232.239C177.652 232.482 177.332 232.797 177.084 233.165L170.72 242.641C170.72 242.641 169.312 243.049 167.031 243.612L169.777 249.822Z" fill="#EEC1BB"/>
<path d="M169.918 250.694C161.667 253.806 136.942 262.325 129.508 255.622C120.539 247.526 151.276 205.216 151.276 205.216C159.484 214.495 156.527 224.083 156.527 224.083C156.527 224.083 140.716 240.768 142.208 244.879C143.518 248.554 159.766 244.879 167.2 243.035L169.918 250.694Z" fill="#263238"/>
<path d="M168.172 242.021L171.692 250.934L168.876 252.581L165.243 242.021H168.172Z" fill="#263238"/>
<path opacity="0.2" d="M168.172 242.021L171.692 250.934L168.876 252.581L165.243 242.021H168.172Z" fill="white"/>
<path d="M189.615 201.076H186.996C186.596 198.405 186.843 195.678 187.714 193.121L177.436 182.646C177.957 187.433 178.182 196.5 175.944 201.485C174.536 201.583 173.226 201.696 171.945 201.823C172.593 203.709 175.071 208.511 183.603 208.511C192.136 208.511 190.559 203.118 189.615 201.076Z" fill="#EEC1BB"/>
<path opacity="0.1" d="M179.365 186.49L178.182 189.658C180.031 193.26 183.093 196.092 186.827 197.655C186.95 196.115 187.248 194.594 187.715 193.121L180.9 186.166L179.365 186.49Z" fill="black"/>
<path d="M172.198 174.803C174.69 184.293 175.535 188.376 181.364 192.347C190.122 198.345 201.245 193.22 201.654 183.167C202.034 174.113 197.908 160.104 187.743 158.133C185.507 157.699 183.199 157.842 181.034 158.548C178.869 159.254 176.92 160.5 175.37 162.168C173.821 163.836 172.721 165.872 172.176 168.082C171.631 170.293 171.658 172.606 172.255 174.803H172.198Z" fill="#EEC1BB"/>
<path d="M171.424 182.843C171.863 183.677 172.461 184.416 173.186 185.017C173.911 185.619 174.748 186.071 175.648 186.349C178.056 187.081 179.309 184.941 178.675 182.632C178.112 180.562 176.183 177.69 173.733 177.971C172.885 178.1 172.123 178.558 171.611 179.247C171.1 179.935 170.881 180.797 171.002 181.646C171.064 182.069 171.207 182.475 171.424 182.843Z" fill="#EEC1BB"/>
<path d="M194.079 174.677C195.12 176.326 196.385 177.823 197.838 179.126C197.5 179.494 197.085 179.782 196.623 179.969C196.16 180.157 195.661 180.239 195.163 180.21L194.079 174.677Z" fill="#D58745"/>
<path d="M185.617 171.114C185.552 171.129 185.484 171.129 185.419 171.114C185.333 171.059 185.271 170.972 185.247 170.873C185.224 170.773 185.24 170.667 185.293 170.579C185.654 169.945 186.163 169.407 186.775 169.01C187.388 168.613 188.086 168.369 188.813 168.298C188.916 168.298 189.016 168.337 189.092 168.408C189.168 168.478 189.214 168.575 189.221 168.679C189.225 168.781 189.189 168.881 189.121 168.957C189.052 169.033 188.957 169.08 188.855 169.087C188.255 169.151 187.68 169.357 187.175 169.687C186.671 170.018 186.253 170.463 185.955 170.988C185.916 171.039 185.864 171.077 185.804 171.1C185.744 171.122 185.679 171.127 185.617 171.114V171.114Z" fill="#2E353A"/>
<path d="M194.938 167.059C194.892 167.012 194.858 166.954 194.839 166.89C194.824 166.841 194.819 166.79 194.825 166.739C194.83 166.688 194.846 166.639 194.871 166.594C194.896 166.549 194.93 166.51 194.97 166.479C195.011 166.447 195.057 166.425 195.107 166.412V166.412C195.805 166.195 196.545 166.149 197.265 166.276C197.985 166.403 198.664 166.701 199.246 167.144C199.295 167.174 199.336 167.214 199.368 167.261C199.399 167.309 199.42 167.362 199.429 167.419C199.438 167.475 199.434 167.532 199.418 167.587C199.403 167.642 199.376 167.693 199.339 167.736C199.302 167.779 199.256 167.814 199.204 167.838C199.152 167.861 199.096 167.874 199.039 167.874C198.982 167.874 198.925 167.861 198.874 167.837C198.822 167.813 198.776 167.779 198.739 167.735C198.255 167.375 197.692 167.135 197.097 167.037C196.502 166.939 195.892 166.985 195.318 167.172C195.25 167.187 195.18 167.185 195.113 167.165C195.047 167.145 194.986 167.109 194.938 167.059V167.059Z" fill="#2E353A"/>
<path d="M188.292 174.465C188.447 175.254 188.982 175.873 189.503 175.704C190.024 175.535 190.305 174.888 190.136 174.099C189.967 173.311 189.446 172.776 188.939 172.874C188.433 172.973 188.137 173.677 188.292 174.465Z" fill="#2E353A"/>
<path d="M197.12 172.734C197.261 173.508 197.81 174.057 198.317 173.958C198.824 173.86 199.119 173.156 198.964 172.367C198.809 171.579 198.274 171.03 197.768 171.128C197.261 171.227 196.979 171.945 197.12 172.734Z" fill="#2E353A"/>
<path d="M197.571 171.213L199.345 170.312C199.345 170.312 198.669 171.959 197.571 171.213Z" fill="#2E353A"/>
<path d="M188.672 172.959L190.432 172.058C190.432 172.058 189.812 173.705 188.672 172.959Z" fill="#2E353A"/>
<path d="M196.022 182.716C193.833 182.593 191.638 182.659 189.46 182.913C189.875 183.67 190.521 184.273 191.305 184.633C192.089 184.993 192.967 185.091 193.811 184.913C196.275 184.687 196.022 182.716 196.022 182.716Z" fill="#2E353A"/>
<path d="M192.558 183.983C193.517 183.843 194.495 183.985 195.374 184.392C194.937 184.704 194.419 184.885 193.882 184.913C192.923 185.053 191.945 184.911 191.066 184.504C191.503 184.192 192.021 184.011 192.558 183.983Z" fill="#DE5753"/>
<path d="M195.796 182.702C195.762 182.871 195.68 183.027 195.56 183.152C195.441 183.276 195.288 183.364 195.121 183.406C193.715 183.516 192.302 183.516 190.897 183.406C190.674 183.412 190.454 183.366 190.253 183.27C190.053 183.175 189.877 183.033 189.742 182.857C191.754 182.66 193.777 182.608 195.796 182.702Z" fill="white"/>
<path d="M174.902 182.223C174.902 182.223 179.126 178.675 178.182 171.114C177.239 163.553 186.813 170.607 188.728 164.271C190.643 157.935 198.894 170.79 202.949 163.046C207.004 155.302 188.503 153.416 186.658 155.654C184.814 157.893 159.526 154.246 174.902 182.223Z" fill="#263238"/>
<path d="M248.92 245.048H119.595C117.745 245.048 116.244 246.549 116.244 248.399V254.764C116.244 256.614 117.745 258.115 119.595 258.115H248.92C250.771 258.115 252.271 256.614 252.271 254.764V248.399C252.271 246.549 250.771 245.048 248.92 245.048Z" fill="white"/>
<path d="M133.281 254.848V248.329L137.364 251.596L133.281 254.848Z" fill="#263238"/>
<path d="M143.94 253.51L145.728 251.624L143.94 249.723V253.51Z" fill="#263238"/>
<path d="M145.728 249.793V251.624V253.454H146.531V249.793H145.728Z" fill="#263238"/>
<path d="M126.692 249.723L124.918 251.624L126.692 253.51V249.723Z" fill="#263238"/>
<path d="M124.918 253.454V251.624V249.793H124.101V253.454H124.918Z" fill="#263238"/>
<path d="M245.963 250.666H158.991V252.581H245.963V250.666Z" fill="#263238"/>
<path d="M200.189 247.301H197.092V255.862H200.189V247.301Z" fill="#92E3A9"/>
<path d="M469.989 147.157C474.17 129.439 463.197 111.687 445.48 107.505C427.763 103.324 410.011 114.296 405.829 132.014C401.647 149.731 412.62 167.483 430.337 171.665C448.054 175.847 465.807 164.874 469.989 147.157Z" fill="#92E3A9"/>
<path opacity="0.7" d="M469.989 147.157C474.17 129.439 463.197 111.687 445.48 107.505C427.763 103.324 410.011 114.296 405.829 132.014C401.647 149.731 412.62 167.483 430.337 171.665C448.054 175.847 465.807 164.874 469.989 147.157Z" fill="white"/>
<g opacity="0.8">
<path opacity="0.8" d="M431.27 150.797C433.055 149.065 435.443 148.096 437.93 148.096C440.417 148.096 442.806 149.065 444.59 150.797C446.378 152.444 449.082 149.769 447.279 148.108C444.768 145.688 441.417 144.337 437.93 144.337C434.443 144.337 431.092 145.688 428.581 148.108C426.779 149.769 429.468 152.444 431.27 150.797V150.797Z" fill="#92E3A9"/>
<path opacity="0.8" d="M436.635 156.161C436.978 155.822 437.441 155.631 437.923 155.631C438.406 155.631 438.869 155.822 439.212 156.161C441.014 157.823 443.703 155.134 441.901 153.472C440.833 152.442 439.407 151.867 437.923 151.867C436.44 151.867 435.014 152.442 433.946 153.472C432.143 155.134 434.847 157.823 436.635 156.161V156.161Z" fill="#92E3A9"/>
<path opacity="0.8" d="M424.202 143.729C427.88 140.163 432.801 138.169 437.923 138.169C443.045 138.169 447.967 140.163 451.644 143.729C453.446 145.376 456.136 142.701 454.333 141.039C449.927 136.79 444.045 134.416 437.923 134.416C431.802 134.416 425.919 136.79 421.513 141.039C419.711 142.701 422.414 145.39 424.202 143.729V143.729Z" fill="#92E3A9"/>
<path opacity="0.8" d="M417.768 137.28C423.173 132.043 430.404 129.115 437.93 129.115C445.457 129.115 452.687 132.043 458.093 137.28C459.881 138.956 462.57 136.28 460.782 134.591C454.653 128.66 446.459 125.345 437.93 125.345C429.402 125.345 421.207 128.66 415.078 134.591C413.29 136.28 415.98 138.956 417.768 137.28V137.28Z" fill="#92E3A9"/>
</g>
<path d="M175.437 346.861C194.162 346.861 209.341 331.681 209.341 312.956C209.341 294.231 194.162 279.052 175.437 279.052C156.712 279.052 141.532 294.231 141.532 312.956C141.532 331.681 156.712 346.861 175.437 346.861Z" fill="#92E3A9"/>
<path opacity="0.7" d="M175.437 346.861C194.162 346.861 209.341 331.681 209.341 312.956C209.341 294.231 194.162 279.052 175.437 279.052C156.712 279.052 141.532 294.231 141.532 312.956C141.532 331.681 156.712 346.861 175.437 346.861Z" fill="white"/>
<path d="M168.059 302.171V310.915L157.527 303.213V322.7L168.059 314.984V323.741H193.333V302.171H168.059Z" fill="#92E3A9"/>
<path d="M576.61 187.035C580.333 171.262 570.565 155.459 554.793 151.736C539.02 148.014 523.217 157.782 519.494 173.554C515.772 189.326 525.54 205.13 541.312 208.852C557.084 212.575 572.888 202.807 576.61 187.035Z" fill="#92E3A9"/>
<path opacity="0.7" d="M576.61 187.035C580.333 171.262 570.565 155.459 554.793 151.736C539.02 148.014 523.217 157.782 519.494 173.554C515.772 189.326 525.54 205.13 541.312 208.852C557.084 212.575 572.888 202.807 576.61 187.035Z" fill="white"/>
<path d="M556.611 195.712H549.12V190.08C551.329 189.831 553.37 188.778 554.853 187.121C556.335 185.465 557.156 183.32 557.16 181.097V178.056C557.156 177.927 557.103 177.806 557.011 177.716C556.919 177.627 556.795 177.577 556.667 177.577H555.442C555.371 177.565 555.299 177.568 555.23 177.587C555.16 177.606 555.096 177.64 555.041 177.686C554.986 177.732 554.942 177.79 554.912 177.855C554.882 177.92 554.866 177.991 554.866 178.063C554.866 178.134 554.882 178.205 554.912 178.27C554.942 178.335 554.986 178.393 555.041 178.439C555.096 178.486 555.16 178.519 555.23 178.538C555.299 178.557 555.371 178.561 555.442 178.549H556.16V181.097C556.16 183.229 555.313 185.274 553.805 186.782C552.298 188.29 550.253 189.137 548.12 189.137C545.988 189.137 543.943 188.29 542.435 186.782C540.928 185.274 540.081 183.229 540.081 181.097V178.549H540.813C540.884 178.561 540.956 178.557 541.025 178.538C541.095 178.519 541.159 178.486 541.214 178.439C541.268 178.393 541.313 178.335 541.343 178.27C541.373 178.205 541.389 178.134 541.389 178.063C541.389 177.991 541.373 177.92 541.343 177.855C541.313 177.79 541.268 177.732 541.214 177.686C541.159 177.64 541.095 177.606 541.025 177.587C540.956 177.568 540.884 177.565 540.813 177.577H539.588C539.524 177.575 539.46 177.586 539.4 177.609C539.341 177.633 539.286 177.667 539.24 177.712C539.194 177.757 539.158 177.81 539.133 177.869C539.108 177.928 539.095 177.992 539.095 178.056V181.097C539.095 183.321 539.916 185.467 541.399 187.124C542.882 188.782 544.924 189.834 547.135 190.08V195.712H539.546C539.284 195.712 539.034 195.816 538.849 196.001C538.664 196.186 538.56 196.436 538.56 196.698V197.683H557.568V196.698C557.568 196.441 557.468 196.195 557.289 196.01C557.111 195.826 556.867 195.719 556.611 195.712Z" fill="#92E3A9"/>
<path d="M548.078 187.264C549.691 187.264 551.238 186.623 552.379 185.482C553.52 184.342 554.161 182.795 554.161 181.181H541.996C541.994 181.981 542.15 182.772 542.455 183.511C542.76 184.25 543.208 184.921 543.773 185.487C544.338 186.052 545.009 186.5 545.748 186.805C546.487 187.11 547.279 187.266 548.078 187.264V187.264Z" fill="#92E3A9"/>
<path d="M554.161 168.96C554.161 167.347 553.52 165.8 552.379 164.659C551.238 163.518 549.691 162.877 548.078 162.877C546.465 162.877 544.918 163.518 543.777 164.659C542.636 165.8 541.996 167.347 541.996 168.96V180.027H554.161V168.96Z" fill="#92E3A9"/>
</svg>
