<svg width="23" height="23" viewBox="0 0 23 23" fill="none" xmlns="http://www.w3.org/2000/svg">
<path d="M22.7598 7.80933H0.187805V22.8123H22.7598V7.80933Z" fill="#92E3A9"/>
<path d="M22.7597 23H0.187724C0.137937 23 0.0901854 22.9802 0.0549802 22.945C0.019775 22.9098 0 22.862 0 22.8122V7.79429C0 7.7445 0.019775 7.69676 0.0549802 7.66155C0.0901854 7.62635 0.137937 7.60657 0.187724 7.60657H22.7597C22.8095 7.60657 22.8572 7.62635 22.8925 7.66155C22.9277 7.69676 22.9474 7.7445 22.9474 7.79429V22.8122C22.9474 22.862 22.9277 22.9098 22.8925 22.945C22.8572 22.9802 22.8095 23 22.7597 23ZM0.375449 22.6245H22.572V7.98202H0.375449V22.6245Z" fill="#263238"/>
<path d="M22.7598 7.80933L11.4738 15.3108L0.187805 7.80933H22.7598Z" fill="#263238"/>
<path d="M11.4738 15.4985C11.4368 15.4977 11.4005 15.4874 11.3687 15.4684L0.0826964 7.95946C0.0497646 7.93666 0.0248072 7.90412 0.0113373 7.86641C-0.00213266 7.82869 -0.00343582 7.7877 0.00760774 7.7492C0.0196496 7.71091 0.0436444 7.67749 0.0760795 7.65384C0.108515 7.63019 0.14768 7.61756 0.187822 7.6178H22.7598C22.7996 7.61829 22.8381 7.63138 22.87 7.65519C22.9018 7.67901 22.9252 7.7123 22.9369 7.7503C22.9486 7.78829 22.9479 7.82902 22.935 7.86661C22.9221 7.9042 22.8975 7.93671 22.8649 7.95946L11.5789 15.4684C11.5471 15.4874 11.5109 15.4977 11.4738 15.4985ZM0.80731 7.98949L11.4738 15.0855L22.1366 7.997L0.80731 7.98949Z" fill="#263238"/>
<path d="M3.18005 9.88184V0.187744H19.7449V9.80299L11.4737 15.3108L3.18005 9.88184Z" fill="white"/>
<path d="M11.4736 15.4985C11.4366 15.4978 11.4004 15.4874 11.3685 15.4685L3.0786 10.0395C3.05262 10.0221 3.03122 9.99863 3.0162 9.97119C3.00117 9.94374 2.99295 9.9131 2.99225 9.88182V0.187724C2.99225 0.137937 3.01202 0.0901911 3.04723 0.0549859C3.08243 0.0197808 3.13019 0 3.17997 0H19.7335C19.7833 0 19.831 0.0197808 19.8662 0.0549859C19.9015 0.0901911 19.9212 0.137937 19.9212 0.187724V9.80297C19.9216 9.83404 19.9142 9.8647 19.8998 9.89223C19.8854 9.91975 19.8644 9.94326 19.8386 9.96066L11.5788 15.4685C11.5469 15.4874 11.5107 15.4978 11.4736 15.4985ZM3.3677 9.78044L11.4736 15.0855L19.5571 9.70535V0.364186H3.3677V9.78044Z" fill="#263238"/>
<path d="M16.3095 3.74325H6.31132C6.26153 3.74325 6.21379 3.72347 6.17858 3.68826C6.14338 3.65306 6.1236 3.60531 6.1236 3.55552C6.1236 3.50573 6.14338 3.45799 6.17858 3.42278C6.21379 3.38758 6.26153 3.3678 6.31132 3.3678H16.3095C16.3593 3.3678 16.4071 3.38758 16.4423 3.42278C16.4775 3.45799 16.4973 3.50573 16.4973 3.55552C16.4973 3.60531 16.4775 3.65306 16.4423 3.68826C16.4071 3.72347 16.3593 3.74325 16.3095 3.74325Z" fill="#263238"/>
<path d="M16.3095 6.25118H6.31132C6.26153 6.25118 6.21379 6.23141 6.17858 6.1962C6.14338 6.161 6.1236 6.11324 6.1236 6.06346C6.1236 6.01367 6.14338 5.96592 6.17858 5.93072C6.21379 5.89551 6.26153 5.87573 6.31132 5.87573H16.3095C16.3593 5.87573 16.4071 5.89551 16.4423 5.93072C16.4775 5.96592 16.4973 6.01367 16.4973 6.06346C16.4973 6.11324 16.4775 6.161 16.4423 6.1962C16.4071 6.23141 16.3593 6.25118 16.3095 6.25118Z" fill="#263238"/>
<path d="M16.3095 8.77047H6.31132C6.26153 8.77047 6.21379 8.75069 6.17858 8.71549C6.14338 8.68028 6.1236 8.63253 6.1236 8.58274C6.1236 8.53296 6.14338 8.48521 6.17858 8.45001C6.21379 8.4148 6.26153 8.39502 6.31132 8.39502H16.3095C16.3593 8.39502 16.4071 8.4148 16.4423 8.45001C16.4775 8.48521 16.4973 8.53296 16.4973 8.58274C16.4973 8.63253 16.4775 8.68028 16.4423 8.71549C16.4071 8.75069 16.3593 8.77047 16.3095 8.77047Z" fill="#263238"/>
<path d="M0.187805 22.8122L11.5001 13.3922L22.7598 22.8122H0.187805Z" fill="#92E3A9"/>
<path d="M22.7596 23H0.187582C0.149366 22.9997 0.112173 22.9876 0.0809786 22.9655C0.0497838 22.9435 0.0260718 22.9124 0.013011 22.8765C-4.98227e-05 22.8406 -0.00183636 22.8015 0.00788936 22.7645C0.0176151 22.7276 0.0383878 22.6945 0.0674355 22.6696L11.3797 13.2459C11.4134 13.2178 11.456 13.2024 11.4999 13.2024C11.5438 13.2024 11.5863 13.2178 11.62 13.2459L22.8835 22.6659C22.9125 22.6907 22.9333 22.7238 22.943 22.7608C22.9527 22.7978 22.9509 22.8368 22.9379 22.8727C22.9248 22.9086 22.9011 22.9397 22.8699 22.9618C22.8387 22.9839 22.8015 22.9959 22.7633 22.9963L22.7596 23ZM0.705703 22.6246H22.2414L11.4999 13.6363L0.705703 22.6246Z" fill="#263238"/>
</svg>
