<svg width="368" height="338" viewBox="0 0 368 338" fill="none" xmlns="http://www.w3.org/2000/svg">
<path d="M326.25 52.9999C299.25 22.2499 261.62 1.80986 220.84 0.489858C162.76 -1.38014 132.84 47.3199 89.73 69.7899C46.62 92.2599 16.6901 112 11.4101 156C6.13005 200 10.53 241.22 46.61 261.82C82.69 282.42 104.69 247.82 151.32 249.65C197.95 251.48 226.12 307.74 284.63 290.87C323.14 279.77 351.68 239.1 362.41 199.98C377.11 146.38 360.09 91.5999 326.25 52.9999Z" fill="#92E3A9"/>
<path opacity="0.7" d="M326.25 52.9999C299.25 22.2499 261.62 1.80986 220.84 0.489858C162.76 -1.38014 132.84 47.3199 89.73 69.7899C46.62 92.2599 16.6901 112 11.4101 156C6.13005 200 10.53 241.22 46.61 261.82C82.69 282.42 104.69 247.82 151.32 249.65C197.95 251.48 226.12 307.74 284.63 290.87C323.14 279.77 351.68 239.1 362.41 199.98C377.11 146.38 360.09 91.5999 326.25 52.9999Z" fill="white"/>
<path d="M110.35 197.25C110.35 197.25 104.84 192.9 103.42 190.1C102.22 187.72 101.35 184.36 102.59 181.82C102.863 181.214 103.26 180.672 103.755 180.23C104.251 179.787 104.834 179.454 105.466 179.251C106.099 179.048 106.767 178.981 107.428 179.053C108.088 179.125 108.726 179.335 109.3 179.67C112.69 181.78 113.06 188.99 112.19 192.45C112.12 192.75 110.41 197.3 110.35 197.25Z" fill="#92E3A9"/>
<path d="M161.36 233.55C161.13 233.76 157.2 236.62 157.18 236.55C157.16 236.48 154.98 229.87 155.34 226.76C155.65 224.11 156.78 220.82 159.22 219.39C159.781 219.035 160.41 218.802 161.067 218.706C161.724 218.61 162.393 218.653 163.033 218.832C163.672 219.011 164.266 219.322 164.777 219.746C165.289 220.169 165.705 220.695 166 221.29C167.67 224.93 164 231.14 161.36 233.55Z" fill="#92E3A9"/>
<path d="M45.76 203.86C45.76 203.86 65.96 224.7 65.85 250.31C65.74 275.92 45.36 296.6 45.36 296.6C45.36 296.6 25.16 275.75 25.27 250.14C25.38 224.53 45.76 203.86 45.76 203.86Z" fill="#92E3A9"/>
<path d="M74.56 265.65C74.2888 265.364 74.0413 265.056 73.82 264.73C72.36 262.51 71.1 259.26 72.05 256.6C72.2496 255.967 72.5804 255.382 73.0208 254.885C73.4611 254.388 74.0012 253.99 74.6059 253.715C75.2105 253.441 75.8662 253.296 76.5302 253.292C77.1943 253.288 77.8518 253.423 78.46 253.69C81.2 254.99 82.55 259.38 82.84 262.98C83.93 262.73 84.92 262.54 85.77 262.4L86.86 259.93C87.26 259.08 87.54 258.23 87.86 257.36C88.34 256.08 88.78 254.74 89.21 253.36C87.62 252.64 82.96 250.47 81.21 248.55C79.46 246.63 77.69 243.55 78.21 240.78C78.3125 240.124 78.5517 239.496 78.9123 238.938C79.2728 238.38 79.7466 237.904 80.3029 237.541C80.8592 237.178 81.4856 236.936 82.1414 236.831C82.7973 236.726 83.468 236.759 84.11 236.93C87.95 238.08 90.2 244.93 90.28 248.5C90.28 248.62 90.22 249.37 90.14 250.27C90.53 248.95 90.92 247.63 91.26 246.27C92.26 242.43 93.14 238.5 94.04 234.56C94.23 233.74 94.43 232.92 94.62 232.1C93.27 231.5 88.21 229.19 86.39 227.18C84.57 225.17 82.87 222.18 83.39 219.41C83.492 218.753 83.7315 218.124 84.0928 217.566C84.4542 217.008 84.9292 216.532 85.4869 216.169C86.0446 215.807 86.6725 215.566 87.3295 215.463C87.9866 215.36 88.658 215.396 89.3 215.57C93.13 216.71 95.38 223.57 95.46 227.13C95.46 227.26 95.39 228.13 95.3 229.13C95.82 227 96.37 224.88 96.97 222.79C97.9944 219.201 99.2537 215.683 100.74 212.26C100.27 212.06 94.28 209.47 92.26 207.26C90.47 205.26 88.74 202.26 89.26 199.49C89.3622 198.834 89.6015 198.207 89.9622 197.649C90.3228 197.091 90.7969 196.616 91.3534 196.254C91.91 195.892 92.5366 195.651 93.1924 195.547C93.8482 195.442 94.5186 195.478 95.16 195.65C99 196.79 101.25 203.65 101.33 207.21C101.33 207.47 101.04 210.73 100.89 211.89C100.911 211.852 100.928 211.812 100.94 211.77C102.49 208.447 104.33 205.268 106.44 202.27C108.312 199.584 110.339 197.01 112.51 194.56C114.51 192.27 116.46 190.29 118.21 188.56C119.21 187.63 120.06 186.8 120.9 186.03H120.81C120.74 186.03 122.68 181.57 122.81 181.3C124.61 178.21 129.89 173.3 133.81 174.14C134.456 174.298 135.062 174.59 135.588 174.998C136.114 175.406 136.547 175.921 136.861 176.508C137.174 177.095 137.36 177.741 137.406 178.405C137.453 179.069 137.359 179.735 137.13 180.36C136.26 183.04 133.29 184.85 130.76 185.72C128.23 186.59 122.53 186.18 121.13 186.06C120.28 186.88 119.37 187.76 118.39 188.76C116.69 190.53 114.77 192.54 112.84 194.87C112.33 195.49 111.84 196.17 111.27 196.87C112.39 195.95 113.93 194.7 114.1 194.6C117.1 192.68 124.1 190.75 127.1 193.31C127.593 193.748 127.989 194.284 128.262 194.883C128.536 195.483 128.681 196.133 128.688 196.792C128.696 197.451 128.566 198.105 128.306 198.71C128.046 199.316 127.663 199.861 127.18 200.31C125.18 202.31 121.7 202.53 119.06 202.14C116.42 201.75 111.38 198.66 110.31 197.97C109.17 199.45 108.03 200.97 106.94 202.66C104.92 205.661 103.173 208.837 101.72 212.15C101.63 212.34 101.57 212.55 101.49 212.75C101.96 212.2 104.77 209.36 104.99 209.18C107.78 206.95 114.47 204.26 117.81 206.46C118.355 206.841 118.815 207.332 119.158 207.902C119.501 208.472 119.72 209.108 119.801 209.768C119.882 210.428 119.823 211.098 119.628 211.734C119.433 212.37 119.107 212.958 118.67 213.46C116.88 215.65 113.46 216.26 110.79 216.17C107.72 216.05 101.67 213 101.44 212.88C100.081 216.223 98.9384 219.65 98.02 223.14C97.33 225.73 96.74 228.37 96.17 231.02C96.8 230.32 99.41 227.68 99.62 227.52C102.41 225.28 109.1 222.6 112.45 224.8C112.995 225.182 113.453 225.674 113.795 226.244C114.137 226.814 114.355 227.45 114.435 228.11C114.516 228.771 114.456 229.44 114.26 230.076C114.065 230.712 113.737 231.299 113.3 231.8C111.51 233.99 108.09 234.61 105.42 234.51C102.42 234.4 96.61 231.51 96.12 231.25C95.86 232.46 95.6 233.66 95.35 234.88C94.53 238.83 93.73 242.8 92.82 246.69C92.51 248.04 92.15 249.35 91.82 250.69C92.82 249.69 94.62 247.83 94.82 247.69C97.61 245.46 104.31 242.77 107.65 244.97C108.193 245.353 108.65 245.845 108.992 246.415C109.333 246.986 109.55 247.621 109.63 248.281C109.711 248.941 109.651 249.61 109.457 250.245C109.262 250.881 108.936 251.468 108.5 251.97C106.71 254.15 103.29 254.77 100.63 254.68C97.97 254.59 93.01 252.25 91.63 251.57C91.03 253.76 90.38 255.92 89.63 258.02C89.29 258.92 89.01 259.86 88.63 260.7C88.44 261.15 88.26 261.6 88.07 262.04L88.84 261.97C88.84 261.97 88.89 263.22 88.77 265.25C91.71 263.16 95.95 261.36 98.71 262.62C99.3061 262.915 99.8334 263.332 100.258 263.844C100.682 264.355 100.994 264.951 101.173 265.591C101.353 266.232 101.395 266.903 101.298 267.561C101.201 268.218 100.966 268.849 100.61 269.41C100.429 269.708 100.222 269.989 99.99 270.25C99.4701 273.35 98.1654 276.266 96.2 278.72C96.05 278.89 94.05 280.72 93.01 281.65C94.01 281.11 95.01 280.57 96.01 279.98C97.51 279.15 99.07 278.22 100.59 277.33L102.92 275.85C103.72 275.36 104.42 274.79 105.19 274.27C106.3 273.47 107.4 272.58 108.51 271.71C107.57 270.23 104.89 265.85 104.51 263.3C104.13 260.75 104.33 257.19 106.3 255.16C106.748 254.669 107.294 254.277 107.904 254.011C108.513 253.744 109.171 253.609 109.836 253.614C110.501 253.618 111.157 253.763 111.763 254.038C112.368 254.313 112.909 254.712 113.35 255.21C115.92 258.28 114.02 265.21 112.11 268.21C112.05 268.31 111.58 268.91 111.02 269.61C112.07 268.72 113.12 267.84 114.16 266.9C117.1 264.25 120.01 261.45 122.93 258.66L124.77 256.93C123.98 255.69 121.03 250.93 120.63 248.3C120.23 245.67 120.45 242.19 122.42 240.16C122.863 239.672 123.404 239.283 124.006 239.016C124.609 238.749 125.261 238.612 125.92 238.612C126.579 238.612 127.231 238.749 127.834 239.016C128.436 239.283 128.977 239.672 129.42 240.16C131.99 243.23 130.09 250.16 128.19 253.21C128.12 253.32 127.56 254.03 126.92 254.82C128.54 253.33 130.16 251.82 131.82 250.46C134.649 248.027 137.639 245.789 140.77 243.76C140.49 243.32 136.92 237.86 136.47 234.88C136.07 232.25 136.29 228.77 138.26 226.75C138.708 226.259 139.254 225.867 139.864 225.601C140.473 225.334 141.131 225.199 141.796 225.204C142.461 225.208 143.117 225.353 143.723 225.628C144.328 225.903 144.869 226.302 145.31 226.8C147.88 229.87 145.98 236.8 144.07 239.85C143.94 240.06 141.89 242.62 141.13 243.51L141.23 243.44C144.354 241.52 147.644 239.884 151.06 238.55C154.1 237.337 157.208 236.305 160.37 235.46C163.3 234.65 166.03 234.08 168.44 233.6C169.75 233.35 170.96 233.14 172.08 232.96L172.02 232.91C171.96 232.91 176.02 230.22 176.31 230.08C179.51 228.49 186.63 227.3 189.42 230.17C189.869 230.658 190.21 231.234 190.422 231.863C190.634 232.491 190.711 233.157 190.649 233.817C190.586 234.477 190.386 235.116 190.061 235.694C189.735 236.272 189.292 236.775 188.76 237.17C186.55 238.93 183.07 238.8 180.49 238.17C177.91 237.54 173.37 234.01 172.27 233.17C171.11 233.38 169.86 233.62 168.5 233.91C166.09 234.45 163.39 235.07 160.5 235.91C159.73 236.14 158.91 236.42 158.11 236.68C159.55 236.52 161.53 236.34 161.72 236.34C165.29 236.41 172.16 238.63 173.32 242.46C173.494 243.101 173.531 243.772 173.429 244.428C173.327 245.084 173.088 245.712 172.728 246.27C172.368 246.829 171.894 247.305 171.338 247.668C170.782 248.032 170.156 248.274 169.5 248.38C166.72 248.92 163.7 247.2 161.71 245.38C159.72 243.56 157.23 238.24 156.71 237.08C154.94 237.68 153.14 238.34 151.31 239.08C147.969 240.461 144.757 242.134 141.71 244.08C141.54 244.19 141.37 244.33 141.2 244.45C141.9 244.25 145.8 243.45 146.08 243.45C149.64 243.12 156.71 244.57 158.28 248.25C158.523 248.869 158.633 249.532 158.603 250.196C158.573 250.86 158.404 251.51 158.108 252.105C157.811 252.7 157.392 253.226 156.879 253.648C156.366 254.071 155.77 254.382 155.13 254.56C152.44 255.4 149.24 254.02 147.07 252.47C144.57 250.68 141.2 244.8 141.07 244.58C138.091 246.616 135.249 248.844 132.56 251.25C130.56 253.02 128.61 254.9 126.67 256.8C127.58 256.56 131.21 255.8 131.48 255.8C135.04 255.47 142.1 256.92 143.68 260.6C143.924 261.218 144.035 261.881 144.006 262.544C143.977 263.208 143.809 263.859 143.511 264.453C143.214 265.048 142.795 265.573 142.281 265.994C141.768 266.416 141.171 266.724 140.53 266.9C137.83 267.75 134.64 266.37 132.47 264.82C130.03 263.08 126.78 257.45 126.47 256.97L123.82 259.57C120.96 262.42 118.1 265.28 115.2 268.03C114.2 268.98 113.2 269.88 112.14 270.78C113.52 270.47 116.05 269.95 116.27 269.93C119.83 269.6 126.89 271.05 128.46 274.73C128.706 275.348 128.819 276.011 128.791 276.675C128.764 277.34 128.596 277.991 128.3 278.587C128.004 279.182 127.585 279.708 127.072 280.131C126.558 280.554 125.961 280.863 125.32 281.04C122.62 281.88 119.43 280.5 117.26 278.95C115.09 277.4 112.26 272.72 111.46 271.39C109.75 272.89 108.01 274.33 106.23 275.67C105.45 276.24 104.7 276.86 103.92 277.36L101.62 278.89C100.02 279.89 98.53 280.81 97.01 281.7C96.25 282.15 95.52 282.56 94.77 282.99C96.12 282.47 98.28 281.67 98.48 281.61C101.95 280.75 109.15 281.12 111.26 284.52C111.594 285.093 111.805 285.73 111.877 286.39C111.949 287.05 111.881 287.717 111.679 288.349C111.476 288.981 111.142 289.563 110.7 290.058C110.257 290.552 109.716 290.948 109.11 291.22C106.57 292.46 103.2 291.59 100.82 290.39C98.2 289.06 94.25 284.17 93.77 283.57C91.94 284.57 90.14 285.62 88.44 286.52C83.91 288.95 79.95 290.88 76.88 292.32C66.88 300.95 52.88 301.9 52.88 301.9C52.88 301.9 52.14 285.08 62.04 274.02C65.5469 270.343 69.8218 267.485 74.56 265.65V265.65ZM92.37 282.05C92.06 281.36 89.67 276.05 89.5 273.05C88.94 272.94 88.39 272.83 87.85 272.7C86.8328 278.013 84.7214 283.057 81.65 287.51C83.47 286.65 85.43 285.69 87.51 284.63C89.07 283.8 90.7 283 92.37 282.05V282.05Z" fill="#92E3A9"/>
<path d="M0.999987 262.44C0.999987 262.44 17.82 262.95 28.12 273.65C38.42 284.35 38.29 301.18 38.29 301.18C38.29 301.18 21.45 300.66 11.16 290C0.869991 279.34 0.999987 262.44 0.999987 262.44Z" fill="#92E3A9"/>
<g opacity="0.5">
<path opacity="0.5" d="M110.35 197.25C110.35 197.25 104.84 192.9 103.42 190.1C102.22 187.72 101.35 184.36 102.59 181.82C102.863 181.214 103.26 180.672 103.755 180.23C104.251 179.787 104.834 179.454 105.466 179.251C106.099 179.048 106.767 178.981 107.428 179.053C108.088 179.125 108.726 179.335 109.3 179.67C112.69 181.78 113.06 188.99 112.19 192.45C112.12 192.75 110.41 197.3 110.35 197.25Z" fill="white"/>
<path opacity="0.5" d="M161.36 233.55C161.13 233.76 157.2 236.62 157.18 236.55C157.16 236.48 154.98 229.87 155.34 226.76C155.65 224.11 156.78 220.82 159.22 219.39C159.781 219.035 160.41 218.802 161.067 218.706C161.724 218.61 162.393 218.653 163.033 218.832C163.672 219.011 164.266 219.322 164.777 219.746C165.289 220.169 165.705 220.695 166 221.29C167.67 224.93 164 231.14 161.36 233.55Z" fill="white"/>
<path opacity="0.5" d="M45.76 203.86C45.76 203.86 65.96 224.7 65.85 250.31C65.74 275.92 45.36 296.6 45.36 296.6C45.36 296.6 25.16 275.75 25.27 250.14C25.38 224.53 45.76 203.86 45.76 203.86Z" fill="white"/>
<path opacity="0.5" d="M74.56 265.65C74.2888 265.364 74.0413 265.056 73.82 264.73C72.36 262.51 71.1 259.26 72.05 256.6C72.2496 255.967 72.5804 255.382 73.0208 254.885C73.4611 254.388 74.0012 253.99 74.6059 253.715C75.2105 253.441 75.8662 253.296 76.5302 253.292C77.1943 253.288 77.8518 253.423 78.46 253.69C81.2 254.99 82.55 259.38 82.84 262.98C83.93 262.73 84.92 262.54 85.77 262.4L86.86 259.93C87.26 259.08 87.54 258.23 87.86 257.36C88.34 256.08 88.78 254.74 89.21 253.36C87.62 252.64 82.96 250.47 81.21 248.55C79.46 246.63 77.69 243.55 78.21 240.78C78.3125 240.124 78.5517 239.496 78.9123 238.938C79.2728 238.38 79.7466 237.904 80.3029 237.541C80.8592 237.178 81.4856 236.936 82.1414 236.831C82.7973 236.726 83.468 236.759 84.11 236.93C87.95 238.08 90.2 244.93 90.28 248.5C90.28 248.62 90.22 249.37 90.14 250.27C90.53 248.95 90.92 247.63 91.26 246.27C92.26 242.43 93.14 238.5 94.04 234.56C94.23 233.74 94.43 232.92 94.62 232.1C93.27 231.5 88.21 229.19 86.39 227.18C84.57 225.17 82.87 222.18 83.39 219.41C83.492 218.753 83.7315 218.124 84.0928 217.566C84.4542 217.008 84.9292 216.532 85.4869 216.169C86.0446 215.807 86.6725 215.566 87.3295 215.463C87.9866 215.36 88.658 215.396 89.3 215.57C93.13 216.71 95.38 223.57 95.46 227.13C95.46 227.26 95.39 228.13 95.3 229.13C95.82 227 96.37 224.88 96.97 222.79C97.9944 219.201 99.2537 215.683 100.74 212.26C100.27 212.06 94.28 209.47 92.26 207.26C90.47 205.26 88.74 202.26 89.26 199.49C89.3622 198.834 89.6015 198.207 89.9622 197.649C90.3228 197.091 90.7969 196.616 91.3534 196.254C91.91 195.892 92.5366 195.651 93.1924 195.547C93.8482 195.442 94.5186 195.478 95.16 195.65C99 196.79 101.25 203.65 101.33 207.21C101.33 207.47 101.04 210.73 100.89 211.89C100.911 211.852 100.928 211.812 100.94 211.77C102.49 208.447 104.33 205.268 106.44 202.27C108.312 199.584 110.339 197.01 112.51 194.56C114.51 192.27 116.46 190.29 118.21 188.56C119.21 187.63 120.06 186.8 120.9 186.03H120.81C120.74 186.03 122.68 181.57 122.81 181.3C124.61 178.21 129.89 173.3 133.81 174.14C134.456 174.298 135.062 174.59 135.588 174.998C136.114 175.406 136.547 175.921 136.861 176.508C137.174 177.095 137.36 177.741 137.406 178.405C137.453 179.069 137.359 179.735 137.13 180.36C136.26 183.04 133.29 184.85 130.76 185.72C128.23 186.59 122.53 186.18 121.13 186.06C120.28 186.88 119.37 187.76 118.39 188.76C116.69 190.53 114.77 192.54 112.84 194.87C112.33 195.49 111.84 196.17 111.27 196.87C112.39 195.95 113.93 194.7 114.1 194.6C117.1 192.68 124.1 190.75 127.1 193.31C127.593 193.748 127.989 194.284 128.262 194.883C128.536 195.483 128.681 196.133 128.688 196.792C128.696 197.451 128.566 198.105 128.306 198.71C128.046 199.316 127.663 199.861 127.18 200.31C125.18 202.31 121.7 202.53 119.06 202.14C116.42 201.75 111.38 198.66 110.31 197.97C109.17 199.45 108.03 200.97 106.94 202.66C104.92 205.661 103.173 208.837 101.72 212.15C101.63 212.34 101.57 212.55 101.49 212.75C101.96 212.2 104.77 209.36 104.99 209.18C107.78 206.95 114.47 204.26 117.81 206.46C118.355 206.841 118.815 207.332 119.158 207.902C119.501 208.472 119.72 209.108 119.801 209.768C119.882 210.428 119.823 211.098 119.628 211.734C119.433 212.37 119.107 212.958 118.67 213.46C116.88 215.65 113.46 216.26 110.79 216.17C107.72 216.05 101.67 213 101.44 212.88C100.081 216.223 98.9384 219.65 98.02 223.14C97.33 225.73 96.74 228.37 96.17 231.02C96.8 230.32 99.41 227.68 99.62 227.52C102.41 225.28 109.1 222.6 112.45 224.8C112.995 225.182 113.453 225.674 113.795 226.244C114.137 226.814 114.355 227.45 114.435 228.11C114.516 228.771 114.456 229.44 114.26 230.076C114.065 230.712 113.737 231.299 113.3 231.8C111.51 233.99 108.09 234.61 105.42 234.51C102.42 234.4 96.61 231.51 96.12 231.25C95.86 232.46 95.6 233.66 95.35 234.88C94.53 238.83 93.73 242.8 92.82 246.69C92.51 248.04 92.15 249.35 91.82 250.69C92.82 249.69 94.62 247.83 94.82 247.69C97.61 245.46 104.31 242.77 107.65 244.97C108.193 245.353 108.65 245.845 108.992 246.415C109.333 246.986 109.55 247.621 109.63 248.281C109.711 248.941 109.651 249.61 109.457 250.245C109.262 250.881 108.936 251.468 108.5 251.97C106.71 254.15 103.29 254.77 100.63 254.68C97.97 254.59 93.01 252.25 91.63 251.57C91.03 253.76 90.38 255.92 89.63 258.02C89.29 258.92 89.01 259.86 88.63 260.7C88.44 261.15 88.26 261.6 88.07 262.04L88.84 261.97C88.84 261.97 88.89 263.22 88.77 265.25C91.71 263.16 95.95 261.36 98.71 262.62C99.3061 262.915 99.8334 263.332 100.258 263.844C100.682 264.355 100.994 264.951 101.173 265.591C101.353 266.232 101.395 266.903 101.298 267.561C101.201 268.218 100.966 268.849 100.61 269.41C100.429 269.708 100.222 269.989 99.99 270.25C99.4701 273.35 98.1654 276.266 96.2 278.72C96.05 278.89 94.05 280.72 93.01 281.65C94.01 281.11 95.01 280.57 96.01 279.98C97.51 279.15 99.07 278.22 100.59 277.33L102.92 275.85C103.72 275.36 104.42 274.79 105.19 274.27C106.3 273.47 107.4 272.58 108.51 271.71C107.57 270.23 104.89 265.85 104.51 263.3C104.13 260.75 104.33 257.19 106.3 255.16C106.748 254.669 107.294 254.277 107.904 254.011C108.513 253.744 109.171 253.609 109.836 253.614C110.501 253.618 111.157 253.763 111.763 254.038C112.368 254.313 112.909 254.712 113.35 255.21C115.92 258.28 114.02 265.21 112.11 268.21C112.05 268.31 111.58 268.91 111.02 269.61C112.07 268.72 113.12 267.84 114.16 266.9C117.1 264.25 120.01 261.45 122.93 258.66L124.77 256.93C123.98 255.69 121.03 250.93 120.63 248.3C120.23 245.67 120.45 242.19 122.42 240.16C122.863 239.672 123.404 239.283 124.006 239.016C124.609 238.749 125.261 238.612 125.92 238.612C126.579 238.612 127.231 238.749 127.834 239.016C128.436 239.283 128.977 239.672 129.42 240.16C131.99 243.23 130.09 250.16 128.19 253.21C128.12 253.32 127.56 254.03 126.92 254.82C128.54 253.33 130.16 251.82 131.82 250.46C134.649 248.027 137.639 245.789 140.77 243.76C140.49 243.32 136.92 237.86 136.47 234.88C136.07 232.25 136.29 228.77 138.26 226.75C138.708 226.259 139.254 225.867 139.864 225.601C140.473 225.334 141.131 225.199 141.796 225.204C142.461 225.208 143.117 225.353 143.723 225.628C144.328 225.903 144.869 226.302 145.31 226.8C147.88 229.87 145.98 236.8 144.07 239.85C143.94 240.06 141.89 242.62 141.13 243.51L141.23 243.44C144.354 241.52 147.644 239.884 151.06 238.55C154.1 237.337 157.208 236.305 160.37 235.46C163.3 234.65 166.03 234.08 168.44 233.6C169.75 233.35 170.96 233.14 172.08 232.96L172.02 232.91C171.96 232.91 176.02 230.22 176.31 230.08C179.51 228.49 186.63 227.3 189.42 230.17C189.869 230.658 190.21 231.234 190.422 231.863C190.634 232.491 190.711 233.157 190.649 233.817C190.586 234.477 190.386 235.116 190.061 235.694C189.735 236.272 189.292 236.775 188.76 237.17C186.55 238.93 183.07 238.8 180.49 238.17C177.91 237.54 173.37 234.01 172.27 233.17C171.11 233.38 169.86 233.62 168.5 233.91C166.09 234.45 163.39 235.07 160.5 235.91C159.73 236.14 158.91 236.42 158.11 236.68C159.55 236.52 161.53 236.34 161.72 236.34C165.29 236.41 172.16 238.63 173.32 242.46C173.494 243.101 173.531 243.772 173.429 244.428C173.327 245.084 173.088 245.712 172.728 246.27C172.368 246.829 171.894 247.305 171.338 247.668C170.782 248.032 170.156 248.274 169.5 248.38C166.72 248.92 163.7 247.2 161.71 245.38C159.72 243.56 157.23 238.24 156.71 237.08C154.94 237.68 153.14 238.34 151.31 239.08C147.969 240.461 144.757 242.134 141.71 244.08C141.54 244.19 141.37 244.33 141.2 244.45C141.9 244.25 145.8 243.45 146.08 243.45C149.64 243.12 156.71 244.57 158.28 248.25C158.523 248.869 158.633 249.532 158.603 250.196C158.573 250.86 158.404 251.51 158.108 252.105C157.811 252.7 157.392 253.226 156.879 253.648C156.366 254.071 155.77 254.382 155.13 254.56C152.44 255.4 149.24 254.02 147.07 252.47C144.57 250.68 141.2 244.8 141.07 244.58C138.091 246.616 135.249 248.844 132.56 251.25C130.56 253.02 128.61 254.9 126.67 256.8C127.58 256.56 131.21 255.8 131.48 255.8C135.04 255.47 142.1 256.92 143.68 260.6C143.924 261.218 144.035 261.881 144.006 262.544C143.977 263.208 143.809 263.859 143.511 264.453C143.214 265.048 142.795 265.573 142.281 265.994C141.768 266.416 141.171 266.724 140.53 266.9C137.83 267.75 134.64 266.37 132.47 264.82C130.03 263.08 126.78 257.45 126.47 256.97L123.82 259.57C120.96 262.42 118.1 265.28 115.2 268.03C114.2 268.98 113.2 269.88 112.14 270.78C113.52 270.47 116.05 269.95 116.27 269.93C119.83 269.6 126.89 271.05 128.46 274.73C128.706 275.348 128.819 276.011 128.791 276.675C128.764 277.34 128.596 277.991 128.3 278.587C128.004 279.182 127.585 279.708 127.072 280.131C126.558 280.554 125.961 280.863 125.32 281.04C122.62 281.88 119.43 280.5 117.26 278.95C115.09 277.4 112.26 272.72 111.46 271.39C109.75 272.89 108.01 274.33 106.23 275.67C105.45 276.24 104.7 276.86 103.92 277.36L101.62 278.89C100.02 279.89 98.53 280.81 97.01 281.7C96.25 282.15 95.52 282.56 94.77 282.99C96.12 282.47 98.28 281.67 98.48 281.61C101.95 280.75 109.15 281.12 111.26 284.52C111.594 285.093 111.805 285.73 111.877 286.39C111.949 287.05 111.881 287.717 111.679 288.349C111.476 288.981 111.142 289.563 110.7 290.058C110.257 290.552 109.716 290.948 109.11 291.22C106.57 292.46 103.2 291.59 100.82 290.39C98.2 289.06 94.25 284.17 93.77 283.57C91.94 284.57 90.14 285.62 88.44 286.52C83.91 288.95 79.95 290.88 76.88 292.32C66.88 300.95 52.88 301.9 52.88 301.9C52.88 301.9 52.14 285.08 62.04 274.02C65.5469 270.343 69.8218 267.485 74.56 265.65V265.65ZM92.37 282.05C92.06 281.36 89.67 276.05 89.5 273.05C88.94 272.94 88.39 272.83 87.85 272.7C86.8328 278.013 84.7214 283.057 81.65 287.51C83.47 286.65 85.43 285.69 87.51 284.63C89.07 283.8 90.7 283 92.37 282.05V282.05Z" fill="white"/>
<path opacity="0.5" d="M0.999987 262.44C0.999987 262.44 17.82 262.95 28.12 273.65C38.42 284.35 38.29 301.18 38.29 301.18C38.29 301.18 21.45 300.66 11.16 290C0.869991 279.34 0.999987 262.44 0.999987 262.44Z" fill="white"/>
</g>
<path d="M44.93 273.27L28.4 258.42L29.11 257.63L44.94 271.86L45.02 252.39L44.93 252.44L30.96 232.01L31.83 231.41L45.03 250.7L45.23 203.85L46.29 203.86L46.15 235.66L56.67 226.55L57.36 227.35L46.14 237.06L46.05 259.8L61.99 245.69L62.69 246.49L46.04 261.22L45.95 281.92L57.94 272.52L58.59 273.35L45.95 283.27L45.89 296.6H44.83L44.93 273.27Z" fill="white"/>
<path d="M60.15 279.01L61.2 278.89L62.54 290.65L69.63 282.72H69.62L71.42 268.48L72.47 268.62L70.86 281.35L88.49 261.64L89.28 262.34L77.32 275.72L84.89 275.81L84.88 276.87L76.38 276.77L67.99 286.15L79.84 286.16V287.22L67.04 287.21L59.41 295.74L67.77 296.24L67.71 297.3L58.51 296.74L53.43 302.42L52.64 301.71L61.59 291.71L60.15 279.01Z" fill="white"/>
<path d="M20.22 283.2L6.15999 280.35L6.36999 279.31L18.95 281.86L0.609985 262.8L1.36999 262.07L13.81 275L14.47 267.45L15.53 267.54L14.79 276.01L23.52 285.08L24.42 273.27L25.47 273.35L24.5 286.1L32.44 294.35L33.56 286.05L34.61 286.2L33.38 295.32L38.66 300.81L37.9 301.55L28.59 291.88L15.81 292.37L15.77 291.31L27.6 290.86L20.22 283.19V283.2Z" fill="white"/>
<path d="M160 325.19C160 331.75 135.54 337.06 105.37 337.06C75.2 337.06 50.73 331.75 50.73 325.19C50.73 318.63 75.19 313.33 105.37 313.33C135.55 313.33 160 318.64 160 325.19Z" fill="#92E3A9"/>
<path opacity="0.5" d="M160 325.19C160 331.75 135.54 337.06 105.37 337.06C75.2 337.06 50.73 331.75 50.73 325.19C50.73 318.63 75.19 313.33 105.37 313.33C135.55 313.33 160 318.64 160 325.19Z" fill="white"/>
<path d="M344 325.85C344 332.04 319.54 337.06 289.36 337.06C259.18 337.06 234.73 332.06 234.73 325.85C234.73 319.64 259.19 314.64 289.36 314.64C319.53 314.64 344 319.66 344 325.85Z" fill="#92E3A9"/>
<path opacity="0.5" d="M344 325.85C344 332.04 319.54 337.06 289.36 337.06C259.18 337.06 234.73 332.06 234.73 325.85C234.73 319.64 259.19 314.64 289.36 314.64C319.53 314.64 344 319.66 344 325.85Z" fill="white"/>
<path d="M108 306.92C108 306.92 107.13 309.87 110.26 313.17C113.39 316.47 118.08 318.91 117.21 320.47C116.34 322.03 111.13 320.47 107.65 318.91C104.17 317.35 102.65 314.04 100.18 312.48C97.71 310.92 98.97 310.57 100.01 307.79C100.519 306.345 101.159 304.949 101.92 303.62L108 306.92Z" fill="white" stroke="#263238" stroke-linecap="round" stroke-linejoin="round"/>
<path d="M100 307.79C100.13 307.43 100.25 307.17 100.37 306.86C102.11 308.68 105.21 311.78 105.21 311.78C105.546 310.903 106.015 310.084 106.6 309.35C106.736 309.117 106.928 308.921 107.158 308.779C107.389 308.638 107.65 308.556 107.92 308.54C108.156 310.301 108.977 311.931 110.25 313.17C113.38 316.47 118.07 318.91 117.2 320.47C116.33 322.03 111.12 320.47 107.64 318.91C104.16 317.35 102.64 314.04 100.17 312.48C97.7 310.92 99 310.57 100 307.79Z" fill="#92E3A9" stroke="#263238" stroke-linecap="round" stroke-linejoin="round"/>
<path d="M95.69 315.6C96.9242 318.08 98.4373 320.412 100.2 322.55C103 325.86 108 328.29 108 330C108 331.71 103.14 332.78 98.1 330.86C93.06 328.94 89.76 326 89.24 322.7C88.9135 320.454 88.7398 318.189 88.72 315.92C88.72 315.92 94.64 316.3 95.69 315.6Z" fill="white" stroke="#263238" stroke-linecap="round" stroke-linejoin="round"/>
<path d="M127 181.82C127 181.82 132.56 214.31 135 230.99C137.44 247.67 137.09 247.99 135.7 253.23C134.31 258.47 108.59 306.23 108.07 306.92C107.55 307.61 103.07 306.74 102.51 305.18L101.99 303.62C101.99 303.62 113.28 262.44 116.58 255.14C119.88 247.84 119.89 245.59 116.76 237.25C113.63 228.91 108 214 108 214C108 214 105 244.4 100.18 267.16C95.36 289.92 96.88 314.77 95.67 315.63C94.46 316.49 89.58 317.2 88.89 315.29C88.2 313.38 79.33 282.1 81.94 261.43C84.55 240.76 87.33 234.32 84.55 221.81C81.77 209.3 78.46 191.58 79.16 181.81C79.86 172.04 119.66 170.88 127 181.82Z" fill="#263238" stroke="#263238" stroke-linecap="round" stroke-linejoin="round"/>
<path d="M89.26 322.73C89.09 321.65 88.98 320.57 88.9 319.58C90.48 320.7 92.56 322.03 92.56 322.03C92.9714 320.726 93.6839 319.537 94.64 318.56C94.9827 318.286 95.3915 318.108 95.8253 318.043C96.259 317.978 96.7022 318.029 97.11 318.19C98.0282 319.719 99.0612 321.177 100.2 322.55C103 325.86 108 328.29 108 330C108 331.71 103.14 332.78 98.1 330.86C93.06 328.94 89.78 326 89.26 322.73Z" fill="#92E3A9" stroke="#263238" stroke-linecap="round" stroke-linejoin="round"/>
<path d="M186.74 136.16H176.4C175.4 136.16 167.35 140.3 167.35 140.3L149.52 145.73L151.59 152.97L168.65 144.43L174.59 143.92C176.456 143.757 178.201 142.93 179.51 141.59C179.51 141.59 185.45 140.04 186.74 139.01C188.03 137.98 186.74 136.16 186.74 136.16Z" fill="white" stroke="#263238" stroke-linecap="round" stroke-linejoin="round"/>
<path d="M315 57.6299C315 57.6299 311.93 47.6998 298.68 45.8098C285.43 43.9198 272.68 48.6498 268.41 59.0498C264.14 69.4498 273.81 74.7599 270.97 82.7999C268.13 90.8399 251.81 83.7398 242.83 94.8598C233.85 105.98 235.02 114.72 240.22 122.53C245.42 130.34 252.05 131.53 245.66 138.85C239.27 146.17 232.42 150.2 235.49 162.26C238.56 174.32 251.58 184.49 278.49 184.96C305.4 185.43 308.76 161.79 306.87 142.63C304.98 123.47 311.12 119.22 320.87 109.29C330.62 99.3598 329.65 74.1899 315 57.6299Z" fill="#263238" stroke="#263238" stroke-linecap="round" stroke-linejoin="round"/>
<path d="M251.53 175.65C253.92 177.65 256.79 178.32 259.19 177.2" stroke="white" stroke-linecap="round" stroke-linejoin="round"/>
<path d="M249.76 106C247.41 107.852 245.846 110.524 245.38 113.48C243.46 125.37 256.12 130.36 258.38 137.26C260.64 144.16 248.79 149.92 246.87 161.05C246.052 165.201 246.888 169.507 249.2 173.05" stroke="white" stroke-linecap="round" stroke-linejoin="round"/>
<path d="M278 75.9299C278 75.9299 276.85 90.1199 270.33 95.8799C267.18 98.6599 261.7 100.09 256.66 102.18" stroke="white" stroke-linecap="round" stroke-linejoin="round"/>
<path d="M296.94 72.9399C298.724 78.315 301.994 83.0751 306.37 86.6699C317.88 95.8799 323.63 97.4099 323.63 97.4099" stroke="white" stroke-linecap="round" stroke-linejoin="round"/>
<path d="M294.86 62.1199C294.895 63.5143 295.029 64.9044 295.26 66.2799" stroke="white" stroke-linecap="round" stroke-linejoin="round"/>
<path d="M310.59 55.9998C304.419 55.2642 298.168 56.3304 292.59 59.0698C283 63.6698 276.1 70.5797 271.49 67.5097" stroke="white" stroke-linecap="round" stroke-linejoin="round"/>
<path d="M318.71 89.9998C319.889 91.0243 321.15 91.9507 322.48 92.7698" stroke="white" stroke-linecap="round" stroke-linejoin="round"/>
<path d="M307.52 57.1299C307.52 57.1299 305.28 75.0099 315.83 87.1299" stroke="white" stroke-linecap="round" stroke-linejoin="round"/>
<path d="M271.46 59.4398C271.46 59.4398 273.38 62.4998 283.74 56.3698C294.1 50.2398 302.15 52.9098 306.37 54.4498" stroke="white" stroke-linecap="round" stroke-linejoin="round"/>
<path d="M290.71 229.42C290.71 229.42 289.76 249.29 289.76 258.75C289.76 268.21 288.1 302.26 289.29 313.61C290.48 324.96 297.29 330.41 299.46 329.93C301.63 329.45 300.64 321.93 298.04 315.74C295.44 309.55 295.44 297.53 296.38 294.74C297.32 291.95 305.84 275.11 305.84 265.65C305.84 256.19 304.19 249.33 305.37 241.52C306.55 233.71 307.26 230.41 307.26 230.41L290.71 229.42Z" fill="white" stroke="#263238" stroke-miterlimit="10"/>
<path d="M299.46 329.93C301.34 329.51 300.81 323.53 298.86 317.93C298.31 321.06 297.4 322.57 294.36 321.56C293.34 321.135 292.415 320.511 291.639 319.725C290.863 318.938 290.252 318.005 289.84 316.98C291.86 326 297.55 330.36 299.46 329.93Z" fill="#92E3A9" stroke="#263238" stroke-linecap="round" stroke-linejoin="round"/>
<path d="M286.72 229.42C286.72 229.42 287.66 249.29 287.66 258.75C287.66 268.21 289.32 302.26 288.14 313.61C286.96 324.96 280.14 330.41 277.97 329.93C275.8 329.45 276.79 321.93 279.39 315.74C281.99 309.55 281.99 297.53 281.04 294.74C280.09 291.95 271.58 275.11 271.58 265.65C271.58 256.19 273.24 249.33 272.06 241.52C270.88 233.71 270.16 230.41 270.16 230.41L286.72 229.42Z" fill="white" stroke="#263238" stroke-miterlimit="10"/>
<path d="M280.48 322.52C277.48 322.19 279.39 315.74 279.39 315.74C276.79 321.89 275.84 329.46 277.97 329.93C280.1 330.4 286.08 325.65 287.83 315.76C285.91 318.46 282.52 322.75 280.48 322.52Z" fill="#92E3A9" stroke="#263238" stroke-linecap="round" stroke-linejoin="round"/>
<path d="M284.9 94.3899L262.2 102.9L272.84 150.43C272.84 150.43 265.04 160.6 261.73 171.25C258.42 181.9 259.83 199.86 262.67 210.98C265.51 222.1 269.91 234.15 269.91 234.15H308.59C308.59 234.15 318.48 200.57 316.59 180.47C315.511 168.53 311.795 156.979 305.71 146.65L315.41 101.95L293.41 93.6799L284.9 94.3899Z" fill="#92E3A9" stroke="#263238" stroke-linecap="round" stroke-linejoin="round"/>
<path d="M281.8 192.16C281.8 192.16 289.16 210.28 288.6 225" stroke="#263238" stroke-linecap="round" stroke-linejoin="round"/>
<path d="M297.66 195.56C295.923 199.978 293.638 204.161 290.86 208.01" stroke="#263238" stroke-linecap="round" stroke-linejoin="round"/>
<path d="M283.25 90.6299C283.715 95.5892 284.585 100.502 285.85 105.32C287.74 111.88 291.52 114.07 294.12 106.26C296.72 98.4499 295.78 85.6399 295.78 85.6399C295.78 85.6399 289.63 94.3799 283.25 90.6299Z" fill="white" stroke="#263238" stroke-linecap="round" stroke-linejoin="round"/>
<path d="M315.41 102L335.29 143.85C336.37 146.19 335.9 151.49 333.92 153.14C333.268 153.687 332.503 154.082 331.68 154.295C330.856 154.509 329.995 154.537 329.16 154.376C328.325 154.215 327.536 153.869 326.851 153.365C326.166 152.861 325.602 152.21 325.2 151.46L310.92 123.29L315.41 102Z" fill="#92E3A9" stroke="#263238" stroke-linecap="round" stroke-linejoin="round"/>
<path d="M316.589 181.755C326.055 172.288 326.055 156.94 316.589 147.474C307.123 138.008 291.775 138.008 282.309 147.474C272.842 156.94 272.842 172.288 282.309 181.755C291.775 191.221 307.123 191.221 316.589 181.755Z" fill="#263238" stroke="#263238" stroke-linecap="round" stroke-linejoin="round"/>
<path d="M314.94 161.08H302.99V149.13H295.9V161.08H283.96V168.17H295.9V180.12H302.99V168.17H314.94V161.08Z" fill="#92E3A9"/>
<path d="M327.47 142.63L306.19 174.08L310.19 178.34C310.19 178.34 335.96 153.75 336.91 150.43C337.86 147.11 335.02 143.34 333.36 140.74" fill="#92E3A9"/>
<path d="M327.47 142.63L306.19 174.08L310.19 178.34C310.19 178.34 335.96 153.75 336.91 150.43C337.86 147.11 335.02 143.34 333.36 140.74" stroke="#263238" stroke-linecap="round" stroke-linejoin="round"/>
<path d="M306.19 174.08C306.19 174.08 300.04 176.45 299.33 176.92C297.899 178.506 296.563 180.176 295.33 181.92C295.33 181.92 294.14 184.76 295.33 184.76C296.52 184.76 297.46 182.86 298.17 182.39C298.88 181.92 299.11 184.28 298.17 185.23C297.23 186.18 294.62 190.23 296.51 191.14C298.4 192.05 300.06 189.49 300.77 189.49C301.48 189.49 305.26 189.96 307.39 187.59C309.52 185.22 310.23 178.37 310.23 178.37L306.19 174.08Z" fill="white" stroke="#263238" stroke-linecap="round" stroke-linejoin="round"/>
<path d="M262.2 102.9L252 143.37C251.47 145.49 249.43 150.32 251.22 151.58L252.41 152.77C255.08 154.65 260.26 154.2 261.69 151.28L268.85 132.7L262.2 102.9Z" fill="#92E3A9" stroke="#263238" stroke-linecap="round" stroke-linejoin="round"/>
<path d="M257.23 141.92L228.14 137.92L227.91 143.12C227.91 143.12 243.75 151.52 248.91 153.89C254.07 156.26 259.96 155.08 261.61 151.3C263.26 147.52 265 139.61 265 139.61" fill="#92E3A9"/>
<path d="M257.23 141.92L228.14 137.92L227.91 143.12C227.91 143.12 243.75 151.52 248.91 153.89C254.07 156.26 259.96 155.08 261.61 151.3C263.26 147.52 265 139.61 265 139.61" stroke="#263238" stroke-linecap="round" stroke-linejoin="round"/>
<path d="M224.28 139.85C223.314 139.497 222.305 139.275 221.28 139.19L219.42 134.35C219.42 134.35 214.54 133.29 211.68 133.79C208.82 134.29 212.35 138.51 213.03 139.52C213.28 139.9 214.66 140.26 216.27 140.52L215.38 143.52C215.38 143.52 218.25 145.2 220.27 145.2C222.29 145.2 227.94 143.06 227.94 143.06C227.056 141.658 225.785 140.543 224.28 139.85V139.85Z" fill="white" stroke="#263238" stroke-linecap="round" stroke-linejoin="round"/>
<path d="M195.01 169.34C208.397 169.34 219.25 158.487 219.25 145.1C219.25 131.712 208.397 120.86 195.01 120.86C181.623 120.86 170.77 131.712 170.77 145.1C170.77 158.487 181.623 169.34 195.01 169.34Z" fill="#263238" stroke="#263238" stroke-linecap="round" stroke-linejoin="round"/>
<path d="M210.5 141.56H198.56V129.61H191.46V141.56H179.52V148.65H191.46V160.59H198.56V148.65H210.5V141.56Z" fill="#92E3A9"/>
<path d="M228.14 137.9C228.14 137.9 220.81 134.35 219.39 134.35C217.97 134.35 214.66 140.27 213.48 140.98C212.3 141.69 210.17 142.87 212.3 143.34C214.118 143.576 215.961 143.157 217.5 142.16C218.167 141.65 218.799 141.096 219.39 140.5C219.39 140.5 221.05 141.45 222.7 142.16C224.392 142.684 226.142 143 227.91 143.1L228.14 137.9Z" fill="white" stroke="#263238" stroke-linecap="round" stroke-linejoin="round"/>
<path d="M82.19 56.5798C82.19 56.5798 77.69 52.0798 65.19 52.0798C52.69 52.0798 44.69 67.5798 44.69 78.5798C44.69 89.5798 51.19 105.08 53.69 115.58C56.19 126.08 54.19 134.58 44.69 135.58C35.19 136.58 30.35 145.38 39.85 155.88C49.35 166.38 74.69 159.58 82.69 145.08C90.69 130.58 93.69 121.58 90.19 96.0798C86.69 70.5798 82.19 56.5798 82.19 56.5798Z" fill="#263238" stroke="#263238" stroke-linecap="round" stroke-linejoin="round"/>
<path d="M74.62 60.2498C74.62 60.2498 59.62 59.7698 54.34 76.1898C49.06 92.6098 59.65 103.72 61.58 122.07C63.51 140.42 59.17 149.6 47.58 148.64C35.99 147.68 41.78 138 46.13 138C50.48 138 50.47 142.35 50.47 142.35" stroke="white" stroke-linecap="round" stroke-linejoin="round"/>
<path d="M73.17 66.9998C67.86 75.1598 64.04 85.2298 68.17 94.6698C71.62 102.61 78.17 108.25 75.61 117.67" stroke="white" stroke-linecap="round" stroke-linejoin="round"/>
<path d="M108.49 60.2399C108.49 60.2399 114.49 64.0599 113.19 68.4699C111.89 72.8799 106.58 74.4699 105.84 72.8799C105.1 71.2899 101.84 63.3299 103.05 60.9699C104.26 58.6099 108.49 60.2399 108.49 60.2399Z" fill="#263238" stroke="#263238" stroke-linecap="round" stroke-linejoin="round"/>
<path d="M96.73 95.9998C96.88 96.4398 96.73 97.3198 99.73 103.12C101.67 106.94 110.73 111.62 110.73 111.62C110.73 111.62 97.8 113.79 94.42 114.52C91.04 115.25 77.23 109.62 77.23 109.62C77.23 109.62 84.73 106.88 84.73 97.6198C84.73 88.3598 86 86.6998 86 86.6998C87.3625 86.6142 88.723 86.8968 89.9387 87.5179C91.1545 88.139 92.1808 89.0757 92.91 90.2298C94.2829 92.0853 95.558 94.0113 96.73 95.9998Z" fill="white" stroke="#263238" stroke-linecap="round" stroke-linejoin="round"/>
<path d="M112.69 104.58C112.69 104.58 119.19 106.58 121.69 110.58C124.19 114.58 132.19 148.58 132.19 148.58C132.19 148.58 133.19 148.58 138.69 147.08C144.19 145.58 141.74 146.44 141.74 146.44L145.24 147.44L151.52 144.91L154.43 153.22L149.24 155.44C149.24 155.44 146.74 160.94 143.74 162.44C139.159 164.548 134.224 165.782 129.19 166.08C122.69 166.58 117.69 162.58 117.69 157.58C117.69 152.58 112.19 113.58 112.19 113.58" fill="#92E3A9"/>
<path d="M112.69 104.58C112.69 104.58 119.19 106.58 121.69 110.58C124.19 114.58 132.19 148.58 132.19 148.58C132.19 148.58 133.19 148.58 138.69 147.08C144.19 145.58 141.74 146.44 141.74 146.44L145.24 147.44L151.52 144.91L154.43 153.22L149.24 155.44C149.24 155.44 146.74 160.94 143.74 162.44C139.159 164.548 134.224 165.782 129.19 166.08C122.69 166.58 117.69 162.58 117.69 157.58C117.69 152.58 112.19 113.58 112.19 113.58" stroke="#263238" stroke-linecap="round" stroke-linejoin="round"/>
<path d="M103.16 194.85C91.79 196.21 84.34 195.64 79.78 194.78C79.1994 190.472 78.9987 186.122 79.18 181.78C79.87 172.05 119.66 170.84 126.96 181.78C126.96 181.78 127.36 184.16 127.96 187.89C127.09 188.83 122.3 192.57 103.16 194.85Z" fill="white" stroke="#263238" stroke-linecap="round" stroke-linejoin="round"/>
<path d="M125.16 166.69C124.36 146.9 128.48 138.81 112.69 104.58C106.5 103.01 104.64 104.04 102.69 101.28C99.7204 104.101 95.9907 105.992 91.96 106.72C85.05 108.04 81.23 104.66 81.23 104.66C81.23 104.66 61.53 106.72 63.59 116.71C65.65 126.7 76.52 154.78 76.96 164.78C77.4 174.78 73.58 185.36 76.96 187.56C80.34 189.76 96.96 191.68 109.6 189.48C122.24 187.28 131 184 130.3 180.8C129.6 177.6 125.43 173.31 125.16 166.69Z" fill="#92E3A9" stroke="#263238" stroke-linecap="round" stroke-linejoin="round"/>
<path d="M123.3 144.73C123.3 144.73 112.83 162.73 104.7 170.3" stroke="#263238" stroke-linecap="round" stroke-linejoin="round"/>
<path d="M107.6 161C103.386 165.286 98.4722 168.823 93.07 171.46" stroke="#263238" stroke-linecap="round" stroke-linejoin="round"/>
<path d="M82.69 101.08C82.69 101.08 85.03 108.08 91.94 106.72C95.9706 105.992 99.7004 104.101 102.67 101.28C103.48 102.41 105.41 103.28 107.8 104.04C106.19 114.04 93.8 117.18 86.19 115.04C81.54 113.77 79.19 108.12 77.32 105.27C79.57 104.84 82.69 101.08 82.69 101.08Z" fill="white" stroke="#263238" stroke-linecap="round" stroke-linejoin="round"/>
<path d="M73.78 178C73.78 178 79.78 194.65 81.94 203.87C84.1 213.09 82.42 216.47 82.57 221.51C82.72 226.55 82.57 232.35 81.65 232.08C80.73 231.81 80.29 229.9 80.3 227.93C80.31 225.96 80.19 220.56 80.19 220.56C80.19 220.56 77.74 228.11 77.45 228.76C77.16 229.41 75.83 229.68 76.2 227.55C76.57 225.42 77.99 218.6 77.99 218.6C77.99 218.6 74.14 225.45 73.82 225.86C73.5 226.27 71.9 226.32 72.35 224.92C72.8 223.52 76.09 215.99 76.09 215.99C76.09 215.99 71.42 221.33 70.9 221.15C70.38 220.97 70.41 220.1 70.9 219.15C71.39 218.2 74.31 214.57 74.74 214.03C75.17 213.49 75.06 213.62 75.56 211.59C76.06 209.56 77.56 207.67 77.86 207.02C78.16 206.37 63.74 177.53 63.74 177.53L73.78 178Z" fill="white" stroke="#263238" stroke-linecap="round" stroke-linejoin="round"/>
<path d="M71.15 107.7C71.15 107.7 60.48 109.64 58.05 114.98C55.62 120.32 59.05 130.5 59.05 136.81C59.05 143.12 55.66 160.58 57.11 164.95C58.56 169.32 59.54 175.14 60.02 177.08C60.5 179.02 64.87 180.47 64.87 180.47L66.22 186.35L77.22 184.28L76 179C76 179 78.43 179.48 77.46 173.66C76.49 167.84 74.55 164.44 74.55 159.59C74.55 154.74 74.06 138.25 76.49 128.06" fill="#92E3A9"/>
<path d="M71.15 107.7C71.15 107.7 60.48 109.64 58.05 114.98C55.62 120.32 59.05 130.5 59.05 136.81C59.05 143.12 55.66 160.58 57.11 164.95C58.56 169.32 59.54 175.14 60.02 177.08C60.5 179.02 64.87 180.47 64.87 180.47L66.22 186.35L77.22 184.28L76 179C76 179 78.43 179.48 77.46 173.66C76.49 167.84 74.55 164.44 74.55 159.59C74.55 154.74 74.06 138.25 76.49 128.06" stroke="#263238" stroke-linecap="round" stroke-linejoin="round"/>
<path d="M167.27 140.59L171.46 134.75L178.05 133.32C178.05 133.32 180.77 132.51 180.4 133.97C180.03 135.43 179.53 135.58 177.8 136.1L174.8 136.98C174.293 138.55 173.271 139.903 171.9 140.82C171.46 141.056 170.977 141.202 170.48 141.25" fill="white"/>
<path d="M167.27 140.59L171.46 134.75L178.05 133.32C178.05 133.32 180.77 132.51 180.4 133.97C180.03 135.43 179.53 135.58 177.8 136.1L174.8 136.98C174.293 138.55 173.271 139.903 171.9 140.82C171.46 141.056 170.977 141.202 170.48 141.25" stroke="#263238" stroke-linecap="round" stroke-linejoin="round"/>
<path d="M107.31 62.1498C107.31 62.1498 109.96 79.3498 108.49 85.6698C107.02 91.9898 102 97.9998 96.73 97.2798C91.46 96.5598 87.47 89.3398 87.47 89.3398C87.47 89.3398 85.85 90.3398 85.12 89.1998C84.39 88.0598 84.24 85.0798 85.12 81.9898C86 78.8998 99.82 58.6198 107.31 62.1498Z" fill="white" stroke="#263238" stroke-linecap="round" stroke-linejoin="round"/>
<path d="M96.88 74.19C97.1295 73.545 97.565 72.9888 98.1311 72.5917C98.6973 72.1947 99.3687 71.9748 100.06 71.96" stroke="#263238" stroke-linecap="round" stroke-linejoin="round"/>
<path d="M104.65 71.3698C105.117 71.1749 105.635 71.1388 106.125 71.2671C106.615 71.3953 107.048 71.6809 107.36 72.0798" stroke="#263238" stroke-linecap="round" stroke-linejoin="round"/>
<path d="M104.38 76.4099C104.38 76.4099 103.54 79.2099 105.22 80.0599C106.9 80.9099 105.22 82.2999 104.66 83.1399" stroke="#263238" stroke-linecap="round" stroke-linejoin="round"/>
<path d="M103 87.6297C102.193 87.7676 101.366 87.7116 100.585 87.4664C99.8042 87.2213 99.093 86.7939 98.51 86.2197" stroke="#263238" stroke-linecap="round" stroke-linejoin="round"/>
<path d="M100.53 77.3698C100.53 78.2198 100.21 78.8998 99.82 78.8998C99.43 78.8998 99.12 78.2198 99.12 77.3698C99.12 76.5198 99.43 75.8398 99.82 75.8398C100.21 75.8398 100.53 76.5298 100.53 77.3698Z" fill="#263238"/>
<path d="M106.89 76.9997C106.89 77.8397 106.57 78.5297 106.18 78.5297C105.79 78.5297 105.47 77.8397 105.47 76.9997C105.47 76.1597 105.79 75.4697 106.18 75.4697C106.57 75.4697 106.89 76.1697 106.89 76.9997Z" fill="#263238"/>
<path d="M88.19 54.0798C88.19 54.0798 109.52 52.2998 110.4 56.7098C111.28 61.1198 94.08 75.9998 88.94 82.5798C83.8 89.1597 81.88 90.8097 79.24 89.7797C76.6 88.7497 68.75 74.6398 71.69 65.0798C74.63 55.5197 88.19 54.0798 88.19 54.0798Z" fill="#263238" stroke="#263238" stroke-linecap="round" stroke-linejoin="round"/>
<path d="M102.15 54.9399C102.15 54.9399 98.29 70.8799 88.63 78.1199C78.97 85.3599 75.11 81.9999 75.11 81.9999" stroke="white" stroke-linecap="round" stroke-linejoin="round"/>
<path d="M88.19 54.0798C88.19 54.0798 91.04 66.5298 86.19 72.3298C81.34 78.1298 72.67 77.6398 72.67 77.6398" stroke="white" stroke-linecap="round" stroke-linejoin="round"/>
<path d="M292.56 64.9299C292.27 64.7999 292.24 64.5999 292.41 64.3399C292.31 63.8799 292.24 63.5599 292.2 63.3999C290.403 64.5717 288.517 65.6015 286.56 66.4799C282.968 68.1121 279.135 69.1489 275.21 69.5499C275.21 69.5499 277.1 82.5499 280.88 89.1799C283.63 93.9899 286.32 96.5099 293.42 92.0199C295.062 90.9479 296.475 89.5606 297.577 87.9384C298.679 86.3162 299.448 84.4915 299.84 82.5699C295.83 77.0899 293.43 68.4999 292.56 64.9299Z" fill="white" stroke="#263238" stroke-linecap="round" stroke-linejoin="round"/>
<path d="M289.3 72.7498C289.055 72.1041 288.622 71.5467 288.057 71.1492C287.492 70.7518 286.821 70.5326 286.13 70.5198" stroke="#263238" stroke-linecap="round" stroke-linejoin="round"/>
<path d="M281.54 69.9299C281.074 69.7356 280.557 69.6989 280.068 69.8252C279.578 69.9515 279.144 70.2341 278.83 70.6299" stroke="#263238" stroke-linecap="round" stroke-linejoin="round"/>
<path d="M281.8 74.9998C281.8 74.9998 282.64 77.7998 280.96 78.6398C279.28 79.4798 280.96 80.8898 281.52 81.7298" stroke="#263238" stroke-linecap="round" stroke-linejoin="round"/>
<path d="M283.2 86.1798C284.006 86.3181 284.833 86.2633 285.613 86.0199C286.394 85.7765 287.106 85.3515 287.69 84.7798" stroke="#263238" stroke-linecap="round" stroke-linejoin="round"/>
<path d="M285.65 75.9299C285.65 76.7699 285.97 77.4599 286.36 77.4599C286.75 77.4599 287.07 76.7699 287.07 75.9299C287.07 75.0899 286.75 74.3999 286.36 74.3999C285.97 74.3999 285.65 75.0799 285.65 75.9299Z" fill="#263238"/>
<path d="M279.3 75.5798C279.3 76.4198 279.61 77.1098 280 77.1098C280.39 77.1098 280.71 76.4198 280.71 75.5798C280.71 74.7398 280.4 74.0498 280 74.0498C279.6 74.0498 279.3 74.7298 279.3 75.5798Z" fill="#263238"/>
</svg>
