<svg width="322" height="321" viewBox="0 0 322 321" fill="none" xmlns="http://www.w3.org/2000/svg">
<path d="M276.375 167.808C215.847 132.868 118.047 132.868 57.9148 167.808C-2.21769 202.749 -1.89609 259.411 58.625 294.351C119.146 329.292 216.959 329.298 277.092 294.351C337.224 259.404 336.896 202.755 276.375 167.808Z" fill="#F5F5F5"/>
<path d="M151.721 293.695L61.1777 241.408L79.2744 230.916L169.838 283.236L151.721 293.695Z" fill="#E6E6E6"/>
<path d="M245.066 243.713V243.706L193.074 213.69H193.081L141.089 183.674L89.0966 153.658L37.4463 183.674L89.4316 213.69L141.424 243.706V243.713L193.416 273.729H193.409L245.401 303.745L297.058 273.729L245.066 243.713Z" fill="#E6E6E6"/>
<path d="M284.321 270.231L281.226 267.685C281.032 262.807 280.844 257.635 281.655 252.845C282.465 248.054 284.335 243.264 287.805 239.8C289.246 238.346 291.035 237.12 293.071 236.878C295.108 236.637 297.373 237.669 298.076 239.592C298.78 241.515 297.701 243.793 296.522 245.582C294.016 249.394 291.021 252.871 288.562 256.717C285.975 260.766 284.512 265.43 284.321 270.231V270.231Z" fill="#92E3A9"/>
<path d="M284.321 270.894L287.417 273.44C289.708 268.61 292.864 264.127 297.225 261.032C298.781 260.063 300.235 258.941 301.567 257.682C302.813 256.342 303.684 254.493 303.322 252.704C302.86 250.399 300.415 248.878 298.063 248.865C295.711 248.851 293.514 250.044 291.698 251.545C286.09 256.094 282.914 263.826 284.321 270.894Z" fill="#92E3A9"/>
<path opacity="0.3" d="M284.321 270.894L287.417 273.44C289.708 268.61 292.864 264.127 297.225 261.032C298.781 260.063 300.235 258.941 301.567 257.682C302.813 256.342 303.684 254.493 303.322 252.704C302.86 250.399 300.415 248.878 298.063 248.865C295.711 248.851 293.514 250.044 291.698 251.545C286.09 256.094 282.914 263.826 284.321 270.894Z" fill="black"/>
<path d="M282.572 269.065C282.501 269.064 282.433 269.034 282.383 268.983C282.332 268.931 282.304 268.862 282.305 268.791C282.432 261.555 284.06 248.181 293.52 239.981C293.547 239.957 293.578 239.939 293.612 239.928C293.646 239.917 293.681 239.912 293.717 239.915C293.752 239.917 293.787 239.927 293.819 239.943C293.85 239.959 293.879 239.981 293.902 240.007C293.925 240.034 293.943 240.065 293.955 240.099C293.966 240.133 293.97 240.168 293.968 240.204C293.965 240.239 293.956 240.274 293.94 240.306C293.924 240.338 293.902 240.366 293.875 240.389C289.855 243.853 283.155 252.161 282.84 268.824C282.834 268.89 282.803 268.952 282.753 268.997C282.704 269.041 282.639 269.066 282.572 269.065V269.065Z" fill="white"/>
<path d="M285.822 272.395C285.787 272.392 285.752 272.382 285.721 272.365C285.69 272.348 285.662 272.326 285.64 272.298C285.617 272.271 285.601 272.239 285.591 272.205C285.58 272.171 285.577 272.136 285.581 272.1C286.211 265.595 289.051 256.63 298.981 250.888C299.043 250.854 299.117 250.845 299.185 250.864C299.254 250.883 299.313 250.927 299.349 250.989C299.367 251.019 299.379 251.053 299.383 251.089C299.388 251.124 299.386 251.16 299.376 251.194C299.367 251.228 299.351 251.26 299.329 251.288C299.307 251.316 299.28 251.34 299.249 251.357C289.52 256.979 286.733 265.769 286.11 272.127C286.111 272.164 286.104 272.202 286.09 272.236C286.076 272.27 286.054 272.301 286.027 272.327C286 272.352 285.967 272.371 285.932 272.383C285.897 272.395 285.859 272.399 285.822 272.395V272.395Z" fill="white"/>
<path d="M41.6472 152.472C40.4345 151.313 39.0476 150.047 38.9672 148.372C38.9715 147.621 39.2047 146.89 39.6358 146.276C40.0668 145.662 40.675 145.194 41.3792 144.934C42.0899 144.694 42.8419 144.598 43.5901 144.655C44.3384 144.711 45.0676 144.918 45.7342 145.263C47.0615 145.963 48.2438 146.909 49.2182 148.05C52.1543 151.312 54.2797 155.22 55.4218 159.458C56.5638 163.695 56.6903 168.142 55.7909 172.438C55.7636 172.729 55.6734 173.01 55.5264 173.262C55.3795 173.514 55.1794 173.731 54.94 173.899C54.1293 174.327 53.2047 173.57 52.6553 172.84C51.4451 171.23 50.5371 169.414 49.9753 167.48C49.4862 165.852 49.7073 164.063 49.0976 162.529C47.6035 158.79 44.5349 155.232 41.6472 152.472Z" fill="#92E3A9"/>
<path d="M54.27 171.701C54.2275 171.702 54.1853 171.694 54.1459 171.678C54.1064 171.662 54.0706 171.639 54.0406 171.609C54.0105 171.579 53.9869 171.543 53.971 171.503C53.9552 171.464 53.9475 171.422 53.9484 171.379C53.9086 166.675 52.8227 162.038 50.7693 157.804C48.7158 153.571 45.7463 149.848 42.076 146.904C42.0423 146.878 42.0141 146.845 41.9931 146.808C41.9721 146.771 41.9587 146.73 41.9537 146.688C41.9487 146.645 41.9522 146.602 41.964 146.561C41.9758 146.52 41.9956 146.482 42.0224 146.449C42.048 146.415 42.08 146.387 42.1166 146.366C42.1532 146.345 42.1936 146.332 42.2355 146.327C42.2774 146.322 42.3198 146.325 42.3603 146.337C42.4008 146.349 42.4386 146.368 42.4713 146.395C46.2205 149.398 49.2536 153.198 51.3501 157.52C53.4466 161.841 54.554 166.576 54.5916 171.379C54.5925 171.422 54.5848 171.464 54.569 171.503C54.5531 171.543 54.5295 171.579 54.4994 171.609C54.4694 171.639 54.4336 171.662 54.3941 171.678C54.3547 171.694 54.3125 171.702 54.27 171.701V171.701Z" fill="white"/>
<path d="M50.2835 184.565C48.2735 185.235 45.6739 184.793 44.4947 183.004C43.1011 180.9 43.9721 177.644 42.1095 175.955C41.071 175.004 39.5367 174.91 38.1565 174.615C36.7763 174.321 35.2353 173.57 35.0343 172.17C34.7596 170.321 37.0443 168.786 36.716 166.937C36.3877 165.088 33.8886 164.552 33.1449 162.864C32.4749 161.329 33.6675 159.467 35.2487 158.891C36.8299 158.314 38.5987 158.71 40.1665 159.299C41.7343 159.889 43.2753 160.639 44.9436 160.86C46.6119 161.081 48.6822 160.733 49.9619 161.926C51.6637 163.52 50.6922 166.562 52.0054 168.485C52.8898 169.778 54.5581 170.227 55.8311 171.165C56.6229 171.738 57.2655 172.493 57.705 173.367C58.1445 174.24 58.3681 175.206 58.357 176.183C58.3168 178.307 57.1979 179.835 55.6033 181.054C53.9015 182.327 52.3806 183.888 50.2835 184.565Z" fill="#92E3A9"/>
<path opacity="0.2" d="M50.2835 184.565C48.2735 185.235 45.6739 184.793 44.4947 183.004C43.1011 180.9 43.9721 177.644 42.1095 175.955C41.071 175.004 39.5367 174.91 38.1565 174.615C36.7763 174.321 35.2353 173.57 35.0343 172.17C34.7596 170.321 37.0443 168.786 36.716 166.937C36.3877 165.088 33.8886 164.552 33.1449 162.864C32.4749 161.329 33.6675 159.467 35.2487 158.891C36.8299 158.314 38.5987 158.71 40.1665 159.299C41.7343 159.889 43.2753 160.639 44.9436 160.86C46.6119 161.081 48.6822 160.733 49.9619 161.926C51.6637 163.52 50.6922 166.562 52.0054 168.485C52.8898 169.778 54.5581 170.227 55.8311 171.165C56.6229 171.738 57.2655 172.493 57.705 173.367C58.1445 174.24 58.3681 175.206 58.357 176.183C58.3168 178.307 57.1979 179.835 55.6033 181.054C53.9015 182.327 52.3806 183.888 50.2835 184.565Z" fill="black"/>
<path d="M49.3589 170.086V170.053C49.0507 169.61 48.7358 169.175 48.4008 168.753C45.3791 165.011 41.2819 162.287 36.6624 160.947C36.6215 160.934 36.5784 160.929 36.5356 160.933C36.4928 160.938 36.4513 160.95 36.4136 160.971C36.376 160.992 36.3429 161.02 36.3166 161.054C36.2902 161.088 36.2711 161.127 36.2604 161.168C36.2375 161.251 36.2478 161.339 36.2891 161.415C36.3304 161.49 36.3995 161.546 36.4815 161.57C40.9666 162.873 44.9428 165.523 47.8715 169.162C47.9653 169.275 48.0457 169.396 48.1328 169.51C44.4746 168.17 40.7628 168.934 38.7528 170.535C38.7196 170.562 38.6919 170.595 38.6716 170.632C38.6512 170.67 38.6384 170.711 38.6341 170.753C38.6297 170.795 38.6338 170.838 38.6461 170.879C38.6585 170.92 38.6788 170.958 38.7059 170.991C38.735 171.029 38.7726 171.059 38.8156 171.08C38.8587 171.101 38.906 171.112 38.9538 171.111C39.0293 171.11 39.1023 171.084 39.1615 171.038C41.1313 169.45 45.1915 168.746 48.8832 170.528C51.188 173.905 52.5418 177.839 52.8027 181.918C52.8078 182 52.844 182.077 52.9037 182.133C52.9635 182.189 53.0424 182.22 53.1243 182.22C53.1666 182.217 53.2079 182.206 53.246 182.188C53.284 182.169 53.318 182.143 53.346 182.112C53.374 182.08 53.3955 182.043 53.4092 182.003C53.4229 181.963 53.4285 181.92 53.4258 181.878C53.1596 177.652 51.7543 173.578 49.3589 170.086V170.086Z" fill="white"/>
<path d="M89.8001 139.527L47.4896 164.116L47.436 184.779L90.0212 209.362L132.325 184.779L132.385 164.116L89.8001 139.527Z" fill="#92E3A9"/>
<path opacity="0.2" d="M132.385 164.117L89.8001 139.527L47.4896 164.117L90.0748 188.699L132.385 164.117Z" fill="white"/>
<path opacity="0.3" d="M90.0748 188.699L90.0212 209.362L132.325 184.779L132.385 164.117L90.0748 188.699Z" fill="black"/>
<path d="M140.352 142.315L98.0411 166.904L97.9875 213.965L140.573 238.553L182.883 213.965L182.937 166.904L140.352 142.315Z" fill="#92E3A9"/>
<path opacity="0.2" d="M182.937 166.904L140.352 142.315L98.0411 166.904L140.626 191.493L182.937 166.904Z" fill="white"/>
<path opacity="0.3" d="M140.626 191.493L140.573 238.553L182.883 213.964L182.937 166.904L140.626 191.493Z" fill="black"/>
<path d="M192.123 145.31L149.812 169.892L149.758 243.719L192.344 268.308L234.647 243.719L234.708 169.892L192.123 145.31Z" fill="#92E3A9"/>
<path opacity="0.2" d="M234.708 169.892L192.122 145.31L149.812 169.892L192.397 194.481L234.708 169.892Z" fill="white"/>
<path opacity="0.3" d="M192.397 194.481L192.344 268.308L234.647 243.719L234.708 169.892L192.397 194.481Z" fill="black"/>
<path d="M192.149 145.115L149.839 169.698L149.785 243.619L192.37 268.208L234.674 243.619L234.734 169.698L192.149 145.115Z" fill="#92E3A9"/>
<path opacity="0.2" d="M234.734 169.698L192.149 145.115L149.839 169.698L192.424 194.287L234.734 169.698Z" fill="white"/>
<path opacity="0.3" d="M192.424 194.287L192.37 268.208L234.674 243.619L234.734 169.698L192.424 194.287Z" fill="black"/>
<path d="M245.093 137.893L202.789 162.482L202.729 274.318L245.314 298.907L287.624 274.318L287.678 162.482L245.093 137.893Z" fill="#92E3A9"/>
<path opacity="0.2" d="M287.678 162.482L245.093 137.893L202.789 162.482L245.374 187.071L287.678 162.482Z" fill="white"/>
<path opacity="0.3" d="M245.374 187.071L245.314 298.907L287.624 274.318L287.678 162.482L245.374 187.071Z" fill="black"/>
<path d="M167.741 167.373L164.82 165.416L142.777 210.159L145.671 212.115L158.616 204.645C158.053 225.676 152.217 236.222 146.556 242.279L145.651 242.506L145.122 242.627L144.063 242.855L143.588 242.955L142.777 243.103L142.181 243.203L141.323 243.337L140.754 243.424C140.439 243.471 140.084 243.505 139.795 243.545L139.293 243.612L137.953 243.746H137.812C137.323 243.793 136.827 243.826 136.332 243.86C135.702 243.907 135.065 243.934 134.422 243.96H133.846H132.446H131.876C131.106 243.96 130.328 243.96 129.551 243.92H129.149C128.426 243.92 127.702 243.853 126.972 243.806H126.603C125.86 243.753 125.116 243.692 124.365 243.612L123.829 243.558C123.159 243.485 122.489 243.411 121.819 243.324L121.424 243.27C120.694 243.17 119.963 243.063 119.226 242.942L118.697 242.848C118.094 242.748 117.498 242.64 116.895 242.527L116.332 242.419C115.615 242.279 114.892 242.125 114.161 241.964L113.833 241.89C113.21 241.749 112.58 241.595 111.95 241.441L111.28 241.28L109.599 240.838L109.083 240.697C108.366 240.496 107.642 240.289 106.919 240.068L106.416 239.914C105.862 239.748 105.306 239.574 104.748 239.391L104.078 239.163L102.45 238.607L101.88 238.413C101.166 238.158 100.449 237.897 99.7295 237.629L99.3409 237.475C98.7446 237.254 98.1483 237.019 97.552 236.805L96.882 236.523L95.341 235.887L94.671 235.599L92.661 234.734L92.4734 234.654C91.7498 234.326 91.0195 233.984 90.2959 233.649L89.6259 233.348C89.1033 233.1 88.574 232.845 88.0514 232.584L87.3278 232.229C86.7717 231.954 86.2223 231.673 85.6662 231.384L85.1101 231.103L82.9192 229.937C82.5172 229.73 82.1219 229.508 81.7266 229.267C81.5189 229.153 81.3112 229.046 81.1102 228.926L79.3347 227.927L79.2811 227.894L61.1777 238.466V241.408C81.7467 253.247 101.894 258.881 119.468 257.715C127.823 257.166 134.951 255.123 140.754 251.639C140.613 251.726 140.472 251.819 140.325 251.9L158.482 241.347C160.094 240.413 161.626 239.349 163.065 238.165C163.259 238.011 163.46 237.843 163.654 237.676L163.828 237.528L164.291 237.12L164.451 236.979L165.061 236.423L165.162 236.322L165.678 235.833L165.865 235.652L166.374 235.136L166.495 235.009C166.703 234.795 166.91 234.58 167.118 234.339C167.165 234.279 167.219 234.225 167.272 234.165C167.433 233.991 167.594 233.81 167.755 233.622L167.935 233.408C168.136 233.18 168.331 232.946 168.525 232.704L168.565 232.657C168.773 232.403 168.981 232.142 169.182 231.874C169.242 231.793 169.302 231.719 169.356 231.639C169.517 231.431 169.671 231.217 169.832 231.003L169.999 230.768L170.602 229.884C170.633 229.843 170.662 229.8 170.689 229.756L171.071 229.173L171.185 228.986L171.473 228.51C171.594 228.316 171.714 228.122 171.828 227.921L172.116 227.418L172.458 226.802L172.746 226.266C172.853 226.051 172.967 225.837 173.074 225.596L173.356 225.04C173.403 224.932 173.45 224.839 173.503 224.738C173.557 224.638 173.671 224.376 173.751 224.189L173.872 223.934C174.046 223.545 174.22 223.143 174.394 222.735C174.428 222.648 174.468 222.547 174.508 222.46C174.642 222.118 174.783 221.79 174.917 221.428L175.044 221.087C175.044 221.006 175.104 220.932 175.138 220.859L175.279 220.45C175.413 220.082 175.54 219.713 175.667 219.338C175.741 219.123 175.815 218.902 175.882 218.668C176.002 218.293 176.123 217.917 176.237 217.529C176.277 217.388 176.324 217.261 176.364 217.12C176.404 216.979 176.418 216.912 176.451 216.812C176.538 216.504 176.625 216.182 176.712 215.861C176.8 215.539 176.853 215.325 176.927 215.05C177.001 214.775 177.088 214.38 177.168 214.045C177.222 213.844 177.269 213.65 177.315 213.442C177.315 213.361 177.356 213.268 177.369 213.187C177.436 212.892 177.496 212.598 177.563 212.303L177.764 211.325C177.825 211.016 177.878 210.708 177.932 210.4C177.986 210.092 178.026 209.938 178.066 209.73C178.066 209.616 178.099 209.502 178.12 209.388L178.26 208.517C178.32 208.149 178.374 207.774 178.428 207.392C178.481 207.01 178.515 206.789 178.555 206.481C178.555 206.273 178.615 206.072 178.642 205.857L178.702 205.301C178.736 205 178.776 204.705 178.803 204.397C178.85 203.988 178.89 203.566 178.93 203.151C178.964 202.842 178.99 202.534 179.017 202.219L179.057 201.791C179.057 201.489 179.104 201.174 179.125 200.866C179.145 200.558 179.171 200.276 179.185 199.975C179.185 199.472 179.245 198.956 179.272 198.441C179.272 198.173 179.272 197.911 179.312 197.643C179.312 197.59 179.312 197.536 179.312 197.482C179.312 196.812 179.359 196.096 179.379 195.392V195.225C179.379 194.454 179.379 193.663 179.379 192.866C179.379 192.786 179.379 192.712 179.379 192.632L189.932 186.541L167.741 167.373Z" fill="#455A64"/>
<path d="M167.741 167.373L145.698 212.115L142.804 210.159L164.82 165.416L167.741 167.373ZM141.792 250.975C142.187 250.721 142.569 250.459 142.951 250.185L143.407 249.863C143.909 249.495 144.405 249.119 144.887 248.724L145.47 248.228L145.645 248.081L146.033 247.746L146.107 247.679L146.268 247.538C146.469 247.357 146.676 247.17 146.877 246.975L146.985 246.875L147.145 246.727L147.5 246.386L147.681 246.205C147.722 246.165 147.762 246.118 147.809 246.078L148.191 245.696L148.311 245.568L148.733 245.119L148.934 244.905L149.088 244.738L149.571 244.188L149.758 243.974L149.946 243.753L150.348 243.27C150.351 243.255 150.351 243.239 150.348 243.223C150.408 243.156 150.462 243.083 150.515 243.016C150.67 242.828 150.817 242.634 150.971 242.439L151.145 242.212L151.5 241.723L151.614 241.568L151.782 241.334L152.123 240.838L152.391 240.456C152.416 240.409 152.446 240.364 152.479 240.322L152.7 239.967C152.793 239.833 152.881 239.692 152.968 239.552C153.055 239.411 153.162 239.237 153.262 239.076C153.363 238.915 153.497 238.687 153.611 238.486C153.725 238.285 153.805 238.151 153.906 237.984L154.127 237.582L154.247 237.368L154.529 236.832C154.602 236.698 154.669 236.557 154.743 236.416L154.864 236.182C154.958 236.001 155.045 235.813 155.138 235.626L155.185 235.525L155.54 234.781C155.581 234.694 155.614 234.607 155.654 234.527C155.768 234.279 155.875 234.018 155.989 233.763C156.05 233.616 156.117 233.475 156.177 233.327C156.237 233.18 156.257 233.133 156.291 233.039C156.432 232.704 156.566 232.369 156.7 232.021C156.746 231.9 156.787 231.786 156.834 231.673C156.88 231.559 156.934 231.398 156.988 231.257L157.068 231.036C157.195 230.668 157.329 230.299 157.45 229.924C157.51 229.763 157.564 229.589 157.617 229.421L157.671 229.267C157.792 228.892 157.906 228.517 158.026 228.128V228.081C158.093 227.86 158.16 227.639 158.22 227.411C158.281 227.184 158.395 226.782 158.482 226.46C158.482 226.46 158.482 226.406 158.482 226.373C158.542 226.132 158.609 225.897 158.669 225.649C158.756 225.321 158.837 224.979 158.917 224.644L159.118 223.787C159.185 223.499 159.246 223.197 159.306 222.902C159.346 222.721 159.38 222.54 159.42 222.36C159.46 222.179 159.48 222.071 159.507 221.924C159.567 221.616 159.627 221.308 159.681 220.999C159.735 220.711 159.788 220.423 159.835 220.128C159.835 220.075 159.835 220.021 159.835 219.961C159.889 219.673 159.936 219.385 159.976 219.09C160.036 218.721 160.096 218.346 160.15 217.971L160.271 217.053C160.324 216.665 160.378 216.269 160.425 215.874L160.525 214.976C160.572 214.561 160.612 214.145 160.653 213.723C160.653 213.415 160.713 213.107 160.74 212.799C160.773 212.35 160.813 211.894 160.84 211.459C160.84 211.164 160.887 210.869 160.907 210.568C160.941 210.065 160.967 209.549 160.994 209.033C160.994 208.765 160.994 208.511 161.034 208.236C161.068 207.499 161.088 206.742 161.108 205.978C161.108 205.924 161.108 205.871 161.108 205.817C161.108 204.96 161.108 204.075 161.108 203.177L158.515 204.672C157.952 225.703 152.117 236.249 146.455 242.305C145.306 243.528 144.08 244.676 142.784 245.743C141.313 246.946 139.744 248.024 138.094 248.965C137.799 249.133 137.497 249.294 137.196 249.454L136.613 249.763C136.291 249.93 135.943 250.084 135.628 250.238L135.079 250.5C134.67 250.687 134.248 250.861 133.826 251.036L133.665 251.103C133.069 251.344 132.472 251.572 131.863 251.773C131.541 251.886 131.193 251.987 130.884 252.094L130.315 252.282C129.906 252.409 129.484 252.53 129.062 252.644L128.432 252.811C128.084 252.905 127.722 252.999 127.36 253.079L126.623 253.247C126.226 253.34 125.824 253.427 125.417 253.508L125.102 253.561L123.803 253.796L123.24 253.883L122.128 254.037L121.511 254.118L120.365 254.245L119.796 254.305C119.233 254.359 118.664 254.406 118.087 254.439C117.511 254.473 116.781 254.513 116.124 254.54H115.595C115.133 254.54 114.67 254.54 114.201 254.54H113.625C112.855 254.54 112.084 254.54 111.3 254.499H111.186C110.369 254.499 109.552 254.426 108.734 254.372H108.372C107.609 254.319 106.838 254.252 106.068 254.171H105.947C105.183 254.091 104.413 254.004 103.636 253.903L103.24 253.85C102.369 253.729 101.498 253.595 100.621 253.448H100.513L98.711 253.126L98.1549 253.019C97.4313 252.878 96.7077 252.724 95.9841 252.563L95.6558 252.489C95.026 252.349 94.3962 252.201 93.7664 252.041L93.0964 251.88C92.5403 251.739 91.9775 251.592 91.4214 251.438H91.3678C90.4968 251.196 89.6191 250.948 88.7414 250.687L88.2322 250.526C87.5622 250.325 86.8922 250.118 86.2222 249.903C85.5522 249.689 84.8822 249.468 84.2122 249.233L83.6427 249.039C82.9057 248.778 82.162 248.503 81.425 248.228L81.0967 248.101L79.3145 247.431L78.6445 247.15C77.9745 246.875 77.3045 246.587 76.5943 246.299L76.5206 246.265C75.8506 245.977 75.1404 245.676 74.4503 245.367L74.3699 245.22C73.6463 244.892 72.9227 244.55 72.1991 244.222L71.5291 243.913C71.0065 243.668 70.4839 243.413 69.9613 243.15L69.231 242.795C68.6213 242.493 68.0116 242.178 67.4019 241.863L67.0133 241.669C66.283 241.287 65.5527 240.905 64.8224 240.51L63.6164 239.84L63.0201 239.512C62.4104 239.17 61.794 238.842 61.1843 238.473V241.414C81.7533 253.253 101.9 258.888 119.474 257.722C127.829 257.173 134.958 255.129 140.76 251.645C140.941 251.545 141.115 251.438 141.29 251.324C141.464 251.21 141.618 251.089 141.792 250.975Z" fill="#37474F"/>
<path opacity="0.2" d="M63.6098 239.86L64.8158 240.53C65.5461 240.925 66.2764 241.307 67.0067 241.689L67.3953 241.883C68.005 242.198 68.6147 242.513 69.2244 242.815L69.9547 243.17C70.4773 243.429 70.9999 243.683 71.5225 243.934L72.1925 244.242C72.9161 244.583 73.6397 244.912 74.3633 245.24L74.5442 245.32C75.2142 245.629 75.9244 245.93 76.6145 246.218L76.6882 246.252C77.3582 246.54 78.0282 246.828 78.7384 247.103L79.4084 247.384L81.1906 248.054L81.5189 248.181C82.2559 248.456 82.9996 248.731 83.7366 248.992L84.3061 249.186C84.9761 249.421 85.6461 249.642 86.3161 249.856C86.9861 250.071 87.6561 250.278 88.3261 250.479L88.8353 250.64C89.713 250.902 90.5907 251.149 91.4617 251.391H91.5153C92.0714 251.545 92.6342 251.692 93.1903 251.833L93.8603 251.994C94.4901 252.154 95.1199 252.302 95.7497 252.443L96.078 252.516C96.8016 252.677 97.5252 252.831 98.2488 252.972L98.8049 253.079L100.607 253.401H100.714C101.592 253.548 102.463 253.682 103.334 253.803L103.729 253.856C104.507 253.957 105.277 254.044 106.041 254.124H106.162C106.932 254.205 107.703 254.272 108.466 254.325H108.828C109.646 254.379 110.463 254.426 111.28 254.453H111.394C112.178 254.453 112.949 254.493 113.719 254.493H114.295C114.764 254.493 115.227 254.493 115.689 254.493H116.218C116.888 254.493 117.558 254.439 118.181 254.392C118.804 254.345 119.327 254.312 119.89 254.258L120.459 254.198L121.605 254.071L122.221 253.99L123.334 253.836L123.896 253.749L125.196 253.515L125.511 253.461C125.918 253.381 126.32 253.293 126.717 253.2L127.454 253.032C127.816 252.952 128.178 252.858 128.526 252.764L129.156 252.597C129.578 252.483 130 252.362 130.409 252.235L130.978 252.047C131.307 251.94 131.648 251.84 131.957 251.726C132.566 251.511 133.163 251.283 133.759 251.056L133.92 250.989C134.342 250.814 134.764 250.64 135.173 250.453L135.722 250.191C136.05 250.037 136.392 249.883 136.707 249.716L137.29 249.407C137.591 249.247 137.893 249.086 138.188 248.918C139.838 247.977 141.407 246.899 142.878 245.696C144.173 244.629 145.4 243.481 146.549 242.259L145.645 242.486L145.115 242.607L144.057 242.835L143.581 242.935L142.77 243.083L142.174 243.183L141.316 243.317L140.747 243.404C140.432 243.451 140.077 243.485 139.789 243.525L139.286 243.592L137.946 243.726H137.806C137.317 243.773 136.821 243.806 136.325 243.84C135.695 243.887 135.059 243.913 134.415 243.94H133.839H132.439H131.869C131.099 243.94 130.322 243.94 129.545 243.9H129.143C128.419 243.9 127.695 243.833 126.965 243.786H126.597C125.853 243.733 125.109 243.672 124.359 243.592L123.823 243.538C123.153 243.465 122.483 243.391 121.813 243.304L121.417 243.25C120.687 243.15 119.957 243.042 119.22 242.922L118.691 242.828C118.088 242.728 117.491 242.62 116.888 242.506L116.325 242.399C115.609 242.259 114.885 242.104 114.155 241.944L113.826 241.87C113.203 241.729 112.573 241.575 111.944 241.421L111.274 241.26L109.592 240.818L109.076 240.677C108.359 240.476 107.636 240.269 106.912 240.048L106.409 239.893C105.856 239.728 105.299 239.554 104.741 239.371L104.071 239.143L102.443 238.587L101.874 238.393C101.159 238.138 100.442 237.877 99.7228 237.609L99.3342 237.455C98.7379 237.234 98.1416 236.999 97.5453 236.785L96.8753 236.503L95.3343 235.867L94.6643 235.579L92.6543 234.714L92.4667 234.634C91.7431 234.306 91.0128 233.964 90.2892 233.629L89.6192 233.327C89.0966 233.08 88.5673 232.825 88.0447 232.564L87.3211 232.209C86.765 231.934 86.2156 231.652 85.6595 231.364L85.1034 231.083L82.9125 229.917C82.5105 229.709 82.1152 229.488 81.7199 229.247C81.5122 229.133 81.3045 229.026 81.1035 228.905L79.328 227.907L79.2744 227.874L61.1777 238.466C61.7874 238.821 62.4038 239.136 63.0135 239.505L63.6098 239.86Z" fill="white"/>
<path d="M48.1395 53.1913C51.1143 51.4761 53.6268 52.3203 54.4308 54.9869C55.1425 53.5223 56.2465 52.2838 57.62 51.4091C59.9516 50.0691 61.8477 51.1478 61.8544 53.8211V55.0539L64.99 53.2449C66.6248 52.3069 67.9514 53.064 67.9581 54.94C67.9029 55.962 67.6071 56.9565 67.0948 57.8425C66.5825 58.7285 65.8682 59.481 65.0101 60.0387L38.525 75.3415C36.8902 76.2795 35.5636 75.5291 35.5569 73.6531C35.61 72.6297 35.9048 71.6335 36.4173 70.7461C36.9297 69.8587 37.6451 69.1053 38.5049 68.5477L41.6338 66.7387V64.4808C41.6137 60.3335 44.5349 55.2817 48.1395 53.1913Z" fill="#E6E6E6"/>
<path d="M74.1087 63.2145C76.246 61.9884 78.0483 62.5914 78.6245 64.5076C79.1386 63.4524 79.9367 62.5614 80.9293 61.9348C82.5976 60.97 83.9644 61.7472 83.9644 63.6701V64.5545L86.2089 63.2547C87.3814 62.5847 88.3328 63.1207 88.3328 64.4674C88.2958 65.2016 88.0852 65.9166 87.7183 66.5537C87.3514 67.1908 86.8387 67.7318 86.2223 68.1323L67.201 79.1136C66.0285 79.7836 65.0771 79.2476 65.0704 77.9009C65.1113 77.1668 65.3243 76.4527 65.6921 75.816C66.0598 75.1794 66.5721 74.6382 67.1876 74.236L69.4321 72.9429V71.3148C69.5179 69.6916 69.9864 68.1116 70.7991 66.7039C71.6118 65.2962 72.7459 64.1005 74.1087 63.2145V63.2145Z" fill="#E6E6E6"/>
<path d="M290.411 59.9985C288.274 58.7657 286.472 59.3687 285.896 61.2849C285.381 60.2315 284.583 59.3428 283.591 58.7188C281.923 57.754 280.556 58.5312 280.556 60.4541V61.3318L278.311 60.0387C277.139 59.3687 276.187 59.9047 276.187 61.2514C276.224 61.9856 276.435 62.7006 276.802 63.3377C277.169 63.9748 277.681 64.5158 278.298 64.9163L297.319 75.8976C298.492 76.5676 299.443 76.0316 299.45 74.6849C299.409 73.9508 299.196 73.2367 298.828 72.6C298.46 71.9634 297.948 71.4222 297.333 71.02L295.088 69.7202V68.0988C295 66.4761 294.531 64.8969 293.718 63.4895C292.906 62.0821 291.773 60.8861 290.411 59.9985V59.9985Z" fill="#E6E6E6"/>
<path d="M172.572 40.8699C172.573 40.7785 172.549 40.6886 172.503 40.6096C172.457 40.5306 172.39 40.4655 172.311 40.421V40.421L169.992 39.1279C169.916 39.0838 169.829 39.0606 169.741 39.0606C169.653 39.0606 169.566 39.0838 169.49 39.1279L153.591 48.3069C153.298 48.4663 153.063 48.7151 152.921 49.0171C152.833 49.2178 152.787 49.4345 152.787 49.6536V55.563L147.279 61.258C146.79 61.7672 146.737 62.5377 147.119 62.6583L149.316 63.8643C149.352 63.9052 149.399 63.9359 149.45 63.9536C149.502 63.9712 149.557 63.975 149.611 63.9648L152.807 63.5762V67.9178C152.807 68.0074 152.83 68.0955 152.875 68.1731C152.92 68.2507 152.984 68.3152 153.061 68.36V68.36L155.373 69.6397H155.406C155.479 69.6773 155.559 69.6969 155.641 69.6969C155.723 69.6969 155.803 69.6773 155.875 69.6397L171.775 60.454C172.01 60.3186 172.206 60.1235 172.343 59.8882C172.479 59.653 172.551 59.386 172.552 59.114L172.572 40.8699ZM155.534 49.8881L155.48 49.9484L155.534 49.8881ZM155.38 50.0824C155.383 50.1001 155.383 50.1183 155.38 50.136C155.383 50.1183 155.383 50.1001 155.38 50.0824ZM155.159 50.605C155.161 50.6273 155.161 50.6497 155.159 50.672C155.161 50.6497 155.161 50.6273 155.159 50.605V50.605ZM155.648 49.7742L155.701 49.7273L155.648 49.7742Z" fill="#92E3A9"/>
<path opacity="0.1" d="M155.172 69.2043C155.172 69.2921 155.195 69.3784 155.239 69.4547C155.282 69.531 155.345 69.5948 155.42 69.6398L153.108 68.34C153.031 68.2952 152.966 68.2307 152.922 68.1531C152.877 68.0755 152.854 67.9874 152.854 67.8978V63.5562L155.179 63.2748L155.172 69.2043Z" fill="black"/>
<path opacity="0.2" d="M153.571 48.3003L169.47 39.1213C169.546 39.0772 169.633 39.054 169.721 39.054C169.809 39.054 169.896 39.0772 169.972 39.1213V39.1213L172.29 40.4144C172.212 40.3685 172.123 40.3442 172.033 40.3442C171.942 40.3442 171.853 40.3685 171.775 40.4144L155.896 49.58C155.595 49.749 155.36 50.0129 155.226 50.3304L152.914 48.9904C153.056 48.6978 153.286 48.4567 153.571 48.3003Z" fill="white"/>
<path opacity="0.1" d="M152.814 55.5564V49.647C152.814 49.4279 152.86 49.2112 152.948 49.0105L155.259 50.3505C155.181 50.5394 155.142 50.7423 155.145 50.9468V56.8629L152.82 55.5631L152.814 55.5564Z" fill="black"/>
<path opacity="0.05" d="M147.306 61.2514L152.814 55.5564L155.139 56.8562L149.638 62.5445C149.209 62.98 149.115 63.6165 149.343 63.8845L147.145 62.6785C146.763 62.5311 146.817 61.7606 147.306 61.2514Z" fill="white"/>
<path d="M164.612 48.7559C164.663 48.7163 164.725 48.6947 164.79 48.6947C164.854 48.6947 164.917 48.7163 164.967 48.7559L168.083 51.7374C168.304 51.9451 168.083 52.5481 167.734 52.7558L166.013 53.7474L166.053 60.8293L163.292 62.4239L163.252 55.342L161.53 56.3336C161.169 56.548 160.961 56.1862 161.175 55.7306L164.257 49.1646C164.335 48.9981 164.458 48.8566 164.612 48.7559V48.7559Z" fill="white"/>
<path opacity="0.1" d="M162.569 162.348C161.517 159.889 159.326 157.557 156.003 155.648C146.321 150.053 130.677 150.053 121.056 155.648C111.434 161.242 111.488 170.301 121.17 175.888C128.942 180.377 140.559 181.248 149.812 178.535V169.892L162.569 162.348Z" fill="black"/>
<path d="M104.366 100.306L115.655 91.4885L116.754 93.4717L105.297 102.456L104.366 100.306Z" fill="#263238"/>
<path d="M125.123 108.238L131.461 107.662C130.657 111.682 129.243 117.257 129.243 117.257L123.401 113.505L125.123 108.238Z" fill="#455A64"/>
<path d="M90.3562 134.174C90.3493 132.723 90.8202 131.311 91.6962 130.154C92.3936 129.357 93.1316 128.597 93.9072 127.876C94.4621 127.342 94.8843 126.686 95.14 125.96C95.3855 125.125 95.7512 124.331 96.2254 123.602C96.7533 122.759 97.5821 122.148 98.5436 121.893C98.7318 121.848 98.9271 121.843 99.1174 121.878C99.3077 121.912 99.4887 121.986 99.6491 122.094L99.4615 121.86C99.2946 121.649 99.0707 121.491 98.8165 121.404C98.5622 121.318 98.2884 121.306 98.0277 121.371C97.0431 121.626 96.1956 122.253 95.6626 123.119C95.172 123.857 94.7969 124.666 94.5504 125.518C94.2974 126.279 93.8655 126.968 93.2908 127.528C92.5 128.263 91.7486 129.039 91.0396 129.853C90.1433 131.029 89.6584 132.467 89.6594 133.946C89.6355 134.251 89.673 134.558 89.7696 134.848C89.8663 135.138 90.0202 135.405 90.2222 135.635C90.4593 135.845 90.7574 135.974 91.0731 136.003C91.0107 135.965 90.9523 135.92 90.8989 135.869C90.697 135.639 90.5446 135.37 90.4512 135.078C90.3578 134.787 90.3255 134.479 90.3562 134.174V134.174Z" fill="black"/>
<path d="M99.9573 122.335C99.8714 122.229 99.7698 122.136 99.6558 122.061C99.4954 121.953 99.3144 121.879 99.1241 121.844C98.9338 121.81 98.7385 121.815 98.5503 121.86C97.5888 122.114 96.7601 122.725 96.2321 123.568C95.7526 124.307 95.3846 125.113 95.14 125.96C94.8909 126.703 94.4683 127.376 93.9072 127.923C93.1316 128.644 92.3936 129.404 91.6962 130.201C90.8202 131.358 90.3493 132.77 90.3562 134.221C90.332 134.52 90.3682 134.82 90.4625 135.104C90.5569 135.389 90.7076 135.651 90.9056 135.876C90.959 135.926 91.0174 135.971 91.0798 136.01C91.3026 136.143 91.5524 136.225 91.8109 136.25C92.0694 136.274 92.3301 136.24 92.5739 136.151C93.1311 135.933 93.6178 135.567 93.9809 135.092C94.3628 134.643 94.6509 134.141 95.0596 133.685C95.7123 132.96 96.4425 132.308 97.2371 131.742L99.3878 130.094L100.366 122.925C100.366 122.925 100.185 122.61 99.9573 122.335Z" fill="#263238"/>
<path d="M115.294 121.129L114.965 129.98C110.945 125.906 100.48 122.108 100.48 122.108C96.5135 125.029 97.3979 128.385 98.8853 129.98C107.086 134.442 116.453 140.445 118.597 139.95C120.741 139.454 123.581 136.198 125.665 130.06L121.645 123.159L115.294 121.129Z" fill="#37474F"/>
<path d="M143.675 168.652C143.588 168.833 143.465 168.995 143.314 169.127C143.164 169.259 142.988 169.36 142.797 169.423C142.418 169.549 142.023 169.619 141.625 169.631C140.762 169.721 139.891 169.708 139.032 169.59C138.17 169.476 137.356 169.126 136.68 168.579C136.098 168.011 135.594 167.369 135.179 166.669C134.071 165.047 132.695 163.625 131.112 162.462C131.154 162.751 131.212 163.037 131.287 163.319C132.809 164.445 134.126 165.825 135.179 167.4C135.595 168.1 136.1 168.744 136.68 169.316C137.358 169.86 138.171 170.21 139.032 170.327C139.892 170.438 140.762 170.451 141.625 170.368C142.024 170.353 142.419 170.281 142.797 170.153C142.988 170.09 143.164 169.99 143.314 169.857C143.465 169.725 143.588 169.564 143.675 169.383C143.787 169.11 143.804 168.808 143.722 168.525C143.709 168.569 143.693 168.611 143.675 168.652V168.652Z" fill="#263238"/>
<path d="M143.32 167.038C142.922 166.623 142.472 166.262 141.98 165.966C139.797 164.477 138.168 162.307 137.35 159.795L131.199 160.143C130.927 160.888 130.896 161.699 131.112 162.462C132.695 163.625 134.071 165.047 135.179 166.669C135.594 167.369 136.098 168.01 136.68 168.579C137.356 169.126 138.17 169.476 139.032 169.59C139.891 169.708 140.762 169.721 141.625 169.631C142.023 169.619 142.418 169.549 142.797 169.423C142.988 169.36 143.164 169.259 143.314 169.127C143.465 168.995 143.588 168.833 143.675 168.652C143.693 168.611 143.709 168.569 143.722 168.525C143.78 168.263 143.774 167.991 143.704 167.732C143.634 167.473 143.502 167.235 143.32 167.038V167.038Z" fill="#37474F"/>
<path d="M111.052 107.033C109.712 113.531 110.228 116.412 115.294 121.102C120.359 125.792 128.694 132.492 128.694 132.492C126.684 139.105 129.685 147.809 129.799 151.165C129.913 154.522 130.737 160.197 130.737 160.197C135.36 162.676 137.839 160.197 137.839 160.197V131.045C137.841 128.488 136.915 126.017 135.233 124.091L125.123 112.56V108.259L111.052 107.033Z" fill="#455A64"/>
<path d="M146.69 89.8872C147.566 90.1787 148.501 90.2455 149.41 90.0815C149.41 88.3261 149.41 86.363 149.551 83.8103C149.879 78.3029 148.392 75.2678 147.165 74.169C145.939 73.0702 143.815 73.0501 143.032 73.7469C142.248 74.4437 144.171 76.9763 144.445 79.1806C143.346 77.8942 142.79 77.4587 141.765 78.2426C142.37 78.9454 142.826 79.7637 143.105 80.6479C143.326 81.7534 144.506 82.5239 144.834 83.4351C145.088 84.1453 144.834 86.4166 144.412 88.3663C145.03 89.0581 145.814 89.5815 146.69 89.8872Z" fill="#F28F8F"/>
<path opacity="0.2" d="M146.69 89.8872C147.566 90.1787 148.501 90.2455 149.41 90.0815C149.41 88.3261 149.41 86.363 149.551 83.8103C149.879 78.3029 148.392 75.2678 147.165 74.169C145.939 73.0702 143.815 73.0501 143.032 73.7469C142.248 74.4437 144.171 76.9763 144.445 79.1806C143.346 77.8942 142.79 77.4587 141.765 78.2426C142.37 78.9454 142.826 79.7637 143.105 80.6479C143.326 81.7534 144.506 82.5239 144.834 83.4351C145.088 84.1453 144.834 86.4166 144.412 88.3663C145.03 89.0581 145.814 89.5815 146.69 89.8872Z" fill="black"/>
<path d="M146.69 89.8872C145.807 89.5845 145.016 89.061 144.392 88.3663C144.271 88.9492 144.137 89.5053 144.003 89.9743C144.003 89.9743 139.749 84.1386 138.791 83.0331C137.832 81.9276 136.955 79.2945 132.76 78.8054L133.263 89.0966C133.263 89.0966 141.712 98.7111 144.606 100.333C147.501 101.954 148.465 99.8501 149.055 95.9574C149.318 94.0104 149.43 92.0459 149.39 90.0815C148.488 90.2421 147.56 90.1753 146.69 89.8872V89.8872Z" fill="#455A64"/>
<path opacity="0.3" d="M143.38 96.2053C142.71 93.8134 143.708 90.8453 144.05 89.9743L143.326 88.9827C142.797 90.1146 142.527 91.3505 142.536 92.6001C142.545 93.8497 142.834 95.0814 143.38 96.2053V96.2053Z" fill="black"/>
<path d="M120.305 78.5843C117.88 78.256 115.294 78.6647 112.647 79.1069C112.16 84.8608 112.16 90.6457 112.647 96.3996L110.55 107.635C118.758 112.593 129.223 110.389 131.32 108.975C134.623 96.0914 135.447 83.9175 132.781 78.8255L126.255 77.72L120.305 78.5843Z" fill="#37474F"/>
<path d="M125.538 83.5959L123.622 82.075C124.225 81.7819 124.853 81.542 125.498 81.3581L126.255 81.7333L125.538 83.5959Z" fill="#92E3A9"/>
<path d="M127.595 83.4351L128.017 83.1738L128.727 81.6328L127.903 81.3581L127.414 81.7333L127.595 83.4351Z" fill="#92E3A9"/>
<path d="M126.054 84.6545C124.607 90.4031 117.866 94.1484 112.312 93.7464C111.524 93.6732 110.735 93.877 110.081 94.3226C109.264 94.9115 108.54 95.6182 107.93 96.4197C107.851 96.527 107.796 96.6508 107.772 96.782C107.747 96.9133 107.752 97.0484 107.787 97.1773C107.821 97.3063 107.885 97.4257 107.973 97.5265C108.06 97.6274 108.169 97.7071 108.292 97.7597C109.522 98.2527 110.79 98.6427 112.084 98.9255C113.436 99.2389 114.845 99.202 116.178 98.8183C126.275 95.8971 127.675 89.4383 127.4 84.6478L126.054 84.6545Z" fill="#92E3A9"/>
<path opacity="0.3" d="M127.414 84.9091C127.414 84.822 127.414 84.7349 127.414 84.6545H126.074C126.074 84.6545 126.074 84.7081 126.074 84.7349C126.265 84.8939 126.497 84.994 126.744 85.023C126.973 85.0432 127.204 85.004 127.414 84.9091Z" fill="black"/>
<path d="M126.255 81.74C126.639 81.6798 127.03 81.6798 127.414 81.74C127.742 82.1567 127.95 82.6546 128.017 83.1805C127.918 83.7119 127.708 84.2164 127.4 84.6612C127.052 84.9225 126.06 84.6612 126.06 84.6612C125.805 84.3229 125.58 83.9618 125.39 83.5825C125.333 83.4647 125.302 83.3352 125.302 83.204C125.302 83.0727 125.333 82.9432 125.39 82.8254C125.596 82.405 125.891 82.0346 126.255 81.74V81.74Z" fill="#92E3A9"/>
<path opacity="0.3" d="M129.906 110.979C128.876 112.232 127.431 113.073 125.833 113.351L129.243 117.25C128.885 116.014 128.309 114.852 127.541 113.82C128.621 113.159 129.452 112.16 129.906 110.979V110.979Z" fill="black"/>
<path d="M126.777 81.5591C128.332 81.1437 129.323 82.8991 129.323 82.8991C129.417 79.0868 127.441 77.6262 127.441 77.6262L126.777 81.5591Z" fill="#455A64"/>
<path d="M120.158 62.7254C119.488 62.2631 118.771 61.8075 118.074 61.3519C118.248 61.1407 118.467 60.971 118.715 60.8551C118.963 60.7392 119.234 60.6801 119.508 60.6819C119.82 60.7063 120.11 60.8503 120.319 61.0839C120.521 61.3246 120.625 61.6339 120.607 61.9482C120.674 60.702 121.746 59.5831 122.865 59.0404C124.017 58.5494 125.278 58.3669 126.523 58.5111C127.762 58.5915 128.995 58.8327 130.235 58.8729C131.672 58.9272 133.109 58.7253 134.476 58.2766C134.627 58.2259 134.789 58.2172 134.944 58.2515C135.1 58.2858 135.243 58.3617 135.358 58.4712C135.474 58.5806 135.558 58.7195 135.601 58.8729C135.643 59.0263 135.644 59.1884 135.601 59.3419C135.362 60.133 134.96 60.8655 134.422 61.4926C134.709 61.5744 135.008 61.6062 135.306 61.5864C135.468 61.5755 135.629 61.6093 135.772 61.6842C135.915 61.759 136.035 61.872 136.118 62.0105C136.201 62.1491 136.245 62.308 136.243 62.4696C136.242 62.6312 136.196 62.7893 136.11 62.9264C135.563 63.7279 134.792 64.3502 133.893 64.7153C130.59 69.9279 121.685 74.5844 121.685 74.5844C121.384 74.5445 121.097 74.4323 120.848 74.2573C120.6 74.0823 120.397 73.8497 120.258 73.5794C119.993 73.0315 119.823 72.4424 119.756 71.8374C119.372 69.5549 119.057 67.2613 118.811 64.9565C118.723 64.4711 118.744 63.9724 118.871 63.4959C118.941 63.2672 119.081 63.0661 119.271 62.9207C119.46 62.7753 119.691 62.693 119.93 62.6852" fill="#263238"/>
<path d="M121.022 70.7922C120.781 72.9429 120.305 76.6547 120.305 76.6547C122.181 79.1873 125.813 79.7434 126.777 81.5591C127.4 79.5421 127.807 77.4646 127.99 75.3616L121.793 70.4907L121.022 70.7922Z" fill="#F28F8F"/>
<path opacity="0.2" d="M121.022 70.7922C120.781 72.9429 120.305 76.6547 120.305 76.6547C122.181 79.1873 125.813 79.7434 126.777 81.5591C127.4 79.5421 127.807 77.4646 127.99 75.3616L121.793 70.4907L121.022 70.7922Z" fill="black"/>
<path opacity="0.3" d="M121.793 70.4907L121.632 70.551C121.554 72.2831 122.131 73.981 123.249 75.3069C124.366 76.6328 125.942 77.4895 127.662 77.7066C127.91 76.2527 127.963 75.3616 127.963 75.3616L121.793 70.4907Z" fill="black"/>
<path d="M133.893 64.7287C134.36 68.3103 133.962 71.9516 132.734 75.3482C132.576 75.7693 132.293 76.1319 131.923 76.3871C131.553 76.6423 131.113 76.7778 130.663 76.7753C125.973 76.7753 122.248 75.1673 121.598 70.9865C121.362 71.2876 121.034 71.5038 120.665 71.6029C120.295 71.702 119.903 71.6785 119.548 71.5359C118.882 71.2287 118.348 70.6942 118.041 70.0284C117.842 69.683 117.71 69.3035 117.652 68.9095C117.595 68.5108 117.693 68.1053 117.927 67.7772C118.144 67.5343 118.433 67.3661 118.752 67.2964C119.07 67.2266 119.403 67.2589 119.702 67.3886C120.31 67.662 120.79 68.1585 121.042 68.7755C121.143 69.0033 121.277 69.278 121.525 69.2847C121.772 69.2914 121.927 69.0033 122.007 68.7621C122.304 67.7791 122.433 66.753 122.389 65.727C123.132 65.8684 123.9 65.7223 124.54 65.3183C125.159 64.8929 125.591 64.245 125.746 63.5093C125.944 63.8869 126.231 64.2116 126.58 64.4563C126.93 64.7011 127.333 64.8588 127.756 64.9163C128.167 64.9724 128.586 64.9294 128.978 64.7907C129.369 64.652 129.722 64.4217 130.007 64.119C130.49 64.6124 131.12 64.9367 131.802 65.0436C132.515 65.1423 133.241 65.033 133.893 64.7287Z" fill="#F28F8F"/>
<path opacity="0.2" d="M133.893 64.7287C134.36 68.3103 133.962 71.9516 132.734 75.3482C132.576 75.7693 132.293 76.1319 131.923 76.3871C131.553 76.6423 131.113 76.7778 130.663 76.7753C125.973 76.7753 122.248 75.1673 121.598 70.9865C121.362 71.2876 121.034 71.5038 120.665 71.6029C120.295 71.702 119.903 71.6785 119.548 71.5359C118.882 71.2287 118.348 70.6942 118.041 70.0284C117.842 69.683 117.71 69.3035 117.652 68.9095C117.595 68.5108 117.693 68.1053 117.927 67.7772C118.144 67.5343 118.433 67.3661 118.752 67.2964C119.07 67.2266 119.403 67.2589 119.702 67.3886C120.31 67.662 120.79 68.1585 121.042 68.7755C121.143 69.0033 121.277 69.278 121.525 69.2847C121.772 69.2914 121.927 69.0033 122.007 68.7621C122.304 67.7791 122.433 66.753 122.389 65.727C123.132 65.8684 123.9 65.7223 124.54 65.3183C125.159 64.8929 125.591 64.245 125.746 63.5093C125.944 63.8869 126.231 64.2116 126.58 64.4563C126.93 64.7011 127.333 64.8588 127.756 64.9163C128.167 64.9724 128.586 64.9294 128.978 64.7907C129.369 64.652 129.722 64.4217 130.007 64.119C130.49 64.6124 131.12 64.9367 131.802 65.0436C132.515 65.1423 133.241 65.033 133.893 64.7287Z" fill="black"/>
<path d="M129.611 68.7889L131.762 71.5024L129.725 72.1791L129.611 68.7889Z" fill="#F28F8F"/>
<path opacity="0.3" d="M129.611 68.7889L131.762 71.5024L129.725 72.1791L129.611 68.7889Z" fill="black"/>
<path d="M127.849 73.4655L129.544 74.0216C129.433 74.2208 129.259 74.3783 129.05 74.4701C128.841 74.562 128.608 74.5833 128.385 74.5308C128.188 74.4409 128.027 74.2863 127.93 74.0926C127.832 73.8988 127.804 73.6776 127.849 73.4655V73.4655Z" fill="#F28F8F"/>
<path opacity="0.3" d="M127.849 73.4655L129.544 74.0216C129.433 74.2208 129.259 74.3783 129.05 74.4701C128.841 74.562 128.608 74.5833 128.385 74.5308C128.188 74.4409 128.027 74.2863 127.93 74.0926C127.832 73.8988 127.804 73.6776 127.849 73.4655V73.4655Z" fill="black"/>
<path d="M128.941 74.504C128.76 74.5574 128.567 74.5574 128.385 74.504C128.229 74.4399 128.095 74.3315 128 74.1922C127.905 74.0529 127.852 73.8888 127.849 73.7201C128.081 73.6868 128.318 73.7341 128.519 73.8541C128.629 73.9294 128.723 74.0255 128.795 74.137C128.868 74.2485 128.917 74.3732 128.941 74.504Z" fill="#F28F8F"/>
<path d="M126.63 69.3182C126.632 69.3977 126.649 69.476 126.682 69.5486C126.714 69.6212 126.761 69.6866 126.819 69.7409C126.877 69.7952 126.945 69.8373 127.02 69.8648C127.094 69.8924 127.174 69.9047 127.253 69.9011C127.374 69.8983 127.492 69.8595 127.591 69.7897C127.69 69.7198 127.766 69.6221 127.809 69.5089C127.852 69.3958 127.86 69.2723 127.833 69.1543C127.806 69.0363 127.744 68.9291 127.656 68.8463C127.567 68.7636 127.456 68.709 127.337 68.6897C127.217 68.6703 127.094 68.687 126.984 68.7377C126.874 68.7883 126.782 68.8706 126.719 68.9739C126.656 69.0773 126.625 69.1972 126.63 69.3182V69.3182Z" fill="#263238"/>
<path d="M131.675 68.9497C131.684 69.1096 131.754 69.2599 131.872 69.3687C131.989 69.4775 132.145 69.5363 132.305 69.5326C132.426 69.5285 132.542 69.4886 132.641 69.418C132.739 69.3474 132.813 69.2492 132.856 69.136C132.898 69.0227 132.905 68.8995 132.877 68.782C132.849 68.6644 132.787 68.5578 132.698 68.4758C132.61 68.3937 132.499 68.3398 132.379 68.321C132.26 68.3022 132.138 68.3192 132.028 68.37C131.918 68.4208 131.826 68.503 131.763 68.6062C131.701 68.7094 131.67 68.829 131.675 68.9497V68.9497Z" fill="#263238"/>
<path d="M132.184 66.5176L133.558 67.402C133.611 67.2333 133.612 67.0522 133.559 66.8833C133.506 66.7143 133.403 66.5656 133.263 66.4573C133.095 66.3667 132.906 66.3243 132.715 66.335C132.525 66.3456 132.341 66.4088 132.184 66.5176Z" fill="#263238"/>
<path d="M126.998 66.6248L125.658 67.5963C125.595 67.4318 125.584 67.2518 125.626 67.0805C125.668 66.9093 125.761 66.7549 125.893 66.6382C126.056 66.529 126.247 66.4695 126.444 66.4671C126.64 66.4648 126.833 66.5195 126.998 66.6248V66.6248Z" fill="#263238"/>
<path d="M120.305 76.6547L120.426 75.7033C120.346 75.6928 120.265 75.6928 120.185 75.7033C119.515 76.0584 118.288 77.9947 118.288 77.9947C118.724 79.0265 120.821 82.2358 122.469 83.3547C124.379 82.3966 125.759 81.0566 126.777 81.5457C126.382 79.328 120.305 76.6547 120.305 76.6547Z" fill="#455A64"/>
<path d="M116.58 111.944C121.169 105.512 131.266 90.6175 130.65 78.4436L132.734 78.792C133.598 90.7783 124.097 106.409 117.484 114.516L116.58 111.944Z" fill="#263238"/>
<path d="M115.16 117.049L101.17 105.244L98.6977 113.954C98.6836 114.009 98.6829 114.067 98.6958 114.123C98.7086 114.179 98.7345 114.231 98.7714 114.275L98.8183 114.315L112.634 126.67C112.587 126.624 112.554 126.566 112.538 126.502C112.521 126.438 112.522 126.372 112.54 126.308L115.16 117.049Z" fill="#92E3A9"/>
<path opacity="0.15" d="M115.16 117.049L101.17 105.244L98.6977 113.954C98.6836 114.009 98.6829 114.067 98.6958 114.123C98.7086 114.179 98.7345 114.231 98.7714 114.275L98.8183 114.315L112.634 126.67C112.587 126.624 112.554 126.566 112.538 126.502C112.521 126.438 112.522 126.372 112.54 126.308L115.16 117.049Z" fill="black"/>
<path d="M114.557 119.18L116.754 111.421L114.557 119.18Z" fill="#92E3A9"/>
<path d="M118.262 110.61L118.255 110.604L118.262 110.617V110.61Z" fill="#92E3A9"/>
<path d="M112.627 126.717H112.634L112.62 126.71L112.627 126.717Z" fill="#92E3A9"/>
<path d="M118.402 111.026C118.412 110.951 118.404 110.876 118.38 110.805C118.355 110.734 118.315 110.67 118.262 110.617V110.617C118.206 110.565 118.139 110.526 118.066 110.504C117.992 110.482 117.915 110.477 117.84 110.49V110.49C117.59 110.532 117.357 110.645 117.168 110.814C116.98 110.984 116.843 111.204 116.774 111.448L114.57 119.18L112.56 126.349C112.542 126.412 112.541 126.479 112.558 126.542C112.574 126.606 112.607 126.664 112.654 126.71V126.71C112.7 126.756 112.757 126.788 112.819 126.803C112.882 126.819 112.947 126.817 113.009 126.797L115.749 125.967C115.955 125.906 116.138 125.787 116.277 125.624C116.417 125.461 116.505 125.261 116.533 125.049L118.402 111.026Z" fill="#92E3A9"/>
<path opacity="0.3" d="M118.402 111.026C118.412 110.951 118.404 110.876 118.38 110.805C118.355 110.734 118.315 110.67 118.262 110.617V110.617C118.206 110.565 118.139 110.526 118.066 110.504C117.992 110.482 117.915 110.477 117.84 110.49V110.49C117.59 110.532 117.357 110.645 117.168 110.814C116.98 110.984 116.843 111.204 116.774 111.448L114.57 119.18L112.56 126.349C112.542 126.412 112.541 126.479 112.558 126.542C112.574 126.606 112.607 126.664 112.654 126.71V126.71C112.7 126.756 112.757 126.788 112.819 126.803C112.882 126.819 112.947 126.817 113.009 126.797L115.749 125.967C115.955 125.906 116.138 125.787 116.277 125.624C116.417 125.461 116.505 125.261 116.533 125.049L118.402 111.026Z" fill="black"/>
<path d="M110.242 112.017L107.763 120.901L108.151 121.277L110.55 112.46L110.242 112.017Z" fill="#92E3A9"/>
<path d="M104.982 107.314L102.51 116.205L102.899 116.58L105.297 107.763L104.982 107.314Z" fill="#92E3A9"/>
<path d="M104.399 98.2287C104.345 98.1795 104.279 98.1431 104.209 98.1223C104.138 98.1014 104.064 98.0966 103.991 98.1081C103.741 98.1506 103.508 98.2632 103.319 98.4328C103.131 98.6024 102.994 98.8221 102.925 99.0662L101.029 105.766C100.92 106.162 100.924 106.582 101.043 106.975C101.161 107.369 101.389 107.721 101.699 107.991L103.16 109.257L113.103 117.92C113.258 118.055 113.445 118.149 113.646 118.193C113.847 118.237 114.056 118.229 114.254 118.17C114.451 118.111 114.63 118.003 114.774 117.857C114.919 117.71 115.024 117.529 115.079 117.33L116.754 111.434C116.823 111.19 116.959 110.971 117.148 110.801C117.337 110.631 117.569 110.519 117.819 110.476C117.895 110.464 117.972 110.468 118.045 110.49C118.119 110.513 118.186 110.551 118.242 110.604L104.399 98.2287Z" fill="#92E3A9"/>
<path opacity="0.2" d="M104.399 98.2287C104.345 98.1795 104.279 98.1431 104.209 98.1223C104.138 98.1014 104.064 98.0966 103.991 98.1081C103.741 98.1506 103.508 98.2632 103.319 98.4328C103.131 98.6024 102.994 98.8221 102.925 99.0662L101.029 105.766C100.92 106.162 100.924 106.582 101.043 106.975C101.161 107.369 101.389 107.721 101.699 107.991L103.16 109.257L113.103 117.92C113.258 118.055 113.445 118.149 113.646 118.193C113.847 118.237 114.056 118.229 114.254 118.17C114.451 118.111 114.63 118.003 114.774 117.857C114.919 117.71 115.024 117.529 115.079 117.33L116.754 111.434C116.823 111.19 116.959 110.971 117.148 110.801C117.337 110.631 117.569 110.519 117.819 110.476C117.895 110.464 117.972 110.468 118.045 110.49C118.119 110.513 118.186 110.551 118.242 110.604L104.399 98.2287Z" fill="white"/>
<path d="M95.81 98.8786L96.2589 105.652C97.217 112.406 98.4632 113.471 101.552 114.362C104.641 115.253 102.832 111.394 102.43 110.677C102.134 110.038 101.924 109.362 101.806 108.667C103.327 110.048 103.716 109.9 104.319 109.478C104.56 109.29 103.421 108.299 103.421 108.299C102.818 107.002 102.033 105.797 101.09 104.721L101.445 98.8652L95.81 98.8786Z" fill="#F28F8F"/>
<path opacity="0.2" d="M95.81 98.8786L96.2589 105.652C97.217 112.406 98.4632 113.471 101.552 114.362C104.641 115.253 102.832 111.394 102.43 110.677C102.134 110.038 101.924 109.362 101.806 108.667C103.327 110.048 103.716 109.9 104.319 109.478C104.56 109.29 103.421 108.299 103.421 108.299C102.818 107.002 102.033 105.797 101.09 104.721L101.445 98.8652L95.81 98.8786Z" fill="black"/>
<path d="M115.91 78.6245C111.562 77.8942 108.701 80.0851 106.718 81.3581C105.284 82.2827 100.018 86.2491 97.217 88.373C96.6628 88.7937 96.216 89.3396 95.9133 89.9661C95.6105 90.5926 95.4603 91.2819 95.475 91.9776L95.6291 99.1399C96.5542 99.6272 97.5916 99.8616 98.6363 99.8192C99.6811 99.7769 100.696 99.4593 101.579 98.8987L102.088 93.6459C102.088 93.6459 108.198 90.6711 112.305 88.8018C116.413 86.9325 116.908 81.6864 115.91 78.6245Z" fill="#455A64"/>
<path opacity="0.1" d="M98.1416 167.808C97.0189 167.431 95.8419 167.241 94.6576 167.245C90.919 167.245 87.8906 168.981 87.8906 171.118C87.8906 173.255 90.919 174.997 94.6576 174.997C95.8426 175.003 97.0201 174.81 98.1416 174.428V167.808Z" fill="black"/>
<path opacity="0.1" d="M262.111 151.628C271.792 157.222 271.839 166.281 262.225 171.875C252.61 177.47 236.959 177.463 227.277 171.875C217.596 166.287 217.542 157.222 227.164 151.628C236.785 146.033 252.429 146.06 262.111 151.628Z" fill="black"/>
<path d="M274.432 88.2993L273.36 87.77C275.772 89.5254 279.919 98.9791 281.467 102.825C281.487 102.875 281.525 102.915 281.574 102.936C281.623 102.957 281.679 102.958 281.728 102.939C281.778 102.919 281.818 102.881 281.839 102.832C281.861 102.783 281.862 102.727 281.842 102.677C281.326 101.391 277.42 91.7163 274.432 88.2993Z" fill="#E0E0E0"/>
<path d="M257.762 154.904L258.72 153.263L257.474 152.472C257.255 152.364 257.011 152.319 256.767 152.34C256.524 152.361 256.291 152.449 256.094 152.593C255.537 152.952 255.073 153.439 254.741 154.014C254.409 154.588 254.218 155.233 254.185 155.896C254.157 156.137 254.199 156.382 254.304 156.601C254.41 156.82 254.575 157.006 254.781 157.135V157.135L256 157.912L257.012 156.184C257.33 155.801 257.583 155.368 257.762 154.904V154.904Z" fill="#37474F"/>
<path d="M257.34 153.376C258.392 152.767 259.257 153.256 259.257 154.475C259.222 155.138 259.031 155.782 258.699 156.356C258.367 156.931 257.904 157.418 257.347 157.778C256.295 158.388 255.431 157.899 255.431 156.686C255.465 156.023 255.656 155.377 255.988 154.802C256.32 154.227 256.783 153.738 257.34 153.376V153.376Z" fill="#455A64"/>
<path d="M236.852 154.435L235.894 152.794L237.14 152.003C237.359 151.895 237.603 151.85 237.847 151.871C238.09 151.892 238.323 151.98 238.52 152.124C239.077 152.484 239.54 152.971 239.872 153.545C240.204 154.12 240.395 154.764 240.43 155.427C240.457 155.668 240.415 155.913 240.31 156.132C240.204 156.351 240.039 156.537 239.833 156.666V156.666L238.614 157.45L237.602 155.721C237.284 155.336 237.03 154.902 236.852 154.435V154.435Z" fill="#37474F"/>
<path d="M237.28 152.914C236.222 152.304 235.358 152.787 235.358 154.006C235.392 154.669 235.583 155.313 235.915 155.887C236.247 156.462 236.71 156.949 237.267 157.309C238.319 157.919 239.183 157.43 239.183 156.217C239.15 155.555 238.96 154.911 238.629 154.337C238.298 153.763 237.836 153.275 237.28 152.914V152.914Z" fill="#455A64"/>
<path d="M243.713 150.368H247.264V156.485C247.25 156.642 247.194 156.793 247.102 156.922C247.01 157.05 246.885 157.152 246.741 157.215C246.352 157.414 245.921 157.517 245.485 157.517C245.048 157.517 244.617 157.414 244.228 157.215C244.085 157.151 243.961 157.049 243.871 156.921C243.78 156.792 243.725 156.642 243.713 156.485V156.485V150.368Z" fill="#EBEBEB"/>
<path d="M256.57 152.083V153.537L247.264 155.889V152.8L256.57 152.083Z" fill="#E0E0E0"/>
<path d="M256.57 152.083L255.92 151.862L247.264 152.318V152.8L256.57 152.083Z" fill="#F5F5F5"/>
<path d="M257.508 165.309L256.543 163.668L257.789 162.877C258.009 162.767 258.254 162.72 258.499 162.74C258.743 162.76 258.978 162.847 259.176 162.991C259.732 163.354 260.195 163.842 260.527 164.417C260.859 164.992 261.05 165.638 261.086 166.301C261.108 166.542 261.064 166.785 260.959 167.003C260.854 167.221 260.691 167.407 260.489 167.54V167.54L259.29 168.324L258.278 166.595C257.952 166.212 257.692 165.777 257.508 165.309V165.309Z" fill="#37474F"/>
<path d="M257.95 163.781C256.891 163.172 256.034 163.661 256.027 164.874C256.066 165.536 256.26 166.179 256.594 166.752C256.928 167.325 257.393 167.811 257.95 168.17C259.009 168.78 259.866 168.291 259.873 167.071C259.833 166.41 259.639 165.768 259.304 165.197C258.97 164.625 258.506 164.14 257.95 163.781V163.781Z" fill="#455A64"/>
<path d="M245.113 169.51L246.071 167.869L244.825 167.078C244.605 166.968 244.36 166.921 244.115 166.941C243.871 166.961 243.636 167.048 243.438 167.192C242.883 167.554 242.421 168.042 242.089 168.616C241.758 169.189 241.565 169.833 241.528 170.495C241.505 170.737 241.548 170.981 241.653 171.201C241.759 171.42 241.921 171.607 242.125 171.741L243.351 172.518L244.362 170.79C244.678 170.405 244.931 169.973 245.113 169.51V169.51Z" fill="#37474F"/>
<path d="M244.684 167.956C245.743 167.346 246.6 167.835 246.607 169.048C246.571 169.71 246.379 170.354 246.047 170.928C245.716 171.502 245.253 171.989 244.697 172.351C243.639 172.961 242.781 172.471 242.775 171.259C242.811 170.597 243.002 169.953 243.334 169.379C243.666 168.805 244.128 168.317 244.684 167.956V167.956Z" fill="#455A64"/>
<path d="M231.673 163.031L232.631 161.39L231.385 160.599C231.166 160.49 230.922 160.444 230.679 160.464C230.435 160.484 230.202 160.57 230.004 160.713C229.448 161.073 228.984 161.561 228.652 162.135C228.32 162.709 228.129 163.354 228.095 164.016C228.072 164.258 228.115 164.502 228.22 164.722C228.325 164.941 228.488 165.128 228.691 165.262L229.911 166.039L230.922 164.311C231.24 163.928 231.494 163.496 231.673 163.031V163.031Z" fill="#37474F"/>
<path d="M231.25 161.51C232.302 160.9 233.167 161.39 233.167 162.602C233.132 163.264 232.941 163.908 232.611 164.482C232.28 165.056 231.819 165.543 231.264 165.905C230.205 166.515 229.341 166.026 229.341 164.813C229.375 164.151 229.566 163.506 229.898 162.932C230.23 162.358 230.694 161.871 231.25 161.51V161.51Z" fill="#455A64"/>
<path d="M258.808 161.751V164.117L246.346 157.383V154.12L258.808 161.751Z" fill="#E0E0E0"/>
<path d="M259.531 161.349L247.063 153.939L246.346 154.12L258.808 161.751L259.531 161.349Z" fill="#F5F5F5"/>
<path d="M259.531 163.708L258.808 164.117V161.751L259.531 161.349V163.708Z" fill="#F0F0F0"/>
<path d="M245.508 154.12L243.987 166.167V168.324L245.508 157.517V154.12Z" fill="#E0E0E0"/>
<path d="M243.987 166.173H243.11V168.324H243.987V166.173Z" fill="#F0F0F0"/>
<path d="M243.11 166.167L244.49 154.12H245.508L243.987 166.167H243.11Z" fill="#F5F5F5"/>
<path d="M230.755 159.493V161.751L243.713 156.485V153.718L230.755 159.493Z" fill="#E0E0E0"/>
<path d="M230.252 161.416L230.755 161.751V159.494L230.252 159.165V161.416Z" fill="#F0F0F0"/>
<path d="M232.296 158.803L230.755 159.493L230.252 159.165L243.713 153.102V153.718L232.296 158.803Z" fill="#F5F5F5"/>
<path d="M237.153 150.85V152.331L240.932 154.355L243.713 153.102V152.492L237.153 150.85Z" fill="#E0E0E0"/>
<path d="M237.153 150.851L237.455 150.73L243.713 152.083V152.492L237.153 150.851Z" fill="#F5F5F5"/>
<path d="M242.58 139.454H248.396V149.504C248.368 149.76 248.273 150.004 248.122 150.212C247.97 150.42 247.767 150.585 247.532 150.69C246.895 151.013 246.192 151.182 245.478 151.182C244.764 151.182 244.061 151.013 243.424 150.69C243.191 150.583 242.99 150.417 242.842 150.207C242.693 149.998 242.603 149.753 242.58 149.497V149.497V139.454Z" fill="#E0E0E0"/>
<path d="M280.06 94.1819C279.705 94.1887 279.351 94.1343 279.015 94.0211L278.613 93.9005L278.928 92.7414L278.137 91.79C277.554 91.598 276.956 91.459 276.348 91.3746C274.506 91.1267 272.462 91.5488 271.203 92.9223C269.943 94.2958 269.708 96.1919 269.655 98.0009C269.561 101.11 269.943 104.205 270.131 107.314C270.425 110.42 270.184 113.554 269.42 116.58C268.543 119.561 266.74 122.375 263.993 123.876C262.91 124.447 261.753 124.869 260.556 125.129L251.056 117.625L237.957 113.505L220.798 122.308C220.351 122.571 219.972 122.936 219.693 123.374C218.353 125.384 218.588 129.015 220.946 130.362L244.63 142.938C245.414 143.354 246.286 143.576 247.173 143.585C248.06 143.594 248.937 143.391 249.729 142.991L266.318 134.59C267.368 134.057 268.295 133.31 269.038 132.397C269.781 131.485 270.325 130.426 270.633 129.29L280.134 94.1953L280.06 94.1819Z" fill="#37474F"/>
<path d="M220.798 122.288L237.957 113.485L251.056 117.605L260.556 125.109C259.819 125.29 259.069 125.437 258.332 125.585C256.365 125.87 254.464 126.501 252.717 127.447C251.029 128.486 249.669 130.261 249.655 132.245L250.258 136.935L249.729 137.196C248.938 137.598 248.061 137.804 247.174 137.795C246.287 137.787 245.414 137.566 244.63 137.149L220.946 124.573C220.441 124.279 220.012 123.87 219.693 123.38C219.969 122.933 220.348 122.559 220.798 122.288V122.288Z" fill="#455A64"/>
<path opacity="0.1" d="M220.798 122.288L237.957 113.485L251.056 117.605L260.556 125.109C259.819 125.29 259.069 125.437 258.332 125.585C256.365 125.87 254.464 126.501 252.717 127.447C251.029 128.486 249.669 130.261 249.655 132.245L250.258 136.935L249.729 137.196C248.938 137.598 248.061 137.804 247.174 137.795C246.287 137.787 245.414 137.566 244.63 137.149L220.946 124.573C220.441 124.279 220.012 123.87 219.693 123.38C219.969 122.933 220.348 122.559 220.798 122.288V122.288Z" fill="black"/>
<path d="M223.291 107.568C223.291 107.568 237.066 111.588 240.711 108.044C245.247 103.595 243.344 92.3796 242.808 87.9911C242.272 83.6026 242.808 80.5608 244.021 79.2811C245.233 78.0014 246.995 76.1053 252.731 78.4704C246.962 81.4385 248.711 96.6341 250.513 102.302C245.99 106.952 243.813 113.096 243.739 116.446C243.739 116.446 231.967 119.32 225.823 122.69L223.291 107.568Z" fill="#455A64"/>
<path opacity="0.1" d="M223.291 107.568C223.291 107.568 237.066 111.588 240.711 108.044C245.247 103.595 243.344 92.3796 242.808 87.9911C242.272 83.6026 242.808 80.5608 244.021 79.2811C245.233 78.0014 246.995 76.1053 252.731 78.4704C246.962 81.4385 247.719 96.6341 249.542 102.302C245.019 106.952 243.826 113.096 243.739 116.446C243.739 116.446 231.967 119.32 225.823 122.69L223.291 107.568Z" fill="white"/>
<path d="M225.79 122.69L222.969 121.169C222.969 113.424 221.83 114.188 219.693 111.119C217.556 108.051 220.832 106.195 223.291 107.542C225.75 108.888 226.755 112.982 225.79 122.69Z" fill="#455A64"/>
<path opacity="0.2" d="M225.79 122.69L222.969 121.169C222.969 113.424 221.83 114.188 219.693 111.119C217.556 108.051 220.832 106.195 223.291 107.542C225.75 108.888 226.755 112.982 225.79 122.69Z" fill="white"/>
<path d="M252.697 78.4704C252.697 78.4704 268.107 85.1704 275.638 88.8688L275.089 91.6091L250.48 80.4335C251.06 79.6194 251.819 78.9481 252.697 78.4704V78.4704Z" fill="#455A64"/>
<path opacity="0.1" d="M252.697 78.4704C252.697 78.4704 268.107 85.1704 275.638 88.8688L275.089 91.6091L250.48 80.4335C251.06 79.6194 251.819 78.9481 252.697 78.4704V78.4704Z" fill="white"/>
<path d="M248.007 101.23C246.446 96.3862 246.768 85.3982 250.48 80.4603L275.089 91.6359L269.467 119.823L260.556 125.136L243.706 116.446C243.793 113.096 243.485 105.86 248.007 101.23Z" fill="#455A64"/>
<path d="M263.236 106.878C262.821 106.637 262.479 106.832 262.479 107.314C262.492 107.574 262.567 107.828 262.698 108.054C262.828 108.28 263.011 108.472 263.23 108.614C263.645 108.855 263.987 108.667 263.987 108.185C263.974 107.923 263.9 107.668 263.77 107.441C263.639 107.214 263.456 107.021 263.236 106.878V106.878Z" fill="#455A64"/>
<path d="M259.431 104.641C259.009 104.399 258.674 104.594 258.667 105.076C258.683 105.337 258.759 105.59 258.891 105.816C259.022 106.042 259.205 106.234 259.424 106.376C259.839 106.617 260.181 106.429 260.181 105.947C260.167 105.686 260.092 105.431 259.962 105.204C259.831 104.977 259.649 104.784 259.431 104.641V104.641Z" fill="#455A64"/>
<path d="M255.618 102.403C255.203 102.162 254.861 102.356 254.861 102.838C254.876 103.099 254.951 103.352 255.081 103.578C255.212 103.804 255.393 103.996 255.612 104.138C256.034 104.379 256.369 104.192 256.375 103.709C256.36 103.447 256.284 103.193 256.153 102.966C256.021 102.739 255.838 102.546 255.618 102.403Z" fill="#455A64"/>
<path d="M251.813 100.165C251.391 99.9238 251.056 100.118 251.056 100.6C251.069 100.861 251.144 101.115 251.274 101.341C251.405 101.567 251.587 101.758 251.806 101.9C252.221 102.141 252.563 101.954 252.563 101.471C252.549 101.21 252.474 100.956 252.344 100.729C252.214 100.502 252.032 100.309 251.813 100.165V100.165Z" fill="#455A64"/>
<g opacity="0.2">
<path opacity="0.2" d="M263.236 106.878C262.821 106.637 262.479 106.832 262.479 107.314C262.492 107.574 262.567 107.828 262.698 108.054C262.828 108.28 263.011 108.472 263.23 108.614C263.645 108.855 263.987 108.667 263.987 108.185C263.974 107.923 263.9 107.668 263.77 107.441C263.639 107.214 263.456 107.021 263.236 106.878V106.878Z" fill="white"/>
<path opacity="0.2" d="M259.431 104.641C259.009 104.399 258.674 104.594 258.667 105.076C258.683 105.337 258.759 105.59 258.891 105.816C259.022 106.042 259.205 106.234 259.424 106.376C259.839 106.617 260.181 106.429 260.181 105.947C260.167 105.686 260.092 105.431 259.962 105.204C259.831 104.977 259.649 104.784 259.431 104.641V104.641Z" fill="white"/>
<path opacity="0.2" d="M255.618 102.403C255.203 102.162 254.861 102.356 254.861 102.838C254.876 103.099 254.951 103.352 255.081 103.578C255.212 103.804 255.393 103.996 255.612 104.138C256.034 104.379 256.369 104.192 256.375 103.709C256.36 103.447 256.284 103.193 256.153 102.966C256.021 102.739 255.838 102.546 255.618 102.403Z" fill="white"/>
<path opacity="0.2" d="M251.813 100.165C251.391 99.9238 251.056 100.118 251.056 100.6C251.069 100.861 251.144 101.115 251.274 101.341C251.405 101.567 251.587 101.758 251.806 101.9C252.221 102.141 252.563 101.954 252.563 101.471C252.549 101.21 252.474 100.956 252.344 100.729C252.214 100.502 252.032 100.309 251.813 100.165V100.165Z" fill="white"/>
</g>
<path d="M252.717 127.447C254.464 126.501 256.365 125.87 258.332 125.585C259.069 125.437 259.819 125.29 260.556 125.109C261.753 124.849 262.91 124.427 263.993 123.856C266.714 122.355 268.543 119.541 269.42 116.56C270.183 113.539 270.423 110.409 270.131 107.307C269.943 104.198 269.561 101.103 269.655 97.9942C269.708 96.1852 269.983 94.2489 271.203 92.9156C272.422 91.5823 274.506 91.12 276.348 91.3679C276.956 91.4523 277.555 91.5913 278.137 91.7833L278.954 92.7414L278.64 93.9005L270.633 123.468C270.078 125.521 268.763 127.286 266.955 128.405C266.747 128.533 266.539 128.66 266.318 128.767L250.238 136.908L249.635 132.218C249.669 130.261 251.029 128.486 252.717 127.447Z" fill="#37474F"/>
<path d="M252.697 124.265C258.573 122.59 264.342 122.375 266.472 118.154C268.603 113.933 268.75 108.104 267.685 97.9808C267.553 96.6755 267.585 95.3588 267.779 94.0613C268.409 90.2758 270.687 88.6544 273.306 88.6142C275.9 88.569 278.413 89.5129 280.335 91.254C280.708 91.5654 281.005 91.957 281.206 92.3997C281.299 92.6179 281.333 92.8569 281.303 93.0923C281.274 93.3278 281.182 93.5512 281.038 93.7397C280.8 93.9867 280.476 94.133 280.134 94.1484H280.06C279.705 94.1551 279.351 94.1008 279.015 93.9876L278.613 93.867C277.896 93.6392 277.186 93.3712 276.455 93.197C275.581 92.939 274.65 92.939 273.775 93.197C273.364 93.3587 272.997 93.6144 272.703 93.9437C272.408 94.273 272.195 94.6666 272.08 95.0931C269.601 103.187 272.75 111.883 269.956 118.543C267.678 124.62 259.799 127.146 254.245 128.948C254.786 128.735 255.264 128.387 255.632 127.936C255.909 127.508 256.037 127.001 255.997 126.492C255.957 125.984 255.751 125.502 255.411 125.122C255.062 124.77 254.633 124.508 254.16 124.358C253.687 124.209 253.185 124.177 252.697 124.265V124.265Z" fill="#455A64"/>
<path opacity="0.1" d="M252.697 124.265C258.573 122.59 264.342 122.375 266.472 118.154C268.603 113.933 268.75 108.104 267.685 97.9808C267.553 96.6755 267.585 95.3588 267.779 94.0613C268.409 90.2758 270.687 88.6544 273.306 88.6142C275.9 88.569 278.413 89.5129 280.335 91.254C280.708 91.5654 281.005 91.957 281.206 92.3997C281.299 92.6179 281.333 92.8569 281.303 93.0923C281.274 93.3278 281.182 93.5512 281.038 93.7397C280.8 93.9867 280.476 94.133 280.134 94.1484H280.06C279.705 94.1551 279.351 94.1008 279.015 93.9876L278.613 93.867C277.896 93.6392 277.186 93.3712 276.455 93.197C275.581 92.939 274.65 92.939 273.775 93.197C273.364 93.3587 272.997 93.6144 272.703 93.9437C272.408 94.273 272.195 94.6666 272.08 95.0931C269.601 103.187 272.75 111.883 269.956 118.543C267.678 124.62 259.799 127.146 254.245 128.948C254.786 128.735 255.264 128.387 255.632 127.936C255.909 127.508 256.037 127.001 255.997 126.492C255.957 125.984 255.751 125.502 255.411 125.122C255.062 124.77 254.633 124.508 254.16 124.358C253.687 124.209 253.185 124.177 252.697 124.265V124.265Z" fill="white"/>
<path d="M248.624 128.426C248.967 127.467 249.475 126.577 250.124 125.792C250.782 125.004 251.69 124.465 252.697 124.265C253.198 124.172 253.715 124.207 254.199 124.365C254.683 124.523 255.121 124.799 255.471 125.169C255.811 125.549 256.018 126.03 256.057 126.539C256.097 127.047 255.969 127.555 255.692 127.983C255.324 128.434 254.846 128.782 254.305 128.995C253.862 129.182 253.43 129.394 253.012 129.632C251.915 130.372 251.127 131.487 250.794 132.767C250.465 134.037 250.291 135.342 250.278 136.653V136.908L247.525 135.38C247.398 133.01 247.772 130.641 248.624 128.426V128.426Z" fill="#455A64"/>
<path opacity="0.2" d="M248.624 128.426C248.967 127.467 249.475 126.577 250.124 125.792C250.782 125.004 251.69 124.465 252.697 124.265C253.198 124.172 253.715 124.207 254.199 124.365C254.683 124.523 255.121 124.799 255.471 125.169C255.811 125.549 256.018 126.03 256.057 126.539C256.097 127.047 255.969 127.555 255.692 127.983C255.324 128.434 254.846 128.782 254.305 128.995C253.862 129.182 253.43 129.394 253.012 129.632C251.915 130.372 251.127 131.487 250.794 132.767C250.465 134.037 250.291 135.342 250.278 136.653V136.908L247.525 135.38C247.398 133.01 247.772 130.641 248.624 128.426V128.426Z" fill="white"/>
<path d="M285.855 101.465L285.413 100.982L259.076 111.622L261.528 120.499L261.97 120.975L288.301 110.342L285.855 101.465Z" fill="#92E3A9"/>
<path opacity="0.2" d="M259.076 111.622L261.528 120.5L261.97 120.975L259.518 112.104L259.076 111.622Z" fill="black"/>
<path opacity="0.2" d="M285.855 101.465L285.413 100.982L259.076 111.622L259.518 112.104L285.855 101.465Z" fill="white"/>
<path d="M273.246 113.585L272.208 109.813C272.194 109.762 272.169 109.715 272.134 109.676C272.099 109.636 272.055 109.605 272.007 109.585V109.585H271.94H271.866C271.817 109.579 271.767 109.579 271.718 109.585C271.661 109.604 271.608 109.636 271.564 109.679V109.679C271.52 109.716 271.484 109.762 271.457 109.813V109.813C271.441 109.848 271.427 109.883 271.417 109.92C271.415 109.938 271.415 109.956 271.417 109.974C271.403 110.029 271.403 110.086 271.417 110.141L271.832 111.649L269.487 112.56L269.072 111.052C269.056 110.989 269.021 110.931 268.972 110.887C268.923 110.843 268.862 110.814 268.797 110.805H268.67C268.621 110.795 268.571 110.795 268.523 110.805C268.465 110.83 268.41 110.864 268.362 110.905C268.319 110.943 268.282 110.989 268.255 111.039V111.039C268.238 111.074 268.225 111.109 268.214 111.146C268.214 111.146 268.214 111.186 268.214 111.2C268.204 111.255 268.204 111.312 268.214 111.367L269.26 115.139C269.273 115.191 269.298 115.239 269.333 115.28C269.355 115.3 269.38 115.315 269.407 115.327C269.42 115.33 269.434 115.33 269.447 115.327C269.447 115.327 269.447 115.327 269.447 115.327C269.48 115.334 269.515 115.334 269.548 115.327H269.608C269.668 115.326 269.728 115.312 269.782 115.287C269.893 115.247 269.985 115.169 270.043 115.067C270.101 114.965 270.12 114.846 270.097 114.731L269.675 113.196L271.96 112.272L272.382 113.806C272.41 113.894 272.47 113.968 272.549 114.014C272.549 114.014 272.549 114.014 272.583 114.014C272.616 114.021 272.65 114.021 272.683 114.014H272.737C272.768 114.018 272.8 114.018 272.831 114.014H272.911C273.003 113.983 273.083 113.926 273.143 113.85C273.202 113.773 273.238 113.681 273.246 113.585V113.585Z" fill="white"/>
<path d="M268.194 115.126C268.179 115.08 268.155 115.038 268.123 115.002C268.09 114.966 268.051 114.938 268.007 114.918H267.873C267.833 114.912 267.792 114.912 267.752 114.918C267.704 114.939 267.659 114.966 267.618 114.999V114.999C267.583 115.031 267.552 115.067 267.524 115.106L267.451 115.206C267.416 115.261 267.378 115.312 267.337 115.361L267.303 115.407L267.169 115.541C267.146 115.574 267.119 115.603 267.089 115.629V115.629C267.055 115.662 267.008 115.689 266.968 115.722L266.841 115.816L266.693 115.89L266.506 115.984L266.292 116.051H266.238H266.178C265.816 116.131 265.438 116.066 265.124 115.869C264.811 115.672 264.587 115.359 264.503 114.999V114.999C264.445 114.78 264.429 114.553 264.456 114.329V114.329C264.468 114.22 264.49 114.112 264.523 114.007C264.52 113.98 264.52 113.954 264.523 113.927C264.549 113.846 264.583 113.767 264.623 113.692C264.666 113.606 264.715 113.523 264.771 113.444L264.804 113.404C264.864 113.324 264.931 113.25 265.005 113.183L265.079 113.129C265.236 112.993 265.415 112.884 265.608 112.808C266.005 112.639 266.45 112.618 266.861 112.748C266.95 112.775 267.046 112.775 267.136 112.748C267.247 112.709 267.34 112.632 267.398 112.529C267.456 112.427 267.475 112.307 267.451 112.191C267.431 112.13 267.396 112.075 267.35 112.031C267.311 111.997 267.265 111.972 267.216 111.957V111.957C267.154 111.94 267.092 111.927 267.028 111.917H266.895H266.794C266.669 111.903 266.544 111.903 266.419 111.917C266.249 111.925 266.08 111.952 265.916 111.997C265.751 112.038 265.59 112.091 265.434 112.158C265.256 112.225 265.085 112.311 264.925 112.413C264.78 112.506 264.641 112.609 264.509 112.721C264.512 112.732 264.512 112.743 264.509 112.754C264.395 112.862 264.288 112.976 264.188 113.096L264.141 113.156C264.046 113.279 263.961 113.409 263.886 113.545C263.839 113.625 263.813 113.719 263.772 113.799C263.732 113.88 263.712 113.94 263.685 114.007C263.661 114.088 263.643 114.171 263.632 114.255C263.607 114.332 263.589 114.41 263.578 114.49C263.571 114.599 263.571 114.709 263.578 114.818C263.575 114.871 263.575 114.925 263.578 114.979C263.585 115.142 263.612 115.304 263.658 115.461V115.461C263.706 115.623 263.769 115.78 263.846 115.93C263.873 115.975 263.905 116.018 263.94 116.057C263.992 116.15 264.053 116.237 264.121 116.319C264.176 116.376 264.234 116.429 264.295 116.479L264.402 116.58L264.476 116.634H264.529C264.602 116.682 264.678 116.725 264.757 116.761L264.811 116.794C265.118 116.918 265.448 116.979 265.779 116.973C266.11 116.967 266.437 116.895 266.74 116.761C267.404 116.508 267.96 116.035 268.315 115.421C268.315 115.366 268.305 115.312 268.284 115.261C268.263 115.211 268.233 115.165 268.194 115.126V115.126Z" fill="white"/>
<path d="M275.37 112.727L274.332 108.955C274.315 108.897 274.283 108.844 274.24 108.802C274.196 108.76 274.142 108.729 274.084 108.714C274.052 108.711 274.021 108.711 273.99 108.714H273.95C273.903 108.705 273.855 108.705 273.809 108.714C273.751 108.74 273.697 108.774 273.648 108.815C273.607 108.855 273.571 108.9 273.541 108.949V108.949C273.524 108.983 273.51 109.019 273.501 109.056C273.498 109.074 273.498 109.092 273.501 109.109C273.487 109.165 273.487 109.222 273.501 109.277L274.539 113.042C274.559 113.114 274.602 113.178 274.661 113.224C274.72 113.27 274.793 113.295 274.868 113.297H274.901C274.961 113.293 275.02 113.279 275.075 113.257C275.177 113.216 275.262 113.14 275.316 113.044C275.37 112.948 275.389 112.836 275.37 112.727V112.727Z" fill="white"/>
<path d="M277.179 112.399L278.09 112.037L280.006 111.26C280.105 111.221 280.186 111.149 280.237 111.056C280.287 110.963 280.303 110.855 280.281 110.751C280.26 110.683 280.217 110.623 280.159 110.582C280.101 110.541 280.031 110.52 279.959 110.523C279.913 110.514 279.865 110.514 279.819 110.523L277.407 111.501L277.078 110.295L279.142 109.465C279.24 109.426 279.321 109.355 279.372 109.263C279.424 109.172 279.442 109.065 279.423 108.962C279.411 108.915 279.389 108.871 279.358 108.834C279.326 108.797 279.287 108.767 279.243 108.748H279.176H279.102C279.055 108.742 279.008 108.742 278.961 108.748V108.748L276.898 109.579L276.576 108.413L278.948 107.455C278.999 107.434 279.047 107.404 279.088 107.368C279.148 107.318 279.193 107.253 279.219 107.18C279.245 107.107 279.25 107.028 279.236 106.952V106.952C279.223 106.92 279.205 106.891 279.182 106.865C279.153 106.831 279.116 106.804 279.075 106.785V106.785H278.948C278.897 106.787 278.847 106.798 278.8 106.818L276.013 107.944C275.955 107.969 275.901 108.003 275.852 108.044C275.809 108.082 275.773 108.128 275.745 108.178C275.727 108.211 275.716 108.248 275.712 108.285V108.339C275.699 108.394 275.699 108.451 275.712 108.507L276.73 112.205C276.746 112.259 276.773 112.31 276.81 112.352V112.352H276.844L276.911 112.399H276.958H277.052H277.145H277.179Z" fill="white"/>
<path d="M283.725 106.952C283.677 106.957 283.629 106.968 283.584 106.986V106.986L281.514 107.823L281.172 106.59L283.551 105.632C283.652 105.596 283.736 105.524 283.789 105.431C283.842 105.338 283.86 105.228 283.839 105.123C283.827 105.076 283.804 105.032 283.773 104.995C283.742 104.958 283.702 104.928 283.658 104.909C283.616 104.902 283.573 104.902 283.531 104.909V104.909C283.482 104.913 283.435 104.925 283.39 104.942V104.942L280.589 106.074C280.531 106.093 280.479 106.125 280.435 106.168V106.168C280.393 106.204 280.356 106.247 280.328 106.295V106.295C280.311 106.327 280.3 106.361 280.295 106.396C280.292 106.416 280.292 106.436 280.295 106.456C280.288 106.503 280.288 106.55 280.295 106.597V106.597L281.326 110.336C281.34 110.389 281.368 110.438 281.407 110.476V110.476H281.447C281.466 110.494 281.486 110.509 281.507 110.523V110.523C281.547 110.531 281.588 110.531 281.628 110.523H281.708H281.768H281.829L281.889 110.483H281.929H281.963C282.029 110.428 282.078 110.355 282.106 110.274C282.133 110.192 282.137 110.104 282.117 110.021L281.715 108.553L283.778 107.716C283.882 107.681 283.97 107.609 284.026 107.514C284.081 107.419 284.1 107.308 284.08 107.2C284.061 107.123 284.014 107.055 283.949 107.009C283.884 106.964 283.804 106.943 283.725 106.952V106.952Z" fill="white"/>
<path d="M272.69 87.1H272.65C272.471 87.1108 272.294 87.1378 272.12 87.1804C268.643 88.0648 265.347 96.1048 262.6 110.382C262.595 110.408 262.595 110.435 262.601 110.461C262.606 110.487 262.617 110.511 262.632 110.533C262.647 110.555 262.666 110.573 262.688 110.588C262.71 110.602 262.735 110.612 262.761 110.617H262.801C262.848 110.616 262.894 110.599 262.931 110.569C262.968 110.538 262.993 110.496 263.002 110.449C264.623 102.007 268.06 87.7097 272.67 87.4953H272.811C273.016 87.542 273.208 87.6336 273.373 87.7633L274.439 88.2725C273.782 87.5489 273.179 87.1 272.69 87.1Z" fill="#E6E6E6"/>
</svg>
