<svg width="74" height="79" viewBox="0 0 74 79" fill="none" xmlns="http://www.w3.org/2000/svg">
<path d="M47.9479 30.5847C49.4699 31.2596 51.1635 31.4464 52.7959 31.1194C54.4284 30.7923 55.9193 29.9675 57.0638 28.7584C61.8962 24.526 62.8723 18.2038 56.7466 15.1578C50.6209 12.1117 49.426 17.6795 46.2144 12.1736C43.0028 6.66768 35.8812 4.30889 31.2014 7.25991C26.5216 10.2109 28.8451 11.5709 25.4513 13.7505C22.0575 15.9301 16.2572 14.0059 12.8243 20.2438C9.39138 26.4817 11.9944 38.2032 12.401 43.7259C12.8076 49.2486 18.05 49.3216 21.9665 47.7872C25.883 46.2529 26.8075 36.7165 29.3738 33.0574C31.9401 29.3984 47.9479 30.5847 47.9479 30.5847Z" fill="#263238" stroke="#263238" stroke-linecap="round" stroke-linejoin="round"/>
<path d="M14.9328 51.442C14.9328 51.442 17.6677 59.4976 19.9917 61.6543C22.3158 63.811 32.0369 74.2647 34.3192 73.6027C36.7465 73.078 39.0622 72.1295 41.1601 70.8007C42.4362 69.6337 46.1133 60.1167 47.8858 52.3474C49.6583 44.5781 48.0254 30.5622 48.0254 30.5622C48.0254 30.5622 26.961 24.5939 26.4844 27.1436C26.0077 29.6932 27.3651 32.9271 25.6149 33.8332C23.8647 34.7393 19.8958 36.3098 19.8958 36.3098C19.8958 36.3098 22.5074 41.1929 21.3378 42.7274C20.1683 44.2618 15.8152 43.134 15.8152 43.134C15.8152 43.134 11.5024 45.1818 14.9328 51.442Z" fill="white" stroke="#263238" stroke-linecap="round" stroke-linejoin="round"/>
<path d="M18.5653 45.964C18.5653 45.964 15.3507 37.6282 12.0046 38.5987C8.65849 39.5693 7.9432 48.1643 10.7874 51.0298C13.6315 53.8954 18.7506 53.5429 18.7506 53.5429" fill="white"/>
<path d="M18.5653 45.964C18.5653 45.964 15.3507 37.6282 12.0046 38.5987C8.65849 39.5693 7.9432 48.1643 10.7874 51.0298C13.6315 53.8954 18.7506 53.5429 18.7506 53.5429" stroke="#263238" stroke-linecap="round" stroke-linejoin="round"/>
</svg>
